<svg xmlns="http://www.w3.org/2000/svg" viewBox="0 0 650.83 397.22"><defs><style>.cls-1,.cls-2{fill:#e0e0e0;}.cls-1{fill-rule:evenodd;}.cls-3{fill:none;}.cls-4{fill:#ebebeb;}.cls-5{fill:#263238;}.cls-6{fill:#e8505b;}.cls-7{fill:#fff;}.cls-8{opacity:0.2;}.cls-9{fill:#fafafa;}.cls-10{fill:#455a64;}.cls-11{fill:#ffbe9d;}.cls-12{fill:#eb996e;}.cls-13{opacity:0.3;}.cls-14{opacity:0.4;}.cls-15{fill:#b78876;}.cls-16{fill:#aa6550;}</style></defs><g id="Layer_2" data-name="Layer 2"><g id="Background_Complete" data-name="Background Complete"><path class="cls-1" d="M588.19,69.76a51.76,51.76,0,0,1,11.14,7.85l11.91-4.24L622.43,91l-8.92,9a51.11,51.11,0,0,1,2.34,13.43l11.42,5.42-4.58,20.4-12.64,0a50.83,50.83,0,0,1-7.85,11.14l4.24,11.91-17.66,11.19-9-8.91a51.59,51.59,0,0,1-13.43,2.33L561,178.36l-20.41-4.58,0-12.64a50.89,50.89,0,0,1-11.15-7.85l-11.91,4.24-11.19-17.66,8.92-9a51.11,51.11,0,0,1-2.34-13.43l-11.41-5.42L506,91.66l12.63,0a51.23,51.23,0,0,1,7.85-11.15l-4.24-11.91L540,57.38l8.95,8.92A51.67,51.67,0,0,1,562.34,64l5.41-11.41,20.41,4.58,0,12.63Zm-18,24a22.43,22.43,0,1,0,17,26.8A22.43,22.43,0,0,0,570.2,93.77Z"/><path class="cls-2" d="M476,30.71a12.29,12.29,0,0,1,3.91,1.23,16.5,16.5,0,0,1,7.81,7.89,16.79,16.79,0,0,1-1,16.18,16.85,16.85,0,0,1-7.49,6.44,16.92,16.92,0,0,1-19.64-4.4,16.86,16.86,0,0,1-4-9,16.91,16.91,0,0,1,1.28-8.86,16.63,16.63,0,0,1,4.7-6.22,16.45,16.45,0,0,1,10.42-3.8,12.63,12.63,0,0,1,4.07.56c0,.12-1.45-.29-4.06-.19a16.46,16.46,0,0,0-10,3.95,16.11,16.11,0,0,0-4.41,6,16.3,16.3,0,0,0-1.14,8.43,15.28,15.28,0,0,0,1.26,4.46,15.46,15.46,0,0,0,2.6,4.07,16,16,0,0,0,18.57,4.16,16.34,16.34,0,0,0,7.13-6.06,16.28,16.28,0,0,0,2.57-8.11,16.11,16.11,0,0,0-1.42-7.32,16.49,16.49,0,0,0-7.35-7.84C477.38,31.07,475.91,30.82,476,30.71Z"/><path class="cls-2" d="M489.23,13a2.89,2.89,0,0,1,0-.58c0-.43,0-1,0-1.76q0-2.43-.1-7l.12.14L474.09.51l.27-.13-4,8.44-.07.15h-.17a38.17,38.17,0,0,0-9.83,1.75l-.18,0-.13-.13-6.64-6.56.42,0-13,8.29.16-.44,3.14,8.79.08.22-.16.18a37.43,37.43,0,0,0-5.72,8.15l-.11.22h-.25l-9.33,0,.41-.33c-1.05,4.73-2.19,9.84-3.36,15.07l-.24-.5,8.43,4,.25.12v.27a37.75,37.75,0,0,0,1.71,9.8l.08.26-.19.2-6.58,6.62.06-.58,8.27,13-.56-.19,8.79-3.14.27-.09.21.19A37.39,37.39,0,0,0,454.26,80h0c.11.18-.26-.42.25.42h0v4.65c0,1.56,0,3.11,0,4.65l-.37-.46,15.07,3.38-.53.26q2-4.24,4-8.42l.12-.26h.29a37.28,37.28,0,0,0,9.79-1.7l.27-.08.19.2L490,89.26l-.56-.06L502.47,81l-.18.52-3.12-8.79-.09-.25.18-.19A37.73,37.73,0,0,0,505,64.12l.11-.23h9.58l-.39.31,3.41-15.06.2.41-8.41-4-.19-.09v-.21a37.68,37.68,0,0,0-1.68-9.83l-.06-.18.13-.14,6.61-6.59,0,.35c-3.18-5.06-5.89-9.38-8.2-13.08l.25.09-8.81,3.07-.09,0-.07-.06a39.21,39.21,0,0,0-6-4.61l-1.6-1a3.08,3.08,0,0,1-.53-.33l.57.26c.36.19.92.48,1.64.9a37,37,0,0,1,6.12,4.53l-.16,0,8.77-3.19.16-.06.1.15,8.31,13,.13.19-.16.16-6.56,6.63.07-.31a38,38,0,0,1,1.77,10l-.19-.3,8.43,4,.27.13-.07.28-3.35,15.07-.07.31h-.31l-9.33,0,.36-.22a38.39,38.39,0,0,1-5.84,8.32l.08-.43q1.54,4.32,3.14,8.79l.12.33-.29.18-13,8.28-.31.19-.26-.25-6.61-6.58.46.11a37.88,37.88,0,0,1-10,1.75l.4-.26c-1.31,2.78-2.65,5.59-4,8.43l-.16.34-.37-.09L454,90.24l-.37-.08v-.38c0-1.55,0-3.1,0-4.65V80.46h0c.51.84.14.23.26.42h0A38.15,38.15,0,0,1,445.5,75l.48.1-8.79,3.13-.36.12-.2-.32-8.26-13-.2-.32.27-.26L435,57.8l-.12.47a38.87,38.87,0,0,1-1.74-10l.26.39-8.42-4-.32-.15.08-.35,3.4-15.06.07-.33h9.66l-.36.22a38.45,38.45,0,0,1,5.88-8.31l-.09.4c-1.08-3.07-2.15-6.07-3.11-8.8l-.1-.28.25-.16,13.06-8.23.23-.15.19.2c2.32,2.31,4.54,4.54,6.6,6.6l-.32-.08a38.5,38.5,0,0,1,10-1.71l-.24.16c1.45-3,2.81-5.86,4-8.4L474,0l.19,0,15,3.47.12,0v.12q0,4.5-.07,6.92c0,.76,0,1.35,0,1.78A4.9,4.9,0,0,1,489.23,13Z"/><path class="cls-3" d="M83.75,233.13A26,26,0,0,1,88.68,238l6.3-1.15,4.16,9.75L94,250.32a26.18,26.18,0,0,1,.08,6.91l5.27,3.64-4,9.83-6.32-1a25.66,25.66,0,0,1-4.83,4.93l1.15,6.31-9.75,4.16-3.75-5.19a26.19,26.19,0,0,1-6.91.07l-3.64,5.27-9.84-3.95,1-6.32a26.05,26.05,0,0,1-4.94-4.84l-6.3,1.15-4.16-9.75,5.19-3.75a26.18,26.18,0,0,1-.08-6.91l-5.26-3.64,3.95-9.84,6.32,1A26,26,0,0,1,52,233.47l-1.15-6.3L60.62,223l3.76,5.19a25.76,25.76,0,0,1,6.91-.07l3.64-5.27,9.83,3.95-1,6.32Zm-11,10.55a11.37,11.37,0,1,0,6.31,14.79A11.37,11.37,0,0,0,72.79,243.68Z"/><path class="cls-2" d="M72.79,243.68a8.46,8.46,0,0,1,2.52,1.26A11.5,11.5,0,0,1,80,256.5a11.64,11.64,0,0,1-2.72,5.5,11,11,0,0,1-2.57,2.16,10.89,10.89,0,0,1-3.22,1.38,11.61,11.61,0,0,1-12.82-5.15,11.67,11.67,0,0,1-1.73-6.56,11.5,11.5,0,0,1,5.71-9.55,11.33,11.33,0,0,1,7.49-1.43,8.58,8.58,0,0,1,2.69.83,27.81,27.81,0,0,0-2.72-.58,11.27,11.27,0,0,0-10.87,5.16,11.15,11.15,0,0,0-1.7,5.59,11,11,0,0,0,1.68,6.2,11,11,0,0,0,12.12,4.87,10.46,10.46,0,0,0,3-1.29,10,10,0,0,0,2.44-2,11.11,11.11,0,0,0,2.49-10.32,11.33,11.33,0,0,0-4.12-6.13A26.71,26.71,0,0,0,72.79,243.68Z"/><path class="cls-2" d="M83.75,233.13a1.68,1.68,0,0,1,0-.39l.16-1.21c.17-1.1.4-2.68.71-4.74l.06.12L74.86,223l.2-.06-3.62,5.29-.06.09h-.12a25.88,25.88,0,0,0-6.85.09l-.13,0-.08-.1c-1.17-1.62-2.44-3.36-3.77-5.18l.28.08L51,227.41l.15-.28c.36,2,.75,4.09,1.16,6.29l0,.17-.13.1a25.85,25.85,0,0,0-4.78,4.89l-.1.13-.17,0-6.32-1,.32-.18c-1.24,3.09-2.57,6.43-3.94,9.84l-.11-.36,5.27,3.63.15.11,0,.19a26.05,26.05,0,0,0,.08,6.82l0,.19-.16.11-5.19,3.76.11-.38c1.32,3.08,2.73,6.39,4.17,9.74l-.36-.19,6.3-1.15.2,0,.12.16a25.65,25.65,0,0,0,4.87,4.77h0l.13.32h0v.19l0,.2-.06.4-.13.79-.25,1.59-.51,3.15-.2-.35,9.84,3.95-.39.12,3.64-5.27.11-.16.19,0a25.17,25.17,0,0,0,6.83-.07l.19,0,.11.15,3.75,5.19-.37-.1,9.75-4.15L85,281q-.58-3.21-1.14-6.3l0-.18.14-.11a25.65,25.65,0,0,0,4.79-4.87l.1-.14.17,0,6.32,1-.3.16q2.1-5.18,4-9.82l.09.3-5.25-3.66-.12-.08,0-.14a26,26,0,0,0-.06-6.85l0-.13.11-.07,5.2-3.74-.06.23c-1.6-3.78-3-7-4.12-9.77L95,237l-6.31,1.11h-.06l0-.05a27.76,27.76,0,0,0-3.55-3.79l-1-.83c-.23-.18-.33-.27-.32-.28l.35.24c.23.17.58.42,1,.79a25.65,25.65,0,0,1,3.64,3.74l-.1,0,6.3-1.19.11,0,.05.11c1.18,2.75,2.57,6,4.2,9.73l.06.14-.12.09-5.18,3.77.08-.2a26,26,0,0,1,.1,7l-.1-.22,5.28,3.62.16.12-.07.18c-1.24,3.11-2.55,6.38-3.93,9.85l-.08.2-.22,0L89,270l.27-.11a26.81,26.81,0,0,1-4.88,5l.1-.29q.57,3.1,1.16,6.3l.05.24-.23.09-9.74,4.17-.23.1-.14-.2-3.76-5.19.3.13a26.36,26.36,0,0,1-7,.08l.3-.14q-1.8,2.61-3.64,5.27l-.15.22-.24-.1-9.83-4-.24-.1,0-.25c.17-1.05.33-2.1.5-3.16l.26-1.58.13-.8.06-.39,0-.2,0-.1v-.08h0l.13.32h0a26.09,26.09,0,0,1-5-4.89l.32.12-6.3,1.15-.26,0-.1-.24-4.16-9.75-.1-.24.21-.15,5.19-3.75-.12.3a26.48,26.48,0,0,1-.08-7l.14.29-5.27-3.64-.2-.14.09-.22c1.38-3.42,2.72-6.75,4-9.83l.08-.22.23,0,6.32,1-.27.11a26.33,26.33,0,0,1,4.9-5l-.1.26c-.4-2.2-.79-4.35-1.14-6.3l0-.21.19-.08,9.76-4.13.17-.08.11.16,3.74,5.2-.2-.09a25.81,25.81,0,0,1,7-.05l-.18.08,3.66-5.25.08-.11.12.05,9.81,4,.08,0,0,.08c-.35,2-.62,3.59-.8,4.68-.1.51-.17.91-.22,1.21Z"/><path class="cls-1" d="M167.35,286.28a45.11,45.11,0,0,1,8.65,8.47l11.05-2,7.28,17.09-9.09,6.58a45.84,45.84,0,0,1,.13,12.11l9.23,6.38-6.92,17.23-11.08-1.78a45.15,45.15,0,0,1-8.48,8.65l2,11-17.08,7.29-6.58-9.09a45.84,45.84,0,0,1-12.11.13L128,377.59l-17.23-6.92,1.78-11.08a45.45,45.45,0,0,1-8.65-8.48l-11,2-7.29-17.08,9.1-6.58a45.43,45.43,0,0,1-.13-12.11L85.29,311l6.92-17.23,11.08,1.78a45.11,45.11,0,0,1,8.47-8.65l-2-11.05,17.08-7.29,6.58,9.1a45,45,0,0,1,12.11-.13l6.38-9.24,17.23,6.93-1.78,11.08Zm-19.19,18.48a19.93,19.93,0,1,0,11.06,25.92A19.93,19.93,0,0,0,148.16,304.76Z"/></g><g id="JavaScript"><polygon class="cls-4" points="166.6 176.28 46.06 176.28 46.06 26.38 138.26 26.65 166.6 57.41 166.6 176.28"/><path class="cls-5" d="M82.12,111.9c-.15.15-2.16-1.66-5.27-4.7s-7.33-7.32-11.93-12.12l-.51-.54.51-.54,0,0c4.58-4.83,8.79-9.15,11.89-12.22S82,76.83,82.12,77s-1.56,2.24-4.45,5.51-7,7.7-11.57,12.54l0,0V94c4.6,4.8,8.69,9.2,11.6,12.44S82.28,111.75,82.12,111.9Z"/><path class="cls-5" d="M130.49,77c.15-.15,2.16,1.66,5.27,4.7S143.09,89,147.69,93.8l.51.54-.51.54-.05.05c-4.58,4.83-8.79,9.15-11.89,12.22s-5.1,4.9-5.26,4.75,1.56-2.24,4.46-5.51,7-7.7,11.56-12.54l.05,0v1.08c-4.59-4.8-8.69-9.2-11.6-12.44S130.33,77.13,130.49,77Z"/><path class="cls-5" d="M91.64,117.41c-.37-.23,5.89-11.12,14-24.34s14.94-23.75,15.31-23.52S115,80.67,107,93.89,92,117.63,91.64,117.41Z"/><path class="cls-2" d="M138.26,26.66l-.11,25.11a6.45,6.45,0,0,0,6.65,6.48l21.8-.81Z"/><rect class="cls-6" x="32" y="127.92" width="53.45" height="32.49"/><path class="cls-7" d="M47.18,150.81l1.4-1.63a4.18,4.18,0,0,0,3.49,2c1.9,0,2.88-1.16,2.88-3.41v-9.42H48.89v-2.09h8.43v11.39c0,3.74-1.82,5.59-5.25,5.59A5.88,5.88,0,0,1,47.18,150.81Z"/><path class="cls-7" d="M60.68,151.12l.88-1.87a8.68,8.68,0,0,0,5.54,1.94c2.9,0,4.15-1.13,4.15-2.59,0-4.1-10.16-1.51-10.16-7.74,0-2.59,2-4.8,6.42-4.8a9.84,9.84,0,0,1,5.39,1.49l-.79,1.92a8.6,8.6,0,0,0-4.6-1.37c-2.85,0-4.08,1.2-4.08,2.66,0,4.1,10.17,1.54,10.17,7.7,0,2.56-2.06,4.77-6.5,4.77A10,10,0,0,1,60.68,151.12Z"/></g><g id="Angular"><path class="cls-6" d="M269.31,35.25A7.93,7.93,0,0,0,265,42.42l.37,59.47a8,8,0,0,0,3.84,6.79l49.38,29.43h0l47.27-30.65a8,8,0,0,0,3.59-6.73L369,38.64a7.92,7.92,0,0,0-4.72-7.24L317.76,11.28Z"/><g class="cls-8"><path d="M317.76,11.28l.8,126.83,47.2-30.59a7.93,7.93,0,0,0,3.67-6.7l-.37-62.34a7.74,7.74,0,0,0-4.68-7.07Z"/></g><path class="cls-7" d="M331.58,82.5l-28.8.18L296.9,96.6l-8,.05L313.13,41l7.66,0,25,55.36-8.13,0Zm-2.75-6.33L317,49,305.45,76.32Z"/></g><g id="Screen"><rect class="cls-5" x="295.28" y="108.47" width="271.84" height="158.4"/><path class="cls-2" d="M316.54,258.9c-.14,0-.26-32.39-.26-72.34s.12-72.34.26-72.34.26,32.38.26,72.34S316.68,258.9,316.54,258.9Z"/><path class="cls-2" d="M311,120.32a39.07,39.07,0,0,1-9,0,39.07,39.07,0,0,1,9,0Z"/><path class="cls-2" d="M311,129.85a39.07,39.07,0,0,1-9,0,39.07,39.07,0,0,1,9,0Z"/><path class="cls-2" d="M311,139.38a37.63,37.63,0,0,1-9,0,39.07,39.07,0,0,1,9,0Z"/><path class="cls-2" d="M311,148.92a39.07,39.07,0,0,1-9,0,39.07,39.07,0,0,1,9,0Z"/><path class="cls-2" d="M311,158.45a39.07,39.07,0,0,1-9,0,39.07,39.07,0,0,1,9,0Z"/><path class="cls-2" d="M311,168a37.63,37.63,0,0,1-9,0,39.07,39.07,0,0,1,9,0Z"/><path class="cls-2" d="M311,177.52a39.07,39.07,0,0,1-9,0,39.07,39.07,0,0,1,9,0Z"/><path class="cls-2" d="M311,187.05a39.07,39.07,0,0,1-9,0,39.07,39.07,0,0,1,9,0Z"/><path class="cls-2" d="M311,196.59a39.07,39.07,0,0,1-9,0,37.63,37.63,0,0,1,9,0Z"/><path class="cls-2" d="M311,206.12a39.07,39.07,0,0,1-9,0,39.07,39.07,0,0,1,9,0Z"/><path class="cls-2" d="M311,215.65a39.07,39.07,0,0,1-9,0,39.07,39.07,0,0,1,9,0Z"/><path class="cls-2" d="M311,225.19a39.07,39.07,0,0,1-9,0,39.07,39.07,0,0,1,9,0Z"/><path class="cls-2" d="M311,234.72a39.07,39.07,0,0,1-9,0,39.07,39.07,0,0,1,9,0Z"/><path class="cls-2" d="M311,244.25a39.07,39.07,0,0,1-9,0,39.07,39.07,0,0,1,9,0Z"/><path class="cls-2" d="M311,253.79a39.07,39.07,0,0,1-9,0,39.07,39.07,0,0,1,9,0Z"/><path class="cls-6" d="M347,119.76c0,.14-5.23.26-11.69.26s-11.68-.12-11.68-.26,5.23-.26,11.68-.26S347,119.61,347,119.76Z"/><path class="cls-6" d="M347,253.79c0,.14-5.23.26-11.69.26s-11.68-.12-11.68-.26,5.23-.26,11.68-.26S347,253.64,347,253.79Z"/><path class="cls-6" d="M379.57,139.38c0,.15-9.78.27-21.85.27s-21.86-.12-21.86-.27,9.78-.26,21.86-.26S379.57,139.24,379.57,139.38Z"/><path class="cls-2" d="M430.12,139.38c0,.15-9.78.27-21.85.27s-21.86-.12-21.86-.27,9.78-.26,21.86-.26S430.12,139.24,430.12,139.38Z"/><path class="cls-2" d="M410.8,148.92c0,.14-14.42.26-32.21.26s-32.21-.12-32.21-.26,14.42-.26,32.21-.26S410.8,148.77,410.8,148.92Z"/><path class="cls-2" d="M410.8,158.45c0,.15-14.42.26-32.21.26s-32.21-.11-32.21-.26,14.42-.26,32.21-.26S410.8,158.31,410.8,158.45Z"/><path class="cls-2" d="M455.15,187.05c0,.15-14.42.26-32.21.26s-32.22-.11-32.22-.26,14.42-.26,32.22-.26S455.15,186.91,455.15,187.05Z"/><path class="cls-2" d="M436,168c0,.15-14.42.27-32.21.27s-32.21-.12-32.21-.27,14.42-.26,32.21-.26S436,167.84,436,168Z"/><path class="cls-2" d="M514.74,168c0,.15-14.42.27-32.21.27s-32.21-.12-32.21-.27,14.42-.26,32.21-.26S514.74,167.84,514.74,168Z"/><path class="cls-9" d="M487.36,148.92c0,.14-14.42.26-32.21.26s-32.21-.12-32.21-.26,14.42-.26,32.21-.26S487.36,148.77,487.36,148.92Z"/><path class="cls-9" d="M531.86,187.05c0,.15-14.42.26-32.21.26s-32.21-.11-32.21-.26,14.42-.26,32.21-.26S531.86,186.91,531.86,187.05Z"/><path class="cls-10" d="M523,158.45c0,.15-22.4.26-50,.26s-50-.11-50-.26,22.39-.26,50-.26S523,158.31,523,158.45Z"/><path class="cls-9" d="M347,129.85c0,.15-5.23.26-11.69.26s-11.68-.11-11.68-.26,5.23-.26,11.68-.26S347,129.71,347,129.85Z"/><path class="cls-9" d="M347,244.25c0,.15-5.23.26-11.69.26s-11.68-.11-11.68-.26,5.23-.26,11.68-.26S347,244.11,347,244.25Z"/><path class="cls-9" d="M358.61,168c0,.15-5.23.27-11.68.27s-11.68-.12-11.68-.27,5.23-.26,11.68-.26S358.61,167.84,358.61,168Z"/><path class="cls-6" d="M545.87,168c0,.15-5.23.27-11.68.27s-11.69-.12-11.69-.27,5.23-.26,11.69-.26S545.87,167.84,545.87,168Z"/><path class="cls-6" d="M379.57,206.06c0,.15-9.78.26-21.85.26s-21.86-.11-21.86-.26,9.78-.26,21.86-.26S379.57,205.92,379.57,206.06Z"/><path class="cls-2" d="M430.12,206.06c0,.15-9.78.26-21.85.26s-21.86-.11-21.86-.26,9.78-.26,21.86-.26S430.12,205.92,430.12,206.06Z"/><path class="cls-2" d="M410.8,215.6c0,.14-14.42.26-32.21.26s-32.21-.12-32.21-.26,14.42-.26,32.21-.26S410.8,215.45,410.8,215.6Z"/><path class="cls-2" d="M410.8,225.13c0,.14-14.42.26-32.21.26s-32.21-.12-32.21-.26,14.42-.26,32.21-.26S410.8,225,410.8,225.13Z"/><path class="cls-2" d="M436,234.66c0,.15-14.42.26-32.21.26s-32.21-.11-32.21-.26,14.42-.26,32.21-.26S436,234.52,436,234.66Z"/><path class="cls-2" d="M514.74,234.66c0,.15-14.42.26-32.21.26s-32.21-.11-32.21-.26,14.42-.26,32.21-.26S514.74,234.52,514.74,234.66Z"/><path class="cls-9" d="M487.36,215.6c0,.14-14.42.26-32.21.26s-32.21-.12-32.21-.26,14.42-.26,32.21-.26S487.36,215.45,487.36,215.6Z"/><path class="cls-10" d="M523,225.13c0,.14-22.4.26-50,.26s-50-.12-50-.26,22.39-.26,50-.26S523,225,523,225.13Z"/><path class="cls-9" d="M358.61,234.66c0,.15-5.23.26-11.68.26s-11.68-.11-11.68-.26,5.23-.26,11.68-.26S358.61,234.52,358.61,234.66Z"/><path class="cls-6" d="M545.87,234.66c0,.15-5.23.26-11.68.26s-11.69-.11-11.69-.26,5.23-.26,11.69-.26S545.87,234.52,545.87,234.66Z"/></g><g id="React"><path class="cls-6" d="M603.06,264.68c-.18.11-1.87-2.7-5.28-7.52-1.71-2.41-3.86-5.31-6.52-8.53a94.07,94.07,0,0,0-9.79-10.21,54.39,54.39,0,0,0-6.47-5,24.37,24.37,0,0,0-7.82-3.52,9.55,9.55,0,0,0-4.22-.06,6.27,6.27,0,0,0-3.44,2.2,10.43,10.43,0,0,0-1.9,4.09A22.7,22.7,0,0,0,557,241a47.49,47.49,0,0,0,1.14,10.39,83.78,83.78,0,0,0,3,10.61,132.33,132.33,0,0,0,23.22,40.23,85,85,0,0,0,7.68,7.93,47.63,47.63,0,0,0,8.43,6.18,21.83,21.83,0,0,0,4.52,1.92,10.07,10.07,0,0,0,4.48.4,6.19,6.19,0,0,0,3.63-1.88,9.52,9.52,0,0,0,2.06-3.68,24.71,24.71,0,0,0,.86-8.53,55.42,55.42,0,0,0-1.07-8.09,95.08,95.08,0,0,0-4-13.58c-1.45-3.92-2.89-7.23-4.12-9.91-2.47-5.37-4.06-8.23-3.88-8.34a8.18,8.18,0,0,1,1.4,1.94c.83,1.33,2,3.31,3.39,5.95s3,5.91,4.57,9.83a89.73,89.73,0,0,1,4.39,13.73,54.29,54.29,0,0,1,1.28,8.35,26.5,26.5,0,0,1-.81,9.3,11.67,11.67,0,0,1-2.5,4.56,8.49,8.49,0,0,1-4.87,2.61,12.43,12.43,0,0,1-5.5-.4,24.22,24.22,0,0,1-5-2.07,49,49,0,0,1-8.93-6.43,86.26,86.26,0,0,1-8-8.13,131.91,131.91,0,0,1-23.7-41,85.81,85.81,0,0,1-3.06-11,49.81,49.81,0,0,1-1.1-10.95,24.62,24.62,0,0,1,.72-5.4,12.53,12.53,0,0,1,2.4-4.95,8.61,8.61,0,0,1,4.7-2.92,11.75,11.75,0,0,1,5.19.12,26.34,26.34,0,0,1,8.47,4,55.16,55.16,0,0,1,6.59,5.28,89.83,89.83,0,0,1,9.69,10.67c2.59,3.34,4.64,6.36,6.23,8.87s2.72,4.53,3.46,5.91A8.28,8.28,0,0,1,603.06,264.68Z"/><path class="cls-6" d="M572.19,264.62c.18.11-1.44,2.84-4,8-1.26,2.56-2.73,5.73-4.22,9.48a86.6,86.6,0,0,0-4.07,13.07,49,49,0,0,0-1.12,7.8,22.83,22.83,0,0,0,.8,8.24,9.57,9.57,0,0,0,2,3.57,6.49,6.49,0,0,0,3.48,1.94,10,10,0,0,0,4.35-.12,20.33,20.33,0,0,0,4.45-1.6,44.32,44.32,0,0,0,8.44-5.55,79.38,79.38,0,0,0,7.74-7.34,122.74,122.74,0,0,0,23.62-38.18,78.45,78.45,0,0,0,3.12-10.21,43.78,43.78,0,0,0,1.2-10,20.12,20.12,0,0,0-.55-4.71,10.08,10.08,0,0,0-1.83-3.94,6.57,6.57,0,0,0-3.3-2.25,9.65,9.65,0,0,0-4.08-.19,23,23,0,0,0-7.73,3A50.06,50.06,0,0,0,594,240a87.28,87.28,0,0,0-9.88,9.47c-2.69,3-4.87,5.75-6.6,8-3.46,4.54-5.18,7.21-5.36,7.1a7.6,7.6,0,0,1,1-2.09c.75-1.31,1.9-3.23,3.52-5.61s3.7-5.23,6.33-8.37a82.67,82.67,0,0,1,9.81-9.94,49.51,49.51,0,0,1,6.63-4.8,24.86,24.86,0,0,1,8.42-3.36,11.77,11.77,0,0,1,5,.18,8.86,8.86,0,0,1,4.46,3,12.31,12.31,0,0,1,2.32,4.8,22.15,22.15,0,0,1,.68,5.24,45.64,45.64,0,0,1-1.17,10.61,80,80,0,0,1-3.16,10.56,121.88,121.88,0,0,1-24.15,39,78.94,78.94,0,0,1-8,7.53,45.89,45.89,0,0,1-9,5.79,22.86,22.86,0,0,1-5,1.73,12.48,12.48,0,0,1-5.34.06,8.79,8.79,0,0,1-4.62-2.67,11.69,11.69,0,0,1-2.41-4.43,24.69,24.69,0,0,1-.75-9,49.84,49.84,0,0,1,1.34-8.09,83.37,83.37,0,0,1,4.51-13.2c1.65-3.76,3.27-6.9,4.68-9.41s2.6-4.4,3.44-5.66S572.11,264.57,572.19,264.62Z"/><path class="cls-6" d="M585.65,253.11c0,.22-3.17.27-8.86.82-2.84.28-6.31.69-10.29,1.4a87.75,87.75,0,0,0-13.25,3.42A47.08,47.08,0,0,0,546,261.9a22.76,22.76,0,0,0-6.59,5,9.53,9.53,0,0,0-2,3.56,6.57,6.57,0,0,0,.18,4A10.1,10.1,0,0,0,540,278.1a20.14,20.14,0,0,0,3.71,2.95,44.1,44.1,0,0,0,9.15,4.25A78.43,78.43,0,0,0,563.2,288a122.77,122.77,0,0,0,44.9,0,78,78,0,0,0,10.32-2.72,44.43,44.43,0,0,0,9.16-4.25,20.41,20.41,0,0,0,3.7-2.95,10,10,0,0,0,2.4-3.63,6.57,6.57,0,0,0,.17-4,9.51,9.51,0,0,0-2-3.56,23.25,23.25,0,0,0-6.59-5,48.55,48.55,0,0,0-7.23-3.14,87.45,87.45,0,0,0-13.25-3.42c-4-.71-7.45-1.12-10.29-1.4-5.68-.55-8.86-.6-8.86-.82a7.87,7.87,0,0,1,2.31-.24c1.51-.05,3.75-.08,6.62,0s6.4.4,10.46,1a82.28,82.28,0,0,1,13.6,3.1,50.82,50.82,0,0,1,7.58,3.12,24.82,24.82,0,0,1,7.28,5.39,11.71,11.71,0,0,1,2.5,4.37,8.86,8.86,0,0,1-.16,5.34,12.36,12.36,0,0,1-2.86,4.51,22.55,22.55,0,0,1-4.1,3.33,45.69,45.69,0,0,1-9.64,4.59,80,80,0,0,1-10.64,2.87,121.89,121.89,0,0,1-45.9,0,80,80,0,0,1-10.64-2.87,46.16,46.16,0,0,1-9.64-4.59,22.49,22.49,0,0,1-4.09-3.33,12.36,12.36,0,0,1-2.86-4.51,8.78,8.78,0,0,1-.16-5.34,11.56,11.56,0,0,1,2.49-4.37,24.82,24.82,0,0,1,7.28-5.39,50.82,50.82,0,0,1,7.58-3.12,82.15,82.15,0,0,1,13.61-3.1c4.06-.58,7.58-.85,10.45-1s5.11-.1,6.63,0A7.76,7.76,0,0,1,585.65,253.11Z"/><circle class="cls-6" cx="588.13" cy="274.48" r="8.37" transform="translate(222.76 810.9) rotate(-80.76)"/></g><g id="Device"><path class="cls-10" d="M152.55,187.67H450a6.74,6.74,0,0,1,6.74,6.74v185A14.57,14.57,0,0,1,442.17,394H159.36a14.57,14.57,0,0,1-14.57-14.57v-184A7.75,7.75,0,0,1,152.55,187.67Z"/><path class="cls-10" d="M131.75,378.69h338a0,0,0,0,1,0,0V383A13.72,13.72,0,0,1,456,396.74H145.47A13.72,13.72,0,0,1,131.75,383v-4.33A0,0,0,0,1,131.75,378.69Z"/><rect class="cls-2" x="153.17" y="195.87" width="294.32" height="174.2"/><polygon class="cls-5" points="270.01 378.69 274.21 385.37 333.22 385.37 337.12 378.69 270.01 378.69"/><rect class="cls-5" x="144.85" y="378.63" width="311.94" height="0.99"/><rect class="cls-5" x="161.9" y="205.96" width="277.56" height="164.11"/><path class="cls-2" d="M183.2,365.25c-.15,0-.26-34.95-.26-78.06s.11-78.06.26-78.06.26,34.94.26,78.06S183.34,365.25,183.2,365.25Z"/><path class="cls-2" d="M177.6,223.28a20,20,0,0,1-4.51.26,20,20,0,0,1-4.51-.26,20,20,0,0,1,4.51-.26A20,20,0,0,1,177.6,223.28Z"/><path class="cls-2" d="M178,214.42a20,20,0,0,1-4.51.26,20,20,0,0,1-4.51-.26,20,20,0,0,1,4.51-.26A20,20,0,0,1,178,214.42Z"/><path class="cls-2" d="M177.6,232.83a20,20,0,0,1-4.51.26,20,20,0,0,1-4.51-.26,19.36,19.36,0,0,1,4.51-.26A19.36,19.36,0,0,1,177.6,232.83Z"/><path class="cls-2" d="M177.6,242.38a20,20,0,0,1-4.51.26,20,20,0,0,1-4.51-.26,19.36,19.36,0,0,1,4.51-.26A19.36,19.36,0,0,1,177.6,242.38Z"/><path class="cls-2" d="M177.6,251.93a20,20,0,0,1-4.51.26,20,20,0,0,1-4.51-.26,19.36,19.36,0,0,1,4.51-.26A19.36,19.36,0,0,1,177.6,251.93Z"/><path class="cls-2" d="M177.6,261.47a19,19,0,0,1-4.51.27,19,19,0,0,1-4.51-.27,20,20,0,0,1,4.51-.26A20,20,0,0,1,177.6,261.47Z"/><path class="cls-2" d="M177.6,271a19.36,19.36,0,0,1-4.51.26,19.36,19.36,0,0,1-4.51-.26,20,20,0,0,1,4.51-.26A20,20,0,0,1,177.6,271Z"/><path class="cls-2" d="M177.6,280.57a19.36,19.36,0,0,1-4.51.26,19.36,19.36,0,0,1-4.51-.26,20,20,0,0,1,4.51-.26A20,20,0,0,1,177.6,280.57Z"/><path class="cls-2" d="M177.6,290.12a19.36,19.36,0,0,1-4.51.26,19.36,19.36,0,0,1-4.51-.26,20,20,0,0,1,4.51-.26A20,20,0,0,1,177.6,290.12Z"/><path class="cls-2" d="M177.6,299.67a20,20,0,0,1-4.51.26,20,20,0,0,1-4.51-.26,20,20,0,0,1,4.51-.26A20,20,0,0,1,177.6,299.67Z"/><path class="cls-2" d="M177.6,309.22a20,20,0,0,1-4.51.26,20,20,0,0,1-4.51-.26,19.36,19.36,0,0,1,4.51-.26A19.36,19.36,0,0,1,177.6,309.22Z"/><path class="cls-2" d="M177.6,318.77a20,20,0,0,1-4.51.26,20,20,0,0,1-4.51-.26,19.36,19.36,0,0,1,4.51-.26A19.36,19.36,0,0,1,177.6,318.77Z"/><path class="cls-2" d="M177.6,328.32a20,20,0,0,1-4.51.26,20,20,0,0,1-4.51-.26,19.36,19.36,0,0,1,4.51-.26A19.36,19.36,0,0,1,177.6,328.32Z"/><path class="cls-2" d="M177.6,337.86a19,19,0,0,1-4.51.27,19,19,0,0,1-4.51-.27,20,20,0,0,1,4.51-.26A20,20,0,0,1,177.6,337.86Z"/><path class="cls-2" d="M177.6,347.41a19.36,19.36,0,0,1-4.51.26,19.36,19.36,0,0,1-4.51-.26,20,20,0,0,1,4.51-.26A20,20,0,0,1,177.6,347.41Z"/><path class="cls-2" d="M177.6,357a19.36,19.36,0,0,1-4.51.26,19.36,19.36,0,0,1-4.51-.26,20,20,0,0,1,4.51-.26A20,20,0,0,1,177.6,357Z"/><path class="cls-6" d="M213.74,222.72c0,.14-5.24.26-11.7.26s-11.7-.12-11.7-.26,5.24-.26,11.7-.26S213.74,222.57,213.74,222.72Z"/><path class="cls-6" d="M213.74,357c0,.15-5.24.26-11.7.26s-11.7-.11-11.7-.26,5.24-.26,11.7-.26S213.74,356.82,213.74,357Z"/><path class="cls-6" d="M246.33,242.38c0,.14-9.8.26-21.89.26s-21.89-.12-21.89-.26,9.8-.26,21.89-.26S246.33,242.23,246.33,242.38Z"/><path class="cls-2" d="M297,242.38c0,.14-9.8.26-21.89.26s-21.89-.12-21.89-.26,9.8-.26,21.89-.26S297,242.23,297,242.38Z"/><path class="cls-2" d="M277.61,251.93c0,.14-14.44.26-32.26.26s-32.27-.12-32.27-.26,14.45-.26,32.27-.26S277.61,251.78,277.61,251.93Z"/><path class="cls-2" d="M277.61,261.47c0,.15-14.44.27-32.26.27s-32.27-.12-32.27-.27,14.45-.26,32.27-.26S277.61,261.33,277.61,261.47Z"/><path class="cls-2" d="M322,290.12c0,.15-14.45.26-32.26.26s-32.27-.11-32.27-.26,14.45-.26,32.27-.26S322,290,322,290.12Z"/><path class="cls-2" d="M302.86,271c0,.15-14.44.26-32.26.26s-32.26-.11-32.26-.26,14.44-.26,32.26-.26S302.86,270.88,302.86,271Z"/><path class="cls-2" d="M381.72,271c0,.15-14.45.26-32.26.26s-32.27-.11-32.27-.26,14.44-.26,32.27-.26S381.72,270.88,381.72,271Z"/><path class="cls-9" d="M354.29,251.93c0,.14-14.44.26-32.26.26s-32.26-.12-32.26-.26,14.44-.26,32.26-.26S354.29,251.78,354.29,251.93Z"/><path class="cls-9" d="M398.87,290.12c0,.15-14.45.26-32.26.26s-32.27-.11-32.27-.26,14.44-.26,32.27-.26S398.87,290,398.87,290.12Z"/><path class="cls-10" d="M390,261.47c0,.15-22.44.27-50.1.27s-50.1-.12-50.1-.27,22.42-.26,50.1-.26S390,261.33,390,261.47Z"/><path class="cls-9" d="M213.74,232.83c0,.14-5.24.26-11.7.26s-11.7-.12-11.7-.26,5.24-.26,11.7-.26S213.74,232.68,213.74,232.83Z"/><path class="cls-9" d="M213.74,347.41c0,.15-5.24.26-11.7.26s-11.7-.11-11.7-.26,5.24-.26,11.7-.26S213.74,347.27,213.74,347.41Z"/><path class="cls-9" d="M225.34,271c0,.15-5.24.26-11.7.26s-11.71-.11-11.71-.26,5.24-.26,11.71-.26S225.34,270.88,225.34,271Z"/><path class="cls-6" d="M412.9,271c0,.15-5.24.26-11.71.26s-11.7-.11-11.7-.26,5.24-.26,11.7-.26S412.9,270.88,412.9,271Z"/><path class="cls-6" d="M246.33,309.16c0,.15-9.8.26-21.89.26s-21.89-.11-21.89-.26,9.8-.26,21.89-.26S246.33,309,246.33,309.16Z"/><path class="cls-2" d="M297,309.16c0,.15-9.8.26-21.89.26s-21.89-.11-21.89-.26,9.8-.26,21.89-.26S297,309,297,309.16Z"/><path class="cls-2" d="M277.61,318.71c0,.15-14.44.26-32.26.26s-32.27-.11-32.27-.26,14.45-.26,32.27-.26S277.61,318.57,277.61,318.71Z"/><path class="cls-2" d="M277.61,328.26c0,.14-14.44.26-32.26.26s-32.27-.12-32.27-.26,14.45-.26,32.27-.26S277.61,328.12,277.61,328.26Z"/><path class="cls-2" d="M302.86,337.81c0,.14-14.44.26-32.26.26s-32.26-.12-32.26-.26,14.44-.26,32.26-.26S302.86,337.66,302.86,337.81Z"/><path class="cls-2" d="M381.72,337.81c0,.14-14.45.26-32.26.26s-32.27-.12-32.27-.26,14.44-.26,32.27-.26S381.72,337.66,381.72,337.81Z"/><path class="cls-9" d="M354.29,318.71c0,.15-14.44.26-32.26.26s-32.26-.11-32.26-.26,14.44-.26,32.26-.26S354.29,318.57,354.29,318.71Z"/><path class="cls-10" d="M390,328.26c0,.14-22.44.26-50.1.26s-50.1-.12-50.1-.26,22.42-.26,50.1-.26S390,328.12,390,328.26Z"/><path class="cls-9" d="M225.34,337.81c0,.14-5.24.26-11.7.26s-11.71-.12-11.71-.26,5.24-.26,11.71-.26S225.34,337.66,225.34,337.81Z"/><path class="cls-6" d="M412.9,337.81c0,.14-5.24.26-11.71.26s-11.7-.12-11.7-.26,5.24-.26,11.7-.26S412.9,337.66,412.9,337.81Z"/></g><g id="Floor"><path class="cls-5" d="M650.83,396.76c0,.14-145.7.26-325.4.26S0,396.9,0,396.76s145.67-.26,325.43-.26S650.83,396.61,650.83,396.76Z"/></g><g id="Character_2" data-name="Character 2"><path class="cls-11" d="M519.1,340.31l4,12.5a14.43,14.43,0,0,0,11.21,10l26.66,5,7.25-.24-7.25-9-20-6.84a5.37,5.37,0,0,1-4-3.84l-8-17.35-10.11,6.2Z"/><path class="cls-6" d="M500,256.43a8.79,8.79,0,0,0-1.5-5.54,6.77,6.77,0,0,0-4.38-3.38,5,5,0,0,0-5.19,3.06,6.52,6.52,0,0,0,.8,6.16,8.45,8.45,0,0,0,2.42,2.27,15.37,15.37,0,0,0-6,7.65,32.15,32.15,0,0,1-1.08,3.18,4.66,4.66,0,0,1-2.21,2.45c-.75.33-1.61.37-2.38.66a4.36,4.36,0,0,0-2.63,3,5.32,5.32,0,0,0,.71,4,4.09,4.09,0,0,1,.9,1.86,5.14,5.14,0,0,1-.29,1.39,3.8,3.8,0,0,0,6.24,3.71,5.36,5.36,0,0,0,2.3,2.89c1.14.54,2.81,0,3.05-1.19a3,3,0,0,0,5.7-1.08l21.5-23.51C514.71,255.47,502.17,256.23,500,256.43Z"/><path class="cls-11" d="M496.36,264.6a2.69,2.69,0,0,0-2.4,2.72h0l1.52,36.2c.06,4.28,7.81,9.33,12.39,9.24h0c4.62-.1,3.27-5,3.33-9.07.11-6.8.11-9.35.11-9.31s5.84-1,7.05-8.59c.61-3.79.42-10,.1-15.08-.29-4.57-3.32-10.18-7.88-9.7Z"/><path class="cls-5" d="M516.48,275.64a1,1,0,0,1-1,1,.93.93,0,0,1-1-.88,1,1,0,0,1,.94-1A.93.93,0,0,1,516.48,275.64Z"/><path class="cls-5" d="M517.11,273.94c-.12.13-.86-.42-1.92-.42s-1.82.53-1.93.4.07-.28.4-.53a2.74,2.74,0,0,1,1.55-.48,2.63,2.63,0,0,1,1.52.49C517.06,273.65,517.17,273.88,517.11,273.94Z"/><path class="cls-5" d="M506.19,275.64a1,1,0,0,1-.94,1,.94.94,0,0,1-1-.88,1,1,0,0,1,.95-1A.92.92,0,0,1,506.19,275.64Z"/><path class="cls-5" d="M506.77,274.14c-.12.12-.86-.42-1.91-.42s-1.83.53-1.94.4.07-.29.4-.53a2.67,2.67,0,0,1,1.55-.48,2.55,2.55,0,0,1,1.53.49C506.72,273.85,506.83,274.08,506.77,274.14Z"/><path class="cls-5" d="M510.59,281.94a6.54,6.54,0,0,1,1.71-.31c.26,0,.52-.08.56-.27a1.3,1.3,0,0,0-.18-.79l-.79-2.05a34.6,34.6,0,0,1-1.78-5.35,37.22,37.22,0,0,1,2.21,5.2l.76,2.05a1.62,1.62,0,0,1,.14,1.06.69.69,0,0,1-.45.39,1.55,1.55,0,0,1-.45.06A6.91,6.91,0,0,1,510.59,281.94Z"/><path class="cls-12" d="M511.31,294.38a19.39,19.39,0,0,1-10.2-2.72s2.47,5.23,10.1,4.52Z"/><path class="cls-12" d="M510.14,284.47a1.9,1.9,0,0,0-1.7-.7,1.75,1.75,0,0,0-1.19.64,1.07,1.07,0,0,0-.08,1.25,1.26,1.26,0,0,0,1.37.35,3.87,3.87,0,0,0,1.35-.8,1.26,1.26,0,0,0,.3-.31.38.38,0,0,0,0-.4"/><path class="cls-5" d="M507.49,282.66c.17,0,.18,1.13,1.15,1.94s2.19.69,2.2.85-.27.22-.78.23a2.8,2.8,0,0,1-1.84-.64,2.49,2.49,0,0,1-.89-1.62C507.29,282.94,507.41,282.66,507.49,282.66Z"/><path class="cls-6" d="M507.24,272.29c-.1.29-1.15.16-2.38.3s-2.24.49-2.4.23.1-.39.5-.67a4.21,4.21,0,0,1,1.78-.62,4.06,4.06,0,0,1,1.87.22C507.06,271.93,507.29,272.16,507.24,272.29Z"/><path class="cls-6" d="M516.72,270.9c-.18.24-.91,0-1.78,0s-1.61.16-1.78-.09,0-.36.37-.59a2.37,2.37,0,0,1,1.44-.39,2.42,2.42,0,0,1,1.42.48C516.7,270.53,516.8,270.78,516.72,270.9Z"/><path class="cls-11" d="M494.8,276.79a1.91,1.91,0,0,0-2,.1,3.53,3.53,0,0,0,2.23,6.56"/><path class="cls-6" d="M506.79,258.47a15.51,15.51,0,0,1,7.32,2.27,10.58,10.58,0,0,1,5.22,6.21,2.18,2.18,0,0,1-.06,1.72,1.68,1.68,0,0,1-2.09.45,4.9,4.9,0,0,1-1.7-1.57,3.25,3.25,0,0,1-6.32-.07,2.87,2.87,0,0,1-2.94,2.62,3.78,3.78,0,0,1-3.25-2.56,9.5,9.5,0,0,1-1.34,3.72,3.25,3.25,0,0,1-3.45,1.41,6.63,6.63,0,0,1-.05,3.4,2.32,2.32,0,0,1-2.68,1.58c-1.06-.36-1.47-1.61-1.72-2.7a25.62,25.62,0,0,1-.81-6.39,9.35,9.35,0,0,1,7.55-9.48,24.54,24.54,0,0,1,6.63-.61"/><path class="cls-12" d="M494.27,281.18c0-.05-.29.07-.66-.1a1.45,1.45,0,0,1,.16-2.53c.38-.15.66-.08.68-.14s-.26-.24-.77-.12a1.37,1.37,0,0,0-.74.46,1.7,1.7,0,0,0-.38,1,1.53,1.53,0,0,0,.95,1.59C494,281.48,494.31,281.21,494.27,281.18Z"/><path class="cls-5" d="M491.37,281.58s-.11,0-.31.08a6.49,6.49,0,0,0-3.33,2.73,4.78,4.78,0,0,0-.68,2.29,5.36,5.36,0,0,0,.63,2.68,6.42,6.42,0,0,0,2,2.26,5.63,5.63,0,0,0,3.1,1A5.89,5.89,0,0,0,498,289.4a5,5,0,0,0,.54-2.7,5.64,5.64,0,0,0-3.25-4.57,3.76,3.76,0,0,0-.89-.27,1.19,1.19,0,0,0-.33,0c0,.05.44.1,1.15.45a5.53,5.53,0,0,1,2.35,2.29,5.63,5.63,0,0,1,.65,2.17,4.71,4.71,0,0,1-.54,2.5,5.56,5.56,0,0,1-4.82,3,5.7,5.7,0,0,1-4.82-3,4.8,4.8,0,0,1,0-4.67,6.5,6.5,0,0,1,2.32-2.34C491,281.76,491.39,281.61,491.37,281.58Z"/><path class="cls-2" d="M497.66,258c-.08,0-.23-.67-.71-1.66a9.11,9.11,0,0,0-6.46-5.1c-1.08-.24-1.78-.23-1.78-.31a3.8,3.8,0,0,1,1.84-.06,8.43,8.43,0,0,1,6.74,5.32A3.7,3.7,0,0,1,497.66,258Z"/><path class="cls-2" d="M480.15,286.9s-.13,0-.27-.25a1.38,1.38,0,0,1-.18-1,2.15,2.15,0,0,1,.94-1.38,17.25,17.25,0,0,1,1.89-1,2.28,2.28,0,0,0,1.31-1.89,11,11,0,0,0-.51-2.86,5.11,5.11,0,0,1-.16-1.68,2.85,2.85,0,0,1,.71-1.66,6.92,6.92,0,0,1,3.22-1.69,5.34,5.34,0,0,0,2.88-1.66,4.3,4.3,0,0,0,.47-3,16.48,16.48,0,0,1-.2-3,8.32,8.32,0,0,1,2.89-5.64,4.74,4.74,0,0,1,.85-.59,1.06,1.06,0,0,1,.32-.16s-.4.3-1,.9a8.53,8.53,0,0,0-2,3,7.85,7.85,0,0,0-.55,2.47,16.33,16.33,0,0,0,.25,2.93,4.72,4.72,0,0,1-.54,3.36,5.71,5.71,0,0,1-3.13,1.86,6.55,6.55,0,0,0-3,1.54,3.09,3.09,0,0,0-.46,2.9,10.72,10.72,0,0,1,.47,3,2.52,2.52,0,0,1-.53,1.35,3.27,3.27,0,0,1-1,.82,21.06,21.06,0,0,0-1.91,1,2,2,0,0,0-.9,1.18A1.38,1.38,0,0,0,480.15,286.9Z"/><path class="cls-2" d="M507.31,267.24c-.09,0-.15-.81-.55-2a10.44,10.44,0,0,0-6.81-6.79c-1.22-.4-2-.46-2-.55a4.61,4.61,0,0,1,2.13.19,9.74,9.74,0,0,1,7.06,7.05A4.73,4.73,0,0,1,507.31,267.24Z"/><path class="cls-2" d="M513.45,263.9a16.62,16.62,0,0,0-1.32-2.36,10.55,10.55,0,0,0-5.22-3.64,16.3,16.3,0,0,0-6.45-.51c-1.67.18-2.7.41-2.72.33a9,9,0,0,1,2.67-.69,14.69,14.69,0,0,1,6.65.38,10.13,10.13,0,0,1,5.37,3.92,7.08,7.08,0,0,1,.89,1.83A1.86,1.86,0,0,1,513.45,263.9Z"/><path class="cls-5" d="M500.15,256.05c.05,0-.19.5-.78,1.11a7.58,7.58,0,0,1-6,2.15c-.84-.1-1.33-.31-1.31-.37a13.16,13.16,0,0,0,4.39-.53A13.51,13.51,0,0,0,500.15,256.05Z"/><path class="cls-5" d="M505.5,396.82c-18.31-6.06-5.75-30.28-5.75-30.28l80,7.53a11.57,11.57,0,0,1,11.66,11.57h0a11.57,11.57,0,0,1-11.58,11.58l-74.35-.4"/><path class="cls-5" d="M486.77,396.8c-17.84-6-5.55-30.27-5.55-30.27l78,7.36c7.62.1,11.34,3.77,11.34,11.55h0c0,6.39-2.38,11.78-11.32,11.6l-72.49-.24"/><path class="cls-10" d="M504.88,370.63h.87l2.5.11,9.18.45,30.27,1.66c1.48.07,2.94.2,4.38.22s2.87.08,4.26.17,2.77.19,4.11.33a14.54,14.54,0,0,1,3.9.8,9.49,9.49,0,0,1,3.24,2.08,8.49,8.49,0,0,1,2,3.16,16,16,0,0,1,.8,3.41,24.13,24.13,0,0,1,.22,3.23,13.76,13.76,0,0,1-1,5.43,8.93,8.93,0,0,1-2.43,3.3,6.49,6.49,0,0,1-2.21,1.25c-.55.18-.56.12,0-.08a6.82,6.82,0,0,0,2.13-1.29,8.94,8.94,0,0,0,2.32-3.28,13.5,13.5,0,0,0,.95-5.33,23.46,23.46,0,0,0-.23-3.18,15.54,15.54,0,0,0-.81-3.33,8.22,8.22,0,0,0-1.9-3,8.84,8.84,0,0,0-3.13-2,14.32,14.32,0,0,0-3.81-.77c-1.33-.14-2.7-.24-4.09-.32s-2.81-.14-4.25-.16-2.9-.15-4.38-.22l-30.28-1.78-9.17-.59-2.49-.18-.65-.06A1.18,1.18,0,0,1,504.88,370.63Z"/><path class="cls-6" d="M532.62,372.2l-6.42-3.14-4.46-14.89-.43-19,9.06-3.82-7.19-18.05c-1.31-2.67-3.95-9.74-10.76-12.07a8.27,8.27,0,0,1,.23-3c.54-.88-16.58-1.41-17.55-1.06s.15,3.48,0,4c-6.08,1.68-12,4.18-14.22,12.56-.86,3.26-.58,10.14-.11,13.46l4.76,25.13-2.67,8.25s-9.35,19.47-5.81,27.09,9.58,9.32,9.58,9.32l46.58-.09Z"/><g class="cls-13"><path d="M485.87,342.4a93.28,93.28,0,0,0,3.42,11.88,25.93,25.93,0,0,0,3.74,6.86,17.37,17.37,0,0,0,9,5.48,28.25,28.25,0,0,0,10.61.52l-17.63-10-4.69-16.29Z"/></g><path class="cls-5" d="M521.72,353.65a10,10,0,0,1-.12-1.35c-.05-.94-.11-2.18-.18-3.67-.13-3.11-.29-7.39-.43-12.13s-.25-9-.3-12.13c0-1.5,0-2.74-.05-3.68a7.53,7.53,0,0,1,.05-1.35,7.85,7.85,0,0,1,.12,1.34c.05.94.11,2.18.18,3.67.13,3.11.29,7.4.43,12.14s.25,9,.3,12.13c0,1.5,0,2.74,0,3.68A7.53,7.53,0,0,1,521.72,353.65Z"/><path class="cls-5" d="M504.47,335.9a1.34,1.34,0,0,1-.32.13l-1,.36-3.84,1.36-14.06,4.85-.23.08,0-.24c-1-5.12-2.07-11.1-3.28-17.56v0c-.19-3.18-.82-6.51-.55-10a9.45,9.45,0,0,1,.68-2.45,11.65,11.65,0,0,1,1.17-2.21,9.38,9.38,0,0,1,3.7-3.16,8.1,8.1,0,0,1,8.78.95,10.86,10.86,0,0,1,2.34,3.58,31.85,31.85,0,0,1,1.38,3.76c.74,2.46,1.3,4.79,1.86,6.92l2.55,10c.28,1.14.51,2.05.67,2.71.07.28.12.51.16.69s.05.23,0,.23a1.68,1.68,0,0,1-.08-.25q-.09-.28-.21-.72c-.19-.66-.45-1.57-.77-2.73-.66-2.39-1.58-5.77-2.73-9.93-.57-2.08-1.15-4.4-1.9-6.84a33.39,33.39,0,0,0-1.38-3.7,10.49,10.49,0,0,0-2.25-3.41,7.62,7.62,0,0,0-8.23-.85,8.78,8.78,0,0,0-3.5,3,10.6,10.6,0,0,0-1.11,2.11,8.37,8.37,0,0,0-.65,2.32c-.27,3.37.35,6.7.54,9.93v0c1.18,6.47,2.27,12.45,3.2,17.57l-.28-.16,14-4.61,3.92-1.26,1.05-.33Z"/><path class="cls-5" d="M490.45,340.55c-.14,0-.51-.73-.83-1.73s-.47-1.85-.33-1.89.51.73.83,1.73S490.59,340.51,490.45,340.55Z"/><path class="cls-5" d="M495,339.25c-.14,0-.45-.72-.68-1.68s-.32-1.78-.18-1.81.45.72.68,1.69S495.18,339.22,495,339.25Z"/><path class="cls-5" d="M499.66,337.6c-.13,0-.44-.58-.68-1.38s-.32-1.49-.19-1.53.45.58.69,1.38S499.8,337.56,499.66,337.6Z"/><path class="cls-5" d="M524.71,333.76c-.12.08-.65-.59-1-1.55s-.42-1.81-.28-1.83.41.73.76,1.65S524.83,333.69,524.71,333.76Z"/><path class="cls-5" d="M528.19,331.79c-.13.06-.55-.51-.94-1.28s-.6-1.46-.47-1.52.55.51.94,1.28S528.32,331.73,528.19,331.79Z"/><path class="cls-5" d="M497.79,302s.08.17.09.45h-.27a17.22,17.22,0,0,1-.32-2.38,8.11,8.11,0,0,1,0-2.85,8.1,8.1,0,0,1,.49,2.81,18,18,0,0,1,.08,2.39h-.27C497.68,302.13,497.74,302,497.79,302Z"/><path class="cls-5" d="M502,302a10.86,10.86,0,0,1-.35-4.67,5.35,5.35,0,0,1,.44,2.31A5.47,5.47,0,0,1,502,302Z"/><path class="cls-5" d="M506.31,302.93a7.57,7.57,0,0,1-.3-2.8,7.94,7.94,0,0,1,.22-2.81,7.83,7.83,0,0,1,.3,2.8A7.94,7.94,0,0,1,506.31,302.93Z"/><path class="cls-5" d="M509.87,302.34a5.79,5.79,0,0,1-.26-2.39,5.86,5.86,0,0,1,.26-2.4,5.66,5.66,0,0,1,.26,2.4A5.6,5.6,0,0,1,509.87,302.34Z"/><path class="cls-5" d="M532.92,372.74c0,.14-8.7-.33-19.39-1.06s-19.37-1.44-19.36-1.58,8.69.33,19.39,1.06S532.93,372.59,532.92,372.74Z"/><path class="cls-11" d="M488,341.74l4.29,14a14.5,14.5,0,0,0,11.21,10.17l26.66,5.06,7.25-.23-2.47-6.19-24.83-9.82a5.42,5.42,0,0,1-4-3.89l-3.75-14.06Z"/><polygon class="cls-10" points="511.52 371.13 511.74 369.4 532.23 368.6 542.28 343.25 580.57 345.85 567.65 373.99 511.52 371.13"/><path class="cls-7" d="M557.35,359.69a2,2,0,1,1-.62-2.77A2,2,0,0,1,557.35,359.69Z"/></g><g id="Character_1" data-name="Character 1"><path class="cls-5" d="M233.41,189.09c16.69-6.06,8.12-31.23,8.12-31.23l-84.7,7.76a11.94,11.94,0,0,0-12,11.94h0a11.94,11.94,0,0,0,11.94,11.94l76.66-.41"/><path class="cls-6" d="M124.35,258.78l-.17-8.39,16.11-5.73.66,11.7-.9.43c-4.05,1.92-20.7,9.44-23.81,9.72C112.77,266.83,124.35,258.78,124.35,258.78Z"/><g class="cls-14"><path class="cls-7" d="M118.78,262.94s-3.94,3.1-3.08,3.61,18-6.46,25.25-10.19l-.16-.33-19.9,8.3S119.67,262.62,118.78,262.94Z"/></g><path class="cls-5" d="M141,255.93l-.24.13-.72.35-2.68,1.22c-2.27,1-5.42,2.39-8.93,3.82s-6.73,2.66-9.06,3.52l-2.77,1-.76.26-.27.07.25-.11.75-.29,2.75-1.06c2.32-.89,5.52-2.14,9-3.57s6.67-2.78,8.95-3.76l2.7-1.17.74-.32A.94.94,0,0,1,141,255.93Z"/><path class="cls-5" d="M121,264.56a6.56,6.56,0,0,0-1-1.09,7,7,0,0,0-1.35-.67,2.16,2.16,0,0,1,1.47.51A2.14,2.14,0,0,1,121,264.56Z"/><path class="cls-5" d="M124.5,260.52s-.34-.13-.7-.39-.63-.49-.6-.54a1.84,1.84,0,0,1,.71.38C124.27,260.23,124.53,260.47,124.5,260.52Z"/><path class="cls-5" d="M125.46,259.38c0,.05-.32,0-.68-.14s-.62-.27-.6-.32.32,0,.67.14S125.47,259.33,125.46,259.38Z"/><path class="cls-5" d="M125.65,257.65c0,.05-.31.24-.74.42a2,2,0,0,1-.82.24c0-.05.31-.24.74-.42A2,2,0,0,1,125.65,257.65Z"/><path class="cls-5" d="M125.5,256.55s-.27.36-.77.61a1.67,1.67,0,0,1-1,.24,7,7,0,0,1,.87-.42A4.93,4.93,0,0,1,125.5,256.55Z"/><path class="cls-5" d="M123.46,259.42a3,3,0,0,1-1,.38,5.54,5.54,0,0,1-1.12.19,3.18,3.18,0,0,1-.69,0,.55.55,0,0,1-.36-.2.41.41,0,0,1,0-.45,1.91,1.91,0,0,1,2.4-.37,1.85,1.85,0,0,1,.57.52c.11.15.14.24.13.25a2.78,2.78,0,0,0-.77-.65,1.89,1.89,0,0,0-1-.2,1.63,1.63,0,0,0-1.12.55c-.1.17,0,.33.24.36a2.73,2.73,0,0,0,.64,0,7.66,7.66,0,0,0,1.09-.14C123.08,259.53,123.45,259.39,123.46,259.42Z"/><path class="cls-5" d="M123.23,259.56s-.25-.17-.38-.62a1.79,1.79,0,0,1,0-.81,1.08,1.08,0,0,1,.61-.82.43.43,0,0,1,.48.33,1.16,1.16,0,0,1,0,.49,3.38,3.38,0,0,1-.22.77,1.67,1.67,0,0,1-.39.62s.12-.25.26-.67a4.06,4.06,0,0,0,.17-.74c.05-.26,0-.66-.27-.61s-.4.42-.47.67a1.7,1.7,0,0,0,0,.74A4.1,4.1,0,0,0,123.23,259.56Z"/><path class="cls-5" d="M139.05,252a10.94,10.94,0,0,0-1.09.49,5.16,5.16,0,0,0-2,2,5.29,5.29,0,0,0-.65,2.75c0,.73.19,1.17.16,1.18s-.07-.1-.13-.3a4.26,4.26,0,0,1-.16-.87,5,5,0,0,1,.6-2.86,5,5,0,0,1,2.12-2,4,4,0,0,1,.84-.32A1,1,0,0,1,139.05,252Z"/><path class="cls-5" d="M135,246.34a29.58,29.58,0,0,1,1.39,3,28.87,28.87,0,0,1,1.2,3.1,27.63,27.63,0,0,1-1.38-3A28.37,28.37,0,0,1,135,246.34Z"/><path class="cls-5" d="M133,257.76a9.57,9.57,0,0,1-2.1,1.1,9.35,9.35,0,0,1-2.27.72c0-.05,1-.39,2.19-.9S133,257.71,133,257.76Z"/><path class="cls-5" d="M135.92,256.55c.05,0,0,.24,0,.51s0,.49,0,.5-.17-.2-.16-.51S135.88,256.53,135.92,256.55Z"/><path class="cls-5" d="M136.47,254.73c.05,0,0,.21-.08.43s-.2.38-.25.36,0-.21.07-.43S136.42,254.71,136.47,254.73Z"/><path class="cls-5" d="M137.8,253.45c0,.06-.19.14-.38.3s-.3.35-.35.33,0-.27.22-.48S137.79,253.4,137.8,253.45Z"/><path class="cls-5" d="M138.8,252.69s0,.16-.12.25-.22.15-.25.11,0-.15.12-.25S138.77,252.66,138.8,252.69Z"/><path class="cls-5" d="M189,164.48l-47.3.89a15.18,15.18,0,0,0-14.79,13.33l-9.38,76.23h25.69l7.84-65.84h37.3Z"/><path class="cls-10" d="M117.86,250.08c0,.12,5.62.26,12.57.3s12.45-.13,12.57-.14c.79-.08-5.63-.26-12.57-.3S117.86,250,117.86,250.08Z"/><path class="cls-10" d="M215,162.08a.82.82,0,0,0-.23,0h-.69l-2.66.11-9.78.46-32.25,1.67c-1.58.07-3.14.2-4.67.22s-3.05.09-4.54.17-2.95.19-4.37.34a16.39,16.39,0,0,0-4.16.8,10.4,10.4,0,0,0-3.46,2.1,8.66,8.66,0,0,0-2.09,3.19,15.34,15.34,0,0,0-.86,3.44,23.19,23.19,0,0,0-.22,3.26,13.12,13.12,0,0,0,1.09,5.48,9,9,0,0,0,2.59,3.34,7.4,7.4,0,0,0,2.35,1.26c.59.17.6.12,0-.08a7.56,7.56,0,0,1-2.28-1.31,9,9,0,0,1-2.47-3.31,13,13,0,0,1-1-5.38,22.56,22.56,0,0,1,.25-3.21,14.32,14.32,0,0,1,.86-3.36,8.34,8.34,0,0,1,2-3.05,9.75,9.75,0,0,1,3.34-2,16.05,16.05,0,0,1,4.06-.77c1.42-.14,2.87-.24,4.35-.32s3-.14,4.53-.16,3.09-.15,4.67-.22l32.25-1.8,9.77-.6,2.66-.18.69-.06A1,1,0,0,0,215,162.08Z"/><path class="cls-15" d="M200,130.46l-4.11,12.88a14.87,14.87,0,0,1-11.55,10.35l-23.89,6.62-1.86-4.42-1.75-6.54,20.67-7a5.55,5.55,0,0,0,4.17-4l8.23-17.9,10.42,6.39Z"/><path class="cls-6" d="M210,90.16c-8.75,1-11.56,4.58-15.14,9.75a29.6,29.6,0,0,0-3.53,6.93l-6.63,18.78,13.83,4.27L198,145.22l-6.3,18.67,53.13,4.18-.15-27.13-.38-16.37c.5-6.2,1.79-19.35.69-22.46-4.73-13.33-15.16-10.77-22.81-12.67a51.51,51.51,0,0,0-10.54,0"/><path class="cls-9" d="M244.87,139.23c0,.14-10.39.26-23.21.26s-23.22-.12-23.22-.26,10.4-.26,23.22-.26S244.87,139.08,244.87,139.23Z"/><path class="cls-9" d="M244.09,148.5c0,.15-10.39.26-23.21.26s-23.21-.11-23.21-.26,10.39-.26,23.21-.26S244.09,148.36,244.09,148.5Z"/><path class="cls-9" d="M244.34,159.14c0,.15-11,.26-24.55.26s-24.54-.11-24.54-.26,11-.26,24.54-.26S244.34,159,244.34,159.14Z"/><g class="cls-13"><path d="M237.89,133.3c-.7,3.59-1,7.47-2.22,10.92a26.58,26.58,0,0,1-3.55,7.23,17.92,17.92,0,0,1-9,6c-3.51,1.08-20.38,4.86-24,4.58l30.86-14.61,3.72-15.36Z"/></g><path class="cls-15" d="M236.09,132.76l-3.4,13.06a14.92,14.92,0,0,1-11.09,11l-27.25,6.39-7.48.08V153l27.42-7.4a5.55,5.55,0,0,0,4-4.19l2.64-11.48Z"/><path class="cls-9" d="M245.14,101.33c0,.14-11.45.26-25.58.26s-25.58-.12-25.58-.26,11.45-.26,25.58-.26S245.14,101.19,245.14,101.33Z"/><path class="cls-9" d="M245.46,110.18c0,.14-12.34.26-27.57.26s-27.57-.12-27.57-.26,12.34-.26,27.57-.26S245.46,110,245.46,110.18Z"/><path class="cls-9" d="M244.74,119.75c0,.15-13,.36-29,.49s-29,.11-29,0,13-.37,29-.49S244.74,119.61,244.74,119.75Z"/><path class="cls-9" d="M244.34,129.89c0,.14-10.39.26-23.21.26s-23.21-.12-23.21-.26,10.39-.26,23.21-.26S244.34,129.74,244.34,129.89Z"/><path class="cls-5" d="M240.75,133.85a1.73,1.73,0,0,1,0-.22l.09-.63c.09-.59.21-1.4.37-2.43.33-2.11.81-5.18,1.34-9s1.14-8.48,1.44-13.7c.11-2.58.32-5.44-1-8a8.57,8.57,0,0,0-2.81-3.18,10,10,0,0,0-4.12-1.59H236a8.49,8.49,0,0,0-5.06.35A14.27,14.27,0,0,0,226.26,98a4.08,4.08,0,0,0-.71.8,9.41,9.41,0,0,0-.53,1,15.51,15.51,0,0,0-.77,2.1,41,41,0,0,0-.92,4.35c-.52,2.89-1,5.71-1.51,8.42-1,5.42-1.87,10.42-2.67,14.85l-.15-.23,15.38,3.29,4.23.94,1.1.26a1.87,1.87,0,0,1,.38.11,2.12,2.12,0,0,1-.39,0l-1.12-.2-4.25-.83-15.44-3.12-.19,0,0-.2c.77-4.43,1.65-9.45,2.6-14.87q.72-4.08,1.48-8.43a42.13,42.13,0,0,1,.93-4.4,14.94,14.94,0,0,1,.8-2.17c.17-.35.35-.7.55-1a4.53,4.53,0,0,1,.82-.92,14.85,14.85,0,0,1,4.87-2.65,9,9,0,0,1,5.38-.33h-.06a10.32,10.32,0,0,1,4.35,1.69,9,9,0,0,1,3,3.37,11.31,11.31,0,0,1,.77,2,12.82,12.82,0,0,1,.32,2.11l.06,1c0,.34,0,.68,0,1,0,.68-.05,1.34-.09,2-.34,5.25-1,9.87-1.56,13.71s-1.11,6.92-1.49,9c-.2,1-.35,1.83-.46,2.42l-.13.62A.8.8,0,0,1,240.75,133.85Z"/><path class="cls-5" d="M198.35,145a9.11,9.11,0,0,0,.07-1.39c0-1,0-2.25,0-3.8,0-3.2,0-7.63-.09-12.51s-.14-9.31-.22-12.51c0-1.55-.08-2.83-.11-3.8a8.32,8.32,0,0,0-.11-1.39,9.11,9.11,0,0,0-.07,1.39c0,1,0,2.25,0,3.8,0,3.2,0,7.62.09,12.51s.14,9.31.22,12.52c.05,1.54.08,2.82.11,3.79A8.32,8.32,0,0,0,198.35,145Z"/><polygon class="cls-10" points="215.03 165.48 215.5 163.25 194.87 161.05 185.87 135.19 143.85 134.91 157.62 164.89 215.03 165.48"/><path class="cls-7" d="M170.77,151.44a2.07,2.07,0,1,0-2.85-.64,2.06,2.06,0,0,0,2.85.64"/><path class="cls-5" d="M199.37,47.61a5.57,5.57,0,0,0-2,10.29,3,3,0,0,0,2.81.33,3.48,3.48,0,0,0,1.52-2.2,11.83,11.83,0,0,0-.67-8.59"/><path class="cls-15" d="M216.71,98.65h0a9,9,0,0,1-9-9.07c0-3.11.09-5.81.09-5.81s-7.21-.67-7.73-7.8-.31-23.59-.31-23.59h0A24.83,24.83,0,0,1,224.9,54l1.11.75-.34,35A9,9,0,0,1,216.71,98.65Z"/><path class="cls-16" d="M207.81,83.67A16.61,16.61,0,0,0,217,80.45s-1.88,5.27-9,5.07Z"/><path class="cls-15" d="M224.17,62.61c.13,0,4.51-.62,4.1,4.56s-5.5,3-5.5,2.89S224.17,62.61,224.17,62.61Z"/><path class="cls-16" d="M224.5,68.37s.09.07.23.16a.93.93,0,0,0,.68.06,2.22,2.22,0,0,0,1.19-1.92,3,3,0,0,0-.15-1.31,1,1,0,0,0-.62-.74.47.47,0,0,0-.56.2c-.08.14-.05.25-.08.25s-.1-.09-.05-.3a.59.59,0,0,1,.23-.31.68.68,0,0,1,.51-.09,1.26,1.26,0,0,1,.88.88,3.17,3.17,0,0,1,.2,1.46,2.34,2.34,0,0,1-1.5,2.13,1,1,0,0,1-.81-.2C224.5,68.5,224.48,68.38,224.5,68.37Z"/><path class="cls-5" d="M204.72,55.33a20.78,20.78,0,0,0,3.36-2.43,5.46,5.46,0,0,0,8.39,1,2.8,2.8,0,0,0,1.41,2.26,2.77,2.77,0,0,0,2.65,0l.11,8.25a3.77,3.77,0,0,0,.52,2.28,1.3,1.3,0,0,0,2,.17,5.92,5.92,0,0,1,.28-3A2,2,0,0,1,226,62.78a20,20,0,0,0,.29-4.88,4.69,4.69,0,0,1,.21-1.5c.28-.45.41-.1.93-.21a3.72,3.72,0,0,0,2.79-3.33,4.67,4.67,0,0,0-2-4,6.35,6.35,0,0,0-4.43-1.06,2.82,2.82,0,0,0,0-3.76A4.6,4.6,0,0,0,220,42.66c-1.38.08-2.94.85-3.11,2.23a5.7,5.7,0,0,0-11.26-.31c-1.66-.74-4-1.55-5.64-.8a5.44,5.44,0,0,0-3.43,4.75s-.42,5.66,3.16,6.8S204.72,55.33,204.72,55.33Z"/><path class="cls-5" d="M201.68,63.8a1,1,0,0,0,1,1,1,1,0,0,0,1-.91,1,1,0,0,0-1-1A1,1,0,0,0,201.68,63.8Z"/><path class="cls-5" d="M201.46,62.67c.12.13.88-.43,2-.42s1.86.54,2,.4-.07-.29-.42-.54a2.74,2.74,0,0,0-3.14,0C201.51,62.38,201.4,62.61,201.46,62.67Z"/><path class="cls-5" d="M212.22,64.05a1,1,0,0,0,1,1,1,1,0,0,0,1-.9,1,1,0,0,0-1-1A1,1,0,0,0,212.22,64.05Z"/><path class="cls-5" d="M212,62.87c.12.13.88-.43,2-.42s1.87.54,2,.41-.07-.3-.42-.55a2.74,2.74,0,0,0-1.58-.49,2.62,2.62,0,0,0-1.56.51C212.09,62.58,212,62.82,212,62.87Z"/><path class="cls-5" d="M208.13,70.86a6.47,6.47,0,0,0-1.75-.32c-.27,0-.53-.08-.58-.27a1.47,1.47,0,0,1,.18-.82l.82-2.09a35.65,35.65,0,0,0,1.82-5.47,35.83,35.83,0,0,0-2.26,5.31l-.78,2.11a1.61,1.61,0,0,0-.14,1.08.71.71,0,0,0,.45.4,2.16,2.16,0,0,0,.47.06A7.25,7.25,0,0,0,208.13,70.86Z"/><path class="cls-5" d="M211.3,71.6c-.18,0-.18,1.16-1.18,2s-2.24.7-2.25.86.28.23.8.24a2.92,2.92,0,0,0,1.88-.65,2.54,2.54,0,0,0,.91-1.67C211.51,71.88,211.38,71.59,211.3,71.6Z"/><path class="cls-5" d="M211.76,58.66c.1.29,1.18.15,2.44.3s2.29.5,2.45.24-.1-.4-.51-.69a4.09,4.09,0,0,0-1.82-.63,4,4,0,0,0-1.91.22C212,58.29,211.71,58.52,211.76,58.66Z"/><path class="cls-5" d="M201.85,59.56c.19.24.93,0,1.83,0s1.64.16,1.82-.09-.05-.37-.38-.6a2.59,2.59,0,0,0-2.93.09C201.87,59.19,201.77,59.44,201.85,59.56Z"/><path class="cls-10" d="M203.9,47.27s-.1-.05-.28-.09a1,1,0,0,0-1.07,1.28,1.76,1.76,0,0,0,1.07,1.17,2.29,2.29,0,0,0,1.92-.12,2.38,2.38,0,0,0,1.16-1.86,2.64,2.64,0,0,0-.9-2.25,3.17,3.17,0,0,0-2.53-.81,4.08,4.08,0,0,0-2.44,1.22,4.67,4.67,0,0,0-1.18,2.29,6.3,6.3,0,0,0,.73,4.35,7.34,7.34,0,0,0,2.05,2.28c.59.42,1,.6.95.64a3.25,3.25,0,0,1-1.07-.47,6.81,6.81,0,0,1-2.24-2.26,6.49,6.49,0,0,1-.89-4.63,5.19,5.19,0,0,1,1.28-2.56,4.57,4.57,0,0,1,2.76-1.38,3.73,3.73,0,0,1,2.93,1,3.16,3.16,0,0,1,1,2.69,2.86,2.86,0,0,1-1.43,2.18,2.69,2.69,0,0,1-2.28.08,2.11,2.11,0,0,1-1.21-1.44,1.23,1.23,0,0,1,.5-1.32,1,1,0,0,1,.89-.13C203.85,47.16,203.91,47.26,203.9,47.27Z"/></g><g id="Plants"><path class="cls-6" d="M36.47,378.21c.67-2.66-1.09-5.32-3-7.23s-4.31-3.63-5.34-6.17c-1.66-4.12.52-9.48-2.31-12.91-1.66-2-4.63-2.67-6.11-4.83a11.15,11.15,0,0,1-1.34-3.86A39.36,39.36,0,0,0,8.45,325a34.08,34.08,0,0,0,3.93,17.6c1.15,2.16,2.56,4.26,2.95,6.68.63,3.92-1.53,8-.55,11.82,1.13,4.4,6.1,7.32,6.36,11.86.22,3.83-3.11,7.22-2.84,11.05A10.25,10.25,0,0,0,20,388.52c3,4.92,7.36,8.29,14,8.14l8.08.24Z"/><g class="cls-13"><path d="M36.47,378.21c.67-2.66-1.09-5.32-3-7.23s-4.31-3.63-5.34-6.17c-1.66-4.12.52-9.48-2.31-12.91-1.66-2-4.63-2.67-6.11-4.83a11.15,11.15,0,0,1-1.34-3.86A39.36,39.36,0,0,0,8.45,325a34.08,34.08,0,0,0,3.93,17.6c1.15,2.16,2.56,4.26,2.95,6.68.63,3.92-1.53,8-.55,11.82,1.13,4.4,6.1,7.32,6.36,11.86.22,3.83-3.11,7.22-2.84,11.05A10.25,10.25,0,0,0,20,388.52c3,4.92,7.36,8.29,14,8.14l8.08.24Z"/></g><path class="cls-5" d="M43.73,397.1A6.65,6.65,0,0,0,46,397a13.57,13.57,0,0,0,2.62-.68,11,11,0,0,0,3.24-1.79,4.65,4.65,0,0,0,1.32-1.79,8.28,8.28,0,0,0,.37-2.42,24,24,0,0,1,.17-2.62,7.32,7.32,0,0,1,1-2.6c.94-1.68,2.52-3.28,3-5.55s.13-4.66-.26-7.09-.76-5.07.15-7.6,2.61-4.83,3.48-7.68.44-6,.61-9a11.91,11.91,0,0,1,1-4.49c.64-1.44,1.54-2.79,2.24-4.31,1.42-3.05,1.66-6.5,2-9.89.18-1.71.37-3.43.55-5.17a25.27,25.27,0,0,1,.87-5.18,44.35,44.35,0,0,1,1.91-5,17.26,17.26,0,0,0,.92-2.62,26.71,26.71,0,0,0,.24-2.79,32.74,32.74,0,0,0-.24-5.59c-.23-1.87-.58-3.72-.79-5.58l0-.33,0-.37L70,297a12.54,12.54,0,0,0-4.34,3.7A19.62,19.62,0,0,0,63,305.66c-1.33,3.48-1.8,7.13-2.46,10.61a28.85,28.85,0,0,1-3.27,9.8c-.88,1.44-1.94,2.76-2.87,4.17a11.45,11.45,0,0,0-2,4.62c-.46,3.43,1.44,6.42,1.07,9.45a10.48,10.48,0,0,1-1.46,4.21c-.72,1.29-1.58,2.5-2.39,3.7A24.19,24.19,0,0,0,47.51,356a11.7,11.7,0,0,0-1,4.06c-.18,2.73.22,5.31,0,7.75a17.87,17.87,0,0,1-2,6.66c-1,2-2,3.8-2.95,5.55-.45.88-.87,1.73-1.21,2.59a12.37,12.37,0,0,0-.7,2.56,16.22,16.22,0,0,0,0,4.61,11.65,11.65,0,0,0,2.35,5.88,6.51,6.51,0,0,0,.65.7,3.76,3.76,0,0,0,.54.45c.3.22.46.32.46.32a10.26,10.26,0,0,1-1.57-1.54,11.66,11.66,0,0,1-2.23-5.83,15.91,15.91,0,0,1,.08-4.55,11.7,11.7,0,0,1,.7-2.5,26.75,26.75,0,0,1,1.22-2.55c.91-1.74,2-3.54,3-5.54a18.26,18.26,0,0,0,2-6.78c.2-2.5-.19-5.09,0-7.75a11.37,11.37,0,0,1,1-3.93A23.58,23.58,0,0,1,50,352.46c.81-1.2,1.67-2.4,2.42-3.73A10.8,10.8,0,0,0,54,344.36c.37-3.23-1.52-6.25-1.05-9.43a11.05,11.05,0,0,1,1.92-4.42c.91-1.38,2-2.71,2.89-4.19a29.17,29.17,0,0,0,3.34-10c.67-3.5,1.13-7.1,2.44-10.52A19.41,19.41,0,0,1,66.08,301a12,12,0,0,1,4.15-3.55l-.38-.2,0,.33c.22,1.89.56,3.74.79,5.58a31.87,31.87,0,0,1,.25,5.51,26,26,0,0,1-.24,2.7,16.21,16.21,0,0,1-.89,2.53A46.29,46.29,0,0,0,67.88,319a26,26,0,0,0-.88,5.26c-.18,1.74-.36,3.47-.54,5.18-.37,3.4-.6,6.8-2,9.74-.67,1.47-1.57,2.83-2.24,4.31a12.59,12.59,0,0,0-1.06,4.67c-.15,3.12.27,6.17-.56,8.94s-2.57,5.06-3.45,7.67-.53,5.37-.13,7.79.81,4.8.3,6.95-2,3.76-2.94,5.48a7.42,7.42,0,0,0-1,2.71,22.51,22.51,0,0,0-.16,2.65,8,8,0,0,1-.33,2.35,4.32,4.32,0,0,1-1.24,1.71,11.35,11.35,0,0,1-3.16,1.81,14.2,14.2,0,0,1-2.59.72,10.22,10.22,0,0,1-1.64.16C43.93,397.09,43.73,397.1,43.73,397.1Z"/><path class="cls-5" d="M68.74,301.69s0,.08-.07.24-.11.43-.18.73c-.15.64-.34,1.6-.64,2.8s-1,2.56-1.65,4.24-1.29,3.58-1.89,5.74-1.14,4.56-1.69,7.13a30.1,30.1,0,0,1-2.55,7.91c-.65,1.32-1.39,2.65-2,4.11A19.06,19.06,0,0,0,57,339.24,93.34,93.34,0,0,1,55.27,349c-1.59,6.64-3.1,13-4.47,18.71S48.12,378.65,47.06,383s-1.89,7.82-2.49,10.3c-.27,1.18-.49,2.12-.65,2.8l-.15.74a1.15,1.15,0,0,0,0,.25.91.91,0,0,0,.09-.24q.07-.28.21-.72c.18-.68.43-1.61.74-2.79.63-2.46,1.53-6,2.64-10.26l3.86-15.23c1.38-5.76,2.91-12.08,4.5-18.72a91.57,91.57,0,0,0,1.69-9.83,18.71,18.71,0,0,1,1.09-4.54c.57-1.42,1.29-2.74,2-4.07a30.48,30.48,0,0,0,2.54-8c.54-2.57,1.05-5,1.62-7.12s1.2-4.08,1.81-5.74,1.29-3.05,1.58-4.28.42-2.19.54-2.84c0-.3.1-.54.13-.74A1,1,0,0,0,68.74,301.69Z"/><path class="cls-6" d="M45.16,397.12c5.26-3.17,6.73-12.71,4.49-18.44s-6.12-10.94-6.75-17.05c-.49-4.7,1-9.53-.09-14.12-1.52-6.2-7.6-11-7.57-17.34,0-3.58,2-6.95,1.86-10.53-.23-4.38-3.61-7.83-5.72-11.68-3.22-5.9-3.47-12.88-4.6-19.5s-3.69-13.7-9.58-16.93c-.84,5.63-2.29,9.5-1.79,17.11.19,2.74,3.4,8,3.86,14,.28,3.58.48,7.17.72,10.76s.48,7,1.75,10.3c1,2.5,2.53,4.76,3.25,7.34,1.37,4.86-.36,10.13.75,15.05.94,4.17,3.85,7.75,4.46,12,.87,6-2.95,12.14-.95,17.8,1,2.81,3.33,5.06,4,8,.52,2.25,0,4.64.45,6.91.77,3.64,7.74,6.44,11.46,6.19"/><path class="cls-5" d="M18.69,277.11a1.54,1.54,0,0,0,0,.32c0,.23.07.54.13.92.12.81.26,2,.55,3.55s1.11,3.29,1.76,5.39,1.37,4.51,2,7.22,1.14,5.71,1.69,8.93a37.26,37.26,0,0,0,2.76,10.09c.75,1.69,1.59,3.37,2.23,5.17A23.15,23.15,0,0,1,31,324.4a116.69,116.69,0,0,0,1.62,12.3c1.67,8.32,3.25,16.25,4.7,23.47l4,19.12c1.16,5.41,2.1,9.8,2.77,12.88.33,1.49.59,2.66.77,3.5.09.37.16.67.22.9a1.31,1.31,0,0,0,.09.31,1.11,1.11,0,0,0,0-.32c0-.23-.1-.53-.16-.91-.17-.84-.39-2-.69-3.52-.62-3.08-1.51-7.49-2.6-12.92s-2.46-11.94-3.93-19.14-3-15.14-4.66-23.47a120.14,120.14,0,0,1-1.62-12.25,24,24,0,0,0-1.18-5.82c-.66-1.83-1.51-3.52-2.26-5.19a37.52,37.52,0,0,1-2.78-10c-.56-3.22-1.11-6.23-1.75-8.94s-1.35-5.14-2.06-7.23-1.52-3.84-1.84-5.35-.49-2.71-.65-3.52c-.07-.38-.13-.68-.18-.91A1.49,1.49,0,0,0,18.69,277.11Z"/><path class="cls-6" d="M613.32,370.58c-1.22,1.74-3.59,1.16-4.69.1a8.78,8.78,0,0,1-2-4.07c-1-3.36-1.94-6.88-1.22-10.3a5.6,5.6,0,0,1,1.31-2.79,3,3,0,0,1,2.83-.95,4.35,4.35,0,0,1,2.47,2.6,24.47,24.47,0,0,1,2.43,10.53,8.62,8.62,0,0,1-1.15,4.88"/><g class="cls-8"><path d="M613.32,370.58c-1.22,1.74-3.59,1.16-4.69.1a8.78,8.78,0,0,1-2-4.07c-1-3.36-1.94-6.88-1.22-10.3a5.6,5.6,0,0,1,1.31-2.79,3,3,0,0,1,2.83-.95,4.35,4.35,0,0,1,2.47,2.6,24.47,24.47,0,0,1,2.43,10.53,8.62,8.62,0,0,1-1.15,4.88"/></g><path class="cls-6" d="M608.75,379.39a10.58,10.58,0,0,0-6.55-.8A5.5,5.5,0,0,0,599,380a2.32,2.32,0,0,0,0,3.23,3.06,3.06,0,0,0,2,.52c1.73,0,3.65-.33,5,.72.79.59,1.31,1.58,2.26,1.87a2.22,2.22,0,0,0,2.45-1.09,3.82,3.82,0,0,0,.28-2.82A4.3,4.3,0,0,0,608.75,379.39Z"/><path class="cls-6" d="M616.66,373.07a6.34,6.34,0,0,1-1-5.83,11.25,11.25,0,0,1,3.45-5,18.51,18.51,0,0,1,6.18-3.65,6.68,6.68,0,0,1,2.78-.47,2.92,2.92,0,0,1,2.34,1.41c.65,1.24,0,2.74-.65,4a47.12,47.12,0,0,1-4.06,6.19,11.05,11.05,0,0,1-4.47,3.82c-1.85.71-3.78.63-4.76-.66"/><path class="cls-5" d="M613.4,396.83a3.86,3.86,0,0,1-.11-.79c-.06-.57-.13-1.3-.21-2.16a29.08,29.08,0,0,0-.49-3.16,23.62,23.62,0,0,0-1.15-3.74,13.84,13.84,0,0,0-1.9-3.38,7.2,7.2,0,0,0-2.42-2,6.87,6.87,0,0,0-2-.63,4.22,4.22,0,0,1-.79-.11,3.14,3.14,0,0,1,.8,0,6.23,6.23,0,0,1,2.12.56,7,7,0,0,1,2.55,2,13.67,13.67,0,0,1,2,3.45,23.13,23.13,0,0,1,1.14,3.8,26.18,26.18,0,0,1,.42,3.2c.07.92.09,1.66.11,2.18A3.73,3.73,0,0,1,613.4,396.83Z"/><path class="cls-5" d="M613.25,395.17a1.41,1.41,0,0,1,0-.36v-1.05c0-.91,0-2.23,0-3.86-.08-3.26-.36-7.75-.91-12.69s-1.26-9.38-1.92-12.57c-.16-.8-.32-1.52-.46-2.15s-.26-1.18-.38-1.62-.18-.75-.25-1a1.59,1.59,0,0,1-.06-.36,2.47,2.47,0,0,1,.13.35l.3,1c.14.44.28,1,.43,1.61s.34,1.34.51,2.14a119,119,0,0,1,2,12.59c.54,4.95.79,9.45.81,12.72,0,1.63,0,3-.06,3.86,0,.43-.05.77-.06,1.05A1.45,1.45,0,0,1,613.25,395.17Z"/><path class="cls-5" d="M613.23,386.48a7.1,7.1,0,0,1,0-1.1,29.7,29.7,0,0,1,.33-3,39.43,39.43,0,0,1,1-4.32,37.18,37.18,0,0,1,1.81-5.12,27.21,27.21,0,0,1,5.31-8.28,14.09,14.09,0,0,1,1.25-1.16c.2-.16.37-.33.54-.45l.48-.34a6.32,6.32,0,0,1,.93-.59,31.74,31.74,0,0,0-3,2.7,28.64,28.64,0,0,0-5.18,8.25,40.12,40.12,0,0,0-1.82,5.07,43.14,43.14,0,0,0-1,4.28c-.23,1.24-.36,2.25-.44,2.94A7.19,7.19,0,0,1,613.23,386.48Z"/></g></g></svg>