<svg xmlns="http://www.w3.org/2000/svg" viewBox="0 0 669.26 436.92"><defs><style>.cls-1{fill:#e0e0e0;}.cls-2{fill:#ebebeb;}.cls-3{fill:#f5f5f5;}.cls-4{fill:#fafafa;}.cls-5{fill:#fff;}.cls-6{fill:#263238;}.cls-7{fill:#e8505b;}.cls-8{opacity:0.2;}.cls-9{fill:#455a64;}.cls-10{fill:#b78876;}.cls-11{fill:#aa6550;}.cls-12{opacity:0.4;}.cls-13{fill:#ffbe9d;}.cls-14{opacity:0.5;}.cls-15{fill:#eb996e;}</style></defs><g id="Layer_2" data-name="Layer 2"><g id="Background_Complete" data-name="Background Complete"><path class="cls-1" d="M159.15,273.53a4.25,4.25,0,0,0,1.8-1.21,3.89,3.89,0,0,0,.88-2.43,6.59,6.59,0,0,0-.29-1.66l-.48-1.9c-1.34-5.42-3.27-13.19-5.64-22.77q-.88-3.62-1.86-7.55l-1-4a12.41,12.41,0,0,0-.57-2,3.51,3.51,0,0,0-1.32-1.46,3.43,3.43,0,0,0-1.93-.48,19.32,19.32,0,0,0-2.12.49l-4.44,1.16-9.26,2.4L91.68,242.78a3.47,3.47,0,0,0-2.47,3.93c.43,1.81.86,3.6,1.29,5.39.86,3.57,1.71,7.1,2.55,10.56,1.68,6.93,3.29,13.61,4.83,20q.28,1.2.57,2.37a3.57,3.57,0,0,0,1,1.93,3.39,3.39,0,0,0,1.92.92,5.7,5.7,0,0,0,2.18-.34l8.75-2.23,15.7-4,22.75-5.75L157,274l1.62-.38a4,4,0,0,1,.56-.11,4.32,4.32,0,0,1-.54.18l-1.6.45-6.16,1.66-22.69,6-15.68,4.09-8.74,2.27a6.43,6.43,0,0,1-2.41.36,4,4,0,0,1-2.3-1.08,4.4,4.4,0,0,1-1.23-2.25l-.57-2.37c-1.55-6.37-3.18-13.05-4.87-20l-2.57-10.56q-.65-2.7-1.3-5.44a4.2,4.2,0,0,1,3-4.75l41.27-10.61L142,229.1l4.44-1.14a18.4,18.4,0,0,1,2.24-.5A4,4,0,0,1,151,228a4.09,4.09,0,0,1,1.54,1.71,12.2,12.2,0,0,1,.6,2.1c.33,1.37.65,2.71,1,4,.63,2.63,1.23,5.16,1.81,7.56,2.28,9.62,4.13,17.41,5.41,22.83l.45,1.91a6.32,6.32,0,0,1,.26,1.73,4,4,0,0,1-1,2.52,3.69,3.69,0,0,1-1.37,1A1.91,1.91,0,0,1,159.15,273.53Z"/><polygon class="cls-1" points="126.76 253.5 135.6 256.17 128.97 262.77 122.34 269.37 120.13 260.1 117.92 250.83 126.76 253.5"/><rect class="cls-2" x="559.07" y="272.75" width="89.81" height="71.8" transform="translate(-44.17 108.76) rotate(-9.93)"/><rect class="cls-3" x="562.16" y="277.28" width="83.5" height="62.76" transform="translate(-44.17 108.75) rotate(-9.93)"/><polygon class="cls-1" points="568.2 346.77 590.2 303.31 612.21 324.24 622.03 309.27 650.45 332.37 568.2 346.77"/><path class="cls-1" d="M614.73,294.17a6.58,6.58,0,1,1-7.61-5.35A6.59,6.59,0,0,1,614.73,294.17Z"/><rect class="cls-2" x="327.06" y="299.9" width="48.29" height="60.4" transform="translate(-74.16 556.76) rotate(-71.28)"/><rect class="cls-3" x="330.06" y="302.01" width="42.21" height="56.15" transform="translate(-74.17 556.71) rotate(-71.28)"/><polygon class="cls-1" points="317.8 341.06 344.8 322.51 351.04 341.95 361.66 336.29 370.98 359.08 317.8 341.06"/><path class="cls-1" d="M362.22,325a4.42,4.42,0,1,1-2.77-5.61A4.43,4.43,0,0,1,362.22,325Z"/><circle class="cls-1" cx="541.91" cy="40.24" r="40.24" transform="translate(130.27 394.98) rotate(-45)"/><path class="cls-4" d="M560.18,41.48a7,7,0,0,1-1.42.1l-3.91.08c-3.32,0-7.94.07-13.16.08h-.26V38.87c0-5.83,0-11.1.07-14.92,0-1.85.07-3.37.09-4.53a9.68,9.68,0,0,1,.1-1.66,11.19,11.19,0,0,1,.1,1.66c0,1.16.05,2.68.08,4.53,0,3.82.08,9.09.08,14.92v2.61l-.26-.26c5.22,0,9.84,0,13.16.09l3.91.08A8.9,8.9,0,0,1,560.18,41.48Z"/><path class="cls-4" d="M541.81,6.61a11,11,0,0,1,.26,3.38,11,11,0,0,1-.26,3.38,11.33,11.33,0,0,1-.26-3.38A11.39,11.39,0,0,1,541.81,6.61Z"/><path class="cls-4" d="M560.15,12A11,11,0,0,1,558,14.58a11.18,11.18,0,0,1-2.54,2.17,10.65,10.65,0,0,1,2.17-2.54A11,11,0,0,1,560.15,12Z"/><path class="cls-4" d="M570.87,23.75a13.86,13.86,0,0,1-2.77,1.85,14.23,14.23,0,0,1-2.92,1.61,8.81,8.81,0,0,1,2.65-2.05A9,9,0,0,1,570.87,23.75Z"/><path class="cls-4" d="M577.15,41.13a41,41,0,0,1-9.22,0,41,41,0,0,1,9.22,0Z"/><path class="cls-4" d="M513.23,40.52a36.6,36.6,0,0,1-8.71,0,36.6,36.6,0,0,1,8.71,0Z"/><path class="cls-4" d="M517.75,53.46a18.88,18.88,0,0,1-3.29,3A19,19,0,0,1,510.85,59a18.88,18.88,0,0,1,3.29-3A18.88,18.88,0,0,1,517.75,53.46Z"/><path class="cls-4" d="M528.91,63.46a30.63,30.63,0,0,1-2.24,3.89,29.94,29.94,0,0,1-2.38,3.79,14.42,14.42,0,0,1,1.93-4.06A14.44,14.44,0,0,1,528.91,63.46Z"/><path class="cls-4" d="M541.81,76.37a20.89,20.89,0,0,1-.26-4.61,21,21,0,0,1,.26-4.61,20.26,20.26,0,0,1,.26,4.61A20.19,20.19,0,0,1,541.81,76.37Z"/><path class="cls-4" d="M561.68,70.23a13.55,13.55,0,0,1-3.8-2.6,13.88,13.88,0,0,1-3.1-3.41,40.08,40.08,0,0,1,3.44,3A39.41,39.41,0,0,1,561.68,70.23Z"/><path class="cls-4" d="M571,60.19A15.83,15.83,0,0,1,568,57.5a16.1,16.1,0,0,1-2.68-3,16.1,16.1,0,0,1,3.05,2.68A15.83,15.83,0,0,1,571,60.19Z"/><path class="cls-4" d="M517.33,28.12a12,12,0,0,1-2.69-2.32,12.18,12.18,0,0,1-2.33-2.7A12.27,12.27,0,0,1,515,25.43,12.53,12.53,0,0,1,517.33,28.12Z"/><path class="cls-4" d="M528.84,16a11.76,11.76,0,0,1-2.65-2.27,11.57,11.57,0,0,1-2.28-2.64,12.09,12.09,0,0,1,2.65,2.27A12.06,12.06,0,0,1,528.84,16Z"/><rect class="cls-1" x="598.95" y="88.81" width="70.31" height="101.91"/><rect class="cls-3" x="595.43" y="88.81" width="70.31" height="101.91"/><rect class="cls-5" x="604.16" y="99.85" width="52.84" height="79.84"/><path class="cls-1" d="M657,179.69s0-.13,0-.39,0-.64,0-1.13c0-1,0-2.47,0-4.38,0-3.83,0-9.4-.05-16.45,0-14.08,0-34-.08-57.49l.17.18H604.16l.19-.19c0,30.12,0,57.89,0,79.84l-.16-.15,38.46.08,10.63,0H656l1,0-.93,0h-2.76l-10.59,0-38.56.08H604v-.15c0-21.95,0-49.72,0-79.84v-.19h.2l52.83,0h.18v.17c0,23.53-.07,43.5-.09,57.61,0,7,0,12.59,0,16.4q0,2.85,0,4.35c0,.48,0,.85,0,1.11S657,179.69,657,179.69Z"/><path class="cls-1" d="M665.94,88.81a12.14,12.14,0,0,1-1.26,1.83c-.81,1.09-2,2.57-3.3,4.18s-2.56,3-3.47,4a12.88,12.88,0,0,1-1.55,1.58,13.12,13.12,0,0,1,1.34-1.76l3.39-4.1,3.38-4.11A12.72,12.72,0,0,1,665.94,88.81Z"/><path class="cls-5" d="M657.27,179.43A65.73,65.73,0,0,0,666.49,191"/><path class="cls-1" d="M666.49,191a10.86,10.86,0,0,1-1.61-1.46,51.33,51.33,0,0,1-3.47-3.92,50.28,50.28,0,0,1-3.06-4.26,10.17,10.17,0,0,1-1.08-1.89,14.51,14.51,0,0,1,1.3,1.74c.77,1.09,1.86,2.58,3.13,4.17s2.49,3,3.38,4A14.86,14.86,0,0,1,666.49,191Z"/><path class="cls-5" d="M595.42,190.65l9.21-11.37"/><path class="cls-1" d="M604.63,179.28a71.08,71.08,0,0,1-4.46,5.81c-2.54,3.13-4.67,5.62-4.75,5.56a68.49,68.49,0,0,1,4.45-5.8C602.42,181.71,604.55,179.22,604.63,179.28Z"/><path class="cls-1" d="M595.43,88.81a66.5,66.5,0,0,1,4.47,5.35,65.63,65.63,0,0,1,4.17,5.58,62.89,62.89,0,0,1-4.47-5.34A62.33,62.33,0,0,1,595.43,88.81Z"/><rect class="cls-1" x="622.85" y="116.06" width="17.69" height="50.24"/><polygon class="cls-1" points="118.01 130.73 118.01 203.61 13.35 203.61 9.58 131.24 118.01 130.73"/><rect class="cls-5" x="25.8" y="115.01" width="72.21" height="104.67" transform="translate(-105.44 229.26) rotate(-90)"/><path class="cls-1" d="M114.74,204H9.08v-73.2H114.74ZM10.07,203H113.75V131.74H10.07Z"/><rect class="cls-5" x="20.91" y="140.21" width="81.99" height="54.27"/><path class="cls-1" d="M102.91,140.21l-.41,0h-1.16l-4.51,0-16.89.06-59,.12.24-.24c0,16.58,0,35,0,54.26h0l-.26-.26,82,.06-.21.2c0-16.51.08-30,.11-39.48,0-4.72,0-8.4,0-10.92,0-1.25,0-2.21,0-2.87s0-1,0-1,0,.32,0,1,0,1.6,0,2.83c0,2.51,0,6.18,0,10.87,0,9.46.07,23,.11,39.61v.21h-.2l-82,.05h-.26v-.26h0c0-19.3,0-37.68,0-54.26V140h.23l59.18.11,16.85.07,4.45,0h1.52Z"/><path class="cls-1" d="M9.58,131a8.5,8.5,0,0,1,1.8,1.17c1.07.77,2.53,1.86,4.1,3.12s3,2.46,3.93,3.35a8.2,8.2,0,0,1,1.5,1.53c-.09.11-2.61-2-5.75-4.47A56.82,56.82,0,0,1,9.58,131Z"/><path class="cls-1" d="M114.24,131.24a50.55,50.55,0,0,1-5.5,4.69,49.71,49.71,0,0,1-5.83,4.28,49.88,49.88,0,0,1,5.5-4.68A51,51,0,0,1,114.24,131.24Z"/><path class="cls-5" d="M114.16,203.46,102.49,194"/><path class="cls-1" d="M102.49,194a55,55,0,0,1,6,4.53,56.24,56.24,0,0,1,5.67,4.93,54.51,54.51,0,0,1-6-4.53A53.41,53.41,0,0,1,102.49,194Z"/><path class="cls-1" d="M9.58,203.45A49.54,49.54,0,0,1,15,198.81a49.73,49.73,0,0,1,5.77-4.23,49.54,49.54,0,0,1-5.45,4.64A49.73,49.73,0,0,1,9.58,203.45Z"/><rect class="cls-1" x="54.27" y="140.41" width="18.17" height="51.59" transform="translate(-102.85 229.56) rotate(-90)"/></g><g id="Floor"><path class="cls-6" d="M664.79,426.33c0,.15-148.83.26-332.38.26S0,426.48,0,426.33s148.8-.26,332.41-.26S664.79,426.19,664.79,426.33Z"/></g><g id="Calendar"><rect class="cls-2" x="80.89" y="32.14" width="71.8" height="89.81" transform="translate(24.85 182.51) rotate(-82.33)"/><path class="cls-6" d="M166.09,47.46l-.43-.05-1.25-.15-4.84-.63-18.23-2.39L77.05,35.7l.26-.2c-2.84,21.18-6.1,45.46-9.55,71.16h0l-.23-.3,89,12-.25.19c2.93-21.42,5.37-39.18,7.06-51.6.87-6.21,1.54-11.08,2-14.41q.36-2.49.54-3.81c.12-.86.2-1.31.2-1.31s0,.43-.15,1.27l-.48,3.77c-.43,3.33-1.07,8.19-1.88,14.39-1.65,12.45-4,30.27-6.86,51.76l0,.21-.21,0-89-11.94-.25,0,0-.26h0l9.61-71.15,0-.23.23,0L141.52,44l18.16,2.51,4.79.67,1.22.18Z"/><rect class="cls-7" x="85.36" y="35.29" width="62.76" height="83.5" transform="translate(24.81 182.45) rotate(-82.33)"/><polygon class="cls-7" points="71.17 102.56 105.28 67.79 119.93 94.39 133.81 83.1 153.93 113.71 71.17 102.56"/><path class="cls-7" d="M131.42,66.49a6.57,6.57,0,1,1-5.63-7.39A6.56,6.56,0,0,1,131.42,66.49Z"/><g class="cls-8"><polygon points="71.17 102.56 105.28 67.79 119.93 94.39 133.81 83.1 153.93 113.71 71.17 102.56"/></g><g class="cls-8"><path d="M131.42,66.49a6.57,6.57,0,1,1-5.63-7.39A6.56,6.56,0,0,1,131.42,66.49Z"/></g><rect class="cls-4" x="153.78" y="35.01" width="367.41" height="240.56"/><path class="cls-6" d="M522.32,51.93c0,.14-82.26.26-183.7.26s-183.72-.12-183.72-.26,82.24-.26,183.72-.26S522.32,51.79,522.32,51.93Z"/><path class="cls-6" d="M166.79,44.08a2.11,2.11,0,1,1-2.1-2.11A2.1,2.1,0,0,1,166.79,44.08Z"/><path class="cls-6" d="M174.4,44.08A2.11,2.11,0,1,1,172.3,42,2.1,2.1,0,0,1,174.4,44.08Z"/><path class="cls-6" d="M182,44.08a2.11,2.11,0,1,1-2.1-2.11A2.1,2.1,0,0,1,182,44.08Z"/><rect class="cls-2" x="276.43" y="64.68" width="125.39" height="6.92"/><path class="cls-6" d="M501.75,258.35c0-1.57-.08-67.12-.2-174.54l.2.19-329.43.07h0l.26-.26c0,61.63,0,120.67,0,174.54l-.24-.25,329.45.25-329.45.24h-.25v-.24c0-53.87,0-112.91,0-174.54v-.26h.28l329.43.06h.19v.2C501.82,191.23,501.75,256.78,501.75,258.35Z"/><path class="cls-6" d="M212.85,258c-.14,0-.15-39.07,0-87.26s.37-87.27.52-87.27.14,39.06,0,87.27S213,258,212.85,258Z"/><path class="cls-6" d="M261.73,258.13c-.15,0-.15-39.07,0-87.26s.37-87.27.51-87.27.15,39.07,0,87.27S261.87,258.13,261.73,258.13Z"/><path class="cls-6" d="M310.6,258.28c-.14,0-.15-39.08,0-87.27s.37-87.27.52-87.27.14,39.07,0,87.27S310.74,258.28,310.6,258.28Z"/><path class="cls-6" d="M359.48,258.42c-.15,0-.15-39.08,0-87.27s.37-87.27.51-87.27.15,39.07,0,87.28S359.62,258.42,359.48,258.42Z"/><path class="cls-6" d="M408.35,258.56c-.14,0-.15-39.08,0-87.26s.37-87.27.52-87.27.14,39.06,0,87.27S408.5,258.56,408.35,258.56Z"/><path class="cls-6" d="M457.23,258.7c-.15,0-.15-39.07,0-87.26s.37-87.27.51-87.27.15,39.06,0,87.27S457.37,258.7,457.23,258.7Z"/><path class="cls-6" d="M501.75,126c0,.14-73.67.26-164.53.26s-164.54-.12-164.54-.26,73.66-.26,164.54-.26S501.75,125.86,501.75,126Z"/><path class="cls-6" d="M501.75,170.73c0,.14-73.67.26-164.53.26s-164.54-.12-164.54-.26,73.66-.27,164.54-.27S501.75,170.58,501.75,170.73Z"/><path class="cls-6" d="M501.75,215.44c0,.15-73.67.26-164.53.26s-164.54-.11-164.54-.26,73.66-.26,164.54-.26S501.75,215.3,501.75,215.44Z"/><path class="cls-2" d="M175.61,219.42s-3.9,25.32.15,41.1l39-1.42s-8-25.19-2.93-37.78Z"/><path class="cls-7" d="M175.76,218.5s.26,31.11,1.84,40.6l39-1.85s-3.43-30.58-2.11-38.75Z"/><path class="cls-5" d="M208.63,231.56c0,.15-5.84.62-13.07,1.05s-13.1.67-13.11.53,5.84-.61,13.08-1S208.62,231.42,208.63,231.56Z"/><path class="cls-5" d="M208.64,238.15c0,.15-5.84.62-13.07,1s-13.1.67-13.11.53,5.84-.61,13.08-1S208.63,238,208.64,238.15Z"/><path class="cls-5" d="M202,244.62a9.37,9.37,0,0,1-2.17.32c-1.35.13-3.21.27-5.27.39s-3.93.21-5.28.24a9.15,9.15,0,0,1-2.2,0,9.4,9.4,0,0,1,2.18-.32c1.34-.12,3.21-.26,5.27-.39s3.92-.21,5.27-.24A9.73,9.73,0,0,1,202,244.62Z"/><path class="cls-2" d="M264.88,88.19s-3.2,26.35.85,42.13l38.33-2s-8-25.69-3-38.28Z"/><path class="cls-7" d="M265,87.26s.26,31.11,1.85,40.6l39-1.85s-3.42-30.58-2.11-38.75Z"/><path class="cls-5" d="M297.9,100.33c0,.14-5.84.61-13.07,1s-13.1.68-13.11.53,5.85-.61,13.08-1S297.9,100.18,297.9,100.33Z"/><path class="cls-5" d="M297.91,106.92c0,.14-5.84.61-13.07,1s-13.1.68-13.11.53,5.85-.61,13.08-1S297.91,106.77,297.91,106.92Z"/><path class="cls-5" d="M291.28,113.39a9.5,9.5,0,0,1-2.17.31c-1.35.13-3.21.27-5.27.39s-3.93.21-5.28.25a9.24,9.24,0,0,1-2.19-.06,9.5,9.5,0,0,1,2.17-.31c1.35-.13,3.21-.27,5.27-.4s3.92-.2,5.28-.24A8.62,8.62,0,0,1,291.28,113.39Z"/><path class="cls-2" d="M316.24,217.68s-3.16,28.81.9,44.58l38.5-1.68s-8.25-28.42-3.19-41Z"/><path class="cls-7" d="M316.39,216.75s.26,31.11,1.85,40.6l39-1.85s-3.42-30.58-2.11-38.75Z"/><path class="cls-5" d="M349.26,229.82c0,.14-5.84.61-13.07,1s-13.1.68-13.11.53,5.85-.61,13.08-1S349.25,229.67,349.26,229.82Z"/><path class="cls-5" d="M349.27,236.41c0,.14-5.84.61-13.07,1s-13.1.67-13.11.53,5.85-.61,13.08-1S349.26,236.26,349.27,236.41Z"/><path class="cls-5" d="M342.64,242.88a9.64,9.64,0,0,1-2.17.31c-1.35.13-3.21.27-5.27.39s-3.93.21-5.28.24a9.15,9.15,0,0,1-2.2,0,9.81,9.81,0,0,1,2.18-.31c1.34-.13,3.21-.27,5.27-.4s3.92-.2,5.28-.24A8.62,8.62,0,0,1,342.64,242.88Z"/><path class="cls-2" d="M463.27,130s-4,24.74.05,40.51l39.1-.84s-8-25.19-2.94-37.78Z"/><path class="cls-7" d="M463.42,129.08s.27,31.11,1.85,40.6l39-1.84s-3.42-30.58-2.1-38.76Z"/><path class="cls-5" d="M496.3,142.15c0,.14-5.85.61-13.08,1s-13.1.67-13.11.53,5.85-.62,13.08-1S496.29,142,496.3,142.15Z"/><path class="cls-5" d="M496.31,148.74c0,.14-5.85.61-13.08,1s-13.1.67-13.11.53,5.85-.62,13.08-1S496.3,148.6,496.31,148.74Z"/><path class="cls-5" d="M489.67,155.21a8.85,8.85,0,0,1-2.17.31c-1.35.13-3.21.27-5.27.4s-3.93.21-5.28.24a9.67,9.67,0,0,1-2.19,0,9.1,9.1,0,0,1,2.17-.32c1.35-.13,3.21-.27,5.27-.39s3.93-.21,5.28-.24A9,9,0,0,1,489.67,155.21Z"/><path class="cls-2" d="M364.23,175.34s-4,24.74,0,40.52l39.1-.84s-8-25.19-2.94-37.79Z"/><path class="cls-7" d="M364.38,174.42s.27,31.1,1.85,40.6l39-1.85s-3.42-30.58-2.1-38.75Z"/><path class="cls-5" d="M397.26,187.48c0,.15-5.85.62-13.08,1.05s-13.1.67-13.11.53,5.85-.61,13.08-1.05S397.25,187.34,397.26,187.48Z"/><path class="cls-5" d="M397.27,194.07c0,.15-5.85.61-13.08,1.05s-13.1.67-13.11.53,5.85-.62,13.08-1.05S397.26,193.93,397.27,194.07Z"/><path class="cls-5" d="M390.63,200.54a9.1,9.1,0,0,1-2.17.32c-1.35.13-3.21.27-5.27.39s-3.93.21-5.28.24a9,9,0,0,1-2.19-.05,9.1,9.1,0,0,1,2.17-.32c1.35-.12,3.21-.27,5.27-.39s3.93-.21,5.28-.24A9.67,9.67,0,0,1,390.63,200.54Z"/><polygon class="cls-2" points="454.4 139.28 433.68 149.94 423.67 148.52 429.03 139.02 450.88 131.32 454.4 139.28"/><polygon class="cls-9" points="422.81 146.56 427.88 138.39 450.33 130.24 454.84 139.11 433.07 147.8 422.81 146.56"/><path class="cls-5" d="M447.8,135.51a12.71,12.71,0,0,1-2.17,1c-1.37.56-3.26,1.3-5.36,2.1l-5.39,2c-1.37.5-2.27.8-2.22.77-.17-.21,3.24-1.67,7.42-3.27S447.75,135.35,447.8,135.51Z"/><path class="cls-5" d="M444.3,139.53a19.86,19.86,0,0,1-4.84,2.29,19.53,19.53,0,0,1-5.15,1.43,44.91,44.91,0,0,1,5-1.92A44.39,44.39,0,0,1,444.3,139.53Z"/><path class="cls-1" d="M175.73,128.59s-3.6,34.84,1.19,42.14l36.18-2.24-1.92-38.7Z"/><path class="cls-9" d="M175.73,128.59s.26,30.31,1.8,39.55l38-1.8s-3.34-29.79-2.06-37.75Z"/><path class="cls-5" d="M194.45,132.88l.14,0H195a9.51,9.51,0,0,1,1.58.07,9,9,0,0,1,2.42.72,8.11,8.11,0,0,1,2.63,2.08,9.13,9.13,0,0,1,1.82,3.66,8.81,8.81,0,0,1-.4,4.7,13.33,13.33,0,0,1-1.07,2.35,26.29,26.29,0,0,0-1.21,2.37,20.21,20.21,0,0,0-1.54,5.39l0,.13h-.12l-3.75.06-3.94.06h-.14v-.14a11.31,11.31,0,0,0-1.83-5.19c-.45-.78-1-1.51-1.42-2.25a23.64,23.64,0,0,1-1.34-2.18,7.34,7.34,0,0,1-.59-4.63,9.89,9.89,0,0,1,1.46-3.78A7.34,7.34,0,0,1,190,134a9.15,9.15,0,0,1,2.33-.9,9.35,9.35,0,0,1,1.56-.26h.4l-.4.05a9.94,9.94,0,0,0-1.53.3,9,9,0,0,0-2.29.93,7.23,7.23,0,0,0-2.39,2.2,9.88,9.88,0,0,0-1.4,3.72,7.16,7.16,0,0,0,.6,4.48,22.78,22.78,0,0,0,1.33,2.15c.47.73,1,1.46,1.44,2.25a11.47,11.47,0,0,1,1.87,5.33l-.14-.14,3.93-.07,3.76-.06-.14.13a20.5,20.5,0,0,1,1.57-5.47,25.49,25.49,0,0,1,1.23-2.39,13.16,13.16,0,0,0,1.06-2.3,8.66,8.66,0,0,0,.42-4.57,9.14,9.14,0,0,0-1.75-3.59,8,8,0,0,0-2.55-2.06,8.68,8.68,0,0,0-2.36-.75,9.71,9.71,0,0,0-1.57-.13h-.55Z"/><path class="cls-5" d="M196.4,154a1.13,1.13,0,0,1,0-.12l-.06-.35-.21-1.36c-.17-1.18-.42-2.89-.59-5,0-.54-.08-1.09-.1-1.67s0-1.19,0-1.82a5,5,0,0,1,.43-1.9,2.81,2.81,0,0,1,1.45-1.45,1.94,1.94,0,0,1,2.07.39,1.45,1.45,0,0,1,.44,1,1.81,1.81,0,0,1-.39,1.09,2.52,2.52,0,0,1-.91.74,5,5,0,0,1-1.13.37,12.79,12.79,0,0,1-2.4.28,13.92,13.92,0,0,1-2.42-.12,4.14,4.14,0,0,1-1.14-.33,3,3,0,0,1-1-.68,2.18,2.18,0,0,1-.55-1A1.69,1.69,0,0,1,190,141a1.52,1.52,0,0,1,.79-.77,1.31,1.31,0,0,1,1.08,0,2.07,2.07,0,0,1,.81.68,2.83,2.83,0,0,1,.4,1,11,11,0,0,1,.2,1.94c.06,1.25.12,2.42.18,3.48.11,2.12.19,3.85.25,5,0,.59.05,1.05.07,1.37v.48a.55.55,0,0,1,0-.12l0-.36c0-.32,0-.78-.08-1.37-.07-1.19-.17-2.91-.3-5-.06-1.06-.12-2.22-.19-3.48a10.5,10.5,0,0,0-.2-1.91,2.54,2.54,0,0,0-.39-.91,1.84,1.84,0,0,0-.76-.65,1.25,1.25,0,0,0-1-.05,1.42,1.42,0,0,0-.73.72,1.59,1.59,0,0,0-.13,1.05,2,2,0,0,0,.53,1,3.36,3.36,0,0,0,2,1,13.58,13.58,0,0,0,2.39.11,13.34,13.34,0,0,0,2.38-.27,4.91,4.91,0,0,0,1.1-.37,2.34,2.34,0,0,0,.88-.7,1.84,1.84,0,0,0,.37-1,1.38,1.38,0,0,0-.41-1,1.82,1.82,0,0,0-1.95-.37,2.75,2.75,0,0,0-1.4,1.39,4.93,4.93,0,0,0-.42,1.86c0,.63,0,1.23,0,1.81s.05,1.14.09,1.67c.16,2.12.4,3.83.56,5,.08.59.14,1,.18,1.36l0,.36A1.09,1.09,0,0,1,196.4,154Z"/><path class="cls-5" d="M191.4,154.19s0,.47.1,1.26.1,2,.16,3.29l0-.08,2.56,3-.13-.05,3-.17-.13.06,1.48-1.8.74-.9,0,.12c0-1.73-.08-3.38-.12-4.87l.17.15-5.53.06H192a4.15,4.15,0,0,1-.59,0,2.58,2.58,0,0,1,.52-.05l1.56-.08,5.63-.22h.15V154c0,1.5.09,3.14.15,4.87v.07l0,0c-.25.29-.49.59-.74.9l-1.48,1.79,0,.06H197l-3,.14H194l-.05-.06-2.51-3,0,0v-.05c0-1.31,0-2.43,0-3.37A8.66,8.66,0,0,1,191.4,154.19Z"/><path class="cls-5" d="M199,158.47l-.28-.12c-.18-.08-.44-.19-.77-.3a7.6,7.6,0,0,0-2.67-.41,7.51,7.51,0,0,0-2.64.57,8.24,8.24,0,0,0-.75.35l-.27.13a1.8,1.8,0,0,1,.25-.17,6.63,6.63,0,0,1,.74-.39,7.11,7.11,0,0,1,2.67-.61,7.19,7.19,0,0,1,2.7.45,6,6,0,0,1,.76.34A1.18,1.18,0,0,1,199,158.47Z"/><path class="cls-5" d="M199,157.29l-.28-.12c-.18-.08-.44-.19-.77-.31a7.62,7.62,0,0,0-2.67-.4,7.51,7.51,0,0,0-2.64.57,6.19,6.19,0,0,0-.75.35,1.39,1.39,0,0,1-.27.13s.08-.07.25-.17a4.34,4.34,0,0,1,.74-.39,7.13,7.13,0,0,1,5.37-.17,5.77,5.77,0,0,1,.76.35A1.18,1.18,0,0,1,199,157.29Z"/><path class="cls-5" d="M199,156.16l-.28-.12c-.18-.08-.44-.19-.77-.3a7.6,7.6,0,0,0-2.67-.41,7.51,7.51,0,0,0-2.64.57,8.24,8.24,0,0,0-.75.35l-.27.14s.08-.08.25-.18a6.5,6.5,0,0,1,.74-.39,7.31,7.31,0,0,1,2.67-.61,7.23,7.23,0,0,1,2.7.45,6,6,0,0,1,.76.34A1.18,1.18,0,0,1,199,156.16Z"/><path class="cls-7" d="M271.31,211.77c.06,0,0,.46-.49,1a6.09,6.09,0,0,1-2.19,1.51A6.48,6.48,0,0,1,265,215c0-.16,1.62-.36,3.43-1.15a7.83,7.83,0,0,0,2.14-1.29C271,212.09,271.23,211.74,271.31,211.77Z"/><path class="cls-6" d="M522.32,275.54c0-1.69-.08-93.78-.21-240.56l.21.21-367.38.05h0l.26-.26c0,85.54,0,166.94,0,240.56l-.24-.24,367.41.24-367.41.24h-.24v-.24c0-73.62,0-155,0-240.56v-.26h.29l367.38.05h.21V35C522.4,181.76,522.32,273.85,522.32,275.54Z"/><polygon class="cls-7" points="490.44 239.45 483.22 227.13 476.36 239.45 379.15 239.45 379.15 290.27 530.52 290.27 530.52 239.45 490.44 239.45"/><path class="cls-4" d="M406.37,265.3a7.44,7.44,0,0,0,4.5-6.86,7,7,0,1,0-14-.18,7.44,7.44,0,0,0,4.4,7c-10.78,1.53-10.39,13.23-10.39,13.23l25.45.33S417,267,406.37,265.3Z"/><path class="cls-4" d="M513.25,254.51c0,.15-19.32.26-43.15.26s-43.15-.11-43.15-.26,19.32-.26,43.15-.26S513.25,254.37,513.25,254.51Z"/><path class="cls-4" d="M513.25,262.26c0,.14-19.32.26-43.15.26S427,262.4,427,262.26s19.32-.26,43.15-.26S513.25,262.12,513.25,262.26Z"/><path class="cls-4" d="M513.25,270c0,.14-19.32.26-43.15.26S427,270.15,427,270s19.32-.26,43.15-.26S513.25,269.87,513.25,270Z"/><path class="cls-4" d="M470.1,277.68c0,.14-9.66.26-21.57.26s-21.58-.12-21.58-.26,9.66-.26,21.58-.26S470.1,277.54,470.1,277.68Z"/></g><g id="Character_2" data-name="Character 2"><path class="cls-6" d="M516.93,144.21c-.91-1.06-1.62-3-1.07-4.26-1.07-.57-1.17-1.52-1.17-2.73a7.47,7.47,0,0,1,1-3.45,10,10,0,0,1,3.9-4.27,5.18,5.18,0,0,1,5.53.24,6.73,6.73,0,0,1,9.63-.67,7.36,7.36,0,0,0,1.46,1.33c1,.53,2.14.33,3.23.43a5.69,5.69,0,0,1,4.7,7.88,6.13,6.13,0,0,1,2.6,4.7,17.47,17.47,0,0,1-.63,5.51c-.49,2.23-1.06,4.58-2.64,6.23a6.49,6.49,0,0,1-4.15,2,6.61,6.61,0,0,1-5.81-2.73"/><path class="cls-10" d="M540.54,182.28l-17.93-.82c-.1-1.9.87-13.67.87-13.67s-6.78-1-6.86-7.83,1.09-22.33,1.09-22.33h0a23.57,23.57,0,0,1,23.66,3l1,.78Z"/><path class="cls-11" d="M523.47,167.69a15.73,15.73,0,0,0,8.83-2.51s-2.09,4.88-8.85,4.27Z"/><path class="cls-10" d="M541.54,148.39c.11,0,4.65-1.37,4.5,3.26s-4.76,3.53-4.77,3.39S541.54,148.39,541.54,148.39Z"/><path class="cls-11" d="M542.74,153.33s.08.06.22.13a.79.79,0,0,0,.6,0,2,2,0,0,0,1-1.76,2.58,2.58,0,0,0-.19-1.16.92.92,0,0,0-.58-.64.41.41,0,0,0-.49.21c-.06.12,0,.22-.06.22s-.1-.08-.06-.27a.51.51,0,0,1,.2-.28.6.6,0,0,1,.45-.11,1.17,1.17,0,0,1,.82.75,2.75,2.75,0,0,1,.23,1.3,2.09,2.09,0,0,1-1.24,2,.85.85,0,0,1-.73-.14C542.75,153.45,542.73,153.34,542.74,153.33Z"/><path class="cls-6" d="M519.2,148.25a1,1,0,0,0,.94,1,.91.91,0,0,0,1-.87,1,1,0,0,0-.93-1A.93.93,0,0,0,519.2,148.25Z"/><path class="cls-6" d="M519,147.16c.12.13.86-.42,1.9-.41s1.8.52,1.91.39-.06-.28-.4-.52a2.62,2.62,0,0,0-3,0C519,146.88,518.93,147.1,519,147.16Z"/><path class="cls-6" d="M529.4,148.49a1,1,0,0,0,.93,1,.93.93,0,0,0,1-.87,1,1,0,0,0-.93-1A.92.92,0,0,0,529.4,148.49Z"/><path class="cls-6" d="M529.23,147.36c.12.12.85-.42,1.89-.42s1.8.53,1.92.4-.07-.29-.4-.53a2.71,2.71,0,0,0-1.54-.47,2.52,2.52,0,0,0-1.5.48C529.28,147.07,529.17,147.3,529.23,147.36Z"/><path class="cls-6" d="M525.45,155.08a6.5,6.5,0,0,0-1.69-.31c-.27,0-.52-.08-.57-.26a1.38,1.38,0,0,1,.18-.79c.25-.64.51-1.32.79-2a34.49,34.49,0,0,0,1.76-5.3,36.3,36.3,0,0,0-2.18,5.14c-.27.71-.52,1.39-.76,2a1.51,1.51,0,0,0-.13,1,.66.66,0,0,0,.43.39,1.55,1.55,0,0,0,.45.06A6.87,6.87,0,0,0,525.45,155.08Z"/><path class="cls-6" d="M528.51,155.8c-.17,0-.17,1.12-1.14,1.92s-2.17.68-2.18.83.27.22.78.24a2.87,2.87,0,0,0,1.82-.64,2.43,2.43,0,0,0,.88-1.61C528.72,156.07,528.59,155.79,528.51,155.8Z"/><path class="cls-6" d="M529,143.28c.1.28,1.14.14,2.36.29s2.21.48,2.37.23-.1-.39-.5-.66a3.82,3.82,0,0,0-1.75-.62,4,4,0,0,0-1.85.22C529.14,142.92,528.91,143.14,529,143.28Z"/><path class="cls-6" d="M519.38,144.15c.18.23.9,0,1.76,0s1.59.16,1.76-.09,0-.36-.36-.58a2.45,2.45,0,0,0-1.43-.39,2.39,2.39,0,0,0-1.41.48C519.39,143.79,519.29,144,519.38,144.15Z"/><path class="cls-6" d="M542.74,141.07c-.09,2,.35,4.17,0,6.11,0,.29-.81,1.08-.88,1.36-.4,1.72-1.11,2.46-2.13.69a15.74,15.74,0,0,1-.8-3.35l-1.23-6.25a10.85,10.85,0,0,1-5.15,1.22,5.26,5.26,0,0,1-4.4-2.6,5.47,5.47,0,0,1-8.48,1.12,2.29,2.29,0,0,1-3,.64,2.71,2.71,0,0,1-1.1-3c.47-1.65,2.24-2.55,3.89-3,6.44-1.9,13.57-.41,19.36,3a10.09,10.09,0,0,1,2.34,1.77c.66.72,1.57,1.57,1.6,2.55"/><path class="cls-9" d="M554.48,206.08l6.93-18.83c-1.44-4.84-6.61-10.08-13.8-11.45-2.28-.44-4.51-1.27-7.19-1.38h0a14.15,14.15,0,0,1-17.27.21l-.24-.18c-.7.08-1.62.17-2.77.31l-.22,0a16.89,16.89,0,0,0-7.93,3.16h0l-36.08,21.53-21.18-16.1L444,191.77s27.75,27.75,30.45,28.41c1.86.46,20.37-9.65,31.59-15.91-.46,6.72-3,44.07-2.85,49.17h51.55l0-23.55v-6.42Z"/><path class="cls-9" d="M534.36,228.14s25.11,11.07,27.5,11.59c8,1.75,15.29-4.93,14.13-11.22-.61-3.27-14.73-42.11-14.73-42.11l-10.13,15.08,5,19.76-15.27-2Z"/><path class="cls-6" d="M556.4,237.79a1.76,1.76,0,0,0-.4-.22l-1.2-.59-4.5-2.1-15.37-7,.1.31,3-5.26,1.82-3.28-.22.12,18.38,1.8,5.46.49,1.47.11a2.92,2.92,0,0,0,.52,0,2.49,2.49,0,0,0-.51-.09l-1.47-.2-5.44-.62-18.36-2h-.15l-.07.13-1.84,3.28L534.64,228l-.12.22.22.1,15.44,6.87,4.55,2,1.24.51A1.69,1.69,0,0,0,556.4,237.79Z"/><path class="cls-6" d="M539.85,218.65,542,208.18s-26.47-.34-26.18.13,2.79,24,2.79,24,18.62-.7,17.93-.64Z"/><path class="cls-10" d="M541.91,213.88h0a2.46,2.46,0,0,0-2.3,1.57A5.32,5.32,0,0,1,538,218c-1.15.63-3.14,1.13-4.19.62s-5.23-4.28-6-3.87-1.36,1.37-.63,2.2,4.61,3.35,3.87,4.19-8.89-2.85-10.15-2.52-2,1.09-1.25,1.6,6.28,2.59,6.59,3.33c0,0-8.37-2.2-8.69-1.68s-.83,1.36,0,1.68,8.06,2.19,8.69,2.51a15.41,15.41,0,0,0,3.23.94,35.23,35.23,0,0,1,3.37,1.07,7.37,7.37,0,0,0,5.21-.14l.84-.35a3.32,3.32,0,0,0,2.07-3.27l-.17-2.86.91-2.35Z"/><path class="cls-6" d="M554.6,221.16c-.14,0-.26-6-.26-13.43s.12-13.43.26-13.43.26,6,.26,13.43S554.75,221.16,554.6,221.16Z"/><path class="cls-6" d="M506.73,188.31a5.22,5.22,0,0,1,0,1.24c0,.9-.06,2-.1,3.36-.11,2.83-.29,6.75-.52,11.07s-.47,8.24-.67,11.07c-.11,1.33-.19,2.45-.26,3.35a6.79,6.79,0,0,1-.17,1.23,5.34,5.34,0,0,1,0-1.24c0-.9.06-2,.1-3.36.11-2.83.29-6.75.52-11.08s.47-8.24.67-11.07c.1-1.33.19-2.45.26-3.35A5.63,5.63,0,0,1,506.73,188.31Z"/><path class="cls-5" d="M554.11,194.3c0,.15-10.5.26-23.45.26s-23.45-.11-23.45-.26,10.5-.26,23.45-.26S554.11,194.16,554.11,194.3Z"/><path class="cls-5" d="M554.19,196.92c0,.14-10.66.26-23.8.26s-23.8-.12-23.8-.26,10.65-.26,23.8-.26S554.19,196.77,554.19,196.92Z"/><path class="cls-5" d="M554.59,200.27c0,.14-10.5.26-23.45.26s-23.44-.12-23.44-.26,10.49-.26,23.44-.26S554.59,200.13,554.59,200.27Z"/><path class="cls-6" d="M551.19,221.18a53.16,53.16,0,0,1-2.9,5.68,52.91,52.91,0,0,1-3.09,5.57,49.27,49.27,0,0,1,6-11.25Z"/><path class="cls-6" d="M554.09,221.9A47.28,47.28,0,0,1,547.67,233a60.29,60.29,0,0,1,3.13-5.61A61.13,61.13,0,0,1,554.09,221.9Z"/><path class="cls-6" d="M460.39,187.94c.13.12-2.21,2.33-5.18,4.93a49.39,49.39,0,0,1-5.56,4.5,49.69,49.69,0,0,1,5.22-4.9c1.48-1.3,2.85-2.45,3.85-3.27A10.39,10.39,0,0,1,460.39,187.94Z"/><path class="cls-6" d="M462.86,189.77a51.69,51.69,0,0,1-5.25,5c-1.5,1.32-2.87,2.5-3.88,3.33a8.11,8.11,0,0,1-1.71,1.26,9.36,9.36,0,0,1,1.46-1.54c.95-.9,2.29-2.12,3.78-3.44s2.87-2.49,3.88-3.32A8.8,8.8,0,0,1,462.86,189.77Z"/><path class="cls-7" d="M514.41,422.16l0-9,16.93-.21.22,13.23-1,.08c-4.67.32-23.77,1.28-26.91.37C500.05,425.58,514.41,422.16,514.41,422.16Z"/><g class="cls-12"><path d="M525.37,426.08a5.85,5.85,0,0,1,2.11-3.63,5.7,5.7,0,0,1,3.95-1.28l.06,4.73Z"/></g><g class="cls-12"><path d="M507.4,424.08s-5,1.52-4.39,2.34,20,.58,28.5-.28l0-.38-22.56.48S508.38,424.11,507.4,424.08Z"/></g><path class="cls-6" d="M531.74,425.75l-.29,0-.83.06-3.08.17c-2.6.13-6.19.25-10.16.31s-7.57,0-10.17,0l-3.08-.09-.84,0-.29,0,.29,0h.84l3.08,0c2.6,0,6.2,0,10.17,0s7.55-.16,10.15-.25l3.08-.1.84,0Z"/><path class="cls-6" d="M508.93,426.51a7,7,0,0,0-.59-1.47,6.51,6.51,0,0,0-1.07-1.16,2.31,2.31,0,0,1,1.24,1.05A2.28,2.28,0,0,1,508.93,426.51Z"/><path class="cls-6" d="M513.9,423.91s-.29-.26-.55-.65a1.89,1.89,0,0,1-.37-.75s.29.26.55.64A2,2,0,0,1,513.9,423.91Z"/><path class="cls-6" d="M515.26,423.16s-.31-.13-.6-.39-.51-.5-.47-.54.31.13.6.39S515.3,423.12,515.26,423.16Z"/><path class="cls-6" d="M516.1,421.56a2.06,2.06,0,0,1-.88.12,2.11,2.11,0,0,1-.88-.08c0-.06.39-.11.88-.13A1.85,1.85,0,0,1,516.1,421.56Z"/><path class="cls-6" d="M516.39,420.42a1.73,1.73,0,0,1-1,.3,1.67,1.67,0,0,1-1-.12,5.2,5.2,0,0,1,1-.08A6,6,0,0,1,516.39,420.42Z"/><path class="cls-6" d="M513.3,422.44a3.12,3.12,0,0,1-1.09,0,6,6,0,0,1-1.16-.24,2.91,2.91,0,0,1-.66-.26.61.61,0,0,1-.28-.34.42.42,0,0,1,.16-.43,2,2,0,0,1,2.48.55,2.08,2.08,0,0,1,.36.72c0,.19,0,.29,0,.29a3.4,3.4,0,0,0-.5-.92,2.06,2.06,0,0,0-.94-.59,1.72,1.72,0,0,0-1.3.1c-.17.14-.1.34.09.45a3.35,3.35,0,0,0,.62.25,6.76,6.76,0,0,0,1.12.28C512.89,422.41,513.3,422.4,513.3,422.44Z"/><path class="cls-6" d="M513,422.49a1.05,1.05,0,0,1-.13-.75,1.72,1.72,0,0,1,.28-.8,1.09,1.09,0,0,1,.9-.56.42.42,0,0,1,.34.49,1.19,1.19,0,0,1-.17.49,3.17,3.17,0,0,1-.51.67,1.59,1.59,0,0,1-.62.45s.22-.2.51-.55a3.6,3.6,0,0,0,.45-.66c.15-.23.24-.65,0-.69s-.55.25-.71.47a1.78,1.78,0,0,0-.3.71A4.17,4.17,0,0,0,513,422.49Z"/><path class="cls-6" d="M531.34,421.12s-.49,0-1.25.06a5.29,5.29,0,0,0-4.39,3.59c-.25.73-.27,1.22-.31,1.22a1.07,1.07,0,0,1,0-.35,4.18,4.18,0,0,1,.17-.91,5.25,5.25,0,0,1,1.68-2.55,5.19,5.19,0,0,1,2.83-1.14,3.92,3.92,0,0,1,.93,0A1.26,1.26,0,0,1,531.34,421.12Z"/><path class="cls-6" d="M529.49,414.09a27,27,0,0,1,.19,3.48,29,29,0,0,1,0,3.48,28.86,28.86,0,0,1-.19-3.47A32,32,0,0,1,529.49,414.09Z"/><path class="cls-6" d="M523.21,424.46a9.7,9.7,0,0,1-2.47.28,9.91,9.91,0,0,1-2.48-.17c0-.06,1.12,0,2.48,0S523.21,424.4,523.21,424.46Z"/><path class="cls-6" d="M526.53,424.41c.05,0-.08.24-.19.49s-.17.48-.23.48-.09-.27,0-.56S526.5,424.37,526.53,424.41Z"/><path class="cls-6" d="M527.77,422.84s-.07.22-.24.4-.35.29-.39.25.06-.22.24-.4S527.72,422.8,527.77,422.84Z"/><path class="cls-6" d="M529.55,422.11c0,.05-.24.05-.49.14s-.42.23-.47.19.1-.27.4-.38S529.56,422.05,529.55,422.11Z"/><path class="cls-6" d="M530.82,421.75c0,.06-.08.14-.22.2s-.27.06-.29,0,.07-.14.21-.2S530.8,421.7,530.82,421.75Z"/><path class="cls-7" d="M565.86,416.41l1.62,6.78s11.09,14.41,14.51,13.7c2.24-.46-.51-4.22-4.73-15.16l-.89-4.52Z"/><path class="cls-6" d="M582.44,434.77a1.52,1.52,0,0,1-.59.56,2,2,0,0,1-2.12-.29,61.39,61.39,0,0,1-5.52-5.23c-2.06-2.16-3.78-4.23-5-5.76l-1.42-1.82-.38-.5a1.07,1.07,0,0,0-.15-.17.9.9,0,0,0,.11.19c.11.17.23.34.36.52.31.45.77,1.09,1.36,1.87a72.63,72.63,0,0,0,5,5.8,54.75,54.75,0,0,0,5.59,5.22,2.7,2.7,0,0,0,1.25.46,1.84,1.84,0,0,0,1-.22,1.21,1.21,0,0,0,.46-.43A.6.6,0,0,0,582.44,434.77Z"/><path class="cls-6" d="M580.87,430.14A1.74,1.74,0,0,0,580,430a4.81,4.81,0,0,0-2.09.73,3.82,3.82,0,0,0-1.52,1.61,1.93,1.93,0,0,0-.24.88s.1-.33.36-.82a4.11,4.11,0,0,1,1.5-1.5,5.59,5.59,0,0,1,2-.76C580.52,430.1,580.86,430.17,580.87,430.14Z"/><path class="cls-6" d="M570.37,426.75a1.12,1.12,0,0,0,.13-.32,5.59,5.59,0,0,0,.22-.93,5.08,5.08,0,0,0-.51-3.08,4.8,4.8,0,0,0-2.25-2.18,3.32,3.32,0,0,0-.91-.28,1,1,0,0,0-.35,0,7.72,7.72,0,0,1,1.2.44,4.85,4.85,0,0,1,2.13,2.14,5.16,5.16,0,0,1,.55,3C570.49,426.27,570.34,426.75,570.37,426.75Z"/><path class="cls-6" d="M566.57,417.56c-.05,0,.2,1,.41,2.17a7.32,7.32,0,0,0,.58,2.13s-.18-1-.38-2.17A7,7,0,0,0,566.57,417.56Z"/><path class="cls-6" d="M577.45,422.69a3.36,3.36,0,0,0-2.7.62c0,.06.58-.24,1.33-.41S577.45,422.75,577.45,422.69Z"/><path class="cls-6" d="M577.68,423.85a2.26,2.26,0,0,0-2.25.54s.48-.25,1.1-.39S577.67,423.91,577.68,423.85Z"/><path class="cls-6" d="M578.57,425.31a1.49,1.49,0,0,0-1.24-.16,1.46,1.46,0,0,0-1.05.68,4.7,4.7,0,0,1,1.09-.49A5.48,5.48,0,0,1,578.57,425.31Z"/><path class="cls-6" d="M576.69,422.2s-.51-.14-1.3-.44a10.1,10.1,0,0,1-1.34-.65,7,7,0,0,1-.74-.47c-.22-.16-.47-.41-.46-.67s.34-.41.59-.34a1.62,1.62,0,0,1,.69.45c.4.39.75.76,1,1.07.56.64.88,1.06.9,1a1.12,1.12,0,0,0-.19-.32,8.07,8.07,0,0,0-.61-.81,13.53,13.53,0,0,0-1-1.11,1.71,1.71,0,0,0-.77-.51.64.64,0,0,0-.83.52,1.1,1.1,0,0,0,.55.84,7.14,7.14,0,0,0,.76.47,8.38,8.38,0,0,0,1.38.62,8.66,8.66,0,0,0,1,.27A1.47,1.47,0,0,0,576.69,422.2Z"/><path class="cls-6" d="M576.11,422.06a12.26,12.26,0,0,0,.2-1.24,5.47,5.47,0,0,1,.38-1.28,3,3,0,0,1,.41-.65c.17-.19.43-.36.64-.24s.23.43.2.68a3.35,3.35,0,0,1-.21.74,4.43,4.43,0,0,1-.73,1.12c-.51.57-.91.84-.89.87s.11,0,.29-.17a5.66,5.66,0,0,0,.71-.6,4.3,4.3,0,0,0,.79-1.14,3.58,3.58,0,0,0,.24-.8.84.84,0,0,0-.31-.87.72.72,0,0,0-.87.28,2.69,2.69,0,0,0-.44.71,4.87,4.87,0,0,0-.35,1.33c0,.39-.06.71-.07.92A1.12,1.12,0,0,0,576.11,422.06Z"/><g class="cls-12"><path d="M567.48,423.19l-.78-3.26s2.72.51,3.42,2.54a8.42,8.42,0,0,1,.53,3.48l5.91,6.36s1.48-2.89,4.16-2.2c0,0,2.12,4.65,2,5.81s-1.42,1-1.9.81a23.77,23.77,0,0,1-5.29-4.18A121.77,121.77,0,0,1,567.48,423.19Z"/></g><polygon class="cls-6" points="502.98 248.97 511.05 419.71 533.22 420.24 531.47 272.2 564.64 420.51 582.44 419.71 553.91 249.32 502.98 248.97"/><path class="cls-9" d="M526,251.28a17.64,17.64,0,0,0,.2,2.8c.18,1.73.47,4.11.81,6.74a26.81,26.81,0,0,0,.62,3.71,5.16,5.16,0,0,0,1.62,2.65,4.11,4.11,0,0,0,1.88.93,1.49,1.49,0,0,0,.77,0,5,5,0,0,1-2.43-1.18,5.07,5.07,0,0,1-1.43-2.52,31.71,31.71,0,0,1-.57-3.66c-.34-2.63-.68-5-.94-6.72A17.58,17.58,0,0,0,526,251.28Z"/><path class="cls-9" d="M531.49,252.29c-.06,0,.15.32,0,.77a.89.89,0,0,1-.46.55.73.73,0,0,1-.78-.19.71.71,0,0,1-.23-.77.92.92,0,0,1,.52-.49c.44-.16.73,0,.77,0s-.23-.4-.85-.28a1.18,1.18,0,0,0-.84.64,1.15,1.15,0,0,0,.31,1.27,1.09,1.09,0,0,0,1.88-.63C531.9,252.5,531.51,252.24,531.49,252.29Z"/><path class="cls-9" d="M545.56,255.23a4.92,4.92,0,0,0-.33-4.72c-.12.05.22,1.06.3,2.35S545.43,255.2,545.56,255.23Z"/><path class="cls-9" d="M542.4,254.92a5.8,5.8,0,0,0-.16-4.93,22.54,22.54,0,0,0,.16,2.46A24.54,24.54,0,0,0,542.4,254.92Z"/><path class="cls-9" d="M515.13,254.6a15.46,15.46,0,0,0-.06-2.55,13.93,13.93,0,0,0,0-2.55,4.86,4.86,0,0,0-.44,2.56A4.77,4.77,0,0,0,515.13,254.6Z"/><path class="cls-9" d="M511.69,254.29c.13,0-.24-1.18-.28-2.6s.24-2.58.11-2.62a4.1,4.1,0,0,0-.57,2.63A4.19,4.19,0,0,0,511.69,254.29Z"/><polygon class="cls-7" points="541.17 174.16 541.17 174.16 541.17 174.16 541.17 174.16"/><path class="cls-10" d="M453.38,184.51s-4.09-6.92-5.06-7.64-9.56-3.71-10.28-3.47-11.05,2.18-9.84,3.39,8.4-.25,8.4-.25l1,.47s-6.22,1.1-7.52,1.88-.75,2.19.39,2.05,6.53-1.27,6.86-1.06-5.87,1.56-6.53,2c-.89.54-.95,2.15.18,2.05.67-.06,6.5-1.67,6.5-1.67a50.58,50.58,0,0,0-5,2.28c-.7.68-.12,1.68.88,1.44.69-.16,3.95-1.78,4.87-2,0,0,.87.22,1.68,2s5.14,5.17,5.14,5.17Z"/><path class="cls-11" d="M428.22,176.81a4.71,4.71,0,0,0,1.9.49,11.14,11.14,0,0,0,2.13.06l2.56-.38,1.92-.32h-.11A27.9,27.9,0,0,0,441.1,178a27.46,27.46,0,0,0-4.33-1.76l0,0h-.07l-1.91.29-2.53.41a13.36,13.36,0,0,1-2.06.05C429,176.9,428.24,176.74,428.22,176.81Z"/><path class="cls-9" d="M420.71,171.89s-7.46,22.63-10,27.2l25.4,7.76,4.62-2.95s6.17-18.22,7-24.34Z"/><polygon class="cls-6" points="437.49 203.06 436.15 206.85 440.77 203.9 437.49 203.06"/><path class="cls-5" d="M440.82,187.46a18.57,18.57,0,0,1-2.84-.89l-6.79-2.34L424.37,182a18.3,18.3,0,0,1-2.81-1,16.31,16.31,0,0,1,2.91.65c1.78.48,4.22,1.21,6.89,2.1s5,1.79,6.75,2.48A14.56,14.56,0,0,1,440.82,187.46Z"/><path class="cls-5" d="M438.66,192.57a15.92,15.92,0,0,1-2.79-.63c-1.7-.46-4-1.15-6.6-2s-4.85-1.67-6.49-2.31a15.36,15.36,0,0,1-2.62-1.15,15.85,15.85,0,0,1,2.74.8l6.54,2.17,6.54,2.13A16.54,16.54,0,0,1,438.66,192.57Z"/><path class="cls-5" d="M436.09,197.15a76,76,0,0,1-8.54-2.6,76,76,0,0,1-8.38-3.1,75.59,75.59,0,0,1,8.54,2.61A77.26,77.26,0,0,1,436.09,197.15Z"/><path class="cls-10" d="M450.76,185.27a2.05,2.05,0,0,1-2.4,0c-.74-.43-1.32-1.1-2-1.59-2.13-1.44-5.16-1-7.21-2.59-.29-.22-.58-.57-.43-.9s.55-.34.88-.34l8.53.07"/><path class="cls-11" d="M448.1,180a3.22,3.22,0,0,0-.93-.11l-2.51-.09-3.73-.08-1.08,0a1.69,1.69,0,0,0-1.24.28.72.72,0,0,0-.13.8,1.49,1.49,0,0,0,.44.54,5.12,5.12,0,0,0,1.08.64,31.9,31.9,0,0,0,4.44,1.19,6.42,6.42,0,0,1,1.76.77c.5.33.92.73,1.35,1.06a3,3,0,0,0,2.41.81c.62-.13.83-.48.8-.48a2.33,2.33,0,0,1-.83.29,2.88,2.88,0,0,1-2.17-.88,13.85,13.85,0,0,0-1.34-1.13,6.37,6.37,0,0,0-1.86-.87,37.09,37.09,0,0,1-4.36-1.2,5.58,5.58,0,0,1-1-.57c-.28-.22-.42-.52-.27-.64s.54-.15.9-.14h1.08l3.73,0c1.06,0,1.92,0,2.51-.06A3.66,3.66,0,0,0,448.1,180Z"/></g><g id="Character_1" data-name="Character 1"><path class="cls-6" d="M255.07,144.25a7.79,7.79,0,0,0-3.17-7.78,8.38,8.38,0,0,0-8.46-.44,9.06,9.06,0,0,0-4.67,7.15c-.29,3.34,1.22,6.54,2.52,9.64s2.41,6.57,1.33,9.75c-.88,2.63-3.09,4.54-5,6.56a13.37,13.37,0,0,0-3.74,6.44c-.46,2.47.47,5.34,2.7,6.51A3.6,3.6,0,0,1,238,183c.61.88,0,2-.46,3a6.94,6.94,0,0,0-.23,4.69c1,3.36,4.71,5.51,8.22,5.31a11.51,11.51,0,0,0,8.64-5.36,19.86,19.86,0,0,0,2.9-10,74,74,0,0,0-.59-10.51c-.82-8.78,3.29-17.87,3.73-26.68"/><path class="cls-13" d="M263,196.6h0a8.79,8.79,0,0,0,9.46-8.43c.18-4.79.34-9.62.34-9.62s7.26-.68,7.78-7.86.29-23.74.29-23.74h0a25,25,0,0,0-25.27,1.62l.44,25.26v13.59C256,192,258.41,196.25,263,196.6Z"/><path class="cls-6" d="M273.38,161.93a3.66,3.66,0,0,0-4.9-1.07,4.16,4.16,0,0,0-1.39,5.21,5.52,5.52,0,0,0,3.52,2.67,2.74,2.74,0,0,1,2.15,3,9.1,9.1,0,0,1-2.52,5,13.23,13.23,0,0,1-8.3,3.94c-3.06.36-6.56-.28-8.34-2.79-1.29-1.83-1.39-4.22-1.43-6.46l-.33-15.87a22.64,22.64,0,0,1,.36-5.7,7.66,7.66,0,0,1,3-4.71c1.74-1.15,4-1.24,5.94-1.89,2.49-.8,4.6-2.45,6.92-3.64s5.18-1.9,7.51-.73c1.68.84,2.8,2.51,4.43,3.44,2.32,1.32,5.48,1,6.61,4.43a5.77,5.77,0,0,1,0,3.65c-1.57,4.65-7.32,6.52-11.47,4.51-.08.79.7,2.54-.13,5-.27.8-.36,2-1.6,2"/><path class="cls-6" d="M253.48,177.11a21.53,21.53,0,0,1-1.17-30"/><path class="cls-9" d="M258.93,179.42s-.12.06-.37.11a4.13,4.13,0,0,1-1.08,0,6.08,6.08,0,0,1-3.52-1.83,17.87,17.87,0,0,1-3.16-5,31.94,31.94,0,0,1-2.37-6.8,25.78,25.78,0,0,1-.61-7.18,23,23,0,0,1,1.1-5.78,18.61,18.61,0,0,1,1.62-3.62,8.36,8.36,0,0,1,.58-.91c.14-.2.22-.3.24-.29a30.1,30.1,0,0,0-2.09,4.93,23.92,23.92,0,0,0-1,5.69,26.41,26.41,0,0,0,.64,7,32.61,32.61,0,0,0,2.29,6.71,18.61,18.61,0,0,0,3,4.91,6.13,6.13,0,0,0,3.29,1.89A8.79,8.79,0,0,0,258.93,179.42Z"/><path class="cls-9" d="M251.49,147.83c.08,0,.64,1,1.72,2.66a35,35,0,0,0,4.87,5.84,35.79,35.79,0,0,0,6,4.62c1.67,1,2.77,1.53,2.73,1.61a3,3,0,0,1-.81-.28,19.38,19.38,0,0,1-2.11-1,29.75,29.75,0,0,1-11-10.58,18.65,18.65,0,0,1-1.1-2.06A2.9,2.9,0,0,1,251.49,147.83Z"/><path class="cls-9" d="M265.35,159a9.09,9.09,0,0,1-2.32-1.15,26.86,26.86,0,0,1-4.91-3.89,26.25,26.25,0,0,1-3.86-4.93,9.54,9.54,0,0,1-1.15-2.32,19.31,19.31,0,0,1,1.46,2.12,34.48,34.48,0,0,0,3.92,4.77,34.94,34.94,0,0,0,4.74,3.94A21.2,21.2,0,0,1,265.35,159Z"/><path class="cls-9" d="M274.71,159a3.76,3.76,0,0,1-1-.08,20.06,20.06,0,0,1-2.66-.54,27.8,27.8,0,0,1-14.66-9.83,18.17,18.17,0,0,1-1.52-2.25,3.53,3.53,0,0,1-.45-.89c.08-.05.81,1.17,2.26,2.91a30.4,30.4,0,0,0,14.48,9.7C273.32,158.72,274.72,158.93,274.71,159Z"/><path class="cls-9" d="M245.57,188.93s.15-.21.32-.63a3.24,3.24,0,0,0,.08-1.94,4.72,4.72,0,0,0-1.72-2.54c-.94-.79-2.22-1.41-3.55-2.29a8,8,0,0,1-1.86-1.69,4.75,4.75,0,0,1-1-2.59A8.72,8.72,0,0,1,240,171.7c1.25-1.68,2.86-3.2,3.8-5.21a11.81,11.81,0,0,0,.76-6.7,32.19,32.19,0,0,0-1.92-6.66,52.61,52.61,0,0,1-2.09-6.2c-.45-2-.78-4.11-.07-6a4.36,4.36,0,0,1,1.77-2.12,3.23,3.23,0,0,1,2.52-.33,7.78,7.78,0,0,1,3.44,2.54l2.11,2.41,1.31,1.54a3.84,3.84,0,0,1,.43.56,2.8,2.8,0,0,1-.51-.49l-1.38-1.47L248,141.26a7.75,7.75,0,0,0-3.32-2.38,2.9,2.9,0,0,0-2.23.32,3.92,3.92,0,0,0-1.56,1.94c-.64,1.68-.33,3.7.13,5.68a52.31,52.31,0,0,0,2.09,6.13,31,31,0,0,1,2,6.76,12.21,12.21,0,0,1-.81,7c-1,2.12-2.65,3.65-3.88,5.28a8.34,8.34,0,0,0-2,5.24,4.33,4.33,0,0,0,.84,2.37,7.7,7.7,0,0,0,1.75,1.63,39.2,39.2,0,0,1,3.53,2.37,5,5,0,0,1,1.73,2.72,3.15,3.15,0,0,1-.19,2A1.82,1.82,0,0,1,245.57,188.93Z"/><path class="cls-7" d="M228.67,420.24l4.88-5.93-11.06-9.21-7.22,8.61.64.61c2.91,2.71,15,13.58,17.54,14.66C236.3,430.18,228.67,420.24,228.67,420.24Z"/><g class="cls-14"><path class="cls-5" d="M219.35,417a5,5,0,0,0,.55-3.53,4.84,4.84,0,0,0-1.92-3l-2.57,3.09Z"/></g><g class="cls-12"><path class="cls-5" d="M232.26,425.26s2.5,3.69,1.64,3.89-13.48-10.32-18.63-15.44l.22-.23,14.61,12.39S231.6,424.75,232.26,425.26Z"/></g><path class="cls-6" d="M215.32,413.32l.17.18.52.49,1.94,1.76c1.64,1.48,3.94,3.48,6.53,5.65s5,4.06,6.72,5.42l2.08,1.59.57.42c.13.1.2.15.21.14l-.19-.16-.55-.45-2-1.64c-1.73-1.38-4.1-3.3-6.69-5.46s-4.89-4.15-6.56-5.6l-2-1.72-.54-.46Z"/><path class="cls-6" d="M230,426a6.52,6.52,0,0,1,1.18-.65,5.63,5.63,0,0,1,1.32-.19,2.32,2.32,0,0,0-2.5.84Z"/><path class="cls-6" d="M228.07,421.67a1.65,1.65,0,0,0,.7-.14c.38-.12.67-.25.65-.3a1.67,1.67,0,0,0-.7.14C228.35,421.49,228.06,421.62,228.07,421.67Z"/><path class="cls-6" d="M227.57,420.45c0,.05.27.08.61.06s.6-.06.6-.11a1.31,1.31,0,0,0-.61-.06C227.84,420.35,227.57,420.4,227.57,420.45Z"/><path class="cls-6" d="M227.88,418.93s.19.29.51.56.6.46.63.42-.2-.29-.52-.55A1.86,1.86,0,0,0,227.88,418.93Z"/><path class="cls-6" d="M228.29,418a2.16,2.16,0,0,0,1.23,1.19c0-.05-.29-.27-.62-.6S228.34,418,228.29,418Z"/><path class="cls-6" d="M229.25,421a2.85,2.85,0,0,0,.71.58,5.73,5.73,0,0,0,.9.47,2.83,2.83,0,0,0,.58.18.53.53,0,0,0,.36-.07.38.38,0,0,0,.13-.38,1.72,1.72,0,0,0-2.56-.68c-.13.1-.18.17-.17.18A2.53,2.53,0,0,1,230,421a1.67,1.67,0,0,1,.94.11,1.47,1.47,0,0,1,.8.77c0,.17-.11.27-.3.24a2.57,2.57,0,0,1-.54-.16,5.75,5.75,0,0,1-.89-.42C229.54,421.22,229.27,421,229.25,421Z"/><path class="cls-6" d="M229.4,421.2s.26-.07.5-.42a1.61,1.61,0,0,0,.24-.68,1,1,0,0,0-.29-.86.39.39,0,0,0-.5.15,1,1,0,0,0-.14.42,2.88,2.88,0,0,0,0,.71,1.47,1.47,0,0,0,.16.62s0-.24,0-.63a3.38,3.38,0,0,1,.06-.67c0-.24.18-.56.39-.44a.82.82,0,0,1,.22.69,1.67,1.67,0,0,1-.19.63A3.13,3.13,0,0,1,229.4,421.2Z"/><path class="cls-6" d="M218.07,410.49s.34.23.79.71a4.5,4.5,0,0,1,1,4.72c-.23.61-.48.94-.45,1s.08-.07.19-.22a3.6,3.6,0,0,0,.37-.7,4.37,4.37,0,0,0,.26-2.58,4.51,4.51,0,0,0-1.25-2.27,3.91,3.91,0,0,0-.62-.49A.8.8,0,0,0,218.07,410.49Z"/><path class="cls-6" d="M223.05,406.85a22.86,22.86,0,0,0-2,2.19,28,28,0,0,0-1.86,2.3,24.46,24.46,0,0,0,2-2.19A28,28,0,0,0,223.05,406.85Z"/><path class="cls-6" d="M221.63,417a8.5,8.5,0,0,0,1.48,1.51,8,8,0,0,0,1.73,1.21s-.73-.6-1.61-1.35S221.67,417,221.63,417Z"/><path class="cls-6" d="M219.47,415.23c-.05,0-.07.2-.13.43s-.15.41-.11.44.21-.13.28-.39S219.52,415.23,219.47,415.23Z"/><path class="cls-6" d="M219.5,413.54c-.05,0-.07.17-.05.39s.07.37.12.37.07-.18.05-.39S219.55,413.53,219.5,413.54Z"/><path class="cls-6" d="M218.72,412.1s.13.16.24.36.16.37.21.37.09-.23-.06-.47S218.74,412.05,218.72,412.1Z"/><path class="cls-6" d="M218.07,411.19s0,.13,0,.24.15.18.19.16,0-.13,0-.24S218.12,411.16,218.07,411.19Z"/><path class="cls-7" d="M279.43,422.7l-.18-7.68-14.38.23.13,11.24.9,0c4,.16,20.21.52,22.85-.33C291.69,425.26,279.43,422.7,279.43,422.7Z"/><g class="cls-14"><path class="cls-5" d="M270.22,426.29a5,5,0,0,0-1.89-3,4.83,4.83,0,0,0-3.38-1l.06,4Z"/></g><g class="cls-12"><path class="cls-5" d="M285.42,424.16s4.31,1.17,3.78,1.88-16.94,1-24.2.45l0-.33,19.16-.13S284.59,424.21,285.42,424.16Z"/></g><path class="cls-6" d="M264.8,426.16l.24,0,.71,0,2.62.08c2.21,0,5.26.06,8.63,0s6.43-.16,8.63-.27l2.62-.15.71-.05.24,0H289l-.71,0-2.61.09c-2.21.08-5.26.17-8.63.22s-6.42.05-8.63,0H265A.87.87,0,0,0,264.8,426.16Z"/><path class="cls-6" d="M284.18,426.26a5.36,5.36,0,0,1,.47-1.26,5.63,5.63,0,0,1,.87-1,1.86,1.86,0,0,0-1,.92A2,2,0,0,0,284.18,426.26Z"/><path class="cls-6" d="M279.9,424.17s.24-.23.45-.56.33-.63.29-.65-.24.22-.44.56S279.86,424.14,279.9,424.17Z"/><path class="cls-6" d="M278.73,423.57s.26-.12.5-.35.42-.43.38-.47-.25.12-.5.35S278.7,423.54,278.73,423.57Z"/><path class="cls-6" d="M278,422.22a1.65,1.65,0,0,0,.75.09.38.38,0,1,0,0-.18A2.05,2.05,0,0,0,278,422.22Z"/><path class="cls-6" d="M277.7,421.27a1.56,1.56,0,0,0,.84.23,1.44,1.44,0,0,0,.87-.13,5,5,0,0,0-.86,0A4.21,4.21,0,0,0,277.7,421.27Z"/><path class="cls-6" d="M280.37,422.91a2.89,2.89,0,0,0,.92,0,5.85,5.85,0,0,0,1-.24,2.35,2.35,0,0,0,.56-.24.48.48,0,0,0,.22-.29.34.34,0,0,0-.15-.36,1.68,1.68,0,0,0-2.08.52,1.79,1.79,0,0,0-.3.62.6.6,0,0,0,0,.25,3.1,3.1,0,0,1,.41-.79,1.74,1.74,0,0,1,.78-.53,1.47,1.47,0,0,1,1.11.06c.14.11.09.28-.07.38a2.42,2.42,0,0,1-.52.23,5.5,5.5,0,0,1-1,.26C280.72,422.87,280.37,422.88,280.37,422.91Z"/><path class="cls-6" d="M280.61,423a.93.93,0,0,0,.1-.65,1.6,1.6,0,0,0-.27-.67.93.93,0,0,0-.77-.46.37.37,0,0,0-.28.44,1.07,1.07,0,0,0,.16.41,2.88,2.88,0,0,0,.45.55c.29.28.52.38.53.36s-.18-.16-.44-.45a3.27,3.27,0,0,1-.4-.55c-.13-.19-.22-.54,0-.58s.47.2.62.38a1.67,1.67,0,0,1,.27.6A3.67,3.67,0,0,1,280.61,423Z"/><path class="cls-6" d="M265,422.22s.41-.05,1.06,0a4.56,4.56,0,0,1,2.33.92,4.64,4.64,0,0,1,1.48,2c.23.62.26,1,.29,1a.74.74,0,0,0,0-.29,4.14,4.14,0,0,0-.17-.78,4.51,4.51,0,0,0-1.49-2.12,4.44,4.44,0,0,0-2.43-.9,3.68,3.68,0,0,0-.79,0A.9.9,0,0,0,265,422.22Z"/><path class="cls-6" d="M266.43,416.21a23.23,23.23,0,0,0-.08,3,26.86,26.86,0,0,0,.09,2.95,23.13,23.13,0,0,0,.08-2.95A24.27,24.27,0,0,0,266.43,416.21Z"/><path class="cls-6" d="M272,424.86a8.74,8.74,0,0,0,2.1.18,7.85,7.85,0,0,0,2.1-.21c0-.05-.94,0-2.1,0S272,424.81,272,424.86Z"/><path class="cls-6" d="M269.19,424.9s.08.2.18.41.15.4.2.4.07-.23-.05-.47S269.22,424.86,269.19,424.9Z"/><path class="cls-6" d="M268.1,423.59s.06.19.22.33.3.25.33.21-.06-.18-.21-.33S268.14,423.56,268.1,423.59Z"/><path class="cls-6" d="M266.57,423c0,.05.21.05.42.12s.36.18.4.15-.08-.23-.35-.32S266.56,423,266.57,423Z"/><path class="cls-6" d="M265.49,422.74c0,.05.06.12.18.17s.24,0,.25,0-.06-.11-.18-.16S265.5,422.7,265.49,422.74Z"/><path class="cls-6" d="M258.6,259.56s-4.79,20.26-3.43,24.27,10.13,6.33,10.13,6.33l-.3,55.48-48.52,60,17.92,14.67s52.53-60.1,57.16-71-3-90.65-3-90.65Z"/><path class="cls-6" d="M283.39,251.3l2.37,168.53-24.68.12L245,285.41h0c-2.44-8-5.22-16.35-4.71-25.89l3.3-9.69Z"/><path class="cls-9" d="M254.77,277a5.63,5.63,0,0,1,.57.5c.36.35.88.87,1.53,1.57,1.3,1.4,3.11,3.49,5.28,6.19l0,0v.06c.45,7.55,1.34,18.56,2.41,30.79.86,9.95,1.73,19.06,2.28,26.15v.07l0,.06c-2.87,3.83-5.21,7-6.87,9.2-.81,1.05-1.44,1.89-1.91,2.5l-.51.65a1.69,1.69,0,0,1-.19.21s0-.09.14-.25l.46-.68c.45-.63,1.06-1.48,1.82-2.57l6.73-9.3,0,.12c-.65-7.08-1.48-16.19-2.39-26.12C263,304,262.19,293,261.84,285.42l0,.1c-2.13-2.73-3.91-4.85-5.15-6.28-.63-.72-1.13-1.26-1.46-1.63A3.16,3.16,0,0,1,254.77,277Z"/><path class="cls-9" d="M281.84,342.94a24.85,24.85,0,0,0-6.66-1.73,25.38,25.38,0,0,0-6.86.66,5.68,5.68,0,0,1,1.92-.75,15.15,15.15,0,0,1,9.82.78A5.63,5.63,0,0,1,281.84,342.94Z"/><path class="cls-9" d="M290.55,350.75c.11.09-6.83,9.41-15.51,20.82s-15.81,20.59-15.92,20.5,6.83-9.41,15.51-20.82S290.44,350.67,290.55,350.75Z"/><path class="cls-9" d="M289.34,263.82a4.25,4.25,0,0,1-1.39,1.83,6.87,6.87,0,0,1-10.06-1.06,4.16,4.16,0,0,1-1-2.08,21.62,21.62,0,0,0,1.26,1.85,6.87,6.87,0,0,0,9.55,1C288.81,264.53,289.26,263.76,289.34,263.82Z"/><path class="cls-13" d="M236.15,215.11s-3.75,27.42,0,30.89,7.34,2.33,7.34,2.33l7.13-6,1.4-27.26Z"/><path class="cls-7" d="M239.61,192.83s-5.36,6.06-6.47,29.23c0,0,15.27,2.9,15.55,2.06S239.61,192.83,239.61,192.83Z"/><path class="cls-7" d="M240.33,259.52l48.65.79-.76-7.32s-5.36-27.87-5.32-28.23l.84-1.78a16.19,16.19,0,0,0,.42-14.08h23.61l-1-19.16L282,186.09l-9.21-.73s-16.26.85-16.61.89c-6.8.82-14.71,1.34-17.6,8.62-1.55,3.89-.08,9.73,2.45,15.75l6,18.5c2.4,10.17-1.43,9.69-3.54,19.92C243.18,250.59,240.29,258.1,240.33,259.52Z"/><path class="cls-4" d="M304,190.6c0,.15-13.86.27-31,.27s-31-.12-31-.27,13.86-.26,31-.26S304,190.46,304,190.6Z"/><path class="cls-4" d="M305.4,199.81c0,.15-15.43.26-34.46.26s-34.45-.11-34.45-.26,15.42-.26,34.45-.26S305.4,199.67,305.4,199.81Z"/><path class="cls-4" d="M240.33,210.29a16,16,0,0,1-5.75,0,16,16,0,0,1,5.75,0Z"/><path class="cls-4" d="M285.39,210.61c0,.14-10.09.26-22.53.26s-22.53-.12-22.53-.26,10.08-.26,22.53-.26S285.39,210.47,285.39,210.61Z"/><path class="cls-4" d="M284.4,221.41c0,.14-9.06.26-20.22.26s-20.23-.12-20.23-.26,9.05-.26,20.23-.26S284.4,221.26,284.4,221.41Z"/><path class="cls-4" d="M284.11,231.41c0,.14-8.21.26-18.33.26s-18.34-.12-18.34-.26,8.21-.26,18.34-.26S284.11,231.27,284.11,231.41Z"/><path class="cls-4" d="M285.71,239.51c0,.14-8.78.26-19.61.26s-19.61-.12-19.61-.26,8.78-.26,19.61-.26S285.71,239.36,285.71,239.51Z"/><path class="cls-4" d="M288.25,249.83c0,.14-10,.26-22.31.26s-22.31-.12-22.31-.26,10-.26,22.31-.26S288.25,249.68,288.25,249.83Z"/><path class="cls-6" d="M246.75,228.26a3.73,3.73,0,0,1-.42-.92c-.27-.72-.6-1.57-1-2.56-.83-2.17-2-5.15-3.2-8.47s-2.21-6.37-2.84-8.61c-.31-1.11-.55-2-.68-2.66a4.2,4.2,0,0,1-.17-1,36.42,36.42,0,0,1,1.2,3.55c.72,2.2,1.77,5.22,3,8.54s2.31,6.32,3.05,8.52c.37,1.1.65,2,.83,2.62A4.14,4.14,0,0,1,246.75,228.26Z"/><g class="cls-8"><path d="M250.29,246.54a48,48,0,0,0,12.64-7.14,23,23,0,0,0,7.92-12c.21-.89.25-2.06-.57-2.49a1.58,1.58,0,0,0-1.79.45,6,6,0,0,0-1,1.72,12.4,12.4,0,0,1-4.32,5.09c-2.14,1.45-4.66,2.18-7.07,3.13s-4.81,2.22-6.26,4.36-1.57,5.36.33,7.1"/></g><path class="cls-6" d="M272.42,218.87s0,.14,0,.39,0,.64,0,1.13a25.52,25.52,0,0,1-.6,4.09A29.16,29.16,0,0,1,255,244.82a26.94,26.94,0,0,1-3.91,1.36c-.46.13-.84.19-1.09.25a1.43,1.43,0,0,1-.39,0,9.08,9.08,0,0,1,1.43-.49,33.52,33.52,0,0,0,3.8-1.51,30,30,0,0,0,16.6-20.09,34,34,0,0,0,.76-4A11,11,0,0,1,272.42,218.87Z"/><path class="cls-7" d="M310.05,143s-.12-.62-.22-1.84a19.57,19.57,0,0,1,.42-5.41,22,22,0,0,1,1.22-3.82,21.16,21.16,0,0,1,2.34-4.23,22.11,22.11,0,0,1,9.24-7.58,24.64,24.64,0,0,1,6.93-1.91,27.11,27.11,0,0,1,7.92.16,29.16,29.16,0,0,1,15.69,8.33,34.37,34.37,0,0,1,6,8,32,32,0,0,1,3.38,10.1A30.38,30.38,0,0,1,362.6,156a25.86,25.86,0,0,1-1.94,5.56,23.24,23.24,0,0,1-3.4,5,23,23,0,0,1-10.6,6.44,39,39,0,0,1-12.94,1.33A51.36,51.36,0,0,1,320.37,172a23.11,23.11,0,0,1-11.48-8,23.82,23.82,0,0,1-4.42-13.76,26.46,26.46,0,0,1,1-7.42,30.39,30.39,0,0,1,3.12-6.94,33.39,33.39,0,0,1,4.86-6,32.93,32.93,0,0,1,6.32-4.63,29.23,29.23,0,0,1,7.43-2.76,27.28,27.28,0,0,1,8-.43,31.76,31.76,0,0,1,25.53,18.78,27.33,27.33,0,0,1,1.49,16.82,21.87,21.87,0,0,1-3.6,7.9,19.32,19.32,0,0,1-6.68,5.65,24,24,0,0,1-8.47,2.49,30.23,30.23,0,0,1-8.9-.37,30.93,30.93,0,0,1-15.82-8.25,25.19,25.19,0,0,1-5.26-7.44,19.62,19.62,0,0,1-1.74-9c.34-6.23,3.66-12,8.25-16.21A29.26,29.26,0,0,1,336.75,125a25,25,0,0,1,9.15.81,23.37,23.37,0,0,1,4.28,1.65,23.94,23.94,0,0,1,3.89,2.4,22.59,22.59,0,0,1,6,6.74,19.65,19.65,0,0,1,1.84,4.14c.26.71.39,1.45.58,2.18s.28,1.48.33,2.23a24.23,24.23,0,0,1-4.63,16.82,26.19,26.19,0,0,1-14.37,9.44,28.2,28.2,0,0,1-16.89-.83c-10.64-3.86-18.87-13.35-20.64-24.09A23.24,23.24,0,0,1,309,131,27.12,27.12,0,0,1,320.1,120.3a32.86,32.86,0,0,1,14.55-3.6A38,38,0,0,1,349,119.19c8.95,3.4,16.35,10.21,19.58,18.57a28.43,28.43,0,0,1-2.11,24.67,23.17,23.17,0,0,1-8.52,8.21A28.2,28.2,0,0,1,347.17,174a36.57,36.57,0,0,1-20-4.07A44.52,44.52,0,0,1,313,159a28.71,28.71,0,0,1-6.57-13.46,22.06,22.06,0,0,1,1.34-11.88,19.82,19.82,0,0,1,5-7.25,16.8,16.8,0,0,1,4.56-2.93c1.15-.41,1.75-.59,1.75-.59l-.43.16c-.29.11-.73.25-1.3.48a17.06,17.06,0,0,0-4.51,3,19.7,19.7,0,0,0-4.89,7.23,21.85,21.85,0,0,0-1.29,11.78,28.42,28.42,0,0,0,6.56,13.34,44.42,44.42,0,0,0,14.11,10.83,36.34,36.34,0,0,0,19.88,4,28,28,0,0,0,10.62-3.32,23,23,0,0,0,8.38-8.1,28.08,28.08,0,0,0,2.05-24.34c-3.2-8.23-10.51-15-19.36-18.31a37.52,37.52,0,0,0-14.17-2.44,32.4,32.4,0,0,0-14.34,3.55,26.68,26.68,0,0,0-10.9,10.48,22.71,22.71,0,0,0-2.62,15.19c1.73,10.55,9.85,19.91,20.33,23.7a27.61,27.61,0,0,0,16.59.81,25.65,25.65,0,0,0,14.09-9.26,23.72,23.72,0,0,0,4.53-16.46c0-.73-.21-1.45-.32-2.18s-.32-1.43-.58-2.13a19.31,19.31,0,0,0-1.78-4,22.4,22.4,0,0,0-5.91-6.59,24.19,24.19,0,0,0-16.95-4.75,28.72,28.72,0,0,0-16.41,7.35c-4.51,4.1-7.75,9.79-8.08,15.85a19,19,0,0,0,1.7,8.77,24.66,24.66,0,0,0,5.14,7.28,30.39,30.39,0,0,0,15.55,8.11,29.92,29.92,0,0,0,8.75.37,23.22,23.22,0,0,0,8.3-2.44,18.78,18.78,0,0,0,6.5-5.5,21.06,21.06,0,0,0,3.52-7.7,26.9,26.9,0,0,0-1.45-16.52,31.3,31.3,0,0,0-25.13-18.49,26.58,26.58,0,0,0-7.87.41,28.82,28.82,0,0,0-7.31,2.72,32.12,32.12,0,0,0-6.22,4.54,33,33,0,0,0-4.8,5.9,29.76,29.76,0,0,0-3.06,6.82,25.51,25.51,0,0,0-1,7.29,23.31,23.31,0,0,0,4.32,13.5,22.6,22.6,0,0,0,11.26,7.82A51.31,51.31,0,0,0,333.74,174a38.46,38.46,0,0,0,12.81-1.3,21.52,21.52,0,0,0,13.79-11.23,25.47,25.47,0,0,0,1.91-5.48,29.68,29.68,0,0,0,.35-11.13,32.64,32.64,0,0,0-9.22-18,28.78,28.78,0,0,0-15.52-8.28,26.32,26.32,0,0,0-7.85-.18,24.2,24.2,0,0,0-6.87,1.87,21.87,21.87,0,0,0-9.2,7.48,21.21,21.21,0,0,0-2.35,4.19,21.89,21.89,0,0,0-1.24,3.79,20.19,20.19,0,0,0-.46,5.39c0,.61.1,1.07.12,1.38S310.05,143,310.05,143Z"/><path class="cls-7" d="M349.35,137.77c0,.13-6.51,2.31-14.63,4.86S320,147.14,319.93,147s6.51-2.31,14.63-4.86S349.31,137.63,349.35,137.77Z"/><path class="cls-7" d="M351.2,142.52c.05.13-6.06,2.36-13.63,5s-13.76,4.61-13.81,4.47,6.06-2.36,13.64-5S351.16,142.38,351.2,142.52Z"/><path class="cls-7" d="M340,152.29c.16.22-3,1.47-6.81,2.83-1.93.68-3.69,1.26-5,1.66a8.64,8.64,0,0,1-2.11.54,9.31,9.31,0,0,1,2-.89c1.25-.48,3-1.12,4.91-1.8s3.68-1.28,5-1.7S340.06,152.27,340,152.29Z"/><path class="cls-13" d="M345.66,157s-4.59-2.12-4.8-1,.08,1.57,1,1.85,3.39,1.12,3.39,1.12Z"/><path class="cls-15" d="M345.42,159.09s-4.58-2.12-4.8-1,.09,1.56,1,1.85,3.39,1.12,3.39,1.12Z"/><path class="cls-13" d="M334.86,163.77l-17.37,22.8c-2.49,3.67-6.33,5.5-8.94,5.57l-1.63.13.81,15.52,6.86-.78A13.78,13.78,0,0,0,325,200.23l17.67-30.54a50.87,50.87,0,0,0,3.1-6.1c1-2.64-.07-6.59-.07-6.59l-7,4.42v-4.77s-.75-.26-2.2,1.17C335.19,159.05,334.86,163.77,334.86,163.77Z"/><path class="cls-9" d="M338.54,154.59l.09,16.79a1.36,1.36,0,0,0,1.45,1.35h0a1.36,1.36,0,0,0,1.26-1.36v-17l-1.6-2.6Z"/><polygon class="cls-6" points="339.72 151.82 339.28 152.83 340.32 152.78 339.72 151.82"/><path class="cls-6" d="M341.32,154.41a2.31,2.31,0,0,1-1.39.44,2.5,2.5,0,0,1-1.43-.26c0-.06.64.1,1.42.06S341.29,154.35,341.32,154.41Z"/><path class="cls-6" d="M339.89,172.73a3.72,3.72,0,0,1,0-.71c0-.58,0-1.22-.05-1.93,0-1.81,0-4-.05-6.37s0-4.55,0-6.36c0-.71,0-1.35,0-1.93a5,5,0,0,1,0-.71,3.61,3.61,0,0,1,0,.71c0,.58,0,1.22,0,1.92,0,1.82,0,4,0,6.37s0,4.56,0,6.37c0,.71,0,1.35,0,1.93A5.17,5.17,0,0,1,339.89,172.73Z"/></g><g id="Plant"><path class="cls-7" d="M105.37,355.5c7.82,2.73,18,.29,24.73-4.6s11.51-11.89,15.78-19c1.82-3,3.6-6.19,4.18-9.68s-.27-7.42-3-9.7c-4.21-3.54-10.65-1.74-15.43,1a53.22,53.22,0,0,0-26.28,42"/><path class="cls-7" d="M113.77,374.23c4.7,6.2,12.78,9,20.55,9.32S149.77,381.76,157,379c2.63-1,5.52-2.4,6.42-5.07a6.44,6.44,0,0,0-1.38-6,13.24,13.24,0,0,0-5.24-3.57c-7.15-3.05-15.34-3.19-22.87-1.24s-14.09,6.31-20.2,11.12"/><path class="cls-7" d="M105.25,322c6.48.13,11.39-5.54,14.32-11.32a42,42,0,0,0,3.86-26.17c-.59-3.31-1.85-6.88-4.81-8.48s-6.93-.55-9.45,1.76-3.91,5.59-4.92,8.85c-3.47,11.26-2.72,24.19,1,35.36"/><path class="cls-7" d="M84,357.81C95,339,96.86,316,90.34,295.2c-1.06-3.38-3.06-7.24-6.59-7.46-3.91-.25-6.36,4.11-7.44,7.87-3.79,13.21-3,27.25-2.14,41,.51,8.45,3.41,15.67,9.8,21.23"/><path class="cls-7" d="M72.49,365.54a45.2,45.2,0,0,0-26.81-28.43c-2.93-1.1-6.66-1.73-8.85.51s-1.48,5.88-.11,8.63c2.23,4.44,5.84,8,9.43,11.43,3.28,3.12,6.68,6.24,10.81,8.05s11.74,2.27,15.53-.19"/><path class="cls-6" d="M141,317.24s-.06.06-.19.17l-.6.46-2.31,1.73-1.68,1.24c-.61.47-1.24,1-1.93,1.57-1.36,1.14-3,2.37-4.61,3.92l-2.6,2.37c-.9.82-1.77,1.76-2.71,2.69-1.9,1.82-3.74,4-5.72,6.16a121.83,121.83,0,0,0-20.19,32.66c-1.09,2.76-2.17,5.36-3,7.88-.41,1.25-.85,2.45-1.19,3.62l-1,3.39c-.66,2.15-1,4.14-1.45,5.87-.19.87-.39,1.68-.54,2.43L91,395.45c-.21,1.21-.39,2.16-.51,2.85l-.15.74a2.09,2.09,0,0,1-.06.25.74.74,0,0,1,0-.26c0-.2.06-.44.1-.75.1-.69.24-1.65.41-2.86.1-.63.2-1.32.32-2.07s.32-1.56.5-2.44c.38-1.74.74-3.75,1.37-5.91.3-1.08.6-2.22.92-3.4s.77-2.39,1.17-3.65c.78-2.53,1.85-5.15,2.93-7.92a118.76,118.76,0,0,1,20.27-32.79c2-2.21,3.86-4.34,5.78-6.16.94-.92,1.82-1.85,2.73-2.68l2.64-2.35c1.65-1.53,3.28-2.74,4.67-3.87.7-.55,1.34-1.08,2-1.53l1.71-1.21,2.37-1.65.63-.42Z"/><path class="cls-6" d="M155.6,369.35a3.49,3.49,0,0,1-.76-.12c-.49-.09-1.21-.28-2.15-.44a59.24,59.24,0,0,0-60.32,25.1c-.56.78-.92,1.42-1.21,1.83a6,6,0,0,1-.44.63,3.41,3.41,0,0,1,.35-.68c.26-.43.6-1.09,1.13-1.89A53.61,53.61,0,0,1,97,387.29a57.44,57.44,0,0,1,47.69-19.85,53.79,53.79,0,0,1,8,1.15c.94.19,1.65.41,2.14.53A7.36,7.36,0,0,1,155.6,369.35Z"/><path class="cls-6" d="M114.8,283.51a.92.92,0,0,1,0,.29c0,.22-.1.5-.18.85-.17.77-.41,1.86-.72,3.23-.64,2.81-1.61,6.86-2.83,11.87-2.43,10-6,23.79-9.65,39.06-1.83,7.64-3.49,14.94-4.92,21.59S93.87,373.07,93,378.14c-.48,2.53-.84,4.83-1.18,6.85s-.61,3.75-.82,5.18-.39,2.49-.51,3.27l-.15.85a1.94,1.94,0,0,1-.06.29.91.91,0,0,1,0-.29c0-.22.06-.51.09-.86.1-.79.24-1.89.42-3.29s.41-3.18.73-5.2.65-4.33,1.1-6.86c.85-5.08,2-11.11,3.38-17.78s3.05-14,4.88-21.61c3.69-15.28,7.28-29.05,9.81-39,1.25-5,2.27-9,3-11.83.35-1.36.63-2.44.82-3.21.1-.34.17-.62.23-.83A1.09,1.09,0,0,1,114.8,283.51Z"/><path class="cls-6" d="M89.44,393.07a1,1,0,0,1-.07-.23c0-.18-.09-.4-.16-.68q-.19-1-.54-2.61c-.47-2.28-1.09-5.58-1.8-9.67-1.41-8.18-3.09-19.54-4.12-32.17-.5-6.32-.78-12.35-.91-17.84s0-10.44.13-14.59c0-2.08.19-3.95.28-5.6s.2-3.06.31-4.21.18-2,.24-2.67l.08-.69a2.32,2.32,0,0,1,0-.23s0,.08,0,.24,0,.41,0,.69q-.06,1-.15,2.67c-.08,1.16-.16,2.57-.22,4.22s-.17,3.52-.2,5.59c-.12,4.15-.13,9.09,0,14.57s.45,11.5.94,17.81c1,12.61,2.66,24,4,32.15.66,4.1,1.22,7.41,1.63,9.69l.45,2.63.1.69A.87.87,0,0,1,89.44,393.07Z"/><path class="cls-6" d="M90.26,395.46a3.42,3.42,0,0,1-.29-.65c-.19-.48-.43-1.11-.73-1.89l-.52-1.37c-.22-.49-.45-1-.71-1.59l-.81-1.83c-.28-.64-.65-1.29-1-2l-1.13-2.19-1.34-2.31c-.89-1.62-2-3.23-3.15-5A115.3,115.3,0,0,0,72.26,366a128.22,128.22,0,0,0-9.54-9.55c-1.59-1.34-3-2.68-4.51-3.81L56.12,351l-2-1.47c-1.25-.95-2.43-1.74-3.47-2.44s-1.92-1.3-2.68-1.75l-1.71-1.09a3,3,0,0,1-.58-.41,4.51,4.51,0,0,1,.63.32l1.77,1c.77.43,1.69,1,2.73,1.69s2.26,1.45,3.53,2.39l2,1.44,2.12,1.65c1.48,1.11,3,2.44,4.55,3.78a121.79,121.79,0,0,1,9.62,9.57A110.15,110.15,0,0,1,81,376.38c1.1,1.77,2.24,3.4,3.12,5l1.32,2.34c.39.77.75,1.51,1.11,2.22s.7,1.37,1,2,.54,1.27.78,1.85l.67,1.61c.18.5.33,1,.48,1.39l.64,1.93A4.44,4.44,0,0,1,90.26,395.46Z"/><path class="cls-6" d="M136.87,339a32.39,32.39,0,0,1-3.49.21,63.47,63.47,0,0,0-8.33,1,65.26,65.26,0,0,0-8.13,2.11c-2,.68-3.29,1.17-3.32,1.1s.28-.2.83-.46,1.35-.6,2.36-1a50.82,50.82,0,0,1,8.16-2.29,49.72,49.72,0,0,1,8.42-.86c1.09,0,2,0,2.57.05A3.64,3.64,0,0,1,136.87,339Z"/><path class="cls-6" d="M145.21,379.75a31.85,31.85,0,0,0-4.55-6.86,31.83,31.83,0,0,0-6.5-5,7.34,7.34,0,0,1,2.24,1,19.8,19.8,0,0,1,8,8.59A8,8,0,0,1,145.21,379.75Z"/><path class="cls-6" d="M116.79,298.77c.11.11-1.93,2.13-4.15,4.86s-3.79,5.12-3.93,5a23,23,0,0,1,3.53-5.37A22.77,22.77,0,0,1,116.79,298.77Z"/><path class="cls-6" d="M110.12,287.25a39.47,39.47,0,0,1,1.5,8.8,18.29,18.29,0,0,1-1-4.36A19.63,19.63,0,0,1,110.12,287.25Z"/><path class="cls-6" d="M89.45,323.41a53.92,53.92,0,0,1-3.23,6.81,54.48,54.48,0,0,1-3.7,6.56,56,56,0,0,1,3.24-6.8A55.32,55.32,0,0,1,89.45,323.41Z"/><path class="cls-6" d="M77.15,311.13a30.24,30.24,0,0,1,2.74,4.93,30.44,30.44,0,0,1,2.28,5.15,29.85,29.85,0,0,1-2.74-4.92A30,30,0,0,1,77.15,311.13Z"/><path class="cls-6" d="M59.08,353.13c0,.15-2.23-.28-5-.47s-5-.08-5-.24a14.43,14.43,0,0,1,5-.28A14.48,14.48,0,0,1,59.08,353.13Z"/><path class="cls-6" d="M71.42,390.26l6.15,32.34A4.54,4.54,0,0,0,82,426.28h18.17a4.52,4.52,0,0,0,4.47-3.79L110,390.26Z"/><polygon class="cls-9" points="73.42 400.77 108.16 400.77 110.01 390.25 71.42 390.25 73.42 400.77"/><polygon class="cls-4" points="73.42 400.77 74.15 404.6 107.63 404.6 108.16 400.77 73.42 400.77"/></g></g></svg>