<svg width="29" height="30" viewBox="0 0 29 30" fill="none" xmlns="http://www.w3.org/2000/svg">
<path d="M17.6189 6.09047L16.1394 5.85504L15.4703 4.44094C15.3294 4.14316 15.0414 3.95508 14.7264 3.95508C14.4113 3.95508 14.1234 4.14316 13.9824 4.44094L13.3133 5.85504L11.8339 6.09047C11.5224 6.14004 11.2641 6.37137 11.1667 6.68801C11.0691 7.00523 11.1501 7.3527 11.3741 7.58578L12.4401 8.69519L12.1948 10.2548C12.1431 10.5832 12.2715 10.9143 12.5264 11.1099C12.7808 11.3053 13.1184 11.3326 13.3985 11.1789L14.7264 10.4505L16.0542 11.1789C16.3339 11.3323 16.6715 11.3055 16.9263 11.1099C17.1812 10.9143 17.3096 10.5832 17.2579 10.2548L17.0127 8.69519L18.0786 7.58578C18.3031 7.35217 18.3833 7.00459 18.286 6.68801C18.1886 6.37143 17.9304 6.14004 17.6189 6.09047ZM15.5378 7.76297C15.1419 8.175 15.3444 8.69109 15.3443 8.80887L15.1096 8.68014C14.8694 8.54836 14.5834 8.54836 14.3432 8.68014L14.1085 8.80887C14.1299 8.60232 14.2112 8.40428 14.1223 8.11693C14.0338 7.82889 13.8576 7.71967 13.7265 7.56686C13.8624 7.54523 13.9984 7.52355 13.9928 7.52443C14.5403 7.43391 14.6529 6.90879 14.7263 6.79922L14.8446 7.04918C15.0931 7.57436 15.6199 7.53023 15.7261 7.56686L15.5378 7.76297Z" fill="#A4A4A4"/>
<path d="M28.0893 1.75781H23.8647C23.8715 1.46707 23.8752 1.17422 23.8752 0.878906C23.8752 0.393516 23.5028 0 23.0435 0H6.40883C5.94949 0 5.5771 0.393516 5.5771 0.878906C5.5771 1.17422 5.58087 1.46707 5.58763 1.75781H1.36298C0.903645 1.75781 0.53125 2.15133 0.53125 2.63672V4.86293C0.53125 9.78053 4.22492 13.8091 8.85208 14.0509C9.81639 15.4405 10.9525 16.4463 12.2167 17.0207C12.1039 19.3977 11.3453 21.3228 10.701 22.5545C9.93427 24.0201 9.15405 24.8599 9.14762 24.8668V24.8668C8.99536 25.0277 8.90403 25.2538 8.90403 25.4883V28.2422H8.0723C7.61296 28.2422 7.24057 28.6357 7.24057 29.1211C7.24057 29.6065 7.61296 30 8.0723 30H21.38C21.8394 30 22.2118 29.6065 22.2118 29.1211C22.2118 28.6357 21.8394 28.2422 21.38 28.2422H20.5483V25.4883C20.5483 25.2652 20.4639 25.035 20.3047 24.8668C20.3047 24.8668 20.3047 24.8668 20.3047 24.8668C20.2751 24.8355 17.4592 21.8051 17.2354 17.0208C18.4998 16.4464 19.6359 15.4406 20.6003 14.0508C25.2274 13.8091 28.9211 9.78053 28.9211 4.86293V2.63672C28.9211 2.15133 28.5487 1.75781 28.0893 1.75781ZM2.19472 4.86293V3.51562H5.67142C5.88584 6.45217 6.49567 9.51832 7.7436 12.1257C4.57231 11.3827 2.19472 8.40867 2.19472 4.86293ZM10.5675 28.2422V26.3672H18.8848V28.2422H10.5675ZM16.136 15.581C15.7916 15.6975 15.5579 16.0359 15.5579 16.418C15.5579 20.1441 16.9466 22.9922 17.993 24.6094H11.4593C12.5058 22.9922 13.8944 20.1441 13.8944 16.418C13.8944 16.0359 13.6608 15.6975 13.3163 15.581C11.3441 14.9137 9.95684 12.9764 9.0655 10.9823C7.96118 8.51162 7.33843 5.3373 7.25121 1.75781H22.2012C22.114 5.3373 21.4912 8.51162 20.3868 10.9823C19.5043 12.9565 18.1199 14.9097 16.136 15.581ZM27.2576 4.86293C27.2576 8.40867 24.88 11.3827 21.7087 12.1257C22.9566 9.51832 23.5665 6.45223 23.7809 3.51557H27.2576V4.86293Z" fill="#A4A4A4"/>
</svg>
