<svg xmlns="http://www.w3.org/2000/svg"  viewBox="0 0 80 80" width="16px" height="16px"><path fill="#f78f8f" d="M26.429,77.5C13.234,77.5,2.5,66.766,2.5,53.571c0-8.208,4.153-15.753,11.11-20.182l0.509-0.324 l-0.014-0.015l0.926-0.524l37.734-21.205l-8.192,14.336L76.355,3.742L54.856,39.075l13.895-5.955 c-4.298,6.472-22.071,33.226-22.777,34.227l-0.251,0.335C41.215,73.831,34.003,77.5,26.429,77.5z"/><path fill="#c74343" d="M74.71,5.483L55.241,37.48l-1.625,2.67l2.873-1.231l10.918-4.679 c-5.47,8.235-21.179,31.88-21.825,32.795l-0.266,0.355C40.906,73.408,33.845,77,26.429,77C13.51,77,3,66.49,3,53.571 c0-8.037,4.067-15.424,10.878-19.76l0.827-0.527l0.569-0.322l36.159-20.32l-6.206,10.861l-2.178,3.811l3.614-2.492L74.71,5.483 M78,2L46.095,24l8-14L14.785,32.091l0,0l-1.48,0.837l0.037,0.039C6.531,37.303,2,44.9,2,53.571C2,67.063,12.937,78,26.429,78 c8.095,0,15.249-3.954,19.694-10.018l0.26-0.347C47.195,66.483,70.095,32,70.095,32l-14,6L78,2L78,2z"/><path fill="#ffeea3" d="M26.072,69.5c-8.547,0-15.5-6.953-15.5-15.5c0-4.059,1.565-7.9,4.408-10.815l0.054-0.055 l0.035-0.068c0.13-0.258,0.447-0.543,0.94-0.847c0.574-0.479,14.422-10.231,21.109-14.932L33.165,39.14l22.283-13.606 L41.027,48.532l11.783-1.83c-4.767,5.554-14.602,16.997-15.371,17.815l-0.063,0.063C34.406,67.752,30.392,69.5,26.072,69.5z"/><path fill="#c74343" d="M53.897,27.066L41.185,47.339l-1.163,1.856l2.164-0.336l9.363-1.454 c-5.92,6.896-13.487,15.689-14.422,16.715l-0.007,0.004l-0.108,0.116C34.137,67.309,30.252,69,26.072,69c-8.271,0-15-6.729-15-15 c0-3.928,1.515-7.645,4.266-10.466l0.107-0.11l0.069-0.137c0.031-0.062,0.178-0.291,0.756-0.647l0.066-0.043l0.051-0.042 c0.559-0.456,11.348-8.065,19.775-13.99l-3.04,9.119l-0.865,2.595l2.335-1.426L53.897,27.066 M57,24L34.072,38l4-12 c0,0-21.636,15.204-22.326,15.788c-0.601,0.37-0.956,0.715-1.124,1.047C11.81,45.719,10.072,49.654,10.072,54 c0,8.837,7.163,16,16,16c4.609,0,8.751-1.96,11.671-5.079C37.925,64.82,54.072,46,54.072,46l-12.039,1.87L57,24L57,24z"/><g><path fill="#fff" d="M25,60.5c-3.033,0-5.5-2.467-5.5-5.5s2.467-5.5,5.5-5.5s5.5,2.467,5.5,5.5S28.033,60.5,25,60.5z"/><path fill="#f5c276" d="M25,50c2.761,0,5,2.239,5,5s-2.239,5-5,5s-5-2.239-5-5S22.239,50,25,50 M25,49c-3.308,0-6,2.692-6,6 s2.692,6,6,6c3.308,0,6-2.692,6-6S28.308,49,25,49L25,49z"/></g></svg>