<svg width="33" height="25" viewBox="0 0 33 25" fill="none" xmlns="http://www.w3.org/2000/svg">
<path d="M26.7063 12.0439C29.9208 12.0439 32.5362 9.34246 32.5362 6.02193C32.5362 2.70139 29.9209 0 26.7063 0C23.4916 0 20.8764 2.70139 20.8764 6.02193C20.8764 7.95355 21.7624 9.67442 23.1356 10.7771L15.5607 16.7876C15.4243 16.8961 15.2333 16.8961 15.0966 16.7876L0.775549 5.42435C0.860959 4.86007 1.33487 4.4269 1.9047 4.4269H19.3803C19.5908 4.4269 19.7613 4.25069 19.7613 4.0334C19.7613 3.81611 19.5908 3.6399 19.3803 3.6399H1.90478C0.854483 3.6399 0 4.52252 0 5.60741V23.0325C0 24.1174 0.854483 25 1.90478 25H28.7526C29.8029 25 30.6574 24.1174 30.6574 23.0325V12.633C30.6574 12.4157 30.4869 12.2395 30.2764 12.2395C30.066 12.2395 29.8955 12.4157 29.8955 12.633V22.234L19.9215 14.32L23.8026 11.2404C24.6582 11.7504 25.6494 12.0439 26.7063 12.0439V12.0439ZM10.7359 14.32L0.761911 22.234V6.40591L10.7359 14.32ZM29.8804 23.2145C29.7952 23.7791 29.3227 24.213 28.7525 24.213H1.90478C1.33464 24.213 0.862102 23.7791 0.776921 23.2145L11.3613 14.8162L14.6325 17.4117C14.8374 17.5743 15.0831 17.6557 15.3287 17.6557C15.5744 17.6557 15.8199 17.5744 16.025 17.4117L19.2961 14.8161L29.8804 23.2145ZM21.6383 6.02193C21.6383 3.13543 23.9117 0.787005 26.7063 0.787005C29.5008 0.787005 31.7743 3.13535 31.7743 6.02193C31.7743 8.9085 29.5008 11.2568 26.7063 11.2568C23.9117 11.2568 21.6383 8.90842 21.6383 6.02193Z" fill="#A4A4A4"/>
</svg>
