<svg width="30" height="30" viewBox="0 0 30 30" fill="none" xmlns="http://www.w3.org/2000/svg">
<path d="M6.71464 29.3933C6.38595 29.3933 6.05956 29.2908 5.781 29.0894C5.26212 28.7133 5.01972 28.0669 5.16095 27.4432L7.09093 18.9416L0.545656 13.2016C0.064534 12.7816 -0.119263 12.1164 0.0782673 11.5078C0.275797 10.9004 0.813226 10.4703 1.44953 10.4115L10.1097 9.62523L13.5337 1.61256C13.7861 1.02386 14.3611 0.643677 14.9999 0.643677C15.6387 0.643677 16.2137 1.02386 16.4662 1.61119L19.8901 9.62523L28.5489 10.4115C29.1866 10.4689 29.724 10.9004 29.9216 11.5078C30.1191 12.1153 29.9364 12.7816 29.4553 13.2016L22.91 18.9405L24.84 27.4419C24.9815 28.0669 24.7389 28.7133 24.2202 29.0882C23.7027 29.4632 23.0126 29.492 22.4676 29.1645L14.9999 24.7018L7.53222 29.167C7.27976 29.3169 6.99846 29.3933 6.71464 29.3933ZM14.9999 22.7794C15.2837 22.7794 15.5648 22.8556 15.8175 23.0055L22.8652 27.2207L21.0437 19.1966C20.9137 18.6256 21.1076 18.0293 21.5489 17.6429L27.729 12.2229L19.5525 11.4804C18.9638 11.4266 18.4575 11.0565 18.2275 10.514L14.9999 2.95247L11.7685 10.5151C11.541 11.0539 11.0347 11.4241 10.4473 11.4778L2.26964 12.2204L8.44961 17.6404C8.89227 18.0279 9.08591 18.623 8.95476 19.1955L7.13465 27.2194L14.1823 23.0055C14.4348 22.8556 14.7161 22.7794 14.9999 22.7794ZM10.0436 9.78019C10.0436 9.78019 10.0436 9.78156 10.0422 9.78271L10.0436 9.78019ZM19.9537 9.77653L19.9551 9.77904C19.9551 9.77767 19.9551 9.77767 19.9537 9.77653Z" fill="#A4A4A4"/>
</svg>
