<svg width="212" height="152" viewBox="0 0 212 152" fill="none" xmlns="http://www.w3.org/2000/svg">
<rect width="50" height="50" rx="10" fill="#FFC9C9"/>
<path d="M2.565 71.128H14.985V74.908H6.48V79.417H13.851V83.197H6.48V91H2.565V71.128ZM22.0204 91.324C20.9224 91.324 19.9234 91.108 19.0234 90.676C18.1414 90.226 17.4394 89.542 16.9174 88.624C16.3954 87.706 16.1344 86.536 16.1344 85.114C16.1344 83.782 16.4044 82.63 16.9444 81.658C17.4844 80.686 18.1954 79.939 19.0774 79.417C19.9594 78.877 20.8954 78.607 21.8854 78.607C23.0554 78.607 23.9374 78.796 24.5314 79.174C25.1434 79.552 25.6294 79.966 25.9894 80.416L26.2324 79.201H29.7424V91H25.9624V89.542C25.7824 89.722 25.5124 89.956 25.1524 90.244C24.8104 90.532 24.3784 90.784 23.8564 91C23.3344 91.216 22.7224 91.324 22.0204 91.324ZM23.1004 88.246C24.4144 88.246 25.3684 87.652 25.9624 86.464V83.575C25.7464 82.999 25.3684 82.54 24.8284 82.198C24.3064 81.856 23.6854 81.685 22.9654 81.685C22.1554 81.685 21.4534 81.991 20.8594 82.603C20.2654 83.197 19.9684 83.971 19.9684 84.925C19.9684 85.555 20.1124 86.122 20.4004 86.626C20.6884 87.13 21.0664 87.526 21.5344 87.814C22.0204 88.102 22.5424 88.246 23.1004 88.246ZM43.6544 89.947C43.1324 90.361 42.4754 90.694 41.6834 90.946C40.9094 91.198 40.1444 91.324 39.3884 91.324C37.3724 91.324 35.7524 90.775 34.5284 89.677C33.3224 88.579 32.7194 87.049 32.7194 85.087C32.7194 83.773 33.0164 82.657 33.6104 81.739C34.2044 80.803 34.9784 80.092 35.9324 79.606C36.9044 79.12 37.9214 78.877 38.9834 78.877C40.0454 78.877 40.9634 79.021 41.7374 79.309C42.5294 79.597 43.2044 79.975 43.7624 80.443L41.9264 82.873C41.6744 82.675 41.3234 82.477 40.8734 82.279C40.4414 82.063 39.9284 81.955 39.3344 81.955C38.5604 81.955 37.8944 82.252 37.3364 82.846C36.7784 83.422 36.4994 84.169 36.4994 85.087C36.4994 85.969 36.7874 86.716 37.3634 87.328C37.9574 87.94 38.7404 88.246 39.7124 88.246C40.5404 88.246 41.2244 88.021 41.7644 87.571L43.6544 89.947ZM52.3623 91.324C50.9223 91.324 49.6983 91.054 48.6903 90.514C47.7003 89.974 46.9443 89.227 46.4223 88.273C45.9003 87.319 45.6393 86.221 45.6393 84.979C45.6393 83.791 45.9453 82.72 46.5573 81.766C47.1693 80.812 47.9883 80.056 49.0143 79.498C50.0403 78.922 51.1833 78.634 52.4433 78.634C54.1353 78.634 55.5213 79.129 56.6013 80.119C57.6993 81.091 58.4103 82.504 58.7343 84.358L50.0943 87.112C50.6703 87.778 51.4533 88.111 52.4433 88.111C52.8573 88.111 53.2533 88.039 53.6313 87.895C54.0273 87.751 54.4143 87.562 54.7923 87.328L56.4663 90.136C55.8363 90.496 55.1523 90.784 54.4143 91C53.6943 91.216 53.0103 91.324 52.3623 91.324ZM49.3653 84.763C49.3653 84.853 49.3653 84.934 49.3653 85.006L54.5493 83.251C54.3873 82.801 54.1263 82.414 53.7663 82.09C53.4063 81.748 52.8663 81.577 52.1463 81.577C51.3003 81.577 50.6253 81.865 50.1213 82.441C49.6173 83.017 49.3653 83.791 49.3653 84.763ZM69.2301 91.324C68.3301 91.324 67.5561 91.189 66.9081 90.919C66.2781 90.649 65.7291 90.28 65.2611 89.812V91H61.4811V69.697H65.2341V80.011C65.7021 79.615 66.3231 79.282 67.0971 79.012C67.8711 78.742 68.7531 78.607 69.7431 78.607C70.7691 78.607 71.7051 78.85 72.5511 79.336C73.3971 79.822 74.0721 80.533 74.5761 81.469C75.0981 82.387 75.3591 83.512 75.3591 84.844C75.3591 86.176 75.0711 87.328 74.4951 88.3C73.9371 89.272 73.1901 90.019 72.2541 90.541C71.3181 91.063 70.3101 91.324 69.2301 91.324ZM68.3931 88.138C68.9511 88.138 69.4641 87.994 69.9321 87.706C70.4181 87.418 70.8051 87.022 71.0931 86.518C71.3811 86.014 71.5251 85.447 71.5251 84.817C71.5251 84.187 71.3811 83.629 71.0931 83.143C70.8051 82.657 70.4181 82.279 69.9321 82.009C69.4641 81.721 68.9511 81.577 68.3931 81.577C67.6551 81.577 67.0071 81.748 66.4491 82.09C65.8911 82.432 65.4951 82.891 65.2611 83.467V86.356C65.9091 87.544 66.9531 88.138 68.3931 88.138ZM77.4117 84.952C77.4117 83.746 77.6907 82.666 78.2487 81.712C78.8247 80.758 79.6257 80.011 80.6517 79.471C81.6777 78.913 82.8567 78.634 84.1887 78.634C85.5387 78.634 86.7087 78.913 87.6987 79.471C88.6887 80.011 89.4447 80.758 89.9667 81.712C90.5067 82.666 90.7767 83.746 90.7767 84.952C90.7767 86.158 90.5067 87.247 89.9667 88.219C89.4447 89.173 88.6887 89.929 87.6987 90.487C86.7087 91.045 85.5207 91.324 84.1347 91.324C82.8387 91.324 81.6777 91.072 80.6517 90.568C79.6437 90.064 78.8517 89.335 78.2757 88.381C77.6997 87.427 77.4117 86.284 77.4117 84.952ZM81.2187 84.979C81.2187 85.915 81.4887 86.698 82.0287 87.328C82.5687 87.94 83.2527 88.246 84.0807 88.246C84.9627 88.246 85.6647 87.94 86.1867 87.328C86.7087 86.698 86.9697 85.915 86.9697 84.979C86.9697 84.043 86.7087 83.269 86.1867 82.657C85.6647 82.027 84.9627 81.712 84.0807 81.712C83.2527 81.712 82.5687 82.027 82.0287 82.657C81.4887 83.269 81.2187 84.043 81.2187 84.979ZM92.8365 84.952C92.8365 83.746 93.1155 82.666 93.6735 81.712C94.2495 80.758 95.0505 80.011 96.0765 79.471C97.1025 78.913 98.2815 78.634 99.6135 78.634C100.964 78.634 102.134 78.913 103.124 79.471C104.114 80.011 104.87 80.758 105.392 81.712C105.932 82.666 106.202 83.746 106.202 84.952C106.202 86.158 105.932 87.247 105.392 88.219C104.87 89.173 104.114 89.929 103.124 90.487C102.134 91.045 100.946 91.324 99.5595 91.324C98.2635 91.324 97.1025 91.072 96.0765 90.568C95.0685 90.064 94.2765 89.335 93.7005 88.381C93.1245 87.427 92.8365 86.284 92.8365 84.952ZM96.6435 84.979C96.6435 85.915 96.9135 86.698 97.4535 87.328C97.9935 87.94 98.6775 88.246 99.5055 88.246C100.388 88.246 101.09 87.94 101.612 87.328C102.134 86.698 102.395 85.915 102.395 84.979C102.395 84.043 102.134 83.269 101.612 82.657C101.09 82.027 100.388 81.712 99.5055 81.712C98.6775 81.712 97.9935 82.027 97.4535 82.657C96.9135 83.269 96.6435 84.043 96.6435 84.979ZM109.179 91V69.697H112.959V83.035L118.575 78.904L120.87 80.929L116.685 84.088L121.302 91H116.901L114.012 86.086L112.959 86.869V91H109.179Z" fill="#394677"/>
<path d="M15 40H35C37.7625 40 40 37.7625 40 35V15C40 12.2375 37.7625 10 35 10H15C12.2375 10 10 12.2375 10 15V35C10 37.7625 12.2375 40 15 40Z" stroke="#EB4F4F" stroke-miterlimit="10"/>
<path d="M31.01 38.9774V28.6649H34.5025L35.025 24.6449H31.01V22.0799C31.01 20.9149 31.3375 20.1224 33.02 20.1224L35.165 20.1199V16.5249C34.7925 16.4749 33.52 16.3674 32.0375 16.3674C28.9425 16.3674 26.825 18.2399 26.825 21.6799V24.6449L23.75 24.6349V28.6549L26.825 28.6649V38.9799H31.01V38.9774Z" fill="#EB4F4F"/>
<path d="M2.64 124.08C2.37333 124.101 2.17067 124.064 2.032 123.968C1.89333 123.872 1.824 123.728 1.824 123.536C1.824 123.184 2.02133 123.003 2.416 122.992L2.896 122.96C3.44 122.928 3.84533 122.763 4.112 122.464C4.37867 122.155 4.512 121.664 4.512 120.992V113.312C4.512 113.109 4.576 112.949 4.704 112.832C4.832 112.704 4.98667 112.64 5.168 112.64C5.37067 112.64 5.53067 112.704 5.648 112.832C5.76533 112.949 5.824 113.109 5.824 113.312V121.008C5.824 121.989 5.6 122.731 5.152 123.232C4.704 123.723 4.02667 123.995 3.12 124.048L2.64 124.08ZM11.6508 124.112C10.9148 124.112 10.2641 123.947 9.69875 123.616C9.14408 123.285 8.71208 122.816 8.40275 122.208C8.10408 121.589 7.95475 120.875 7.95475 120.064C7.95475 119.253 8.10408 118.544 8.40275 117.936C8.71208 117.317 9.14408 116.843 9.69875 116.512C10.2641 116.181 10.9148 116.016 11.6508 116.016C12.3868 116.016 13.0374 116.181 13.6028 116.512C14.1681 116.843 14.6001 117.317 14.8988 117.936C15.2081 118.544 15.3628 119.253 15.3628 120.064C15.3628 120.875 15.2081 121.589 14.8988 122.208C14.6001 122.816 14.1681 123.285 13.6028 123.616C13.0374 123.947 12.3868 124.112 11.6508 124.112ZM11.6508 123.04C12.4188 123.04 13.0054 122.789 13.4108 122.288C13.8268 121.776 14.0348 121.035 14.0348 120.064C14.0348 119.115 13.8268 118.384 13.4108 117.872C12.9948 117.349 12.4081 117.088 11.6508 117.088C10.8934 117.088 10.3068 117.349 9.89075 117.872C9.47475 118.384 9.26675 119.115 9.26675 120.064C9.26675 121.024 9.46942 121.76 9.87475 122.272C10.2908 122.784 10.8828 123.04 11.6508 123.04ZM17.9498 124.08C17.7578 124.08 17.5978 124.027 17.4698 123.92C17.3524 123.803 17.2938 123.643 17.2938 123.44V116.688C17.2938 116.485 17.3524 116.331 17.4698 116.224C17.5978 116.107 17.7578 116.048 17.9498 116.048C18.1418 116.048 18.2964 116.107 18.4138 116.224C18.5311 116.331 18.5898 116.485 18.5898 116.688V123.44C18.5898 123.653 18.5311 123.813 18.4138 123.92C18.2964 124.027 18.1418 124.08 17.9498 124.08ZM17.9498 114.368C17.6938 114.368 17.4858 114.293 17.3258 114.144C17.1658 113.995 17.0858 113.797 17.0858 113.552C17.0858 113.317 17.1658 113.125 17.3258 112.976C17.4858 112.827 17.6938 112.752 17.9498 112.752C18.2058 112.752 18.4138 112.827 18.5738 112.976C18.7338 113.125 18.8138 113.317 18.8138 113.552C18.8138 113.797 18.7338 113.995 18.5738 114.144C18.4138 114.293 18.2058 114.368 17.9498 114.368ZM24.9325 116.016C26.7992 116.016 27.7325 117.045 27.7325 119.104V123.44C27.7325 123.643 27.6738 123.803 27.5565 123.92C27.4498 124.027 27.2952 124.08 27.0925 124.08C26.8898 124.08 26.7298 124.027 26.6125 123.92C26.4952 123.803 26.4365 123.643 26.4365 123.44V119.184C26.4365 118.459 26.2925 117.931 26.0045 117.6C25.7272 117.269 25.2792 117.104 24.6605 117.104C23.9458 117.104 23.3752 117.323 22.9485 117.76C22.5218 118.197 22.3085 118.789 22.3085 119.536V123.44C22.3085 123.643 22.2498 123.803 22.1325 123.92C22.0258 124.027 21.8712 124.08 21.6685 124.08C21.4658 124.08 21.3058 124.027 21.1885 123.92C21.0712 123.803 21.0125 123.643 21.0125 123.44V116.688C21.0125 116.496 21.0712 116.341 21.1885 116.224C21.3058 116.107 21.4658 116.048 21.6685 116.048C21.8605 116.048 22.0098 116.107 22.1165 116.224C22.2338 116.341 22.2925 116.491 22.2925 116.672V117.488C22.5485 117.008 22.9058 116.645 23.3645 116.4C23.8232 116.144 24.3458 116.016 24.9325 116.016ZM35.0793 124.08C34.8766 124.08 34.7166 124.021 34.5993 123.904C34.4819 123.776 34.4233 123.611 34.4233 123.408V113.36C34.4233 113.168 34.4819 113.013 34.5993 112.896C34.7273 112.779 34.8926 112.72 35.0953 112.72H40.9193C41.1113 112.72 41.2606 112.768 41.3673 112.864C41.4739 112.96 41.5273 113.099 41.5273 113.28C41.5273 113.451 41.4739 113.584 41.3673 113.68C41.2606 113.776 41.1113 113.824 40.9193 113.824H35.7193V117.712H40.5993C40.7913 117.712 40.9406 117.76 41.0473 117.856C41.1539 117.952 41.2073 118.091 41.2073 118.272C41.2073 118.443 41.1539 118.576 41.0473 118.672C40.9406 118.768 40.7913 118.816 40.5993 118.816H35.7193V123.408C35.7193 123.611 35.6606 123.776 35.5433 123.904C35.4366 124.021 35.2819 124.08 35.0793 124.08ZM46.0871 116.016C48.0391 116.016 49.0151 117.04 49.0151 119.088V123.44C49.0151 123.632 48.9565 123.787 48.8391 123.904C48.7325 124.021 48.5831 124.08 48.3911 124.08C48.1991 124.08 48.0445 124.021 47.9271 123.904C47.8098 123.787 47.7511 123.632 47.7511 123.44V122.672C47.5485 123.131 47.2391 123.488 46.8231 123.744C46.4071 123.989 45.9271 124.112 45.3831 124.112C44.8818 124.112 44.4178 124.011 43.9911 123.808C43.5751 123.605 43.2445 123.323 42.9991 122.96C42.7538 122.597 42.6311 122.197 42.6311 121.76C42.6311 121.173 42.7805 120.72 43.0791 120.4C43.3778 120.069 43.8685 119.835 44.5511 119.696C45.2338 119.547 46.1831 119.472 47.3991 119.472H47.7511V118.944C47.7511 118.304 47.6178 117.835 47.3511 117.536C47.0951 117.237 46.6738 117.088 46.0871 117.088C45.3618 117.088 44.6258 117.285 43.8791 117.68C43.5911 117.861 43.3885 117.952 43.2711 117.952C43.1431 117.952 43.0365 117.904 42.9511 117.808C42.8658 117.712 42.8231 117.589 42.8231 117.44C42.8231 117.291 42.8658 117.163 42.9511 117.056C43.0471 116.939 43.1965 116.821 43.3991 116.704C43.7725 116.491 44.1938 116.325 44.6631 116.208C45.1431 116.08 45.6178 116.016 46.0871 116.016ZM45.5591 123.088C46.1991 123.088 46.7218 122.875 47.1271 122.448C47.5431 122.011 47.7511 121.451 47.7511 120.768V120.304H47.4631C46.5245 120.304 45.8098 120.347 45.3191 120.432C44.8285 120.507 44.4765 120.64 44.2631 120.832C44.0605 121.013 43.9591 121.285 43.9591 121.648C43.9591 122.064 44.1085 122.411 44.4071 122.688C44.7165 122.955 45.1005 123.088 45.5591 123.088ZM54.6035 124.112C53.8782 124.112 53.2328 123.947 52.6675 123.616C52.1128 123.285 51.6808 122.816 51.3715 122.208C51.0728 121.6 50.9235 120.896 50.9235 120.096C50.9235 119.296 51.0782 118.587 51.3875 117.968C51.7075 117.349 52.1502 116.869 52.7155 116.528C53.2808 116.187 53.9315 116.016 54.6675 116.016C55.0728 116.016 55.4728 116.075 55.8675 116.192C56.2728 116.299 56.6248 116.459 56.9235 116.672C57.1155 116.8 57.2488 116.928 57.3235 117.056C57.4088 117.173 57.4515 117.307 57.4515 117.456C57.4515 117.605 57.4088 117.728 57.3235 117.824C57.2488 117.92 57.1475 117.968 57.0195 117.968C56.9448 117.968 56.8648 117.947 56.7795 117.904C56.6942 117.861 56.6195 117.819 56.5555 117.776C56.5022 117.733 56.4648 117.707 56.4435 117.696C56.1662 117.515 55.8995 117.371 55.6435 117.264C55.3982 117.157 55.0942 117.104 54.7315 117.104C53.9528 117.104 53.3448 117.371 52.9075 117.904C52.4808 118.427 52.2675 119.157 52.2675 120.096C52.2675 121.035 52.4808 121.76 52.9075 122.272C53.3448 122.784 53.9528 123.04 54.7315 123.04C55.0942 123.04 55.4035 122.987 55.6595 122.88C55.9262 122.773 56.1928 122.629 56.4595 122.448C56.5768 122.373 56.6888 122.309 56.7955 122.256C56.9022 122.203 56.9928 122.176 57.0675 122.176C57.1848 122.176 57.2808 122.224 57.3555 122.32C57.4408 122.416 57.4835 122.539 57.4835 122.688C57.4835 122.827 57.4462 122.955 57.3715 123.072C57.2968 123.179 57.1582 123.301 56.9555 123.44C56.6568 123.643 56.2942 123.808 55.8675 123.936C55.4515 124.053 55.0302 124.112 54.6035 124.112ZM65.0758 122.192C65.1931 122.192 65.2944 122.24 65.3798 122.336C65.4651 122.432 65.5078 122.555 65.5078 122.704C65.5078 122.971 65.3211 123.216 64.9478 123.44C64.5638 123.664 64.1584 123.835 63.7318 123.952C63.3051 124.059 62.8891 124.112 62.4838 124.112C61.2784 124.112 60.3238 123.755 59.6198 123.04C58.9264 122.325 58.5798 121.339 58.5798 120.08C58.5798 119.28 58.7344 118.576 59.0438 117.968C59.3531 117.349 59.7851 116.869 60.3398 116.528C60.9051 116.187 61.5451 116.016 62.2598 116.016C63.2731 116.016 64.0784 116.347 64.6758 117.008C65.2731 117.669 65.5718 118.565 65.5718 119.696C65.5718 119.909 65.5291 120.064 65.4438 120.16C65.3584 120.256 65.2198 120.304 65.0278 120.304H59.8758C59.9718 122.139 60.8411 123.056 62.4838 123.056C62.8998 123.056 63.2571 123.003 63.5558 122.896C63.8544 122.779 64.1744 122.624 64.5158 122.432C64.7931 122.272 64.9798 122.192 65.0758 122.192ZM62.2758 117.024C61.5931 117.024 61.0438 117.237 60.6278 117.664C60.2224 118.091 59.9824 118.693 59.9078 119.472H64.4358C64.4144 118.683 64.2171 118.08 63.8438 117.664C63.4704 117.237 62.9478 117.024 62.2758 117.024ZM71.4013 116.016C72.0839 116.016 72.6866 116.181 73.2093 116.512C73.7319 116.843 74.1373 117.312 74.4253 117.92C74.7133 118.528 74.8573 119.232 74.8573 120.032C74.8573 120.843 74.7133 121.557 74.4253 122.176C74.1373 122.784 73.7319 123.259 73.2093 123.6C72.6866 123.941 72.0839 124.112 71.4013 124.112C70.7933 124.112 70.2599 123.979 69.8013 123.712C69.3533 123.445 69.0119 123.067 68.7773 122.576V123.44C68.7773 123.632 68.7186 123.787 68.6013 123.904C68.4946 124.021 68.3399 124.08 68.1373 124.08C67.9346 124.08 67.7746 124.021 67.6573 123.904C67.5399 123.787 67.4813 123.632 67.4813 123.44V113.264C67.4813 113.083 67.5399 112.933 67.6573 112.816C67.7746 112.699 67.9346 112.64 68.1373 112.64C68.3399 112.64 68.4946 112.699 68.6013 112.816C68.7186 112.923 68.7773 113.072 68.7773 113.264V117.552C69.0119 117.061 69.3533 116.683 69.8013 116.416C70.2599 116.149 70.7933 116.016 71.4013 116.016ZM71.1453 123.04C71.9026 123.04 72.4893 122.779 72.9053 122.256C73.3213 121.723 73.5293 120.981 73.5293 120.032C73.5293 119.104 73.3213 118.384 72.9053 117.872C72.4893 117.36 71.9026 117.104 71.1453 117.104C70.3879 117.104 69.8013 117.36 69.3853 117.872C68.9799 118.384 68.7773 119.115 68.7773 120.064C68.7773 121.013 68.9799 121.749 69.3853 122.272C69.8013 122.784 70.3879 123.04 71.1453 123.04ZM80.0258 124.112C79.2898 124.112 78.6391 123.947 78.0738 123.616C77.5191 123.285 77.0871 122.816 76.7778 122.208C76.4791 121.589 76.3298 120.875 76.3298 120.064C76.3298 119.253 76.4791 118.544 76.7778 117.936C77.0871 117.317 77.5191 116.843 78.0738 116.512C78.6391 116.181 79.2898 116.016 80.0258 116.016C80.7618 116.016 81.4124 116.181 81.9778 116.512C82.5431 116.843 82.9751 117.317 83.2738 117.936C83.5831 118.544 83.7378 119.253 83.7378 120.064C83.7378 120.875 83.5831 121.589 83.2738 122.208C82.9751 122.816 82.5431 123.285 81.9778 123.616C81.4124 123.947 80.7618 124.112 80.0258 124.112ZM80.0258 123.04C80.7938 123.04 81.3804 122.789 81.7858 122.288C82.2018 121.776 82.4098 121.035 82.4098 120.064C82.4098 119.115 82.2018 118.384 81.7858 117.872C81.3698 117.349 80.7831 117.088 80.0258 117.088C79.2684 117.088 78.6818 117.349 78.2658 117.872C77.8498 118.384 77.6418 119.115 77.6418 120.064C77.6418 121.024 77.8444 121.76 78.2498 122.272C78.6658 122.784 79.2578 123.04 80.0258 123.04ZM88.9008 124.112C88.1648 124.112 87.5141 123.947 86.9488 123.616C86.3941 123.285 85.9621 122.816 85.6528 122.208C85.3541 121.589 85.2048 120.875 85.2048 120.064C85.2048 119.253 85.3541 118.544 85.6528 117.936C85.9621 117.317 86.3941 116.843 86.9488 116.512C87.5141 116.181 88.1648 116.016 88.9008 116.016C89.6368 116.016 90.2874 116.181 90.8528 116.512C91.4181 116.843 91.8501 117.317 92.1488 117.936C92.4581 118.544 92.6128 119.253 92.6128 120.064C92.6128 120.875 92.4581 121.589 92.1488 122.208C91.8501 122.816 91.4181 123.285 90.8528 123.616C90.2874 123.947 89.6368 124.112 88.9008 124.112ZM88.9008 123.04C89.6688 123.04 90.2554 122.789 90.6608 122.288C91.0768 121.776 91.2848 121.035 91.2848 120.064C91.2848 119.115 91.0768 118.384 90.6608 117.872C90.2448 117.349 89.6581 117.088 88.9008 117.088C88.1434 117.088 87.5568 117.349 87.1408 117.872C86.7248 118.384 86.5168 119.115 86.5168 120.064C86.5168 121.024 86.7194 121.76 87.1248 122.272C87.5408 122.784 88.1328 123.04 88.9008 123.04ZM100.768 122.976C100.938 123.136 101.024 123.307 101.024 123.488C101.024 123.648 100.965 123.787 100.848 123.904C100.741 124.021 100.608 124.08 100.448 124.08C100.309 124.08 100.165 124.016 100.016 123.888L95.8398 120.288V123.44C95.8398 123.643 95.7758 123.803 95.6478 123.92C95.5304 124.027 95.3811 124.08 95.1998 124.08C95.0078 124.08 94.8478 124.027 94.7198 123.92C94.6024 123.803 94.5438 123.643 94.5438 123.44V113.28C94.5438 113.077 94.6024 112.923 94.7198 112.816C94.8478 112.699 95.0078 112.64 95.1998 112.64C95.3811 112.64 95.5304 112.699 95.6478 112.816C95.7758 112.923 95.8398 113.077 95.8398 113.28V119.776L99.6638 116.272C99.7918 116.144 99.9358 116.08 100.096 116.08C100.256 116.08 100.394 116.139 100.512 116.256C100.629 116.373 100.688 116.512 100.688 116.672C100.688 116.853 100.613 117.013 100.464 117.152L97.3118 119.968L100.768 122.976ZM112.989 116.048C113.191 116.048 113.351 116.107 113.469 116.224C113.586 116.341 113.645 116.496 113.645 116.688V123.472C113.645 124.635 113.346 125.509 112.749 126.096C112.151 126.693 111.266 126.992 110.093 126.992C108.951 126.992 108.002 126.768 107.245 126.32C106.861 126.107 106.669 125.861 106.669 125.584C106.669 125.435 106.706 125.312 106.781 125.216C106.866 125.12 106.973 125.072 107.101 125.072C107.207 125.072 107.399 125.147 107.677 125.296C108.05 125.488 108.418 125.643 108.781 125.76C109.143 125.877 109.575 125.936 110.077 125.936C110.834 125.936 111.405 125.733 111.789 125.328C112.173 124.933 112.365 124.352 112.365 123.584V122.208C112.141 122.709 111.794 123.093 111.325 123.36C110.866 123.627 110.322 123.76 109.693 123.76C109.01 123.76 108.402 123.6 107.869 123.28C107.346 122.96 106.935 122.507 106.637 121.92C106.349 121.333 106.205 120.656 106.205 119.888C106.205 119.12 106.349 118.443 106.637 117.856C106.935 117.269 107.346 116.816 107.869 116.496C108.402 116.176 109.01 116.016 109.693 116.016C110.311 116.016 110.85 116.149 111.309 116.416C111.767 116.683 112.114 117.061 112.349 117.552V116.688C112.349 116.496 112.402 116.341 112.509 116.224C112.626 116.107 112.786 116.048 112.989 116.048ZM109.949 122.688C110.695 122.688 111.282 122.443 111.709 121.952C112.135 121.451 112.349 120.763 112.349 119.888C112.349 119.024 112.135 118.347 111.709 117.856C111.293 117.355 110.706 117.104 109.949 117.104C109.191 117.104 108.594 117.355 108.157 117.856C107.73 118.347 107.517 119.024 107.517 119.888C107.517 120.763 107.73 121.451 108.157 121.952C108.594 122.443 109.191 122.688 109.949 122.688ZM119.9 116.048C120.348 116.016 120.572 116.197 120.572 116.592C120.572 116.763 120.524 116.901 120.428 117.008C120.332 117.104 120.166 117.163 119.932 117.184L119.452 117.232C118.737 117.296 118.204 117.552 117.852 118C117.51 118.437 117.34 118.955 117.34 119.552V123.44C117.34 123.653 117.281 123.813 117.164 123.92C117.046 124.027 116.892 124.08 116.7 124.08C116.508 124.08 116.348 124.027 116.22 123.92C116.102 123.803 116.044 123.643 116.044 123.44V116.688C116.044 116.485 116.108 116.331 116.236 116.224C116.364 116.107 116.518 116.048 116.7 116.048C116.87 116.048 117.014 116.107 117.132 116.224C117.249 116.331 117.308 116.48 117.308 116.672V117.568C117.532 117.099 117.846 116.741 118.252 116.496C118.668 116.251 119.142 116.107 119.676 116.064L119.9 116.048ZM124.76 124.112C124.024 124.112 123.373 123.947 122.808 123.616C122.253 123.285 121.821 122.816 121.512 122.208C121.213 121.589 121.064 120.875 121.064 120.064C121.064 119.253 121.213 118.544 121.512 117.936C121.821 117.317 122.253 116.843 122.808 116.512C123.373 116.181 124.024 116.016 124.76 116.016C125.496 116.016 126.147 116.181 126.712 116.512C127.277 116.843 127.709 117.317 128.008 117.936C128.317 118.544 128.472 119.253 128.472 120.064C128.472 120.875 128.317 121.589 128.008 122.208C127.709 122.816 127.277 123.285 126.712 123.616C126.147 123.947 125.496 124.112 124.76 124.112ZM124.76 123.04C125.528 123.04 126.115 122.789 126.52 122.288C126.936 121.776 127.144 121.035 127.144 120.064C127.144 119.115 126.936 118.384 126.52 117.872C126.104 117.349 125.517 117.088 124.76 117.088C124.003 117.088 123.416 117.349 123 117.872C122.584 118.384 122.376 119.115 122.376 120.064C122.376 121.024 122.579 121.76 122.984 122.272C123.4 122.784 123.992 123.04 124.76 123.04ZM136.323 116.048C136.526 116.048 136.68 116.107 136.787 116.224C136.904 116.341 136.963 116.496 136.963 116.688V123.456C136.963 123.637 136.904 123.787 136.787 123.904C136.68 124.021 136.526 124.08 136.323 124.08C136.131 124.08 135.976 124.027 135.859 123.92C135.752 123.803 135.699 123.653 135.699 123.472V122.672C135.454 123.141 135.107 123.499 134.659 123.744C134.222 123.989 133.726 124.112 133.171 124.112C132.243 124.112 131.544 123.856 131.075 123.344C130.606 122.821 130.371 122.053 130.371 121.04V116.688C130.371 116.496 130.43 116.341 130.547 116.224C130.664 116.107 130.824 116.048 131.027 116.048C131.23 116.048 131.384 116.107 131.491 116.224C131.608 116.341 131.667 116.496 131.667 116.688V121.008C131.667 121.701 131.806 122.213 132.083 122.544C132.36 122.864 132.798 123.024 133.395 123.024C134.078 123.024 134.627 122.805 135.043 122.368C135.459 121.92 135.667 121.333 135.667 120.608V116.688C135.667 116.496 135.726 116.341 135.843 116.224C135.96 116.107 136.12 116.048 136.323 116.048ZM143.292 116.016C143.975 116.016 144.577 116.187 145.1 116.528C145.623 116.869 146.028 117.349 146.316 117.968C146.604 118.576 146.748 119.285 146.748 120.096C146.748 120.907 146.604 121.616 146.316 122.224C146.028 122.821 145.623 123.285 145.1 123.616C144.588 123.947 143.985 124.112 143.292 124.112C142.684 124.112 142.151 123.979 141.692 123.712C141.244 123.445 140.903 123.067 140.668 122.576V126.336C140.668 126.528 140.609 126.677 140.492 126.784C140.385 126.901 140.231 126.96 140.028 126.96C139.825 126.96 139.665 126.901 139.548 126.784C139.431 126.667 139.372 126.517 139.372 126.336V116.688C139.372 116.496 139.431 116.341 139.548 116.224C139.665 116.107 139.825 116.048 140.028 116.048C140.231 116.048 140.385 116.107 140.492 116.224C140.609 116.341 140.668 116.496 140.668 116.688V117.552C140.903 117.061 141.244 116.683 141.692 116.416C142.151 116.149 142.684 116.016 143.292 116.016ZM143.036 123.04C143.793 123.04 144.38 122.784 144.796 122.272C145.212 121.76 145.42 121.035 145.42 120.096C145.42 119.157 145.212 118.427 144.796 117.904C144.38 117.371 143.793 117.104 143.036 117.104C142.279 117.104 141.692 117.36 141.276 117.872C140.871 118.384 140.668 119.115 140.668 120.064C140.668 121.013 140.871 121.749 141.276 122.272C141.692 122.784 142.279 123.04 143.036 123.04ZM156.409 123.056C156.783 123.088 156.969 123.259 156.969 123.568C156.969 123.749 156.9 123.888 156.761 123.984C156.633 124.069 156.436 124.101 156.169 124.08L155.737 124.048C154.884 123.984 154.255 123.728 153.849 123.28C153.444 122.832 153.241 122.155 153.241 121.248V117.232H152.169C151.988 117.232 151.844 117.189 151.737 117.104C151.641 117.008 151.593 116.885 151.593 116.736C151.593 116.576 151.641 116.448 151.737 116.352C151.844 116.256 151.988 116.208 152.169 116.208H153.241V114.4C153.241 114.197 153.3 114.043 153.417 113.936C153.535 113.819 153.695 113.76 153.897 113.76C154.089 113.76 154.244 113.819 154.361 113.936C154.479 114.043 154.537 114.197 154.537 114.4V116.208H156.313C156.484 116.208 156.617 116.256 156.713 116.352C156.82 116.448 156.873 116.576 156.873 116.736C156.873 116.885 156.82 117.008 156.713 117.104C156.617 117.189 156.484 117.232 156.313 117.232H154.537V121.312C154.537 121.899 154.655 122.325 154.889 122.592C155.135 122.848 155.497 122.992 155.977 123.024L156.409 123.056ZM161.479 124.112C160.743 124.112 160.092 123.947 159.527 123.616C158.972 123.285 158.54 122.816 158.231 122.208C157.932 121.589 157.783 120.875 157.783 120.064C157.783 119.253 157.932 118.544 158.231 117.936C158.54 117.317 158.972 116.843 159.527 116.512C160.092 116.181 160.743 116.016 161.479 116.016C162.215 116.016 162.866 116.181 163.431 116.512C163.996 116.843 164.428 117.317 164.727 117.936C165.036 118.544 165.191 119.253 165.191 120.064C165.191 120.875 165.036 121.589 164.727 122.208C164.428 122.816 163.996 123.285 163.431 123.616C162.866 123.947 162.215 124.112 161.479 124.112ZM161.479 123.04C162.247 123.04 162.834 122.789 163.239 122.288C163.655 121.776 163.863 121.035 163.863 120.064C163.863 119.115 163.655 118.384 163.239 117.872C162.823 117.349 162.236 117.088 161.479 117.088C160.722 117.088 160.135 117.349 159.719 117.872C159.303 118.384 159.095 119.115 159.095 120.064C159.095 121.024 159.298 121.76 159.703 122.272C160.119 122.784 160.711 123.04 161.479 123.04ZM173.871 124.112C173.38 124.112 172.911 124.053 172.463 123.936C172.026 123.819 171.636 123.653 171.295 123.44C171.103 123.312 170.964 123.195 170.879 123.088C170.804 122.971 170.767 122.832 170.767 122.672C170.767 122.533 170.804 122.421 170.879 122.336C170.964 122.24 171.071 122.192 171.199 122.192C171.327 122.192 171.514 122.272 171.759 122.432C172.079 122.624 172.394 122.779 172.703 122.896C173.023 123.003 173.418 123.056 173.887 123.056C174.463 123.056 174.911 122.955 175.231 122.752C175.551 122.549 175.711 122.256 175.711 121.872C175.711 121.637 175.652 121.451 175.535 121.312C175.418 121.163 175.215 121.035 174.927 120.928C174.639 120.811 174.218 120.693 173.663 120.576C172.724 120.373 172.052 120.101 171.647 119.76C171.242 119.419 171.039 118.955 171.039 118.368C171.039 117.909 171.167 117.504 171.423 117.152C171.679 116.8 172.031 116.523 172.479 116.32C172.938 116.117 173.455 116.016 174.031 116.016C174.447 116.016 174.847 116.075 175.231 116.192C175.626 116.299 175.972 116.453 176.271 116.656C176.634 116.912 176.815 117.179 176.815 117.456C176.815 117.595 176.772 117.712 176.687 117.808C176.602 117.904 176.5 117.952 176.383 117.952C176.255 117.952 176.063 117.861 175.807 117.68C175.508 117.488 175.226 117.339 174.959 117.232C174.692 117.125 174.362 117.072 173.967 117.072C173.466 117.072 173.06 117.184 172.751 117.408C172.452 117.632 172.303 117.931 172.303 118.304C172.303 118.539 172.356 118.731 172.463 118.88C172.58 119.019 172.767 119.147 173.023 119.264C173.29 119.371 173.668 119.477 174.159 119.584C174.884 119.744 175.444 119.92 175.839 120.112C176.244 120.304 176.532 120.539 176.703 120.816C176.874 121.093 176.959 121.445 176.959 121.872C176.959 122.544 176.676 123.088 176.111 123.504C175.546 123.909 174.799 124.112 173.871 124.112ZM182.456 123.056C182.83 123.088 183.016 123.259 183.016 123.568C183.016 123.749 182.947 123.888 182.808 123.984C182.68 124.069 182.483 124.101 182.216 124.08L181.784 124.048C180.931 123.984 180.302 123.728 179.896 123.28C179.491 122.832 179.288 122.155 179.288 121.248V117.232H178.216C178.035 117.232 177.891 117.189 177.784 117.104C177.688 117.008 177.64 116.885 177.64 116.736C177.64 116.576 177.688 116.448 177.784 116.352C177.891 116.256 178.035 116.208 178.216 116.208H179.288V114.4C179.288 114.197 179.347 114.043 179.464 113.936C179.582 113.819 179.742 113.76 179.944 113.76C180.136 113.76 180.291 113.819 180.408 113.936C180.526 114.043 180.584 114.197 180.584 114.4V116.208H182.36C182.531 116.208 182.664 116.256 182.76 116.352C182.867 116.448 182.92 116.576 182.92 116.736C182.92 116.885 182.867 117.008 182.76 117.104C182.664 117.189 182.531 117.232 182.36 117.232H180.584V121.312C180.584 121.899 180.702 122.325 180.936 122.592C181.182 122.848 181.544 122.992 182.024 123.024L182.456 123.056ZM187.478 116.016C189.43 116.016 190.406 117.04 190.406 119.088V123.44C190.406 123.632 190.347 123.787 190.23 123.904C190.123 124.021 189.974 124.08 189.782 124.08C189.59 124.08 189.435 124.021 189.318 123.904C189.2 123.787 189.142 123.632 189.142 123.44V122.672C188.939 123.131 188.63 123.488 188.214 123.744C187.798 123.989 187.318 124.112 186.774 124.112C186.272 124.112 185.808 124.011 185.382 123.808C184.966 123.605 184.635 123.323 184.39 122.96C184.144 122.597 184.022 122.197 184.022 121.76C184.022 121.173 184.171 120.72 184.47 120.4C184.768 120.069 185.259 119.835 185.942 119.696C186.624 119.547 187.574 119.472 188.79 119.472H189.142V118.944C189.142 118.304 189.008 117.835 188.742 117.536C188.486 117.237 188.064 117.088 187.478 117.088C186.752 117.088 186.016 117.285 185.27 117.68C184.982 117.861 184.779 117.952 184.662 117.952C184.534 117.952 184.427 117.904 184.342 117.808C184.256 117.712 184.214 117.589 184.214 117.44C184.214 117.291 184.256 117.163 184.342 117.056C184.438 116.939 184.587 116.821 184.79 116.704C185.163 116.491 185.584 116.325 186.054 116.208C186.534 116.08 187.008 116.016 187.478 116.016ZM186.95 123.088C187.59 123.088 188.112 122.875 188.518 122.448C188.934 122.011 189.142 121.451 189.142 120.768V120.304H188.854C187.915 120.304 187.2 120.347 186.71 120.432C186.219 120.507 185.867 120.64 185.654 120.832C185.451 121.013 185.35 121.285 185.35 121.648C185.35 122.064 185.499 122.411 185.798 122.688C186.107 122.955 186.491 123.088 186.95 123.088ZM198.394 116.448C198.511 116.192 198.698 116.064 198.954 116.064C199.114 116.064 199.258 116.117 199.386 116.224C199.514 116.331 199.578 116.464 199.578 116.624C199.578 116.72 199.557 116.805 199.514 116.88L195.018 126.576C194.965 126.693 194.885 126.784 194.778 126.848C194.682 126.912 194.581 126.944 194.474 126.944C194.314 126.944 194.17 126.891 194.042 126.784C193.925 126.688 193.866 126.56 193.866 126.4C193.866 126.315 193.887 126.229 193.93 126.144L195.05 123.728L191.882 116.88C191.839 116.805 191.818 116.725 191.818 116.64C191.818 116.48 191.887 116.341 192.026 116.224C192.175 116.107 192.335 116.048 192.506 116.048C192.613 116.048 192.714 116.08 192.81 116.144C192.917 116.208 192.997 116.299 193.05 116.416L195.722 122.416L198.394 116.448ZM9.12 138.048C9.32267 138.048 9.47733 138.107 9.584 138.224C9.70133 138.341 9.76 138.496 9.76 138.688V145.456C9.76 145.637 9.70133 145.787 9.584 145.904C9.47733 146.021 9.32267 146.08 9.12 146.08C8.928 146.08 8.77333 146.027 8.656 145.92C8.54933 145.803 8.496 145.653 8.496 145.472V144.672C8.25067 145.141 7.904 145.499 7.456 145.744C7.01867 145.989 6.52267 146.112 5.968 146.112C5.04 146.112 4.34133 145.856 3.872 145.344C3.40267 144.821 3.168 144.053 3.168 143.04V138.688C3.168 138.496 3.22667 138.341 3.344 138.224C3.46133 138.107 3.62133 138.048 3.824 138.048C4.02667 138.048 4.18133 138.107 4.288 138.224C4.40533 138.341 4.464 138.496 4.464 138.688V143.008C4.464 143.701 4.60267 144.213 4.88 144.544C5.15733 144.864 5.59467 145.024 6.192 145.024C6.87467 145.024 7.424 144.805 7.84 144.368C8.256 143.92 8.464 143.333 8.464 142.608V138.688C8.464 138.496 8.52267 138.341 8.64 138.224C8.75733 138.107 8.91733 138.048 9.12 138.048ZM16.0888 138.016C16.7714 138.016 17.3741 138.187 17.8968 138.528C18.4194 138.869 18.8248 139.349 19.1128 139.968C19.4008 140.576 19.5448 141.285 19.5448 142.096C19.5448 142.907 19.4008 143.616 19.1128 144.224C18.8248 144.821 18.4194 145.285 17.8968 145.616C17.3848 145.947 16.7821 146.112 16.0888 146.112C15.4808 146.112 14.9474 145.979 14.4888 145.712C14.0408 145.445 13.6994 145.067 13.4648 144.576V148.336C13.4648 148.528 13.4061 148.677 13.2888 148.784C13.1821 148.901 13.0274 148.96 12.8248 148.96C12.6221 148.96 12.4621 148.901 12.3448 148.784C12.2274 148.667 12.1688 148.517 12.1688 148.336V138.688C12.1688 138.496 12.2274 138.341 12.3448 138.224C12.4621 138.107 12.6221 138.048 12.8248 138.048C13.0274 138.048 13.1821 138.107 13.2888 138.224C13.4061 138.341 13.4648 138.496 13.4648 138.688V139.552C13.6994 139.061 14.0408 138.683 14.4888 138.416C14.9474 138.149 15.4808 138.016 16.0888 138.016ZM15.8328 145.04C16.5901 145.04 17.1768 144.784 17.5928 144.272C18.0088 143.76 18.2168 143.035 18.2168 142.096C18.2168 141.157 18.0088 140.427 17.5928 139.904C17.1768 139.371 16.5901 139.104 15.8328 139.104C15.0754 139.104 14.4888 139.36 14.0728 139.872C13.6674 140.384 13.4648 141.115 13.4648 142.064C13.4648 143.013 13.6674 143.749 14.0728 144.272C14.4888 144.784 15.0754 145.04 15.8328 145.04ZM27.7373 134.64C27.9399 134.64 28.0999 134.699 28.2173 134.816C28.3346 134.933 28.3933 135.083 28.3933 135.264V145.44C28.3933 145.632 28.3346 145.787 28.2173 145.904C28.0999 146.021 27.9399 146.08 27.7373 146.08C27.5346 146.08 27.3746 146.021 27.2573 145.904C27.1506 145.787 27.0973 145.632 27.0973 145.44V144.576C26.8626 145.067 26.5159 145.445 26.0573 145.712C25.6093 145.979 25.0813 146.112 24.4733 146.112C23.7906 146.112 23.1879 145.941 22.6653 145.6C22.1426 145.259 21.7373 144.784 21.4493 144.176C21.1613 143.557 21.0173 142.843 21.0173 142.032C21.0173 141.232 21.1613 140.528 21.4493 139.92C21.7373 139.312 22.1426 138.843 22.6653 138.512C23.1879 138.181 23.7906 138.016 24.4733 138.016C25.0813 138.016 25.6093 138.149 26.0573 138.416C26.5159 138.683 26.8626 139.061 27.0973 139.552V135.264C27.0973 135.072 27.1506 134.923 27.2573 134.816C27.3746 134.699 27.5346 134.64 27.7373 134.64ZM24.7293 145.04C25.4866 145.04 26.0679 144.784 26.4733 144.272C26.8893 143.749 27.0973 143.013 27.0973 142.064C27.0973 141.115 26.8893 140.384 26.4733 139.872C26.0679 139.36 25.4866 139.104 24.7293 139.104C23.9719 139.104 23.3799 139.36 22.9533 139.872C22.5373 140.384 22.3293 141.104 22.3293 142.032C22.3293 142.981 22.5373 143.723 22.9533 144.256C23.3799 144.779 23.9719 145.04 24.7293 145.04ZM33.9778 138.016C35.9298 138.016 36.9058 139.04 36.9058 141.088V145.44C36.9058 145.632 36.8471 145.787 36.7298 145.904C36.6231 146.021 36.4738 146.08 36.2818 146.08C36.0898 146.08 35.9351 146.021 35.8178 145.904C35.7004 145.787 35.6418 145.632 35.6418 145.44V144.672C35.4391 145.131 35.1298 145.488 34.7138 145.744C34.2978 145.989 33.8178 146.112 33.2738 146.112C32.7724 146.112 32.3084 146.011 31.8818 145.808C31.4658 145.605 31.1351 145.323 30.8898 144.96C30.6444 144.597 30.5218 144.197 30.5218 143.76C30.5218 143.173 30.6711 142.72 30.9698 142.4C31.2684 142.069 31.7591 141.835 32.4418 141.696C33.1244 141.547 34.0738 141.472 35.2898 141.472H35.6418V140.944C35.6418 140.304 35.5084 139.835 35.2418 139.536C34.9858 139.237 34.5644 139.088 33.9778 139.088C33.2524 139.088 32.5164 139.285 31.7698 139.68C31.4818 139.861 31.2791 139.952 31.1618 139.952C31.0338 139.952 30.9271 139.904 30.8418 139.808C30.7564 139.712 30.7138 139.589 30.7138 139.44C30.7138 139.291 30.7564 139.163 30.8418 139.056C30.9378 138.939 31.0871 138.821 31.2898 138.704C31.6631 138.491 32.0844 138.325 32.5538 138.208C33.0338 138.08 33.5084 138.016 33.9778 138.016ZM33.4498 145.088C34.0898 145.088 34.6124 144.875 35.0178 144.448C35.4338 144.011 35.6418 143.451 35.6418 142.768V142.304H35.3538C34.4151 142.304 33.7004 142.347 33.2098 142.432C32.7191 142.507 32.3671 142.64 32.1538 142.832C31.9511 143.013 31.8498 143.285 31.8498 143.648C31.8498 144.064 31.9991 144.411 32.2978 144.688C32.6071 144.955 32.9911 145.088 33.4498 145.088ZM42.8781 145.056C43.2515 145.088 43.4381 145.259 43.4381 145.568C43.4381 145.749 43.3688 145.888 43.2301 145.984C43.1021 146.069 42.9048 146.101 42.6381 146.08L42.2061 146.048C41.3528 145.984 40.7235 145.728 40.3181 145.28C39.9128 144.832 39.7101 144.155 39.7101 143.248V139.232H38.6381C38.4568 139.232 38.3128 139.189 38.2061 139.104C38.1101 139.008 38.0621 138.885 38.0621 138.736C38.0621 138.576 38.1101 138.448 38.2061 138.352C38.3128 138.256 38.4568 138.208 38.6381 138.208H39.7101V136.4C39.7101 136.197 39.7688 136.043 39.8861 135.936C40.0035 135.819 40.1635 135.76 40.3661 135.76C40.5581 135.76 40.7128 135.819 40.8301 135.936C40.9475 136.043 41.0061 136.197 41.0061 136.4V138.208H42.7821C42.9528 138.208 43.0861 138.256 43.1821 138.352C43.2888 138.448 43.3421 138.576 43.3421 138.736C43.3421 138.885 43.2888 139.008 43.1821 139.104C43.0861 139.189 42.9528 139.232 42.7821 139.232H41.0061V143.312C41.0061 143.899 41.1235 144.325 41.3581 144.592C41.6035 144.848 41.9661 144.992 42.4461 145.024L42.8781 145.056ZM50.7476 144.192C50.865 144.192 50.9663 144.24 51.0516 144.336C51.137 144.432 51.1796 144.555 51.1796 144.704C51.1796 144.971 50.993 145.216 50.6196 145.44C50.2356 145.664 49.8303 145.835 49.4036 145.952C48.977 146.059 48.561 146.112 48.1556 146.112C46.9503 146.112 45.9956 145.755 45.2916 145.04C44.5983 144.325 44.2516 143.339 44.2516 142.08C44.2516 141.28 44.4063 140.576 44.7156 139.968C45.025 139.349 45.457 138.869 46.0116 138.528C46.577 138.187 47.217 138.016 47.9316 138.016C48.945 138.016 49.7503 138.347 50.3476 139.008C50.945 139.669 51.2436 140.565 51.2436 141.696C51.2436 141.909 51.201 142.064 51.1156 142.16C51.0303 142.256 50.8916 142.304 50.6996 142.304H45.5476C45.6436 144.139 46.513 145.056 48.1556 145.056C48.5716 145.056 48.929 145.003 49.2276 144.896C49.5263 144.779 49.8463 144.624 50.1876 144.432C50.465 144.272 50.6516 144.192 50.7476 144.192ZM47.9476 139.024C47.265 139.024 46.7156 139.237 46.2996 139.664C45.8943 140.091 45.6543 140.693 45.5796 141.472H50.1076C50.0863 140.683 49.889 140.08 49.5156 139.664C49.1423 139.237 48.6196 139.024 47.9476 139.024ZM59.4091 134.64C59.6118 134.64 59.7718 134.699 59.8891 134.816C60.0065 134.933 60.0651 135.083 60.0651 135.264V145.44C60.0651 145.632 60.0065 145.787 59.8891 145.904C59.7718 146.021 59.6118 146.08 59.4091 146.08C59.2065 146.08 59.0465 146.021 58.9291 145.904C58.8225 145.787 58.7691 145.632 58.7691 145.44V144.576C58.5345 145.067 58.1878 145.445 57.7291 145.712C57.2811 145.979 56.7531 146.112 56.1451 146.112C55.4625 146.112 54.8598 145.941 54.3371 145.6C53.8145 145.259 53.4091 144.784 53.1211 144.176C52.8331 143.557 52.6891 142.843 52.6891 142.032C52.6891 141.232 52.8331 140.528 53.1211 139.92C53.4091 139.312 53.8145 138.843 54.3371 138.512C54.8598 138.181 55.4625 138.016 56.1451 138.016C56.7531 138.016 57.2811 138.149 57.7291 138.416C58.1878 138.683 58.5345 139.061 58.7691 139.552V135.264C58.7691 135.072 58.8225 134.923 58.9291 134.816C59.0465 134.699 59.2065 134.64 59.4091 134.64ZM56.4011 145.04C57.1585 145.04 57.7398 144.784 58.1451 144.272C58.5611 143.749 58.7691 143.013 58.7691 142.064C58.7691 141.115 58.5611 140.384 58.1451 139.872C57.7398 139.36 57.1585 139.104 56.4011 139.104C55.6438 139.104 55.0518 139.36 54.6251 139.872C54.2091 140.384 54.0011 141.104 54.0011 142.032C54.0011 142.981 54.2091 143.723 54.6251 144.256C55.0518 144.779 55.6438 145.04 56.4011 145.04ZM77.2466 138.464C77.3533 138.208 77.5293 138.08 77.7746 138.08C77.9346 138.08 78.0786 138.133 78.2066 138.24C78.3346 138.347 78.3986 138.48 78.3986 138.64C78.3986 138.715 78.3826 138.795 78.3506 138.88L75.6946 145.6C75.6306 145.739 75.5346 145.851 75.4066 145.936C75.2893 146.011 75.156 146.048 75.0066 146.048C74.868 146.048 74.7346 146.011 74.6066 145.936C74.4893 145.851 74.3986 145.739 74.3346 145.6L72.1266 139.984L69.9346 145.6C69.8813 145.739 69.7906 145.851 69.6626 145.936C69.5346 146.011 69.396 146.048 69.2466 146.048C69.108 146.048 68.9746 146.011 68.8466 145.936C68.7186 145.851 68.6226 145.739 68.5586 145.6L65.9026 138.896C65.8706 138.811 65.8546 138.736 65.8546 138.672C65.8546 138.501 65.924 138.357 66.0626 138.24C66.212 138.123 66.372 138.064 66.5426 138.064C66.7986 138.064 66.98 138.192 67.0866 138.448L69.2786 144.352L71.5346 138.496C71.5986 138.357 71.684 138.251 71.7906 138.176C71.908 138.101 72.0306 138.064 72.1586 138.064C72.2973 138.064 72.42 138.101 72.5266 138.176C72.644 138.251 72.7293 138.357 72.7826 138.496L75.0386 144.336L77.2466 138.464ZM80.9185 146.08C80.7265 146.08 80.5665 146.027 80.4385 145.92C80.3212 145.803 80.2625 145.643 80.2625 145.44V138.688C80.2625 138.485 80.3212 138.331 80.4385 138.224C80.5665 138.107 80.7265 138.048 80.9185 138.048C81.1105 138.048 81.2652 138.107 81.3825 138.224C81.4998 138.331 81.5585 138.485 81.5585 138.688V145.44C81.5585 145.653 81.4998 145.813 81.3825 145.92C81.2652 146.027 81.1105 146.08 80.9185 146.08ZM80.9185 136.368C80.6625 136.368 80.4545 136.293 80.2945 136.144C80.1345 135.995 80.0545 135.797 80.0545 135.552C80.0545 135.317 80.1345 135.125 80.2945 134.976C80.4545 134.827 80.6625 134.752 80.9185 134.752C81.1745 134.752 81.3825 134.827 81.5425 134.976C81.7025 135.125 81.7825 135.317 81.7825 135.552C81.7825 135.797 81.7025 135.995 81.5425 136.144C81.3825 136.293 81.1745 136.368 80.9185 136.368ZM87.7063 145.056C88.0796 145.088 88.2663 145.259 88.2663 145.568C88.2663 145.749 88.1969 145.888 88.0583 145.984C87.9303 146.069 87.7329 146.101 87.4663 146.08L87.0343 146.048C86.1809 145.984 85.5516 145.728 85.1463 145.28C84.7409 144.832 84.5383 144.155 84.5383 143.248V139.232H83.4663C83.2849 139.232 83.1409 139.189 83.0343 139.104C82.9383 139.008 82.8902 138.885 82.8902 138.736C82.8902 138.576 82.9383 138.448 83.0343 138.352C83.1409 138.256 83.2849 138.208 83.4663 138.208H84.5383V136.4C84.5383 136.197 84.5969 136.043 84.7143 135.936C84.8316 135.819 84.9916 135.76 85.1943 135.76C85.3863 135.76 85.5409 135.819 85.6583 135.936C85.7756 136.043 85.8343 136.197 85.8343 136.4V138.208H87.6102C87.7809 138.208 87.9143 138.256 88.0103 138.352C88.1169 138.448 88.1703 138.576 88.1703 138.736C88.1703 138.885 88.1169 139.008 88.0103 139.104C87.9143 139.189 87.7809 139.232 87.6102 139.232H85.8343V143.312C85.8343 143.899 85.9516 144.325 86.1863 144.592C86.4316 144.848 86.7943 144.992 87.2743 145.024L87.7063 145.056ZM93.4798 138.016C94.3971 138.016 95.0904 138.277 95.5598 138.8C96.0291 139.312 96.2638 140.08 96.2638 141.104V145.44C96.2638 145.643 96.2051 145.803 96.0878 145.92C95.9704 146.027 95.8158 146.08 95.6238 146.08C95.4211 146.08 95.2611 146.027 95.1438 145.92C95.0264 145.803 94.9678 145.643 94.9678 145.44V141.136C94.9678 140.443 94.8238 139.931 94.5358 139.6C94.2584 139.269 93.8104 139.104 93.1918 139.104C92.4771 139.104 91.9064 139.323 91.4798 139.76C91.0531 140.197 90.8398 140.789 90.8398 141.536V145.44C90.8398 145.643 90.7811 145.803 90.6638 145.92C90.5571 146.027 90.4024 146.08 90.1998 146.08C89.9971 146.08 89.8371 146.027 89.7198 145.92C89.6024 145.803 89.5438 145.643 89.5438 145.44V135.264C89.5438 135.083 89.6024 134.933 89.7198 134.816C89.8478 134.699 90.0078 134.64 90.1998 134.64C90.4024 134.64 90.5571 134.699 90.6638 134.816C90.7811 134.923 90.8398 135.072 90.8398 135.264V139.456C91.0958 138.987 91.4531 138.629 91.9118 138.384C92.3704 138.139 92.8931 138.016 93.4798 138.016ZM108.795 144.192C108.912 144.192 109.013 144.24 109.099 144.336C109.184 144.432 109.227 144.555 109.227 144.704C109.227 144.971 109.04 145.216 108.667 145.44C108.283 145.664 107.877 145.835 107.451 145.952C107.024 146.059 106.608 146.112 106.203 146.112C104.997 146.112 104.043 145.755 103.339 145.04C102.645 144.325 102.299 143.339 102.299 142.08C102.299 141.28 102.453 140.576 102.763 139.968C103.072 139.349 103.504 138.869 104.059 138.528C104.624 138.187 105.264 138.016 105.979 138.016C106.992 138.016 107.797 138.347 108.395 139.008C108.992 139.669 109.291 140.565 109.291 141.696C109.291 141.909 109.248 142.064 109.163 142.16C109.077 142.256 108.939 142.304 108.747 142.304H103.595C103.691 144.139 104.56 145.056 106.203 145.056C106.619 145.056 106.976 145.003 107.275 144.896C107.573 144.779 107.893 144.624 108.235 144.432C108.512 144.272 108.699 144.192 108.795 144.192ZM105.995 139.024C105.312 139.024 104.763 139.237 104.347 139.664C103.941 140.091 103.701 140.693 103.627 141.472H108.155C108.133 140.683 107.936 140.08 107.563 139.664C107.189 139.237 106.667 139.024 105.995 139.024ZM116.722 138.448C116.84 138.192 117.026 138.064 117.282 138.064C117.442 138.064 117.586 138.117 117.714 138.224C117.842 138.331 117.906 138.464 117.906 138.624C117.906 138.72 117.885 138.805 117.842 138.88L114.722 145.6C114.658 145.739 114.562 145.851 114.434 145.936C114.306 146.011 114.168 146.048 114.018 146.048C113.88 146.048 113.746 146.011 113.618 145.936C113.49 145.851 113.389 145.739 113.314 145.6L110.21 138.88C110.168 138.805 110.146 138.725 110.146 138.64C110.146 138.48 110.216 138.341 110.354 138.224C110.504 138.107 110.664 138.048 110.834 138.048C110.941 138.048 111.042 138.08 111.138 138.144C111.245 138.208 111.325 138.299 111.378 138.416L114.05 144.416L116.722 138.448ZM125.263 144.192C125.381 144.192 125.482 144.24 125.567 144.336C125.653 144.432 125.695 144.555 125.695 144.704C125.695 144.971 125.509 145.216 125.135 145.44C124.751 145.664 124.346 145.835 123.919 145.952C123.493 146.059 123.077 146.112 122.671 146.112C121.466 146.112 120.511 145.755 119.807 145.04C119.114 144.325 118.767 143.339 118.767 142.08C118.767 141.28 118.922 140.576 119.231 139.968C119.541 139.349 119.973 138.869 120.527 138.528C121.093 138.187 121.733 138.016 122.447 138.016C123.461 138.016 124.266 138.347 124.863 139.008C125.461 139.669 125.759 140.565 125.759 141.696C125.759 141.909 125.717 142.064 125.631 142.16C125.546 142.256 125.407 142.304 125.215 142.304H120.063C120.159 144.139 121.029 145.056 122.671 145.056C123.087 145.056 123.445 145.003 123.743 144.896C124.042 144.779 124.362 144.624 124.703 144.432C124.981 144.272 125.167 144.192 125.263 144.192ZM122.463 139.024C121.781 139.024 121.231 139.237 120.815 139.664C120.41 140.091 120.17 140.693 120.095 141.472H124.623C124.602 140.683 124.405 140.08 124.031 139.664C123.658 139.237 123.135 139.024 122.463 139.024ZM131.589 138.016C133.455 138.016 134.389 139.045 134.389 141.104V145.44C134.389 145.643 134.33 145.803 134.213 145.92C134.106 146.027 133.951 146.08 133.749 146.08C133.546 146.08 133.386 146.027 133.269 145.92C133.151 145.803 133.093 145.643 133.093 145.44V141.184C133.093 140.459 132.949 139.931 132.661 139.6C132.383 139.269 131.935 139.104 131.317 139.104C130.602 139.104 130.031 139.323 129.605 139.76C129.178 140.197 128.965 140.789 128.965 141.536V145.44C128.965 145.643 128.906 145.803 128.789 145.92C128.682 146.027 128.527 146.08 128.325 146.08C128.122 146.08 127.962 146.027 127.845 145.92C127.727 145.803 127.669 145.643 127.669 145.44V138.688C127.669 138.496 127.727 138.341 127.845 138.224C127.962 138.107 128.122 138.048 128.325 138.048C128.517 138.048 128.666 138.107 128.773 138.224C128.89 138.341 128.949 138.491 128.949 138.672V139.488C129.205 139.008 129.562 138.645 130.021 138.4C130.479 138.144 131.002 138.016 131.589 138.016ZM140.363 145.056C140.736 145.088 140.923 145.259 140.923 145.568C140.923 145.749 140.853 145.888 140.715 145.984C140.587 146.069 140.389 146.101 140.123 146.08L139.691 146.048C138.837 145.984 138.208 145.728 137.803 145.28C137.397 144.832 137.195 144.155 137.195 143.248V139.232H136.123C135.941 139.232 135.797 139.189 135.691 139.104C135.595 139.008 135.546 138.885 135.546 138.736C135.546 138.576 135.595 138.448 135.691 138.352C135.797 138.256 135.941 138.208 136.123 138.208H137.195V136.4C137.195 136.197 137.253 136.043 137.371 135.936C137.488 135.819 137.648 135.76 137.851 135.76C138.043 135.76 138.197 135.819 138.315 135.936C138.432 136.043 138.491 136.197 138.491 136.4V138.208H140.266C140.437 138.208 140.571 138.256 140.667 138.352C140.773 138.448 140.827 138.576 140.827 138.736C140.827 138.885 140.773 139.008 140.667 139.104C140.571 139.189 140.437 139.232 140.266 139.232H138.491V143.312C138.491 143.899 138.608 144.325 138.843 144.592C139.088 144.848 139.451 144.992 139.931 145.024L140.363 145.056ZM144.824 146.112C144.333 146.112 143.864 146.053 143.416 145.936C142.979 145.819 142.589 145.653 142.248 145.44C142.056 145.312 141.917 145.195 141.832 145.088C141.757 144.971 141.72 144.832 141.72 144.672C141.72 144.533 141.757 144.421 141.832 144.336C141.917 144.24 142.024 144.192 142.152 144.192C142.28 144.192 142.467 144.272 142.712 144.432C143.032 144.624 143.347 144.779 143.656 144.896C143.976 145.003 144.371 145.056 144.84 145.056C145.416 145.056 145.864 144.955 146.184 144.752C146.504 144.549 146.664 144.256 146.664 143.872C146.664 143.637 146.605 143.451 146.488 143.312C146.371 143.163 146.168 143.035 145.88 142.928C145.592 142.811 145.171 142.693 144.616 142.576C143.677 142.373 143.005 142.101 142.6 141.76C142.195 141.419 141.992 140.955 141.992 140.368C141.992 139.909 142.12 139.504 142.376 139.152C142.632 138.8 142.984 138.523 143.432 138.32C143.891 138.117 144.408 138.016 144.984 138.016C145.4 138.016 145.8 138.075 146.184 138.192C146.579 138.299 146.925 138.453 147.224 138.656C147.587 138.912 147.768 139.179 147.768 139.456C147.768 139.595 147.725 139.712 147.64 139.808C147.555 139.904 147.453 139.952 147.336 139.952C147.208 139.952 147.016 139.861 146.76 139.68C146.461 139.488 146.179 139.339 145.912 139.232C145.645 139.125 145.315 139.072 144.92 139.072C144.419 139.072 144.013 139.184 143.704 139.408C143.405 139.632 143.256 139.931 143.256 140.304C143.256 140.539 143.309 140.731 143.416 140.88C143.533 141.019 143.72 141.147 143.976 141.264C144.243 141.371 144.621 141.477 145.112 141.584C145.837 141.744 146.397 141.92 146.792 142.112C147.197 142.304 147.485 142.539 147.656 142.816C147.827 143.093 147.912 143.445 147.912 143.872C147.912 144.544 147.629 145.088 147.064 145.504C146.499 145.909 145.752 146.112 144.824 146.112ZM150.027 134.64C150.293 134.64 150.507 134.747 150.667 134.96C150.837 135.163 150.923 135.472 150.923 135.888C150.923 136.731 150.651 137.44 150.107 138.016C150 138.123 149.883 138.176 149.755 138.176C149.637 138.176 149.536 138.139 149.451 138.064C149.365 137.979 149.323 137.883 149.323 137.776C149.323 137.659 149.365 137.557 149.451 137.472C149.728 137.195 149.904 136.843 149.979 136.416C149.744 136.395 149.547 136.304 149.387 136.144C149.237 135.984 149.163 135.781 149.163 135.536C149.163 135.269 149.243 135.056 149.403 134.896C149.573 134.725 149.781 134.64 150.027 134.64ZM161.12 138.016C162.987 138.016 163.92 139.045 163.92 141.104V145.44C163.92 145.643 163.861 145.803 163.744 145.92C163.637 146.027 163.483 146.08 163.28 146.08C163.077 146.08 162.917 146.027 162.8 145.92C162.683 145.803 162.624 145.643 162.624 145.44V141.184C162.624 140.459 162.48 139.931 162.192 139.6C161.915 139.269 161.467 139.104 160.848 139.104C160.133 139.104 159.563 139.323 159.136 139.76C158.709 140.197 158.496 140.789 158.496 141.536V145.44C158.496 145.643 158.437 145.803 158.32 145.92C158.213 146.027 158.059 146.08 157.856 146.08C157.653 146.08 157.493 146.027 157.376 145.92C157.259 145.803 157.2 145.643 157.2 145.44V138.688C157.2 138.496 157.259 138.341 157.376 138.224C157.493 138.107 157.653 138.048 157.856 138.048C158.048 138.048 158.197 138.107 158.304 138.224C158.421 138.341 158.48 138.491 158.48 138.672V139.488C158.736 139.008 159.093 138.645 159.552 138.4C160.011 138.144 160.533 138.016 161.12 138.016ZM172.326 144.192C172.443 144.192 172.544 144.24 172.63 144.336C172.715 144.432 172.758 144.555 172.758 144.704C172.758 144.971 172.571 145.216 172.198 145.44C171.814 145.664 171.408 145.835 170.982 145.952C170.555 146.059 170.139 146.112 169.734 146.112C168.528 146.112 167.574 145.755 166.87 145.04C166.176 144.325 165.83 143.339 165.83 142.08C165.83 141.28 165.984 140.576 166.294 139.968C166.603 139.349 167.035 138.869 167.59 138.528C168.155 138.187 168.795 138.016 169.51 138.016C170.523 138.016 171.328 138.347 171.926 139.008C172.523 139.669 172.822 140.565 172.822 141.696C172.822 141.909 172.779 142.064 172.694 142.16C172.608 142.256 172.47 142.304 172.278 142.304H167.126C167.222 144.139 168.091 145.056 169.734 145.056C170.15 145.056 170.507 145.003 170.806 144.896C171.104 144.779 171.424 144.624 171.766 144.432C172.043 144.272 172.23 144.192 172.326 144.192ZM169.526 139.024C168.843 139.024 168.294 139.237 167.878 139.664C167.472 140.091 167.232 140.693 167.158 141.472H171.686C171.664 140.683 171.467 140.08 171.094 139.664C170.72 139.237 170.198 139.024 169.526 139.024ZM185.294 138.464C185.4 138.208 185.576 138.08 185.822 138.08C185.982 138.08 186.126 138.133 186.254 138.24C186.382 138.347 186.446 138.48 186.446 138.64C186.446 138.715 186.43 138.795 186.398 138.88L183.742 145.6C183.678 145.739 183.582 145.851 183.454 145.936C183.336 146.011 183.203 146.048 183.054 146.048C182.915 146.048 182.782 146.011 182.654 145.936C182.536 145.851 182.446 145.739 182.382 145.6L180.174 139.984L177.982 145.6C177.928 145.739 177.838 145.851 177.71 145.936C177.582 146.011 177.443 146.048 177.294 146.048C177.155 146.048 177.022 146.011 176.894 145.936C176.766 145.851 176.67 145.739 176.606 145.6L173.95 138.896C173.918 138.811 173.902 138.736 173.902 138.672C173.902 138.501 173.971 138.357 174.11 138.24C174.259 138.123 174.419 138.064 174.59 138.064C174.846 138.064 175.027 138.192 175.134 138.448L177.326 144.352L179.582 138.496C179.646 138.357 179.731 138.251 179.838 138.176C179.955 138.101 180.078 138.064 180.206 138.064C180.344 138.064 180.467 138.101 180.574 138.176C180.691 138.251 180.776 138.357 180.83 138.496L183.086 144.336L185.294 138.464ZM190.59 146.112C190.099 146.112 189.63 146.053 189.182 145.936C188.744 145.819 188.355 145.653 188.014 145.44C187.822 145.312 187.683 145.195 187.598 145.088C187.523 144.971 187.486 144.832 187.486 144.672C187.486 144.533 187.523 144.421 187.598 144.336C187.683 144.24 187.79 144.192 187.918 144.192C188.046 144.192 188.232 144.272 188.478 144.432C188.798 144.624 189.112 144.779 189.422 144.896C189.742 145.003 190.136 145.056 190.606 145.056C191.182 145.056 191.63 144.955 191.95 144.752C192.27 144.549 192.43 144.256 192.43 143.872C192.43 143.637 192.371 143.451 192.254 143.312C192.136 143.163 191.934 143.035 191.646 142.928C191.358 142.811 190.936 142.693 190.382 142.576C189.443 142.373 188.771 142.101 188.366 141.76C187.96 141.419 187.758 140.955 187.758 140.368C187.758 139.909 187.886 139.504 188.142 139.152C188.398 138.8 188.75 138.523 189.198 138.32C189.656 138.117 190.174 138.016 190.75 138.016C191.166 138.016 191.566 138.075 191.95 138.192C192.344 138.299 192.691 138.453 192.99 138.656C193.352 138.912 193.534 139.179 193.534 139.456C193.534 139.595 193.491 139.712 193.406 139.808C193.32 139.904 193.219 139.952 193.102 139.952C192.974 139.952 192.782 139.861 192.526 139.68C192.227 139.488 191.944 139.339 191.678 139.232C191.411 139.125 191.08 139.072 190.686 139.072C190.184 139.072 189.779 139.184 189.47 139.408C189.171 139.632 189.022 139.931 189.022 140.304C189.022 140.539 189.075 140.731 189.182 140.88C189.299 141.019 189.486 141.147 189.742 141.264C190.008 141.371 190.387 141.477 190.878 141.584C191.603 141.744 192.163 141.92 192.558 142.112C192.963 142.304 193.251 142.539 193.422 142.816C193.592 143.093 193.678 143.445 193.678 143.872C193.678 144.544 193.395 145.088 192.83 145.504C192.264 145.909 191.518 146.112 190.59 146.112ZM196.215 146.08C195.959 146.08 195.746 146 195.575 145.84C195.404 145.669 195.319 145.451 195.319 145.184C195.319 144.917 195.404 144.699 195.575 144.528C195.746 144.357 195.959 144.272 196.215 144.272C196.46 144.272 196.663 144.357 196.823 144.528C196.994 144.699 197.079 144.917 197.079 145.184C197.079 145.451 196.994 145.669 196.823 145.84C196.663 146 196.46 146.08 196.215 146.08Z" fill="#394677"/>
</svg>
