<svg width="212" height="152" viewBox="0 0 212 152" fill="none" xmlns="http://www.w3.org/2000/svg">
<rect width="50" height="50" rx="10" fill="#FFC9C9"/>
<path d="M18.684 89.002C18.45 89.254 18.081 89.515 17.577 89.785C17.073 90.037 16.488 90.271 15.822 90.487C15.174 90.703 14.508 90.874 13.824 91C13.14 91.144 12.492 91.216 11.88 91.216C9.738 91.216 7.875 90.802 6.291 89.974C4.707 89.146 3.483 88.012 2.619 86.572C1.773 85.132 1.35 83.485 1.35 81.631C1.35 79.813 1.62 78.238 2.16 76.906C2.718 75.556 3.465 74.44 4.401 73.558C5.355 72.658 6.444 71.992 7.668 71.56C8.91 71.128 10.206 70.912 11.556 70.912C12.834 70.912 14.004 71.056 15.066 71.344C16.128 71.614 17.028 71.956 17.766 72.37L16.497 76.015C16.173 75.835 15.741 75.655 15.201 75.475C14.661 75.295 14.112 75.151 13.554 75.043C12.996 74.917 12.501 74.854 12.069 74.854C9.927 74.854 8.28 75.394 7.128 76.474C5.976 77.536 5.4 79.138 5.4 81.28C5.4 82.522 5.679 83.593 6.237 84.493C6.795 85.393 7.569 86.086 8.559 86.572C9.567 87.058 10.71 87.301 11.988 87.301C12.546 87.301 13.059 87.265 13.527 87.193C13.995 87.103 14.391 86.968 14.715 86.788V84.385H11.286V80.605H18.684V89.002ZM22.5104 79.201H26.2904V91H22.5104V79.201ZM22.4294 75.016C22.4294 74.458 22.6454 73.999 23.0774 73.639C23.5274 73.279 24.0044 73.099 24.5084 73.099C25.0124 73.099 25.4714 73.279 25.8854 73.639C26.3174 73.999 26.5334 74.458 26.5334 75.016C26.5334 75.574 26.3174 76.033 25.8854 76.393C25.4714 76.735 25.0124 76.906 24.5084 76.906C24.0044 76.906 23.5274 76.735 23.0774 76.393C22.6454 76.033 22.4294 75.574 22.4294 75.016ZM31.2903 74.017H35.0703V79.147H37.9323V82.09H35.0703V91H31.2903V82.09H29.4543V79.147H31.2903V74.017ZM58.1432 71.128V91H54.2282V82.927H45.3452V91H41.4302V71.128H45.3452V79.147H54.2282V71.128H58.1432ZM66.4483 91.567C65.3863 91.567 64.4953 91.243 63.7753 90.595C63.0553 89.929 62.6773 89.074 62.6413 88.03V79.201H66.4213V86.626C66.4573 87.148 66.5923 87.571 66.8263 87.895C67.0603 88.201 67.4563 88.354 68.0143 88.354C68.8603 88.354 69.5263 87.949 70.0123 87.139C70.4983 86.311 70.7413 85.267 70.7413 84.007V79.201H74.5213V91H71.0923L70.8223 89.11C70.4263 89.848 69.8593 90.442 69.1213 90.892C68.3833 91.342 67.4923 91.567 66.4483 91.567ZM86.1578 91.324C85.2578 91.324 84.4838 91.189 83.8358 90.919C83.2058 90.649 82.6568 90.28 82.1888 89.812V91H78.4088V69.697H82.1618V80.011C82.6298 79.615 83.2508 79.282 84.0248 79.012C84.7988 78.742 85.6808 78.607 86.6708 78.607C87.6968 78.607 88.6328 78.85 89.4788 79.336C90.3248 79.822 90.9998 80.533 91.5038 81.469C92.0258 82.387 92.2868 83.512 92.2868 84.844C92.2868 86.176 91.9988 87.328 91.4228 88.3C90.8648 89.272 90.1178 90.019 89.1818 90.541C88.2458 91.063 87.2378 91.324 86.1578 91.324ZM85.3208 88.138C85.8788 88.138 86.3918 87.994 86.8598 87.706C87.3458 87.418 87.7328 87.022 88.0208 86.518C88.3088 86.014 88.4528 85.447 88.4528 84.817C88.4528 84.187 88.3088 83.629 88.0208 83.143C87.7328 82.657 87.3458 82.279 86.8598 82.009C86.3918 81.721 85.8788 81.577 85.3208 81.577C84.5828 81.577 83.9348 81.748 83.3768 82.09C82.8188 82.432 82.4228 82.891 82.1888 83.467V86.356C82.8368 87.544 83.8808 88.138 85.3208 88.138Z" fill="#394677"/>
<path d="M6.784 124.08C6.58133 124.08 6.416 124.021 6.288 123.904C6.17067 123.776 6.112 123.611 6.112 123.408V113.84H2.672C2.48 113.84 2.33067 113.792 2.224 113.696C2.11733 113.6 2.064 113.461 2.064 113.28C2.064 113.099 2.11733 112.96 2.224 112.864C2.33067 112.768 2.48 112.72 2.672 112.72H10.88C11.072 112.72 11.2213 112.768 11.328 112.864C11.4347 112.96 11.488 113.099 11.488 113.28C11.488 113.461 11.4347 113.6 11.328 113.696C11.2213 113.792 11.072 113.84 10.88 113.84H7.44V123.408C7.44 123.611 7.38133 123.776 7.264 123.904C7.14667 124.021 6.98667 124.08 6.784 124.08ZM17.6048 116.016C18.5221 116.016 19.2154 116.277 19.6848 116.8C20.1541 117.312 20.3888 118.08 20.3888 119.104V123.44C20.3888 123.643 20.3301 123.803 20.2128 123.92C20.0954 124.027 19.9408 124.08 19.7488 124.08C19.5461 124.08 19.3861 124.027 19.2688 123.92C19.1514 123.803 19.0928 123.643 19.0928 123.44V119.136C19.0928 118.443 18.9488 117.931 18.6608 117.6C18.3834 117.269 17.9354 117.104 17.3168 117.104C16.6021 117.104 16.0314 117.323 15.6048 117.76C15.1781 118.197 14.9648 118.789 14.9648 119.536V123.44C14.9648 123.643 14.9061 123.803 14.7888 123.92C14.6821 124.027 14.5274 124.08 14.3248 124.08C14.1221 124.08 13.9621 124.027 13.8448 123.92C13.7274 123.803 13.6688 123.643 13.6688 123.44V113.264C13.6688 113.083 13.7274 112.933 13.8448 112.816C13.9728 112.699 14.1328 112.64 14.3248 112.64C14.5274 112.64 14.6821 112.699 14.7888 112.816C14.9061 112.923 14.9648 113.072 14.9648 113.264V117.456C15.2208 116.987 15.5781 116.629 16.0368 116.384C16.4954 116.139 17.0181 116.016 17.6048 116.016ZM23.4185 124.08C23.2265 124.08 23.0665 124.027 22.9385 123.92C22.8212 123.803 22.7625 123.643 22.7625 123.44V116.688C22.7625 116.485 22.8212 116.331 22.9385 116.224C23.0665 116.107 23.2265 116.048 23.4185 116.048C23.6105 116.048 23.7652 116.107 23.8825 116.224C23.9998 116.331 24.0585 116.485 24.0585 116.688V123.44C24.0585 123.653 23.9998 123.813 23.8825 123.92C23.7652 124.027 23.6105 124.08 23.4185 124.08ZM23.4185 114.368C23.1625 114.368 22.9545 114.293 22.7945 114.144C22.6345 113.995 22.5545 113.797 22.5545 113.552C22.5545 113.317 22.6345 113.125 22.7945 112.976C22.9545 112.827 23.1625 112.752 23.4185 112.752C23.6745 112.752 23.8825 112.827 24.0425 112.976C24.2025 113.125 24.2825 113.317 24.2825 113.552C24.2825 113.797 24.2025 113.995 24.0425 114.144C23.8825 114.293 23.6745 114.368 23.4185 114.368ZM29.1053 124.112C28.6146 124.112 28.1453 124.053 27.6973 123.936C27.2599 123.819 26.8706 123.653 26.5293 123.44C26.3373 123.312 26.1986 123.195 26.1133 123.088C26.0386 122.971 26.0013 122.832 26.0013 122.672C26.0013 122.533 26.0386 122.421 26.1133 122.336C26.1986 122.24 26.3053 122.192 26.4333 122.192C26.5613 122.192 26.7479 122.272 26.9933 122.432C27.3133 122.624 27.6279 122.779 27.9373 122.896C28.2573 123.003 28.6519 123.056 29.1213 123.056C29.6973 123.056 30.1453 122.955 30.4653 122.752C30.7853 122.549 30.9453 122.256 30.9453 121.872C30.9453 121.637 30.8866 121.451 30.7693 121.312C30.6519 121.163 30.4493 121.035 30.1613 120.928C29.8733 120.811 29.4519 120.693 28.8973 120.576C27.9586 120.373 27.2866 120.101 26.8813 119.76C26.4759 119.419 26.2733 118.955 26.2733 118.368C26.2733 117.909 26.4013 117.504 26.6573 117.152C26.9133 116.8 27.2653 116.523 27.7133 116.32C28.1719 116.117 28.6893 116.016 29.2653 116.016C29.6813 116.016 30.0813 116.075 30.4653 116.192C30.8599 116.299 31.2066 116.453 31.5053 116.656C31.8679 116.912 32.0493 117.179 32.0493 117.456C32.0493 117.595 32.0066 117.712 31.9213 117.808C31.8359 117.904 31.7346 117.952 31.6173 117.952C31.4893 117.952 31.2973 117.861 31.0413 117.68C30.7426 117.488 30.4599 117.339 30.1933 117.232C29.9266 117.125 29.5959 117.072 29.2013 117.072C28.6999 117.072 28.2946 117.184 27.9853 117.408C27.6866 117.632 27.5373 117.931 27.5373 118.304C27.5373 118.539 27.5906 118.731 27.6973 118.88C27.8146 119.019 28.0013 119.147 28.2573 119.264C28.5239 119.371 28.9026 119.477 29.3932 119.584C30.1186 119.744 30.6786 119.92 31.0733 120.112C31.4786 120.304 31.7666 120.539 31.9373 120.816C32.1079 121.093 32.1933 121.445 32.1933 121.872C32.1933 122.544 31.9106 123.088 31.3453 123.504C30.7799 123.909 30.0333 124.112 29.1053 124.112ZM41.5258 124.112C40.7898 124.112 40.1391 123.947 39.5738 123.616C39.0191 123.285 38.5871 122.816 38.2778 122.208C37.9791 121.589 37.8298 120.875 37.8298 120.064C37.8298 119.253 37.9791 118.544 38.2778 117.936C38.5871 117.317 39.0191 116.843 39.5738 116.512C40.1391 116.181 40.7898 116.016 41.5258 116.016C42.2618 116.016 42.9124 116.181 43.4778 116.512C44.0431 116.843 44.4751 117.317 44.7738 117.936C45.0831 118.544 45.2378 119.253 45.2378 120.064C45.2378 120.875 45.0831 121.589 44.7738 122.208C44.4751 122.816 44.0431 123.285 43.4778 123.616C42.9124 123.947 42.2618 124.112 41.5258 124.112ZM41.5258 123.04C42.2938 123.04 42.8804 122.789 43.2858 122.288C43.7018 121.776 43.9098 121.035 43.9098 120.064C43.9098 119.115 43.7018 118.384 43.2858 117.872C42.8698 117.349 42.2831 117.088 41.5258 117.088C40.7684 117.088 40.1818 117.349 39.7658 117.872C39.3498 118.384 39.1418 119.115 39.1418 120.064C39.1418 121.024 39.3444 121.76 39.7498 122.272C40.1658 122.784 40.7578 123.04 41.5258 123.04ZM51.0888 116.016C52.9554 116.016 53.8888 117.045 53.8888 119.104V123.44C53.8888 123.643 53.8301 123.803 53.7128 123.92C53.6061 124.027 53.4514 124.08 53.2488 124.08C53.0461 124.08 52.8861 124.027 52.7688 123.92C52.6514 123.803 52.5928 123.643 52.5928 123.44V119.184C52.5928 118.459 52.4488 117.931 52.1608 117.6C51.8834 117.269 51.4354 117.104 50.8168 117.104C50.1021 117.104 49.5314 117.323 49.1048 117.76C48.6781 118.197 48.4648 118.789 48.4648 119.536V123.44C48.4648 123.643 48.4061 123.803 48.2888 123.92C48.1821 124.027 48.0274 124.08 47.8248 124.08C47.6221 124.08 47.4621 124.027 47.3448 123.92C47.2274 123.803 47.1688 123.643 47.1688 123.44V116.688C47.1688 116.496 47.2274 116.341 47.3448 116.224C47.4621 116.107 47.6221 116.048 47.8248 116.048C48.0168 116.048 48.1661 116.107 48.2728 116.224C48.3901 116.341 48.4488 116.491 48.4488 116.672V117.488C48.7048 117.008 49.0621 116.645 49.5208 116.4C49.9794 116.144 50.5021 116.016 51.0888 116.016ZM62.2945 122.192C62.4118 122.192 62.5132 122.24 62.5985 122.336C62.6838 122.432 62.7265 122.555 62.7265 122.704C62.7265 122.971 62.5398 123.216 62.1665 123.44C61.7825 123.664 61.3772 123.835 60.9505 123.952C60.5238 124.059 60.1078 124.112 59.7025 124.112C58.4972 124.112 57.5425 123.755 56.8385 123.04C56.1452 122.325 55.7985 121.339 55.7985 120.08C55.7985 119.28 55.9532 118.576 56.2625 117.968C56.5718 117.349 57.0038 116.869 57.5585 116.528C58.1238 116.187 58.7638 116.016 59.4785 116.016C60.4918 116.016 61.2972 116.347 61.8945 117.008C62.4918 117.669 62.7905 118.565 62.7905 119.696C62.7905 119.909 62.7478 120.064 62.6625 120.16C62.5772 120.256 62.4385 120.304 62.2465 120.304H57.0945C57.1905 122.139 58.0598 123.056 59.7025 123.056C60.1185 123.056 60.4758 123.003 60.7745 122.896C61.0732 122.779 61.3932 122.624 61.7345 122.432C62.0118 122.272 62.1985 122.192 62.2945 122.192ZM59.4945 117.024C58.8118 117.024 58.2625 117.237 57.8465 117.664C57.4412 118.091 57.2012 118.693 57.1265 119.472H61.6545C61.6332 118.683 61.4358 118.08 61.0625 117.664C60.6892 117.237 60.1665 117.024 59.4945 117.024ZM72.745 116.016C74.6117 116.016 75.545 117.045 75.545 119.104V123.44C75.545 123.643 75.4863 123.803 75.369 123.92C75.2623 124.027 75.1077 124.08 74.905 124.08C74.7023 124.08 74.5423 124.027 74.425 123.92C74.3077 123.803 74.249 123.643 74.249 123.44V119.184C74.249 118.459 74.105 117.931 73.817 117.6C73.5397 117.269 73.0917 117.104 72.473 117.104C71.7583 117.104 71.1877 117.323 70.761 117.76C70.3343 118.197 70.121 118.789 70.121 119.536V123.44C70.121 123.643 70.0623 123.803 69.945 123.92C69.8383 124.027 69.6837 124.08 69.481 124.08C69.2783 124.08 69.1183 124.027 69.001 123.92C68.8837 123.803 68.825 123.643 68.825 123.44V116.688C68.825 116.496 68.8837 116.341 69.001 116.224C69.1183 116.107 69.2783 116.048 69.481 116.048C69.673 116.048 69.8223 116.107 69.929 116.224C70.0463 116.341 70.105 116.491 70.105 116.672V117.488C70.361 117.008 70.7183 116.645 71.177 116.4C71.6357 116.144 72.1583 116.016 72.745 116.016ZM81.1508 124.112C80.4148 124.112 79.7641 123.947 79.1988 123.616C78.6441 123.285 78.2121 122.816 77.9028 122.208C77.6041 121.589 77.4548 120.875 77.4548 120.064C77.4548 119.253 77.6041 118.544 77.9028 117.936C78.2121 117.317 78.6441 116.843 79.1988 116.512C79.7641 116.181 80.4148 116.016 81.1508 116.016C81.8868 116.016 82.5374 116.181 83.1028 116.512C83.6681 116.843 84.1001 117.317 84.3988 117.936C84.7081 118.544 84.8628 119.253 84.8628 120.064C84.8628 120.875 84.7081 121.589 84.3988 122.208C84.1001 122.816 83.6681 123.285 83.1028 123.616C82.5374 123.947 81.8868 124.112 81.1508 124.112ZM81.1508 123.04C81.9188 123.04 82.5054 122.789 82.9108 122.288C83.3268 121.776 83.5348 121.035 83.5348 120.064C83.5348 119.115 83.3268 118.384 82.9108 117.872C82.4948 117.349 81.9081 117.088 81.1508 117.088C80.3934 117.088 79.8068 117.349 79.3908 117.872C78.9748 118.384 78.7668 119.115 78.7668 120.064C78.7668 121.024 78.9694 121.76 79.3748 122.272C79.7908 122.784 80.3828 123.04 81.1508 123.04ZM90.3781 123.056C90.7515 123.088 90.9381 123.259 90.9381 123.568C90.9381 123.749 90.8688 123.888 90.7301 123.984C90.6021 124.069 90.4048 124.101 90.1381 124.08L89.7061 124.048C88.8528 123.984 88.2235 123.728 87.8181 123.28C87.4128 122.832 87.2101 122.155 87.2101 121.248V117.232H86.1381C85.9568 117.232 85.8128 117.189 85.7061 117.104C85.6101 117.008 85.5621 116.885 85.5621 116.736C85.5621 116.576 85.6101 116.448 85.7061 116.352C85.8128 116.256 85.9568 116.208 86.1381 116.208H87.2101V114.4C87.2101 114.197 87.2688 114.043 87.3861 113.936C87.5035 113.819 87.6635 113.76 87.8661 113.76C88.0581 113.76 88.2128 113.819 88.3301 113.936C88.4475 114.043 88.5061 114.197 88.5061 114.4V116.208H90.2821C90.4528 116.208 90.5861 116.256 90.6821 116.352C90.7888 116.448 90.8421 116.576 90.8421 116.736C90.8421 116.885 90.7888 117.008 90.6821 117.104C90.5861 117.189 90.4528 117.232 90.2821 117.232H88.5061V121.312C88.5061 121.899 88.6235 122.325 88.8581 122.592C89.1035 122.848 89.4661 122.992 89.9461 123.024L90.3781 123.056ZM99.7806 113.744C99.2153 113.787 98.7886 113.968 98.5006 114.288C98.2126 114.597 98.0686 115.067 98.0686 115.696V116.208H99.8446C100.026 116.208 100.165 116.256 100.261 116.352C100.357 116.448 100.405 116.576 100.405 116.736C100.405 116.896 100.357 117.019 100.261 117.104C100.165 117.189 100.026 117.232 99.8446 117.232H98.0686V123.44C98.0686 123.643 98.0046 123.803 97.8766 123.92C97.7593 124.027 97.61 124.08 97.4286 124.08C97.2366 124.08 97.0766 124.027 96.9486 123.92C96.8313 123.803 96.7726 123.643 96.7726 123.44V117.232H95.7006C95.5193 117.232 95.3753 117.189 95.2686 117.104C95.1726 117.008 95.1246 116.885 95.1246 116.736C95.1246 116.576 95.1726 116.448 95.2686 116.352C95.3753 116.256 95.5193 116.208 95.7006 116.208H96.7726V115.92C96.7726 114.96 97.0126 114.208 97.4926 113.664C97.9726 113.109 98.6606 112.8 99.5566 112.736L99.9726 112.704C100.25 112.683 100.447 112.709 100.565 112.784C100.693 112.859 100.757 112.992 100.757 113.184C100.757 113.493 100.57 113.669 100.197 113.712L99.7806 113.744ZM104.745 124.112C104.009 124.112 103.358 123.947 102.793 123.616C102.238 123.285 101.806 122.816 101.497 122.208C101.198 121.589 101.049 120.875 101.049 120.064C101.049 119.253 101.198 118.544 101.497 117.936C101.806 117.317 102.238 116.843 102.793 116.512C103.358 116.181 104.009 116.016 104.745 116.016C105.481 116.016 106.131 116.181 106.697 116.512C107.262 116.843 107.694 117.317 107.993 117.936C108.302 118.544 108.457 119.253 108.457 120.064C108.457 120.875 108.302 121.589 107.993 122.208C107.694 122.816 107.262 123.285 106.697 123.616C106.131 123.947 105.481 124.112 104.745 124.112ZM104.745 123.04C105.513 123.04 106.099 122.789 106.505 122.288C106.921 121.776 107.129 121.035 107.129 120.064C107.129 119.115 106.921 118.384 106.505 117.872C106.089 117.349 105.502 117.088 104.745 117.088C103.987 117.088 103.401 117.349 102.985 117.872C102.569 118.384 102.361 119.115 102.361 120.064C102.361 121.024 102.563 121.76 102.969 122.272C103.385 122.784 103.977 123.04 104.745 123.04ZM114.244 116.048C114.692 116.016 114.916 116.197 114.916 116.592C114.916 116.763 114.868 116.901 114.772 117.008C114.676 117.104 114.51 117.163 114.276 117.184L113.796 117.232C113.081 117.296 112.548 117.552 112.196 118C111.854 118.437 111.684 118.955 111.684 119.552V123.44C111.684 123.653 111.625 123.813 111.508 123.92C111.39 124.027 111.236 124.08 111.044 124.08C110.852 124.08 110.692 124.027 110.564 123.92C110.446 123.803 110.388 123.643 110.388 123.44V116.688C110.388 116.485 110.452 116.331 110.58 116.224C110.708 116.107 110.862 116.048 111.044 116.048C111.214 116.048 111.358 116.107 111.476 116.224C111.593 116.331 111.652 116.48 111.652 116.672V117.568C111.876 117.099 112.19 116.741 112.596 116.496C113.012 116.251 113.486 116.107 114.02 116.064L114.244 116.048ZM126.409 116.048C126.612 116.048 126.772 116.107 126.889 116.224C127.006 116.341 127.065 116.496 127.065 116.688V126.336C127.065 126.517 127.006 126.667 126.889 126.784C126.772 126.901 126.612 126.96 126.409 126.96C126.206 126.96 126.046 126.901 125.929 126.784C125.822 126.677 125.769 126.528 125.769 126.336V122.576C125.534 123.067 125.188 123.445 124.729 123.712C124.281 123.979 123.753 124.112 123.145 124.112C122.452 124.112 121.844 123.947 121.321 123.616C120.809 123.285 120.409 122.821 120.121 122.224C119.833 121.616 119.689 120.907 119.689 120.096C119.689 119.285 119.833 118.576 120.121 117.968C120.409 117.349 120.814 116.869 121.337 116.528C121.86 116.187 122.462 116.016 123.145 116.016C123.753 116.016 124.281 116.149 124.729 116.416C125.188 116.683 125.534 117.061 125.769 117.552V116.688C125.769 116.496 125.822 116.341 125.929 116.224C126.046 116.107 126.206 116.048 126.409 116.048ZM123.401 123.04C124.158 123.04 124.74 122.784 125.145 122.272C125.561 121.749 125.769 121.013 125.769 120.064C125.769 119.115 125.561 118.384 125.145 117.872C124.74 117.36 124.158 117.104 123.401 117.104C122.644 117.104 122.052 117.371 121.625 117.904C121.209 118.427 121.001 119.157 121.001 120.096C121.001 121.035 121.209 121.76 121.625 122.272C122.052 122.784 122.644 123.04 123.401 123.04ZM135.386 116.048C135.588 116.048 135.743 116.107 135.85 116.224C135.967 116.341 136.026 116.496 136.026 116.688V123.456C136.026 123.637 135.967 123.787 135.85 123.904C135.743 124.021 135.588 124.08 135.386 124.08C135.194 124.08 135.039 124.027 134.922 123.92C134.815 123.803 134.762 123.653 134.762 123.472V122.672C134.516 123.141 134.17 123.499 133.722 123.744C133.284 123.989 132.788 124.112 132.234 124.112C131.306 124.112 130.607 123.856 130.138 123.344C129.668 122.821 129.434 122.053 129.434 121.04V116.688C129.434 116.496 129.492 116.341 129.61 116.224C129.727 116.107 129.887 116.048 130.09 116.048C130.292 116.048 130.447 116.107 130.554 116.224C130.671 116.341 130.73 116.496 130.73 116.688V121.008C130.73 121.701 130.868 122.213 131.146 122.544C131.423 122.864 131.86 123.024 132.458 123.024C133.14 123.024 133.69 122.805 134.106 122.368C134.522 121.92 134.73 121.333 134.73 120.608V116.688C134.73 116.496 134.788 116.341 134.906 116.224C135.023 116.107 135.183 116.048 135.386 116.048ZM144.466 122.192C144.584 122.192 144.685 122.24 144.77 122.336C144.856 122.432 144.898 122.555 144.898 122.704C144.898 122.971 144.712 123.216 144.338 123.44C143.954 123.664 143.549 123.835 143.122 123.952C142.696 124.059 142.28 124.112 141.874 124.112C140.669 124.112 139.714 123.755 139.01 123.04C138.317 122.325 137.97 121.339 137.97 120.08C137.97 119.28 138.125 118.576 138.434 117.968C138.744 117.349 139.176 116.869 139.73 116.528C140.296 116.187 140.936 116.016 141.65 116.016C142.664 116.016 143.469 116.347 144.066 117.008C144.664 117.669 144.962 118.565 144.962 119.696C144.962 119.909 144.92 120.064 144.834 120.16C144.749 120.256 144.61 120.304 144.418 120.304H139.266C139.362 122.139 140.232 123.056 141.874 123.056C142.29 123.056 142.648 123.003 142.946 122.896C143.245 122.779 143.565 122.624 143.906 122.432C144.184 122.272 144.37 122.192 144.466 122.192ZM141.666 117.024C140.984 117.024 140.434 117.237 140.018 117.664C139.613 118.091 139.373 118.693 139.298 119.472H143.826C143.805 118.683 143.608 118.08 143.234 117.664C142.861 117.237 142.338 117.024 141.666 117.024ZM150.728 116.048C151.176 116.016 151.4 116.197 151.4 116.592C151.4 116.763 151.352 116.901 151.256 117.008C151.16 117.104 150.995 117.163 150.76 117.184L150.28 117.232C149.565 117.296 149.032 117.552 148.68 118C148.339 118.437 148.168 118.955 148.168 119.552V123.44C148.168 123.653 148.109 123.813 147.992 123.92C147.875 124.027 147.72 124.08 147.528 124.08C147.336 124.08 147.176 124.027 147.048 123.92C146.931 123.803 146.872 123.643 146.872 123.44V116.688C146.872 116.485 146.936 116.331 147.064 116.224C147.192 116.107 147.347 116.048 147.528 116.048C147.699 116.048 147.843 116.107 147.96 116.224C148.077 116.331 148.136 116.48 148.136 116.672V117.568C148.36 117.099 148.675 116.741 149.08 116.496C149.496 116.251 149.971 116.107 150.504 116.064L150.728 116.048ZM153.169 124.08C152.977 124.08 152.817 124.027 152.689 123.92C152.571 123.803 152.513 123.643 152.513 123.44V116.688C152.513 116.485 152.571 116.331 152.689 116.224C152.817 116.107 152.977 116.048 153.169 116.048C153.361 116.048 153.515 116.107 153.633 116.224C153.75 116.331 153.809 116.485 153.809 116.688V123.44C153.809 123.653 153.75 123.813 153.633 123.92C153.515 124.027 153.361 124.08 153.169 124.08ZM153.169 114.368C152.913 114.368 152.705 114.293 152.545 114.144C152.385 113.995 152.305 113.797 152.305 113.552C152.305 113.317 152.385 113.125 152.545 112.976C152.705 112.827 152.913 112.752 153.169 112.752C153.425 112.752 153.633 112.827 153.793 112.976C153.953 113.125 154.033 113.317 154.033 113.552C154.033 113.797 153.953 113.995 153.793 114.144C153.633 114.293 153.425 114.368 153.169 114.368ZM162.263 122.192C162.381 122.192 162.482 122.24 162.567 122.336C162.653 122.432 162.695 122.555 162.695 122.704C162.695 122.971 162.509 123.216 162.135 123.44C161.751 123.664 161.346 123.835 160.919 123.952C160.493 124.059 160.077 124.112 159.671 124.112C158.466 124.112 157.511 123.755 156.807 123.04C156.114 122.325 155.767 121.339 155.767 120.08C155.767 119.28 155.922 118.576 156.231 117.968C156.541 117.349 156.973 116.869 157.527 116.528C158.093 116.187 158.733 116.016 159.447 116.016C160.461 116.016 161.266 116.347 161.863 117.008C162.461 117.669 162.759 118.565 162.759 119.696C162.759 119.909 162.717 120.064 162.631 120.16C162.546 120.256 162.407 120.304 162.215 120.304H157.063C157.159 122.139 158.029 123.056 159.671 123.056C160.087 123.056 160.445 123.003 160.743 122.896C161.042 122.779 161.362 122.624 161.703 122.432C161.981 122.272 162.167 122.192 162.263 122.192ZM159.463 117.024C158.781 117.024 158.231 117.237 157.815 117.664C157.41 118.091 157.17 118.693 157.095 119.472H161.623C161.602 118.683 161.405 118.08 161.031 117.664C160.658 117.237 160.135 117.024 159.463 117.024ZM167.293 124.112C166.802 124.112 166.333 124.053 165.885 123.936C165.447 123.819 165.058 123.653 164.717 123.44C164.525 123.312 164.386 123.195 164.301 123.088C164.226 122.971 164.189 122.832 164.189 122.672C164.189 122.533 164.226 122.421 164.301 122.336C164.386 122.24 164.493 122.192 164.621 122.192C164.749 122.192 164.935 122.272 165.181 122.432C165.501 122.624 165.815 122.779 166.125 122.896C166.445 123.003 166.839 123.056 167.309 123.056C167.885 123.056 168.333 122.955 168.653 122.752C168.973 122.549 169.133 122.256 169.133 121.872C169.133 121.637 169.074 121.451 168.957 121.312C168.839 121.163 168.637 121.035 168.349 120.928C168.061 120.811 167.639 120.693 167.085 120.576C166.146 120.373 165.474 120.101 165.069 119.76C164.663 119.419 164.461 118.955 164.461 118.368C164.461 117.909 164.589 117.504 164.845 117.152C165.101 116.8 165.453 116.523 165.901 116.32C166.359 116.117 166.877 116.016 167.453 116.016C167.869 116.016 168.269 116.075 168.653 116.192C169.047 116.299 169.394 116.453 169.693 116.656C170.055 116.912 170.237 117.179 170.237 117.456C170.237 117.595 170.194 117.712 170.109 117.808C170.023 117.904 169.922 117.952 169.805 117.952C169.677 117.952 169.485 117.861 169.229 117.68C168.93 117.488 168.647 117.339 168.381 117.232C168.114 117.125 167.783 117.072 167.389 117.072C166.887 117.072 166.482 117.184 166.173 117.408C165.874 117.632 165.725 117.931 165.725 118.304C165.725 118.539 165.778 118.731 165.885 118.88C166.002 119.019 166.189 119.147 166.445 119.264C166.711 119.371 167.09 119.477 167.581 119.584C168.306 119.744 168.866 119.92 169.261 120.112C169.666 120.304 169.954 120.539 170.125 120.816C170.295 121.093 170.381 121.445 170.381 121.872C170.381 122.544 170.098 123.088 169.533 123.504C168.967 123.909 168.221 124.112 167.293 124.112ZM172.918 124.08C172.662 124.08 172.449 124 172.278 123.84C172.107 123.669 172.022 123.451 172.022 123.184C172.022 122.917 172.107 122.699 172.278 122.528C172.449 122.357 172.662 122.272 172.918 122.272C173.163 122.272 173.366 122.357 173.526 122.528C173.697 122.699 173.782 122.917 173.782 123.184C173.782 123.451 173.697 123.669 173.526 123.84C173.366 124 173.163 124.08 172.918 124.08ZM8.176 146.128C7.10933 146.128 6.18667 145.899 5.408 145.44C4.62933 144.971 4.02667 144.304 3.6 143.44C3.184 142.565 2.976 141.536 2.976 140.352C2.976 139.179 3.184 138.16 3.6 137.296C4.02667 136.421 4.62933 135.755 5.408 135.296C6.18667 134.827 7.10933 134.592 8.176 134.592C8.89067 134.592 9.56267 134.709 10.192 134.944C10.832 135.168 11.3867 135.493 11.856 135.92C12.0267 136.08 12.112 136.267 12.112 136.48C12.112 136.629 12.0693 136.763 11.984 136.88C11.8987 136.987 11.7973 137.04 11.68 137.04C11.552 137.04 11.3973 136.981 11.216 136.864C10.672 136.437 10.176 136.139 9.728 135.968C9.29067 135.797 8.784 135.712 8.208 135.712C6.97067 135.712 6.016 136.117 5.344 136.928C4.68267 137.728 4.352 138.869 4.352 140.352C4.352 141.845 4.68267 142.997 5.344 143.808C6.016 144.608 6.97067 145.008 8.208 145.008C8.77333 145.008 9.28 144.923 9.728 144.752C10.176 144.581 10.672 144.283 11.216 143.856C11.3973 143.739 11.552 143.68 11.68 143.68C11.7973 143.68 11.8987 143.733 11.984 143.84C12.0693 143.947 12.112 144.08 12.112 144.24C12.112 144.453 12.0267 144.64 11.856 144.8C11.3867 145.227 10.832 145.557 10.192 145.792C9.56267 146.016 8.89067 146.128 8.176 146.128ZM17.9641 138.016C18.8815 138.016 19.5748 138.277 20.0441 138.8C20.5135 139.312 20.7481 140.08 20.7481 141.104V145.44C20.7481 145.643 20.6895 145.803 20.5721 145.92C20.4548 146.027 20.3001 146.08 20.1081 146.08C19.9055 146.08 19.7455 146.027 19.6281 145.92C19.5108 145.803 19.4521 145.643 19.4521 145.44V141.136C19.4521 140.443 19.3081 139.931 19.0201 139.6C18.7428 139.269 18.2948 139.104 17.6761 139.104C16.9615 139.104 16.3908 139.323 15.9641 139.76C15.5375 140.197 15.3241 140.789 15.3241 141.536V145.44C15.3241 145.643 15.2655 145.803 15.1481 145.92C15.0415 146.027 14.8868 146.08 14.6841 146.08C14.4815 146.08 14.3215 146.027 14.2041 145.92C14.0868 145.803 14.0281 145.643 14.0281 145.44V135.264C14.0281 135.083 14.0868 134.933 14.2041 134.816C14.3321 134.699 14.4921 134.64 14.6841 134.64C14.8868 134.64 15.0415 134.699 15.1481 134.816C15.2655 134.923 15.3241 135.072 15.3241 135.264V139.456C15.5801 138.987 15.9375 138.629 16.3961 138.384C16.8548 138.139 17.3775 138.016 17.9641 138.016ZM29.1539 144.192C29.2712 144.192 29.3725 144.24 29.4579 144.336C29.5432 144.432 29.5859 144.555 29.5859 144.704C29.5859 144.971 29.3992 145.216 29.0259 145.44C28.6419 145.664 28.2365 145.835 27.8099 145.952C27.3832 146.059 26.9672 146.112 26.5619 146.112C25.3565 146.112 24.4019 145.755 23.6979 145.04C23.0045 144.325 22.6579 143.339 22.6579 142.08C22.6579 141.28 22.8125 140.576 23.1219 139.968C23.4312 139.349 23.8632 138.869 24.4179 138.528C24.9832 138.187 25.6232 138.016 26.3379 138.016C27.3512 138.016 28.1565 138.347 28.7539 139.008C29.3512 139.669 29.6499 140.565 29.6499 141.696C29.6499 141.909 29.6072 142.064 29.5219 142.16C29.4365 142.256 29.2979 142.304 29.1059 142.304H23.9539C24.0499 144.139 24.9192 145.056 26.5619 145.056C26.9779 145.056 27.3352 145.003 27.6339 144.896C27.9325 144.779 28.2525 144.624 28.5939 144.432C28.8712 144.272 29.0579 144.192 29.1539 144.192ZM26.3539 139.024C25.6712 139.024 25.1219 139.237 24.7059 139.664C24.3005 140.091 24.0605 140.693 23.9859 141.472H28.5139C28.4925 140.683 28.2952 140.08 27.9219 139.664C27.5485 139.237 27.0259 139.024 26.3539 139.024ZM34.7754 146.112C34.05 146.112 33.4047 145.947 32.8394 145.616C32.2847 145.285 31.8527 144.816 31.5434 144.208C31.2447 143.6 31.0954 142.896 31.0954 142.096C31.0954 141.296 31.25 140.587 31.5594 139.968C31.8794 139.349 32.322 138.869 32.8874 138.528C33.4527 138.187 34.1034 138.016 34.8394 138.016C35.2447 138.016 35.6447 138.075 36.0394 138.192C36.4447 138.299 36.7967 138.459 37.0954 138.672C37.2874 138.8 37.4207 138.928 37.4954 139.056C37.5807 139.173 37.6234 139.307 37.6234 139.456C37.6234 139.605 37.5807 139.728 37.4954 139.824C37.4207 139.92 37.3194 139.968 37.1914 139.968C37.1167 139.968 37.0367 139.947 36.9514 139.904C36.866 139.861 36.7914 139.819 36.7274 139.776C36.674 139.733 36.6367 139.707 36.6154 139.696C36.338 139.515 36.0714 139.371 35.8154 139.264C35.57 139.157 35.266 139.104 34.9034 139.104C34.1247 139.104 33.5167 139.371 33.0794 139.904C32.6527 140.427 32.4394 141.157 32.4394 142.096C32.4394 143.035 32.6527 143.76 33.0794 144.272C33.5167 144.784 34.1247 145.04 34.9034 145.04C35.266 145.04 35.5754 144.987 35.8314 144.88C36.098 144.773 36.3647 144.629 36.6314 144.448C36.7487 144.373 36.8607 144.309 36.9674 144.256C37.074 144.203 37.1647 144.176 37.2394 144.176C37.3567 144.176 37.4527 144.224 37.5274 144.32C37.6127 144.416 37.6554 144.539 37.6554 144.688C37.6554 144.827 37.618 144.955 37.5434 145.072C37.4687 145.179 37.33 145.301 37.1274 145.44C36.8287 145.643 36.466 145.808 36.0394 145.936C35.6234 146.053 35.202 146.112 34.7754 146.112ZM45.4396 144.976C45.6103 145.136 45.6956 145.307 45.6956 145.488C45.6956 145.648 45.637 145.787 45.5196 145.904C45.413 146.021 45.2796 146.08 45.1196 146.08C44.981 146.08 44.837 146.016 44.6876 145.888L40.5116 142.288V145.44C40.5116 145.643 40.4476 145.803 40.3196 145.92C40.2023 146.027 40.053 146.08 39.8716 146.08C39.6796 146.08 39.5196 146.027 39.3916 145.92C39.2743 145.803 39.2156 145.643 39.2156 145.44V135.28C39.2156 135.077 39.2743 134.923 39.3916 134.816C39.5196 134.699 39.6796 134.64 39.8716 134.64C40.053 134.64 40.2023 134.699 40.3196 134.816C40.4476 134.923 40.5116 135.077 40.5116 135.28V141.776L44.3356 138.272C44.4636 138.144 44.6076 138.08 44.7676 138.08C44.9276 138.08 45.0663 138.139 45.1836 138.256C45.301 138.373 45.3596 138.512 45.3596 138.672C45.3596 138.853 45.285 139.013 45.1356 139.152L41.9836 141.968L45.4396 144.976ZM54.5726 146.112C53.8366 146.112 53.186 145.947 52.6206 145.616C52.066 145.285 51.634 144.816 51.3246 144.208C51.026 143.589 50.8766 142.875 50.8766 142.064C50.8766 141.253 51.026 140.544 51.3246 139.936C51.634 139.317 52.066 138.843 52.6206 138.512C53.186 138.181 53.8366 138.016 54.5726 138.016C55.3086 138.016 55.9593 138.181 56.5246 138.512C57.09 138.843 57.522 139.317 57.8206 139.936C58.13 140.544 58.2846 141.253 58.2846 142.064C58.2846 142.875 58.13 143.589 57.8206 144.208C57.522 144.816 57.09 145.285 56.5246 145.616C55.9593 145.947 55.3086 146.112 54.5726 146.112ZM54.5726 145.04C55.3406 145.04 55.9273 144.789 56.3326 144.288C56.7486 143.776 56.9566 143.035 56.9566 142.064C56.9566 141.115 56.7486 140.384 56.3326 139.872C55.9166 139.349 55.33 139.088 54.5726 139.088C53.8153 139.088 53.2286 139.349 52.8126 139.872C52.3966 140.384 52.1886 141.115 52.1886 142.064C52.1886 143.024 52.3913 143.76 52.7966 144.272C53.2126 144.784 53.8046 145.04 54.5726 145.04ZM66.1356 138.048C66.3383 138.048 66.493 138.107 66.5996 138.224C66.717 138.341 66.7756 138.496 66.7756 138.688V145.456C66.7756 145.637 66.717 145.787 66.5996 145.904C66.493 146.021 66.3383 146.08 66.1356 146.08C65.9436 146.08 65.789 146.027 65.6716 145.92C65.565 145.803 65.5116 145.653 65.5116 145.472V144.672C65.2663 145.141 64.9196 145.499 64.4716 145.744C64.0343 145.989 63.5383 146.112 62.9836 146.112C62.0556 146.112 61.357 145.856 60.8876 145.344C60.4183 144.821 60.1836 144.053 60.1836 143.04V138.688C60.1836 138.496 60.2423 138.341 60.3596 138.224C60.477 138.107 60.637 138.048 60.8396 138.048C61.0423 138.048 61.197 138.107 61.3036 138.224C61.421 138.341 61.4796 138.496 61.4796 138.688V143.008C61.4796 143.701 61.6183 144.213 61.8956 144.544C62.173 144.864 62.6103 145.024 63.2076 145.024C63.8903 145.024 64.4396 144.805 64.8556 144.368C65.2716 143.92 65.4796 143.333 65.4796 142.608V138.688C65.4796 138.496 65.5383 138.341 65.6556 138.224C65.773 138.107 65.933 138.048 66.1356 138.048ZM73.0404 138.048C73.4884 138.016 73.7124 138.197 73.7124 138.592C73.7124 138.763 73.6644 138.901 73.5684 139.008C73.4724 139.104 73.307 139.163 73.0724 139.184L72.5924 139.232C71.8777 139.296 71.3444 139.552 70.9924 140C70.651 140.437 70.4804 140.955 70.4804 141.552V145.44C70.4804 145.653 70.4217 145.813 70.3044 145.92C70.187 146.027 70.0324 146.08 69.8404 146.08C69.6484 146.08 69.4884 146.027 69.3604 145.92C69.243 145.803 69.1844 145.643 69.1844 145.44V138.688C69.1844 138.485 69.2484 138.331 69.3764 138.224C69.5044 138.107 69.659 138.048 69.8404 138.048C70.011 138.048 70.155 138.107 70.2724 138.224C70.3897 138.331 70.4484 138.48 70.4484 138.672V139.568C70.6724 139.099 70.987 138.741 71.3924 138.496C71.8084 138.251 72.283 138.107 72.8164 138.064L73.0404 138.048ZM82.166 146.112C81.4407 146.112 80.7953 145.947 80.23 145.616C79.6753 145.285 79.2433 144.816 78.934 144.208C78.6353 143.6 78.486 142.896 78.486 142.096C78.486 141.296 78.6407 140.587 78.95 139.968C79.27 139.349 79.7127 138.869 80.278 138.528C80.8433 138.187 81.494 138.016 82.23 138.016C82.6353 138.016 83.0353 138.075 83.43 138.192C83.8353 138.299 84.1873 138.459 84.486 138.672C84.678 138.8 84.8113 138.928 84.886 139.056C84.9713 139.173 85.014 139.307 85.014 139.456C85.014 139.605 84.9713 139.728 84.886 139.824C84.8113 139.92 84.71 139.968 84.582 139.968C84.5073 139.968 84.4273 139.947 84.342 139.904C84.2567 139.861 84.182 139.819 84.118 139.776C84.0647 139.733 84.0273 139.707 84.006 139.696C83.7287 139.515 83.462 139.371 83.206 139.264C82.9607 139.157 82.6567 139.104 82.294 139.104C81.5153 139.104 80.9073 139.371 80.47 139.904C80.0433 140.427 79.83 141.157 79.83 142.096C79.83 143.035 80.0433 143.76 80.47 144.272C80.9073 144.784 81.5153 145.04 82.294 145.04C82.6567 145.04 82.966 144.987 83.222 144.88C83.4887 144.773 83.7553 144.629 84.022 144.448C84.1393 144.373 84.2513 144.309 84.358 144.256C84.4647 144.203 84.5553 144.176 84.63 144.176C84.7473 144.176 84.8433 144.224 84.918 144.32C85.0033 144.416 85.046 144.539 85.046 144.688C85.046 144.827 85.0087 144.955 84.934 145.072C84.8593 145.179 84.7207 145.301 84.518 145.44C84.2193 145.643 83.8567 145.808 83.43 145.936C83.014 146.053 82.5927 146.112 82.166 146.112ZM89.8383 146.112C89.1023 146.112 88.4516 145.947 87.8863 145.616C87.3316 145.285 86.8996 144.816 86.5903 144.208C86.2916 143.589 86.1423 142.875 86.1423 142.064C86.1423 141.253 86.2916 140.544 86.5903 139.936C86.8996 139.317 87.3316 138.843 87.8863 138.512C88.4516 138.181 89.1023 138.016 89.8383 138.016C90.5743 138.016 91.2249 138.181 91.7903 138.512C92.3556 138.843 92.7876 139.317 93.0863 139.936C93.3956 140.544 93.5503 141.253 93.5503 142.064C93.5503 142.875 93.3956 143.589 93.0863 144.208C92.7876 144.816 92.3556 145.285 91.7903 145.616C91.2249 145.947 90.5743 146.112 89.8383 146.112ZM89.8383 145.04C90.6063 145.04 91.1929 144.789 91.5983 144.288C92.0143 143.776 92.2223 143.035 92.2223 142.064C92.2223 141.115 92.0143 140.384 91.5983 139.872C91.1823 139.349 90.5956 139.088 89.8383 139.088C89.0809 139.088 88.4943 139.349 88.0783 139.872C87.6623 140.384 87.4543 141.115 87.4543 142.064C87.4543 143.024 87.6569 143.76 88.0623 144.272C88.4783 144.784 89.0703 145.04 89.8383 145.04ZM101.737 134.64C101.94 134.64 102.1 134.699 102.217 134.816C102.335 134.933 102.393 135.083 102.393 135.264V145.44C102.393 145.632 102.335 145.787 102.217 145.904C102.1 146.021 101.94 146.08 101.737 146.08C101.535 146.08 101.375 146.021 101.257 145.904C101.151 145.787 101.097 145.632 101.097 145.44V144.576C100.863 145.067 100.516 145.445 100.057 145.712C99.6093 145.979 99.0813 146.112 98.4733 146.112C97.7906 146.112 97.1879 145.941 96.6653 145.6C96.1426 145.259 95.7373 144.784 95.4493 144.176C95.1613 143.557 95.0173 142.843 95.0173 142.032C95.0173 141.232 95.1613 140.528 95.4493 139.92C95.7373 139.312 96.1426 138.843 96.6653 138.512C97.1879 138.181 97.7906 138.016 98.4733 138.016C99.0813 138.016 99.6093 138.149 100.057 138.416C100.516 138.683 100.863 139.061 101.097 139.552V135.264C101.097 135.072 101.151 134.923 101.257 134.816C101.375 134.699 101.535 134.64 101.737 134.64ZM98.7293 145.04C99.4866 145.04 100.068 144.784 100.473 144.272C100.889 143.749 101.097 143.013 101.097 142.064C101.097 141.115 100.889 140.384 100.473 139.872C100.068 139.36 99.4866 139.104 98.7293 139.104C97.9719 139.104 97.3799 139.36 96.9533 139.872C96.5373 140.384 96.3293 141.104 96.3293 142.032C96.3293 142.981 96.5373 143.723 96.9533 144.256C97.3799 144.779 97.9719 145.04 98.7293 145.04ZM110.826 144.192C110.943 144.192 111.044 144.24 111.13 144.336C111.215 144.432 111.258 144.555 111.258 144.704C111.258 144.971 111.071 145.216 110.698 145.44C110.314 145.664 109.908 145.835 109.482 145.952C109.055 146.059 108.639 146.112 108.234 146.112C107.028 146.112 106.074 145.755 105.37 145.04C104.676 144.325 104.33 143.339 104.33 142.08C104.33 141.28 104.484 140.576 104.794 139.968C105.103 139.349 105.535 138.869 106.09 138.528C106.655 138.187 107.295 138.016 108.01 138.016C109.023 138.016 109.828 138.347 110.426 139.008C111.023 139.669 111.322 140.565 111.322 141.696C111.322 141.909 111.279 142.064 111.194 142.16C111.108 142.256 110.97 142.304 110.778 142.304H105.626C105.722 144.139 106.591 145.056 108.234 145.056C108.65 145.056 109.007 145.003 109.306 144.896C109.604 144.779 109.924 144.624 110.266 144.432C110.543 144.272 110.73 144.192 110.826 144.192ZM108.026 139.024C107.343 139.024 106.794 139.237 106.378 139.664C105.972 140.091 105.732 140.693 105.658 141.472H110.186C110.164 140.683 109.967 140.08 109.594 139.664C109.22 139.237 108.698 139.024 108.026 139.024ZM113.835 142.272C113.643 142.272 113.494 142.224 113.387 142.128C113.291 142.032 113.243 141.904 113.243 141.744C113.243 141.584 113.291 141.456 113.387 141.36C113.494 141.253 113.643 141.2 113.835 141.2H117.355C117.558 141.2 117.707 141.253 117.803 141.36C117.91 141.456 117.963 141.584 117.963 141.744C117.963 141.904 117.91 142.032 117.803 142.128C117.707 142.224 117.558 142.272 117.355 142.272H113.835ZM123.65 146.112C122.925 146.112 122.28 145.947 121.714 145.616C121.16 145.285 120.728 144.816 120.418 144.208C120.12 143.6 119.97 142.896 119.97 142.096C119.97 141.296 120.125 140.587 120.434 139.968C120.754 139.349 121.197 138.869 121.762 138.528C122.328 138.187 122.978 138.016 123.714 138.016C124.12 138.016 124.52 138.075 124.914 138.192C125.32 138.299 125.672 138.459 125.97 138.672C126.162 138.8 126.296 138.928 126.37 139.056C126.456 139.173 126.498 139.307 126.498 139.456C126.498 139.605 126.456 139.728 126.37 139.824C126.296 139.92 126.194 139.968 126.066 139.968C125.992 139.968 125.912 139.947 125.826 139.904C125.741 139.861 125.666 139.819 125.602 139.776C125.549 139.733 125.512 139.707 125.49 139.696C125.213 139.515 124.946 139.371 124.69 139.264C124.445 139.157 124.141 139.104 123.778 139.104C123 139.104 122.392 139.371 121.954 139.904C121.528 140.427 121.314 141.157 121.314 142.096C121.314 143.035 121.528 143.76 121.954 144.272C122.392 144.784 123 145.04 123.778 145.04C124.141 145.04 124.45 144.987 124.706 144.88C124.973 144.773 125.24 144.629 125.506 144.448C125.624 144.373 125.736 144.309 125.842 144.256C125.949 144.203 126.04 144.176 126.114 144.176C126.232 144.176 126.328 144.224 126.402 144.32C126.488 144.416 126.53 144.539 126.53 144.688C126.53 144.827 126.493 144.955 126.418 145.072C126.344 145.179 126.205 145.301 126.002 145.44C125.704 145.643 125.341 145.808 124.914 145.936C124.498 146.053 124.077 146.112 123.65 146.112ZM131.323 146.112C130.587 146.112 129.936 145.947 129.371 145.616C128.816 145.285 128.384 144.816 128.075 144.208C127.776 143.589 127.627 142.875 127.627 142.064C127.627 141.253 127.776 140.544 128.075 139.936C128.384 139.317 128.816 138.843 129.371 138.512C129.936 138.181 130.587 138.016 131.323 138.016C132.059 138.016 132.709 138.181 133.275 138.512C133.84 138.843 134.272 139.317 134.571 139.936C134.88 140.544 135.035 141.253 135.035 142.064C135.035 142.875 134.88 143.589 134.571 144.208C134.272 144.816 133.84 145.285 133.275 145.616C132.709 145.947 132.059 146.112 131.323 146.112ZM131.323 145.04C132.091 145.04 132.677 144.789 133.083 144.288C133.499 143.776 133.707 143.035 133.707 142.064C133.707 141.115 133.499 140.384 133.083 139.872C132.667 139.349 132.08 139.088 131.323 139.088C130.565 139.088 129.979 139.349 129.563 139.872C129.147 140.384 128.939 141.115 128.939 142.064C128.939 143.024 129.141 143.76 129.547 144.272C129.963 144.784 130.555 145.04 131.323 145.04ZM140.198 146.112C139.462 146.112 138.811 145.947 138.246 145.616C137.691 145.285 137.259 144.816 136.95 144.208C136.651 143.589 136.502 142.875 136.502 142.064C136.502 141.253 136.651 140.544 136.95 139.936C137.259 139.317 137.691 138.843 138.246 138.512C138.811 138.181 139.462 138.016 140.198 138.016C140.934 138.016 141.584 138.181 142.15 138.512C142.715 138.843 143.147 139.317 143.446 139.936C143.755 140.544 143.91 141.253 143.91 142.064C143.91 142.875 143.755 143.589 143.446 144.208C143.147 144.816 142.715 145.285 142.15 145.616C141.584 145.947 140.934 146.112 140.198 146.112ZM140.198 145.04C140.966 145.04 141.552 144.789 141.958 144.288C142.374 143.776 142.582 143.035 142.582 142.064C142.582 141.115 142.374 140.384 141.958 139.872C141.542 139.349 140.955 139.088 140.198 139.088C139.44 139.088 138.854 139.349 138.438 139.872C138.022 140.384 137.814 141.115 137.814 142.064C137.814 143.024 138.016 143.76 138.422 144.272C138.838 144.784 139.43 145.04 140.198 145.04ZM146.497 146.08C146.305 146.08 146.145 146.027 146.017 145.92C145.899 145.803 145.841 145.643 145.841 145.44V135.28C145.841 135.077 145.899 134.923 146.017 134.816C146.145 134.699 146.305 134.64 146.497 134.64C146.678 134.64 146.827 134.699 146.945 134.816C147.073 134.923 147.137 135.077 147.137 135.28V145.44C147.137 145.643 147.073 145.803 146.945 145.92C146.827 146.027 146.678 146.08 146.497 146.08ZM156.308 146.112C155.818 146.112 155.348 146.053 154.9 145.936C154.463 145.819 154.074 145.653 153.732 145.44C153.54 145.312 153.402 145.195 153.316 145.088C153.242 144.971 153.204 144.832 153.204 144.672C153.204 144.533 153.242 144.421 153.316 144.336C153.402 144.24 153.508 144.192 153.636 144.192C153.764 144.192 153.951 144.272 154.196 144.432C154.516 144.624 154.831 144.779 155.14 144.896C155.46 145.003 155.855 145.056 156.324 145.056C156.9 145.056 157.348 144.955 157.668 144.752C157.988 144.549 158.148 144.256 158.148 143.872C158.148 143.637 158.09 143.451 157.972 143.312C157.855 143.163 157.652 143.035 157.364 142.928C157.076 142.811 156.655 142.693 156.1 142.576C155.162 142.373 154.49 142.101 154.084 141.76C153.679 141.419 153.476 140.955 153.476 140.368C153.476 139.909 153.604 139.504 153.86 139.152C154.116 138.8 154.468 138.523 154.916 138.32C155.375 138.117 155.892 138.016 156.468 138.016C156.884 138.016 157.284 138.075 157.668 138.192C158.063 138.299 158.41 138.453 158.708 138.656C159.071 138.912 159.252 139.179 159.252 139.456C159.252 139.595 159.21 139.712 159.124 139.808C159.039 139.904 158.938 139.952 158.82 139.952C158.692 139.952 158.5 139.861 158.244 139.68C157.946 139.488 157.663 139.339 157.396 139.232C157.13 139.125 156.799 139.072 156.404 139.072C155.903 139.072 155.498 139.184 155.188 139.408C154.89 139.632 154.74 139.931 154.74 140.304C154.74 140.539 154.794 140.731 154.9 140.88C155.018 141.019 155.204 141.147 155.46 141.264C155.727 141.371 156.106 141.477 156.596 141.584C157.322 141.744 157.882 141.92 158.276 142.112C158.682 142.304 158.97 142.539 159.14 142.816C159.311 143.093 159.396 143.445 159.396 143.872C159.396 144.544 159.114 145.088 158.548 145.504C157.983 145.909 157.236 146.112 156.308 146.112ZM164.894 145.056C165.267 145.088 165.454 145.259 165.454 145.568C165.454 145.749 165.384 145.888 165.246 145.984C165.118 146.069 164.92 146.101 164.654 146.08L164.222 146.048C163.368 145.984 162.739 145.728 162.334 145.28C161.928 144.832 161.726 144.155 161.726 143.248V139.232H160.654C160.472 139.232 160.328 139.189 160.222 139.104C160.126 139.008 160.078 138.885 160.078 138.736C160.078 138.576 160.126 138.448 160.222 138.352C160.328 138.256 160.472 138.208 160.654 138.208H161.726V136.4C161.726 136.197 161.784 136.043 161.902 135.936C162.019 135.819 162.179 135.76 162.382 135.76C162.574 135.76 162.728 135.819 162.846 135.936C162.963 136.043 163.022 136.197 163.022 136.4V138.208H164.798C164.968 138.208 165.102 138.256 165.198 138.352C165.304 138.448 165.358 138.576 165.358 138.736C165.358 138.885 165.304 139.008 165.198 139.104C165.102 139.189 164.968 139.232 164.798 139.232H163.022V143.312C163.022 143.899 163.139 144.325 163.374 144.592C163.619 144.848 163.982 144.992 164.462 145.024L164.894 145.056ZM172.651 138.048C172.854 138.048 173.009 138.107 173.115 138.224C173.233 138.341 173.291 138.496 173.291 138.688V145.456C173.291 145.637 173.233 145.787 173.115 145.904C173.009 146.021 172.854 146.08 172.651 146.08C172.459 146.08 172.305 146.027 172.187 145.92C172.081 145.803 172.027 145.653 172.027 145.472V144.672C171.782 145.141 171.435 145.499 170.987 145.744C170.55 145.989 170.054 146.112 169.499 146.112C168.571 146.112 167.873 145.856 167.403 145.344C166.934 144.821 166.699 144.053 166.699 143.04V138.688C166.699 138.496 166.758 138.341 166.875 138.224C166.993 138.107 167.153 138.048 167.355 138.048C167.558 138.048 167.713 138.107 167.819 138.224C167.937 138.341 167.995 138.496 167.995 138.688V143.008C167.995 143.701 168.134 144.213 168.411 144.544C168.689 144.864 169.126 145.024 169.723 145.024C170.406 145.024 170.955 144.805 171.371 144.368C171.787 143.92 171.995 143.333 171.995 142.608V138.688C171.995 138.496 172.054 138.341 172.171 138.224C172.289 138.107 172.449 138.048 172.651 138.048ZM179.14 135.744C178.575 135.787 178.148 135.968 177.86 136.288C177.572 136.597 177.428 137.067 177.428 137.696V138.208H179.204C179.385 138.208 179.524 138.256 179.62 138.352C179.716 138.448 179.764 138.576 179.764 138.736C179.764 138.896 179.716 139.019 179.62 139.104C179.524 139.189 179.385 139.232 179.204 139.232H177.428V145.44C177.428 145.643 177.364 145.803 177.236 145.92C177.119 146.027 176.969 146.08 176.788 146.08C176.596 146.08 176.436 146.027 176.308 145.92C176.191 145.803 176.132 145.643 176.132 145.44V139.232H175.06C174.879 139.232 174.735 139.189 174.628 139.104C174.532 139.008 174.484 138.885 174.484 138.736C174.484 138.576 174.532 138.448 174.628 138.352C174.735 138.256 174.879 138.208 175.06 138.208H176.132V137.92C176.132 136.96 176.372 136.208 176.852 135.664C177.332 135.109 178.02 134.8 178.916 134.736L179.332 134.704C179.609 134.683 179.807 134.709 179.924 134.784C180.052 134.859 180.116 134.992 180.116 135.184C180.116 135.493 179.929 135.669 179.556 135.712L179.14 135.744ZM184.39 135.744C183.825 135.787 183.398 135.968 183.11 136.288C182.822 136.597 182.678 137.067 182.678 137.696V138.208H184.454C184.635 138.208 184.774 138.256 184.87 138.352C184.966 138.448 185.014 138.576 185.014 138.736C185.014 138.896 184.966 139.019 184.87 139.104C184.774 139.189 184.635 139.232 184.454 139.232H182.678V145.44C182.678 145.643 182.614 145.803 182.486 145.92C182.369 146.027 182.219 146.08 182.038 146.08C181.846 146.08 181.686 146.027 181.558 145.92C181.441 145.803 181.382 145.643 181.382 145.44V139.232H180.31C180.129 139.232 179.985 139.189 179.878 139.104C179.782 139.008 179.734 138.885 179.734 138.736C179.734 138.576 179.782 138.448 179.878 138.352C179.985 138.256 180.129 138.208 180.31 138.208H181.382V137.92C181.382 136.96 181.622 136.208 182.102 135.664C182.582 135.109 183.27 134.8 184.166 134.736L184.582 134.704C184.859 134.683 185.057 134.709 185.174 134.784C185.302 134.859 185.366 134.992 185.366 135.184C185.366 135.493 185.179 135.669 184.806 135.712L184.39 135.744ZM186.465 146.08C186.209 146.08 185.996 146 185.825 145.84C185.654 145.669 185.569 145.451 185.569 145.184C185.569 144.917 185.654 144.699 185.825 144.528C185.996 144.357 186.209 144.272 186.465 144.272C186.71 144.272 186.913 144.357 187.073 144.528C187.244 144.699 187.329 144.917 187.329 145.184C187.329 145.451 187.244 145.669 187.073 145.84C186.913 146 186.71 146.08 186.465 146.08Z" fill="#394677"/>
<path d="M23.354 10.1369C16.4451 10.9034 10.888 16.5756 10.137 23.4741C9.23583 31.1392 13.8918 37.7312 20.5003 39.8775V36.3515C20.5003 36.3515 19.8995 36.5048 19.1486 36.5048C17.0459 36.5048 16.1447 34.6652 15.9945 33.5921C15.8443 32.9789 15.5439 32.519 15.0934 32.0591C14.6428 31.9058 14.4926 31.9058 14.4926 31.7525C14.4926 31.4458 14.9432 31.4458 15.0934 31.4458C15.9945 31.4458 16.7455 32.519 17.0459 32.9789C17.7968 34.2053 18.698 34.5119 19.1486 34.5119C19.7493 34.5119 20.1999 34.3586 20.5003 34.2053C20.6505 33.1322 21.1011 32.0591 22.0022 31.4458C18.5478 30.6793 15.9945 28.6864 15.9945 25.3138C15.9945 23.6274 16.7455 21.9411 17.7968 20.7147C17.6466 20.4081 17.4964 19.6416 17.4964 18.5685C17.4964 17.9553 17.4964 17.0355 17.947 16.1156C17.947 16.1156 20.0497 16.1156 22.1524 18.1086C22.9034 17.802 23.9547 17.6487 25.0061 17.6487C26.0574 17.6487 27.1088 17.802 28.01 18.1086C29.9625 16.1156 32.2154 16.1156 32.2154 16.1156C32.5157 17.0355 32.5157 17.9553 32.5157 18.5685C32.5157 19.7949 32.3655 20.4081 32.2154 20.7147C33.2667 21.9411 34.0177 23.4741 34.0177 25.3138C34.0177 28.6864 31.4644 30.6793 28.01 31.4458C28.9111 32.2124 29.5119 33.5921 29.5119 34.9718V40.0308C35.6698 38.0378 40.0254 32.2124 40.0254 25.4671C40.0254 16.269 32.3655 9.06376 23.354 10.1369Z" fill="#EB4F4F"/>
</svg>
