<svg width="30" height="30" viewBox="0 0 30 30" fill="none" xmlns="http://www.w3.org/2000/svg">
<g clip-path="url(#clip0)">
<path d="M25.6042 4.39529C19.7437 -1.46528 10.2572 -1.46622 4.3958 4.39529C-1.46483 10.2559 -1.46571 19.7423 4.3958 25.6037C10.2562 31.4643 19.7428 31.4652 25.6042 25.6037C31.4648 19.7432 31.4656 10.2567 25.6042 4.39529ZM24.9774 23.466C24.2767 22.8394 23.5272 22.2849 22.7372 21.8071C23.2594 20.0033 23.5687 18.0185 23.6418 15.9552H28.0509C27.8515 18.7363 26.7829 21.3452 24.9774 23.466ZM1.94905 15.9552H6.35808C6.43121 18.0185 6.74056 20.0033 7.26273 21.8071C6.47272 22.2849 5.72321 22.8394 5.02253 23.466C3.21698 21.3452 2.14845 18.7363 1.94905 15.9552ZM5.02259 6.53304C5.72327 7.15959 6.47277 7.71408 7.26279 8.19194C6.74062 9.99568 6.43126 11.9806 6.35814 14.0438H1.94905C2.14845 11.2628 3.21698 8.65392 5.02259 6.53304ZM14.0443 8.38947C12.4857 8.278 10.9829 7.89411 9.5897 7.26082C10.4 5.1743 11.8937 2.67175 14.0443 2.05158V8.38947ZM14.0443 10.3044V14.0439H8.27025C8.33641 12.2985 8.58371 10.6225 8.99499 9.08904C10.5783 9.78117 12.281 10.1945 14.0443 10.3044ZM14.0443 15.9552V19.6947C12.281 19.8046 10.5783 20.2179 8.99499 20.91C8.58371 19.3766 8.33641 17.7006 8.27025 15.9552H14.0443ZM14.0443 21.6096V27.9474C11.8938 27.3273 10.4001 24.825 9.5897 22.7383C10.9829 22.105 12.4857 21.7211 14.0443 21.6096ZM15.9556 21.6096C17.5142 21.7211 19.0171 22.105 20.4103 22.7383C19.5999 24.8248 18.1063 27.3273 15.9556 27.9474V21.6096ZM15.9556 19.6947V15.9552H21.7297C21.6636 17.7006 21.4163 19.3766 21.005 20.91C19.4217 20.2179 17.719 19.8046 15.9556 19.6947ZM15.9556 14.0439V10.3044C17.719 10.1945 19.4217 9.78117 21.005 9.08904C21.4163 10.6225 21.6636 12.2985 21.7297 14.0439H15.9556ZM15.9556 8.38947V2.05164C18.1063 2.67181 19.6 5.17436 20.4103 7.26088C19.0171 7.89411 17.5142 8.278 15.9556 8.38947ZM20.2482 3.00576C21.4715 3.54145 22.6128 4.26783 23.6359 5.16909C23.1489 5.59847 22.6351 5.9878 22.0985 6.33597C21.622 5.15615 21.0133 4.00959 20.2482 3.00576ZM7.90141 6.33597C7.36484 5.9878 6.85104 5.59847 6.364 5.16909C7.38709 4.26783 8.52838 3.54145 9.7517 3.00576C8.98662 4.0097 8.37792 5.15627 7.90141 6.33597ZM7.90147 23.6631C8.37792 24.8429 8.98674 25.9895 9.75176 26.9933C8.52844 26.4576 7.38715 25.7312 6.36405 24.83C6.85104 24.4006 7.3649 24.0113 7.90147 23.6631ZM22.0985 23.6631C22.6351 24.0113 23.1489 24.4006 23.6359 24.8299C22.6128 25.7312 21.4715 26.4576 20.2482 26.9933C21.0132 25.9896 21.622 24.8429 22.0985 23.6631ZM23.6419 14.0439C23.5688 11.9806 23.2594 9.99568 22.7372 8.19199C23.5273 7.71414 24.2767 7.15965 24.9775 6.53309C26.783 8.65392 27.8515 11.2628 28.0509 14.0439H23.6419Z" fill="#A4A4A4"/>
</g>
<defs>
<clipPath id="clip0">
<rect width="30" height="30" fill="white"/>
</clipPath>
</defs>
</svg>
