<svg width="46" height="46" viewBox="0 0 46 46" fill="none" xmlns="http://www.w3.org/2000/svg">
<g filter="url(#filter0_d)">
<path d="M32.5673 18.1788L25.7121 30.9846L20.0868 30.3712L15.5619 26.9734L19.3109 12.9401L32.5673 18.1788ZM35.3893 17.1435L17.959 10.2554L13.2798 27.7608L19.3237 32.2997L26.8376 33.1186L35.3893 17.1435Z" fill="#2F8CE8"/>
<path d="M28.9272 21.1294L21.807 18.3156L21.1755 20.409L27.9553 23.0882L25.0808 28.8737L20.7957 28.5803L20.7633 28.5535L17.4736 25.8664L18.2321 23.3458L20.0754 24.0742L19.7818 25.0539L21.7016 26.348L23.9505 26.7002L25.1825 24.2247L18.7319 21.6756L20.5615 15.5847L29.8579 19.2585L28.9272 21.1294Z" fill="#2F8CE8"/>
</g>
<defs>
<filter id="filter0_d" x="0.608398" y="0.255371" width="44.7808" height="45.4884" filterUnits="userSpaceOnUse" color-interpolation-filters="sRGB">
<feFlood flood-opacity="0" result="BackgroundImageFix"/>
<feColorMatrix in="SourceAlpha" type="matrix" values="0 0 0 0 0 0 0 0 0 0 0 0 0 0 0 0 0 0 127 0"/>
<feOffset/>
<feGaussianBlur stdDeviation="5"/>
<feColorMatrix type="matrix" values="0 0 0 0 0.0710764 0 0 0 0 0.629902 0 0 0 0 0.741667 0 0 0 1 0"/>
<feBlend mode="normal" in2="BackgroundImageFix" result="effect1_dropShadow"/>
<feBlend mode="normal" in="SourceGraphic" in2="effect1_dropShadow" result="shape"/>
</filter>
</defs>
</svg>
