<svg fill="#000000" xmlns="http://www.w3.org/2000/svg"  viewBox="0 0 100 100" width="100px" height="100px"><circle cx="50" cy="50" r="35" fill="none" stroke="#000000" stroke-linejoin="round" stroke-width="2"/><path fill="none" stroke="#000000" stroke-linecap="round" stroke-linejoin="round" d="M65.5,23.727	c-0.652-0.385-1.319-0.747-2-1.084"/><path fill="none" stroke="#000000" stroke-linecap="round" stroke-linejoin="round" d="M68.5,25.749	c-0.328-0.251-0.662-0.495-1-0.732"/><path fill="none" stroke="#000000" stroke-linecap="round" stroke-linejoin="round" d="M60.5,21.356	c-3.274-1.2-6.81-1.856-10.5-1.856c-16.845,0-30.5,13.655-30.5,30.5S33.155,80.5,50,80.5S80.5,66.845,80.5,50	c0-8.952-3.857-17.004-10-22.583"/><path fill-rule="evenodd" d="M58.313,53.878c-1.305,1.43-3.136,2.154-3.994,2.154	c-0.992,0-1.534-0.608-1.645-1.521c-0.037-0.35-0.025-0.704,0.037-1.051c0.328-2.047,1.081-3.319,1.034-3.706	c-0.014-0.111-0.076-0.166-0.158-0.166c-0.634,0-2.86,2.296-3.198,3.818l-0.263,1.217c-0.172,0.858-1.013,1.41-1.591,1.41	c-0.276,0-0.486-0.138-0.523-0.442c-0.011-0.139,0-0.279,0.033-0.415l0.124-0.641c-1.2,0.897-2.494,1.503-3.1,1.503	c-0.827,0-1.293-0.442-1.457-1.107c-0.546,0.72-1.27,1.107-2.041,1.107c-0.984,0-1.932-0.651-2.388-1.615	c-0.649,0.729-1.418,1.441-2.337,2.03C35.49,57.309,33.978,58,32.188,58c-1.653,0-3.056-0.885-3.832-1.604	c-1.151-1.079-1.76-2.684-1.939-4.15c-0.565-4.62,2.247-10.678,6.605-13.333c1-0.609,2.12-0.913,3.138-0.913	c2.094,0,3.656,1.498,3.875,3.288c0.197,1.613-0.448,3.006-2.236,3.908c-0.913,0.462-1.365,0.44-1.508,0.22	c-0.095-0.147-0.041-0.396,0.143-0.549c1.681-1.405,1.713-2.557,1.515-4.183c-0.128-1.045-0.816-1.715-1.587-1.715	c-3.305,0-8.045,7.414-7.386,12.808c0.257,2.103,1.546,4.537,4.19,4.537c0.881,0,1.815-0.249,2.646-0.664	c1.45-0.741,2.27-1.327,3.094-2.287c-0.202-2.494,1.938-5.625,5.122-5.625c1.377,0,2.519,0.553,2.654,1.66	c0.169,1.383-1.009,1.66-1.45,1.66c-0.386,0-1.005-0.111-1.049-0.47c-0.047-0.388,0.834-0.166,0.725-1.051	c-0.068-0.553-0.642-0.746-1.193-0.746c-1.983,0-3.077,2.766-2.868,4.482c0.095,0.775,0.493,1.549,1.209,1.549	c0.578,0,1.413-0.83,1.732-2.047c0.202-0.83,0.988-1.383,1.567-1.383c0.303,0,0.513,0.138,0.55,0.442	c0.013,0.111,0.003,0.25-0.032,0.415c-0.066,0.359-0.342,1.556-0.329,1.804c0.01,0.216,0.134,0.513,0.509,0.513	c0.298,0,1.39-0.59,2.402-1.498c0.318-1.643,0.71-3.674,0.741-3.834c0.124-0.666,0.362-1.351,1.712-1.351	c0.276,0,0.486,0.138,0.526,0.47c0.013,0.11,0.003,0.25-0.032,0.415l-0.377,1.708c1.184-1.577,3.025-2.738,4.127-2.738	c0.469,0,0.83,0.248,0.891,0.746c0.034,0.277-0.047,0.747-0.23,1.273c-0.392,1.078-0.833,2.699-1.125,4.094	c-0.062,0.296,0.041,0.744,0.583,0.744c0.432,0,1.823-0.53,2.945-2.012c-0.007-0.21-0.011-0.423-0.011-0.637	c0-1.162,0.082-2.102,0.302-2.793c0.22-0.72,1.13-1.41,1.735-1.41c0.304,0,0.524,0.166,0.524,0.497c0,0.111-0.028,0.25-0.083,0.387	c-0.413,1.217-0.633,2.352-0.633,3.486c0,0.636,0.138,1.66,0.276,2.185c0.027,0.111,0.054,0.221,0.164,0.221	c0.193,0,1.488-1.272,2.424-2.822c-0.827-0.526-1.295-1.494-1.295-2.684c0-1.991,1.185-3.015,2.341-3.015	c0.909,0,1.735,0.664,1.735,1.991c0,0.831-0.331,1.771-0.798,2.684c0,0,0.193,0.028,0.275,0.028c0.716,0,1.267-0.333,1.571-0.692	c0.138-0.156,0.265-0.279,0.388-0.35c0.923-1.114,2.274-1.919,3.86-1.919c1.35,0,2.515,0.526,2.65,1.632	c0.173,1.41-1.032,1.687-1.446,1.687c-0.413,0-1.033-0.111-1.076-0.47c-0.044-0.359,0.861-0.166,0.756-1.023	c-0.067-0.554-0.645-0.775-1.196-0.775c-1.846,0-3.115,2.462-2.871,4.454c0.098,0.802,0.468,1.577,1.184,1.577	c0.578,0,1.442-0.831,1.761-2.048c0.205-0.802,0.987-1.383,1.566-1.383c0.275,0,0.513,0.138,0.553,0.47	c0.02,0.166-0.046,0.526-0.355,1.825c-0.126,0.553-0.151,1.024-0.104,1.411c0.099,0.802,0.466,1.327,0.806,1.632	c0.124,0.11,0.196,0.248,0.206,0.332c0.026,0.221-0.142,0.415-0.418,0.415c-0.083,0-0.193,0-0.283-0.055	c-1.419-0.581-2.007-1.549-2.174-2.462c-0.548,0.691-1.273,1.078-2.016,1.078c-1.268,0-2.505-1.107-2.68-2.545	c-0.072-0.591-0.001-1.226,0.193-1.85c-0.514,0.318-1.068,0.494-1.564,0.494c-0.166,0-0.302,0-0.468-0.027	c-1.239,1.797-2.534,3.042-3.526,3.596c-0.413,0.221-0.798,0.332-1.074,0.332c-0.221,0-0.469-0.055-0.578-0.249	C58.583,55.36,58.412,54.678,58.313,53.878L58.313,53.878z M62.802,47.986c0,0.775,0.385,1.577,0.881,2.103	c0.194-0.526,0.304-1.051,0.304-1.577c0-0.996-0.386-1.439-0.689-1.439C62.939,47.073,62.802,47.571,62.802,47.986z" clip-rule="evenodd"/></svg>