<svg width="212" height="152" viewBox="0 0 212 152" fill="none" xmlns="http://www.w3.org/2000/svg">
<rect width="50" height="50" rx="10" fill="#E9F1FF"/>
<path d="M2.565 71.128H6.48V91H2.565V71.128ZM14.4169 79.201L14.6869 81.091C15.1009 80.353 15.6859 79.759 16.4419 79.309C17.1979 78.859 18.1159 78.634 19.1959 78.634C20.3119 78.634 21.2389 78.967 21.9769 79.633C22.7329 80.281 23.1199 81.127 23.1379 82.171V91H19.3579V83.575C19.3399 83.053 19.1959 82.639 18.9259 82.333C18.6739 82.009 18.2419 81.847 17.6299 81.847C16.7479 81.847 16.0459 82.261 15.5239 83.089C15.0199 83.899 14.7679 84.934 14.7679 86.194V91H10.9879V79.201H14.4169ZM30.8532 91.243C29.8812 91.243 28.9722 91.072 28.1262 90.73C27.2982 90.388 26.5962 89.911 26.0202 89.299L27.5862 87.22C28.1622 87.742 28.6932 88.12 29.1792 88.354C29.6832 88.57 30.1332 88.678 30.5292 88.678C30.9972 88.678 31.3842 88.606 31.6902 88.462C31.9962 88.318 32.1492 88.084 32.1492 87.76C32.1492 87.454 32.0232 87.211 31.7712 87.031C31.5372 86.851 31.2312 86.707 30.8532 86.599C30.4752 86.473 30.0702 86.347 29.6382 86.221C28.5582 85.879 27.7752 85.384 27.2892 84.736C26.8212 84.07 26.5872 83.35 26.5872 82.576C26.5872 81.982 26.7402 81.388 27.0462 80.794C27.3702 80.182 27.8742 79.678 28.5582 79.282C29.2602 78.868 30.1602 78.661 31.2582 78.661C32.2482 78.661 33.0852 78.76 33.7692 78.958C34.4532 79.156 35.1012 79.48 35.7132 79.93L34.2822 82.144C33.9402 81.874 33.5532 81.649 33.1212 81.469C32.7072 81.271 32.3202 81.163 31.9602 81.145C31.4742 81.127 31.0962 81.217 30.8262 81.415C30.5562 81.595 30.4212 81.811 30.4212 82.063C30.4032 82.405 30.5292 82.675 30.7992 82.873C31.0872 83.071 31.4472 83.224 31.8792 83.332C32.3112 83.44 32.7342 83.566 33.1482 83.71C33.9942 83.998 34.6692 84.412 35.1732 84.952C35.6772 85.474 35.9292 86.176 35.9292 87.058C35.9292 87.778 35.7402 88.462 35.3622 89.11C35.0022 89.74 34.4442 90.253 33.6882 90.649C32.9502 91.045 32.0052 91.243 30.8532 91.243ZM40.2024 74.017H43.9824V79.147H46.8444V82.09H43.9824V91H40.2024V82.09H38.3664V79.147H40.2024V74.017ZM54.6893 91.324C53.5913 91.324 52.5923 91.108 51.6923 90.676C50.8103 90.226 50.1083 89.542 49.5863 88.624C49.0643 87.706 48.8033 86.536 48.8033 85.114C48.8033 83.782 49.0733 82.63 49.6133 81.658C50.1533 80.686 50.8643 79.939 51.7463 79.417C52.6283 78.877 53.5643 78.607 54.5543 78.607C55.7243 78.607 56.6063 78.796 57.2003 79.174C57.8123 79.552 58.2983 79.966 58.6583 80.416L58.9013 79.201H62.4113V91H58.6313V89.542C58.4513 89.722 58.1813 89.956 57.8213 90.244C57.4793 90.532 57.0473 90.784 56.5253 91C56.0033 91.216 55.3913 91.324 54.6893 91.324ZM55.7693 88.246C57.0833 88.246 58.0373 87.652 58.6313 86.464V83.575C58.4153 82.999 58.0373 82.54 57.4973 82.198C56.9753 81.856 56.3543 81.685 55.6343 81.685C54.8243 81.685 54.1223 81.991 53.5283 82.603C52.9343 83.197 52.6373 83.971 52.6373 84.925C52.6373 85.555 52.7813 86.122 53.0693 86.626C53.3573 87.13 53.7353 87.526 54.2033 87.814C54.6893 88.102 55.2113 88.246 55.7693 88.246ZM72.4083 96.94C71.3463 96.94 70.4463 96.814 69.7083 96.562C68.9883 96.31 68.3763 96.004 67.8723 95.644C67.3683 95.284 66.9183 94.942 66.5223 94.618L68.7363 92.026C69.1503 92.404 69.6273 92.764 70.1673 93.106C70.7253 93.466 71.4543 93.646 72.3543 93.646C73.2543 93.646 74.0373 93.412 74.7033 92.944C75.3873 92.494 75.7293 91.828 75.7293 90.946V89.272C75.3873 89.83 74.8563 90.316 74.1363 90.73C73.4163 91.126 72.4803 91.324 71.3283 91.324C70.2663 91.324 69.2763 91.054 68.3583 90.514C67.4583 89.956 66.7383 89.209 66.1983 88.273C65.6583 87.319 65.3883 86.239 65.3883 85.033C65.3883 83.791 65.6763 82.693 66.2523 81.739C66.8283 80.767 67.5753 80.002 68.4933 79.444C69.4113 78.886 70.3833 78.607 71.4093 78.607C72.4353 78.607 73.3173 78.76 74.0553 79.066C74.8113 79.354 75.3693 79.705 75.7293 80.119L76.0263 79.201H79.5093V91C79.5093 92.152 79.1853 93.169 78.5373 94.051C77.8893 94.951 77.0253 95.653 75.9453 96.157C74.8833 96.679 73.7043 96.94 72.4083 96.94ZM69.1953 84.925C69.1953 85.861 69.5103 86.653 70.1403 87.301C70.7703 87.931 71.5443 88.246 72.4623 88.246C73.9743 88.246 75.0633 87.652 75.7293 86.464V83.575C75.4773 82.999 75.0633 82.54 74.4873 82.198C73.9113 81.856 73.2363 81.685 72.4623 81.685C71.5443 81.685 70.7703 81.991 70.1403 82.603C69.5103 83.197 69.1953 83.971 69.1953 84.925ZM86.7942 79.201L87.0912 81.901C87.4332 81.217 87.9012 80.632 88.4952 80.146C89.0892 79.642 89.6742 79.264 90.2502 79.012C90.8262 78.742 91.2672 78.607 91.5732 78.607L91.3842 82.387C90.5022 82.279 89.7462 82.423 89.1162 82.819C88.4862 83.215 88.0002 83.737 87.6582 84.385C87.3162 85.033 87.1452 85.699 87.1452 86.383V91H83.3922V79.201H86.7942ZM99.039 91.324C97.941 91.324 96.942 91.108 96.042 90.676C95.16 90.226 94.458 89.542 93.936 88.624C93.414 87.706 93.153 86.536 93.153 85.114C93.153 83.782 93.423 82.63 93.963 81.658C94.503 80.686 95.214 79.939 96.096 79.417C96.978 78.877 97.914 78.607 98.904 78.607C100.074 78.607 100.956 78.796 101.55 79.174C102.162 79.552 102.648 79.966 103.008 80.416L103.251 79.201H106.761V91H102.981V89.542C102.801 89.722 102.531 89.956 102.171 90.244C101.829 90.532 101.397 90.784 100.875 91C100.353 91.216 99.741 91.324 99.039 91.324ZM100.119 88.246C101.433 88.246 102.387 87.652 102.981 86.464V83.575C102.765 82.999 102.387 82.54 101.847 82.198C101.325 81.856 100.704 81.685 99.984 81.685C99.174 81.685 98.472 81.991 97.878 82.603C97.284 83.197 96.987 83.971 96.987 84.925C96.987 85.555 97.131 86.122 97.419 86.626C97.707 87.13 98.085 87.526 98.553 87.814C99.039 88.102 99.561 88.246 100.119 88.246ZM114.085 79.201L114.355 81.064C114.805 80.29 115.381 79.687 116.083 79.255C116.803 78.823 117.649 78.607 118.621 78.607C119.575 78.607 120.367 78.805 120.997 79.201C121.645 79.579 122.068 80.155 122.266 80.929C122.752 80.227 123.337 79.669 124.021 79.255C124.723 78.823 125.452 78.607 126.208 78.607C127.378 78.607 128.305 78.94 128.989 79.606C129.691 80.254 130.051 81.1 130.069 82.144V91H126.316V83.71C126.298 83.188 126.217 82.765 126.073 82.441C125.929 82.099 125.596 81.91 125.074 81.874C124.462 81.874 123.94 82.09 123.508 82.522C123.094 82.936 122.779 83.476 122.563 84.142C122.365 84.79 122.266 85.465 122.266 86.167V91H118.486V83.71C118.468 83.188 118.369 82.765 118.189 82.441C118.027 82.099 117.685 81.91 117.163 81.874C116.569 81.874 116.065 82.09 115.651 82.522C115.255 82.936 114.949 83.467 114.733 84.115C114.535 84.763 114.436 85.429 114.436 86.113V91H110.656V79.201H114.085Z" fill="#394677"/>
<path d="M18.8214 40.25H31.6786C36.4117 40.25 40.25 36.4117 40.25 31.6786V18.8214C40.25 14.0874 36.4117 10.25 31.6786 10.25H18.8214C14.0874 10.25 10.25 14.0874 10.25 18.8214V31.6786C10.25 36.4117 14.0874 40.25 18.8214 40.25Z" stroke="black" stroke-width="1.5" stroke-miterlimit="10"/>
<path d="M25.2496 17.9642C21.2262 17.9642 17.9639 21.2265 17.9639 25.2499C17.9639 29.2734 21.2262 32.5357 25.2496 32.5357C29.273 32.5357 32.5353 29.2734 32.5353 25.2499C32.5353 21.2265 29.273 17.9642 25.2496 17.9642Z" stroke="black" stroke-width="1.5" stroke-miterlimit="10"/>
<path d="M33.8217 14.9642C32.8746 14.9642 32.1074 15.7314 32.1074 16.6785C32.1074 17.6257 32.8746 18.3928 33.8217 18.3928C34.7689 18.3928 35.536 17.6257 35.536 16.6785C35.536 15.7314 34.7689 14.9642 33.8217 14.9642Z" fill="#394677"/>
<path d="M17.808 113.04C17.8507 112.901 17.9253 112.8 18.032 112.736C18.1387 112.661 18.256 112.624 18.384 112.624C18.5547 112.624 18.6987 112.677 18.816 112.784C18.944 112.88 19.008 113.013 19.008 113.184C19.008 113.259 18.992 113.344 18.96 113.44L15.344 123.632C15.2907 123.781 15.2 123.899 15.072 123.984C14.944 124.059 14.8 124.096 14.64 124.096C14.4907 124.096 14.352 124.059 14.224 123.984C14.096 123.899 14.0053 123.781 13.952 123.632L10.816 114.768L7.648 123.632C7.59467 123.781 7.504 123.899 7.376 123.984C7.248 124.059 7.10933 124.096 6.96 124.096C6.81067 124.096 6.672 124.059 6.544 123.984C6.416 123.899 6.32533 123.781 6.272 123.632L2.64 113.44C2.608 113.355 2.592 113.275 2.592 113.2C2.592 113.029 2.656 112.891 2.784 112.784C2.92267 112.677 3.07733 112.624 3.248 112.624C3.376 112.624 3.49333 112.661 3.6 112.736C3.71733 112.8 3.79733 112.901 3.84 113.04L6.992 122.128L10.192 113.136C10.2453 112.976 10.3307 112.859 10.448 112.784C10.5653 112.699 10.6933 112.656 10.832 112.656C10.9707 112.656 11.0987 112.699 11.216 112.784C11.3333 112.869 11.4187 112.992 11.472 113.152L14.624 122.16L17.808 113.04ZM25.9508 122.192C26.0681 122.192 26.1694 122.24 26.2548 122.336C26.3401 122.432 26.3828 122.555 26.3828 122.704C26.3828 122.971 26.1961 123.216 25.8228 123.44C25.4388 123.664 25.0334 123.835 24.6068 123.952C24.1801 124.059 23.7641 124.112 23.3588 124.112C22.1534 124.112 21.1988 123.755 20.4948 123.04C19.8014 122.325 19.4548 121.339 19.4548 120.08C19.4548 119.28 19.6094 118.576 19.9188 117.968C20.2281 117.349 20.6601 116.869 21.2148 116.528C21.7801 116.187 22.4201 116.016 23.1348 116.016C24.1481 116.016 24.9534 116.347 25.5508 117.008C26.1481 117.669 26.4468 118.565 26.4468 119.696C26.4468 119.909 26.4041 120.064 26.3188 120.16C26.2334 120.256 26.0948 120.304 25.9028 120.304H20.7508C20.8468 122.139 21.7161 123.056 23.3588 123.056C23.7748 123.056 24.1321 123.003 24.4308 122.896C24.7294 122.779 25.0494 122.624 25.3908 122.432C25.6681 122.272 25.8548 122.192 25.9508 122.192ZM23.1508 117.024C22.4681 117.024 21.9188 117.237 21.5028 117.664C21.0974 118.091 20.8574 118.693 20.7828 119.472H25.3108C25.2894 118.683 25.0921 118.08 24.7188 117.664C24.3454 117.237 23.8228 117.024 23.1508 117.024ZM35.1053 124.112C34.6146 124.112 34.1453 124.053 33.6973 123.936C33.2599 123.819 32.8706 123.653 32.5293 123.44C32.3373 123.312 32.1986 123.195 32.1133 123.088C32.0386 122.971 32.0013 122.832 32.0013 122.672C32.0013 122.533 32.0386 122.421 32.1133 122.336C32.1986 122.24 32.3053 122.192 32.4333 122.192C32.5613 122.192 32.7479 122.272 32.9933 122.432C33.3133 122.624 33.6279 122.779 33.9373 122.896C34.2573 123.003 34.6519 123.056 35.1213 123.056C35.6973 123.056 36.1453 122.955 36.4653 122.752C36.7853 122.549 36.9453 122.256 36.9453 121.872C36.9453 121.637 36.8866 121.451 36.7693 121.312C36.6519 121.163 36.4493 121.035 36.1613 120.928C35.8733 120.811 35.4519 120.693 34.8973 120.576C33.9586 120.373 33.2866 120.101 32.8813 119.76C32.4759 119.419 32.2733 118.955 32.2733 118.368C32.2733 117.909 32.4013 117.504 32.6573 117.152C32.9133 116.8 33.2653 116.523 33.7133 116.32C34.1719 116.117 34.6893 116.016 35.2653 116.016C35.6813 116.016 36.0813 116.075 36.4653 116.192C36.8599 116.299 37.2066 116.453 37.5053 116.656C37.8679 116.912 38.0493 117.179 38.0493 117.456C38.0493 117.595 38.0066 117.712 37.9213 117.808C37.8359 117.904 37.7346 117.952 37.6173 117.952C37.4893 117.952 37.2973 117.861 37.0413 117.68C36.7426 117.488 36.4599 117.339 36.1933 117.232C35.9266 117.125 35.5959 117.072 35.2013 117.072C34.6999 117.072 34.2946 117.184 33.9853 117.408C33.6866 117.632 33.5373 117.931 33.5373 118.304C33.5373 118.539 33.5906 118.731 33.6973 118.88C33.8146 119.019 34.0013 119.147 34.2573 119.264C34.5239 119.371 34.9026 119.477 35.3932 119.584C36.1186 119.744 36.6786 119.92 37.0733 120.112C37.4786 120.304 37.7666 120.539 37.9373 120.816C38.1079 121.093 38.1933 121.445 38.1933 121.872C38.1933 122.544 37.9106 123.088 37.3453 123.504C36.7799 123.909 36.0333 124.112 35.1053 124.112ZM44.1048 116.016C45.0221 116.016 45.7154 116.277 46.1848 116.8C46.6541 117.312 46.8888 118.08 46.8888 119.104V123.44C46.8888 123.643 46.8301 123.803 46.7128 123.92C46.5954 124.027 46.4408 124.08 46.2488 124.08C46.0461 124.08 45.8861 124.027 45.7688 123.92C45.6514 123.803 45.5928 123.643 45.5928 123.44V119.136C45.5928 118.443 45.4488 117.931 45.1608 117.6C44.8834 117.269 44.4354 117.104 43.8168 117.104C43.1021 117.104 42.5314 117.323 42.1048 117.76C41.6781 118.197 41.4648 118.789 41.4648 119.536V123.44C41.4648 123.643 41.4061 123.803 41.2888 123.92C41.1821 124.027 41.0274 124.08 40.8248 124.08C40.6221 124.08 40.4621 124.027 40.3448 123.92C40.2274 123.803 40.1688 123.643 40.1688 123.44V113.264C40.1688 113.083 40.2274 112.933 40.3448 112.816C40.4728 112.699 40.6328 112.64 40.8248 112.64C41.0274 112.64 41.1821 112.699 41.2888 112.816C41.4061 112.923 41.4648 113.072 41.4648 113.264V117.456C41.7208 116.987 42.0781 116.629 42.5368 116.384C42.9954 116.139 43.5181 116.016 44.1048 116.016ZM52.4465 116.016C54.3985 116.016 55.3745 117.04 55.3745 119.088V123.44C55.3745 123.632 55.3158 123.787 55.1985 123.904C55.0918 124.021 54.9425 124.08 54.7505 124.08C54.5585 124.08 54.4038 124.021 54.2865 123.904C54.1692 123.787 54.1105 123.632 54.1105 123.44V122.672C53.9078 123.131 53.5985 123.488 53.1825 123.744C52.7665 123.989 52.2865 124.112 51.7425 124.112C51.2412 124.112 50.7772 124.011 50.3505 123.808C49.9345 123.605 49.6038 123.323 49.3585 122.96C49.1132 122.597 48.9905 122.197 48.9905 121.76C48.9905 121.173 49.1398 120.72 49.4385 120.4C49.7372 120.069 50.2278 119.835 50.9105 119.696C51.5932 119.547 52.5425 119.472 53.7585 119.472H54.1105V118.944C54.1105 118.304 53.9772 117.835 53.7105 117.536C53.4545 117.237 53.0332 117.088 52.4465 117.088C51.7212 117.088 50.9852 117.285 50.2385 117.68C49.9505 117.861 49.7478 117.952 49.6305 117.952C49.5025 117.952 49.3958 117.904 49.3105 117.808C49.2252 117.712 49.1825 117.589 49.1825 117.44C49.1825 117.291 49.2252 117.163 49.3105 117.056C49.4065 116.939 49.5558 116.821 49.7585 116.704C50.1318 116.491 50.5532 116.325 51.0225 116.208C51.5025 116.08 51.9772 116.016 52.4465 116.016ZM51.9185 123.088C52.5585 123.088 53.0812 122.875 53.4865 122.448C53.9025 122.011 54.1105 121.451 54.1105 120.768V120.304H53.8225C52.8838 120.304 52.1692 120.347 51.6785 120.432C51.1878 120.507 50.8358 120.64 50.6225 120.832C50.4198 121.013 50.3185 121.285 50.3185 121.648C50.3185 122.064 50.4678 122.411 50.7665 122.688C51.0758 122.955 51.4598 123.088 51.9185 123.088ZM61.6029 116.048C62.0509 116.016 62.2749 116.197 62.2749 116.592C62.2749 116.763 62.2269 116.901 62.1309 117.008C62.0349 117.104 61.8695 117.163 61.6349 117.184L61.1549 117.232C60.4402 117.296 59.9069 117.552 59.5549 118C59.2135 118.437 59.0429 118.955 59.0429 119.552V123.44C59.0429 123.653 58.9842 123.813 58.8669 123.92C58.7495 124.027 58.5949 124.08 58.4029 124.08C58.2109 124.08 58.0509 124.027 57.9229 123.92C57.8055 123.803 57.7469 123.643 57.7469 123.44V116.688C57.7469 116.485 57.8109 116.331 57.9389 116.224C58.0669 116.107 58.2215 116.048 58.4029 116.048C58.5735 116.048 58.7175 116.107 58.8349 116.224C58.9522 116.331 59.0109 116.48 59.0109 116.672V117.568C59.2349 117.099 59.5495 116.741 59.9549 116.496C60.3709 116.251 60.8455 116.107 61.3789 116.064L61.6029 116.048ZM69.2633 122.192C69.3806 122.192 69.4819 122.24 69.5673 122.336C69.6526 122.432 69.6953 122.555 69.6953 122.704C69.6953 122.971 69.5086 123.216 69.1353 123.44C68.7513 123.664 68.3459 123.835 67.9193 123.952C67.4926 124.059 67.0766 124.112 66.6713 124.112C65.4659 124.112 64.5113 123.755 63.8073 123.04C63.1139 122.325 62.7673 121.339 62.7673 120.08C62.7673 119.28 62.9219 118.576 63.2313 117.968C63.5406 117.349 63.9726 116.869 64.5273 116.528C65.0926 116.187 65.7326 116.016 66.4473 116.016C67.4606 116.016 68.2659 116.347 68.8633 117.008C69.4606 117.669 69.7593 118.565 69.7593 119.696C69.7593 119.909 69.7166 120.064 69.6313 120.16C69.5459 120.256 69.4073 120.304 69.2153 120.304H64.0633C64.1593 122.139 65.0286 123.056 66.6713 123.056C67.0873 123.056 67.4446 123.003 67.7433 122.896C68.0419 122.779 68.3619 122.624 68.7033 122.432C68.9806 122.272 69.1673 122.192 69.2633 122.192ZM66.4633 117.024C65.7806 117.024 65.2313 117.237 64.8153 117.664C64.4099 118.091 64.1699 118.693 64.0953 119.472H68.6233C68.6019 118.683 68.4046 118.08 68.0313 117.664C67.6579 117.237 67.1353 117.024 66.4633 117.024ZM79.0098 124.112C78.2844 124.112 77.6391 123.947 77.0738 123.616C76.5191 123.285 76.0871 122.816 75.7778 122.208C75.4791 121.6 75.3298 120.896 75.3298 120.096C75.3298 119.296 75.4844 118.587 75.7938 117.968C76.1138 117.349 76.5564 116.869 77.1218 116.528C77.6871 116.187 78.3378 116.016 79.0738 116.016C79.4791 116.016 79.8791 116.075 80.2738 116.192C80.6791 116.299 81.0311 116.459 81.3298 116.672C81.5218 116.8 81.6551 116.928 81.7298 117.056C81.8151 117.173 81.8578 117.307 81.8578 117.456C81.8578 117.605 81.8151 117.728 81.7298 117.824C81.6551 117.92 81.5538 117.968 81.4258 117.968C81.3511 117.968 81.2711 117.947 81.1858 117.904C81.1004 117.861 81.0258 117.819 80.9618 117.776C80.9084 117.733 80.8711 117.707 80.8498 117.696C80.5724 117.515 80.3058 117.371 80.0498 117.264C79.8044 117.157 79.5004 117.104 79.1378 117.104C78.3591 117.104 77.7511 117.371 77.3138 117.904C76.8871 118.427 76.6738 119.157 76.6738 120.096C76.6738 121.035 76.8871 121.76 77.3138 122.272C77.7511 122.784 78.3591 123.04 79.1378 123.04C79.5004 123.04 79.8098 122.987 80.0658 122.88C80.3324 122.773 80.5991 122.629 80.8658 122.448C80.9831 122.373 81.0951 122.309 81.2018 122.256C81.3084 122.203 81.3991 122.176 81.4738 122.176C81.5911 122.176 81.6871 122.224 81.7618 122.32C81.8471 122.416 81.8898 122.539 81.8898 122.688C81.8898 122.827 81.8524 122.955 81.7778 123.072C81.7031 123.179 81.5644 123.301 81.3618 123.44C81.0631 123.643 80.7004 123.808 80.2738 123.936C79.8578 124.053 79.4364 124.112 79.0098 124.112ZM87.306 116.048C87.754 116.016 87.978 116.197 87.978 116.592C87.978 116.763 87.93 116.901 87.834 117.008C87.738 117.104 87.5727 117.163 87.338 117.184L86.858 117.232C86.1433 117.296 85.61 117.552 85.258 118C84.9167 118.437 84.746 118.955 84.746 119.552V123.44C84.746 123.653 84.6873 123.813 84.57 123.92C84.4527 124.027 84.298 124.08 84.106 124.08C83.914 124.08 83.754 124.027 83.626 123.92C83.5087 123.803 83.45 123.643 83.45 123.44V116.688C83.45 116.485 83.514 116.331 83.642 116.224C83.77 116.107 83.9247 116.048 84.106 116.048C84.2767 116.048 84.4207 116.107 84.538 116.224C84.6553 116.331 84.714 116.48 84.714 116.672V117.568C84.938 117.099 85.2527 116.741 85.658 116.496C86.074 116.251 86.5487 116.107 87.082 116.064L87.306 116.048ZM92.2121 116.016C94.1641 116.016 95.1401 117.04 95.1401 119.088V123.44C95.1401 123.632 95.0815 123.787 94.9641 123.904C94.8575 124.021 94.7081 124.08 94.5161 124.08C94.3241 124.08 94.1695 124.021 94.0521 123.904C93.9348 123.787 93.8761 123.632 93.8761 123.44V122.672C93.6735 123.131 93.3641 123.488 92.9481 123.744C92.5321 123.989 92.0521 124.112 91.5081 124.112C91.0068 124.112 90.5428 124.011 90.1161 123.808C89.7001 123.605 89.3695 123.323 89.1241 122.96C88.8788 122.597 88.7561 122.197 88.7561 121.76C88.7561 121.173 88.9055 120.72 89.2041 120.4C89.5028 120.069 89.9935 119.835 90.6761 119.696C91.3588 119.547 92.3081 119.472 93.5241 119.472H93.8761V118.944C93.8761 118.304 93.7428 117.835 93.4761 117.536C93.2201 117.237 92.7988 117.088 92.2121 117.088C91.4868 117.088 90.7508 117.285 90.0041 117.68C89.7161 117.861 89.5135 117.952 89.3961 117.952C89.2681 117.952 89.1615 117.904 89.0761 117.808C88.9908 117.712 88.9481 117.589 88.9481 117.44C88.9481 117.291 88.9908 117.163 89.0761 117.056C89.1721 116.939 89.3215 116.821 89.5241 116.704C89.8975 116.491 90.3188 116.325 90.7881 116.208C91.2681 116.08 91.7428 116.016 92.2121 116.016ZM91.6841 123.088C92.3241 123.088 92.8468 122.875 93.2521 122.448C93.6681 122.011 93.8761 121.451 93.8761 120.768V120.304H93.5881C92.6495 120.304 91.9348 120.347 91.4441 120.432C90.9535 120.507 90.6015 120.64 90.3881 120.832C90.1855 121.013 90.0841 121.285 90.0841 121.648C90.0841 122.064 90.2335 122.411 90.5321 122.688C90.8415 122.955 91.2255 123.088 91.6841 123.088ZM103.241 122.976C103.422 122.976 103.561 123.024 103.657 123.12C103.753 123.205 103.801 123.328 103.801 123.488C103.801 123.648 103.753 123.776 103.657 123.872C103.561 123.957 103.422 124 103.241 124H97.6405C97.4592 124 97.3098 123.947 97.1925 123.84C97.0752 123.723 97.0165 123.584 97.0165 123.424C97.0165 123.253 97.0805 123.088 97.2085 122.928L101.945 117.232H97.5605C97.3792 117.232 97.2352 117.189 97.1285 117.104C97.0325 117.008 96.9845 116.885 96.9845 116.736C96.9845 116.576 97.0325 116.448 97.1285 116.352C97.2352 116.256 97.3792 116.208 97.5605 116.208H102.985C103.177 116.208 103.331 116.267 103.449 116.384C103.566 116.491 103.625 116.624 103.625 116.784C103.625 116.955 103.561 117.12 103.433 117.28L98.6805 122.976H103.241ZM111.082 116.448C111.199 116.192 111.386 116.064 111.642 116.064C111.802 116.064 111.946 116.117 112.074 116.224C112.202 116.331 112.266 116.464 112.266 116.624C112.266 116.72 112.244 116.805 112.202 116.88L107.706 126.576C107.652 126.693 107.572 126.784 107.466 126.848C107.37 126.912 107.268 126.944 107.162 126.944C107.002 126.944 106.858 126.891 106.73 126.784C106.612 126.688 106.554 126.56 106.554 126.4C106.554 126.315 106.575 126.229 106.618 126.144L107.738 123.728L104.57 116.88C104.527 116.805 104.506 116.725 104.506 116.64C104.506 116.48 104.575 116.341 104.714 116.224C104.863 116.107 105.023 116.048 105.194 116.048C105.3 116.048 105.402 116.08 105.498 116.144C105.604 116.208 105.684 116.299 105.738 116.416L108.41 122.416L111.082 116.448ZM126.481 116.016C128.209 116.016 129.073 117.045 129.073 119.104V123.44C129.073 123.643 129.015 123.803 128.897 123.92C128.78 124.027 128.625 124.08 128.433 124.08C128.241 124.08 128.081 124.027 127.953 123.92C127.836 123.803 127.777 123.643 127.777 123.44V119.136C127.777 118.421 127.649 117.904 127.393 117.584C127.137 117.264 126.737 117.104 126.193 117.104C125.543 117.104 125.031 117.323 124.657 117.76C124.284 118.197 124.097 118.789 124.097 119.536V123.44C124.097 123.643 124.033 123.803 123.905 123.92C123.788 124.027 123.633 124.08 123.441 124.08C123.249 124.08 123.095 124.027 122.977 123.92C122.86 123.803 122.801 123.643 122.801 123.44V119.136C122.801 118.421 122.673 117.904 122.417 117.584C122.161 117.264 121.756 117.104 121.201 117.104C120.561 117.104 120.049 117.323 119.665 117.76C119.292 118.197 119.105 118.789 119.105 119.536V123.44C119.105 123.643 119.047 123.803 118.929 123.92C118.812 124.027 118.657 124.08 118.465 124.08C118.273 124.08 118.113 124.027 117.985 123.92C117.868 123.803 117.809 123.643 117.809 123.44V116.688C117.809 116.496 117.868 116.341 117.985 116.224C118.113 116.107 118.273 116.048 118.465 116.048C118.647 116.048 118.796 116.107 118.913 116.224C119.031 116.331 119.089 116.48 119.089 116.672V117.44C119.324 116.981 119.649 116.629 120.065 116.384C120.481 116.139 120.961 116.016 121.505 116.016C122.721 116.016 123.516 116.528 123.889 117.552C124.113 117.083 124.455 116.709 124.913 116.432C125.372 116.155 125.895 116.016 126.481 116.016ZM137.466 122.192C137.584 122.192 137.685 122.24 137.77 122.336C137.856 122.432 137.898 122.555 137.898 122.704C137.898 122.971 137.712 123.216 137.338 123.44C136.954 123.664 136.549 123.835 136.122 123.952C135.696 124.059 135.28 124.112 134.874 124.112C133.669 124.112 132.714 123.755 132.01 123.04C131.317 122.325 130.97 121.339 130.97 120.08C130.97 119.28 131.125 118.576 131.434 117.968C131.744 117.349 132.176 116.869 132.73 116.528C133.296 116.187 133.936 116.016 134.65 116.016C135.664 116.016 136.469 116.347 137.066 117.008C137.664 117.669 137.962 118.565 137.962 119.696C137.962 119.909 137.92 120.064 137.834 120.16C137.749 120.256 137.61 120.304 137.418 120.304H132.266C132.362 122.139 133.232 123.056 134.874 123.056C135.29 123.056 135.648 123.003 135.946 122.896C136.245 122.779 136.565 122.624 136.906 122.432C137.184 122.272 137.37 122.192 137.466 122.192ZM134.666 117.024C133.984 117.024 133.434 117.237 133.018 117.664C132.613 118.091 132.373 118.693 132.298 119.472H136.826C136.805 118.683 136.608 118.08 136.234 117.664C135.861 117.237 135.338 117.024 134.666 117.024ZM148.544 116.016C150.272 116.016 151.136 117.045 151.136 119.104V123.44C151.136 123.643 151.077 123.803 150.96 123.92C150.843 124.027 150.688 124.08 150.496 124.08C150.304 124.08 150.144 124.027 150.016 123.92C149.899 123.803 149.84 123.643 149.84 123.44V119.136C149.84 118.421 149.712 117.904 149.456 117.584C149.2 117.264 148.8 117.104 148.256 117.104C147.605 117.104 147.093 117.323 146.72 117.76C146.347 118.197 146.16 118.789 146.16 119.536V123.44C146.16 123.643 146.096 123.803 145.968 123.92C145.851 124.027 145.696 124.08 145.504 124.08C145.312 124.08 145.157 124.027 145.04 123.92C144.923 123.803 144.864 123.643 144.864 123.44V119.136C144.864 118.421 144.736 117.904 144.48 117.584C144.224 117.264 143.819 117.104 143.264 117.104C142.624 117.104 142.112 117.323 141.728 117.76C141.355 118.197 141.168 118.789 141.168 119.536V123.44C141.168 123.643 141.109 123.803 140.992 123.92C140.875 124.027 140.72 124.08 140.528 124.08C140.336 124.08 140.176 124.027 140.048 123.92C139.931 123.803 139.872 123.643 139.872 123.44V116.688C139.872 116.496 139.931 116.341 140.048 116.224C140.176 116.107 140.336 116.048 140.528 116.048C140.709 116.048 140.859 116.107 140.976 116.224C141.093 116.331 141.152 116.48 141.152 116.672V117.44C141.387 116.981 141.712 116.629 142.128 116.384C142.544 116.139 143.024 116.016 143.568 116.016C144.784 116.016 145.579 116.528 145.952 117.552C146.176 117.083 146.517 116.709 146.976 116.432C147.435 116.155 147.957 116.016 148.544 116.016ZM159.529 122.192C159.646 122.192 159.748 122.24 159.833 122.336C159.918 122.432 159.961 122.555 159.961 122.704C159.961 122.971 159.774 123.216 159.401 123.44C159.017 123.664 158.612 123.835 158.185 123.952C157.758 124.059 157.342 124.112 156.937 124.112C155.732 124.112 154.777 123.755 154.073 123.04C153.38 122.325 153.033 121.339 153.033 120.08C153.033 119.28 153.188 118.576 153.497 117.968C153.806 117.349 154.238 116.869 154.793 116.528C155.358 116.187 155.998 116.016 156.713 116.016C157.726 116.016 158.532 116.347 159.129 117.008C159.726 117.669 160.025 118.565 160.025 119.696C160.025 119.909 159.982 120.064 159.897 120.16C159.812 120.256 159.673 120.304 159.481 120.304H154.329C154.425 122.139 155.294 123.056 156.937 123.056C157.353 123.056 157.71 123.003 158.009 122.896C158.308 122.779 158.628 122.624 158.969 122.432C159.246 122.272 159.433 122.192 159.529 122.192ZM156.729 117.024C156.046 117.024 155.497 117.237 155.081 117.664C154.676 118.091 154.436 118.693 154.361 119.472H158.889C158.868 118.683 158.67 118.08 158.297 117.664C157.924 117.237 157.401 117.024 156.729 117.024ZM164.558 124.112C164.068 124.112 163.598 124.053 163.15 123.936C162.713 123.819 162.324 123.653 161.982 123.44C161.79 123.312 161.652 123.195 161.566 123.088C161.492 122.971 161.454 122.832 161.454 122.672C161.454 122.533 161.492 122.421 161.566 122.336C161.652 122.24 161.758 122.192 161.886 122.192C162.014 122.192 162.201 122.272 162.446 122.432C162.766 122.624 163.081 122.779 163.39 122.896C163.71 123.003 164.105 123.056 164.574 123.056C165.15 123.056 165.598 122.955 165.918 122.752C166.238 122.549 166.398 122.256 166.398 121.872C166.398 121.637 166.34 121.451 166.222 121.312C166.105 121.163 165.902 121.035 165.614 120.928C165.326 120.811 164.905 120.693 164.35 120.576C163.412 120.373 162.74 120.101 162.334 119.76C161.929 119.419 161.726 118.955 161.726 118.368C161.726 117.909 161.854 117.504 162.11 117.152C162.366 116.8 162.718 116.523 163.166 116.32C163.625 116.117 164.142 116.016 164.718 116.016C165.134 116.016 165.534 116.075 165.918 116.192C166.313 116.299 166.66 116.453 166.958 116.656C167.321 116.912 167.502 117.179 167.502 117.456C167.502 117.595 167.46 117.712 167.374 117.808C167.289 117.904 167.188 117.952 167.07 117.952C166.942 117.952 166.75 117.861 166.494 117.68C166.196 117.488 165.913 117.339 165.646 117.232C165.38 117.125 165.049 117.072 164.654 117.072C164.153 117.072 163.748 117.184 163.438 117.408C163.14 117.632 162.99 117.931 162.99 118.304C162.99 118.539 163.044 118.731 163.15 118.88C163.268 119.019 163.454 119.147 163.71 119.264C163.977 119.371 164.356 119.477 164.846 119.584C165.572 119.744 166.132 119.92 166.526 120.112C166.932 120.304 167.22 120.539 167.39 120.816C167.561 121.093 167.646 121.445 167.646 121.872C167.646 122.544 167.364 123.088 166.798 123.504C166.233 123.909 165.486 124.112 164.558 124.112ZM177.683 116.016C178.6 116.016 179.294 116.277 179.763 116.8C180.232 117.312 180.467 118.08 180.467 119.104V123.44C180.467 123.643 180.408 123.803 180.291 123.92C180.174 124.027 180.019 124.08 179.827 124.08C179.624 124.08 179.464 124.027 179.347 123.92C179.23 123.803 179.171 123.643 179.171 123.44V119.136C179.171 118.443 179.027 117.931 178.739 117.6C178.462 117.269 178.014 117.104 177.395 117.104C176.68 117.104 176.11 117.323 175.683 117.76C175.256 118.197 175.043 118.789 175.043 119.536V123.44C175.043 123.643 174.984 123.803 174.867 123.92C174.76 124.027 174.606 124.08 174.403 124.08C174.2 124.08 174.04 124.027 173.923 123.92C173.806 123.803 173.747 123.643 173.747 123.44V113.264C173.747 113.083 173.806 112.933 173.923 112.816C174.051 112.699 174.211 112.64 174.403 112.64C174.606 112.64 174.76 112.699 174.867 112.816C174.984 112.923 175.043 113.072 175.043 113.264V117.456C175.299 116.987 175.656 116.629 176.115 116.384C176.574 116.139 177.096 116.016 177.683 116.016ZM188.873 122.192C188.99 122.192 189.091 122.24 189.177 122.336C189.262 122.432 189.305 122.555 189.305 122.704C189.305 122.971 189.118 123.216 188.745 123.44C188.361 123.664 187.955 123.835 187.529 123.952C187.102 124.059 186.686 124.112 186.281 124.112C185.075 124.112 184.121 123.755 183.417 123.04C182.723 122.325 182.377 121.339 182.377 120.08C182.377 119.28 182.531 118.576 182.841 117.968C183.15 117.349 183.582 116.869 184.137 116.528C184.702 116.187 185.342 116.016 186.057 116.016C187.07 116.016 187.875 116.347 188.473 117.008C189.07 117.669 189.369 118.565 189.369 119.696C189.369 119.909 189.326 120.064 189.241 120.16C189.155 120.256 189.017 120.304 188.825 120.304H183.673C183.769 122.139 184.638 123.056 186.281 123.056C186.697 123.056 187.054 123.003 187.353 122.896C187.651 122.779 187.971 122.624 188.313 122.432C188.59 122.272 188.777 122.192 188.873 122.192ZM186.073 117.024C185.39 117.024 184.841 117.237 184.425 117.664C184.019 118.091 183.779 118.693 183.705 119.472H188.233C188.211 118.683 188.014 118.08 187.641 117.664C187.267 117.237 186.745 117.024 186.073 117.024ZM195.134 116.048C195.582 116.016 195.806 116.197 195.806 116.592C195.806 116.763 195.758 116.901 195.662 117.008C195.566 117.104 195.401 117.163 195.166 117.184L194.686 117.232C193.971 117.296 193.438 117.552 193.086 118C192.745 118.437 192.574 118.955 192.574 119.552V123.44C192.574 123.653 192.515 123.813 192.398 123.92C192.281 124.027 192.126 124.08 191.934 124.08C191.742 124.08 191.582 124.027 191.454 123.92C191.337 123.803 191.278 123.643 191.278 123.44V116.688C191.278 116.485 191.342 116.331 191.47 116.224C191.598 116.107 191.753 116.048 191.934 116.048C192.105 116.048 192.249 116.107 192.366 116.224C192.483 116.331 192.542 116.48 192.542 116.672V117.568C192.766 117.099 193.081 116.741 193.486 116.496C193.902 116.251 194.377 116.107 194.91 116.064L195.134 116.048ZM202.795 122.192C202.912 122.192 203.013 122.24 203.099 122.336C203.184 122.432 203.227 122.555 203.227 122.704C203.227 122.971 203.04 123.216 202.667 123.44C202.283 123.664 201.877 123.835 201.451 123.952C201.024 124.059 200.608 124.112 200.203 124.112C198.997 124.112 198.043 123.755 197.339 123.04C196.645 122.325 196.299 121.339 196.299 120.08C196.299 119.28 196.453 118.576 196.763 117.968C197.072 117.349 197.504 116.869 198.059 116.528C198.624 116.187 199.264 116.016 199.979 116.016C200.992 116.016 201.797 116.347 202.395 117.008C202.992 117.669 203.291 118.565 203.291 119.696C203.291 119.909 203.248 120.064 203.163 120.16C203.077 120.256 202.939 120.304 202.747 120.304H197.595C197.691 122.139 198.56 123.056 200.203 123.056C200.619 123.056 200.976 123.003 201.275 122.896C201.573 122.779 201.893 122.624 202.235 122.432C202.512 122.272 202.699 122.192 202.795 122.192ZM199.995 117.024C199.312 117.024 198.763 117.237 198.347 117.664C197.941 118.091 197.701 118.693 197.627 119.472H202.155C202.133 118.683 201.936 118.08 201.563 117.664C201.189 117.237 200.667 117.024 199.995 117.024ZM205.84 124.08C205.584 124.08 205.371 124 205.2 123.84C205.029 123.669 204.944 123.451 204.944 123.184C204.944 122.917 205.029 122.699 205.2 122.528C205.371 122.357 205.584 122.272 205.84 122.272C206.085 122.272 206.288 122.357 206.448 122.528C206.619 122.699 206.704 122.917 206.704 123.184C206.704 123.451 206.619 123.669 206.448 123.84C206.288 124 206.085 124.08 205.84 124.08ZM9.792 140.208C10.4427 140.379 10.944 140.699 11.296 141.168C11.6587 141.637 11.84 142.224 11.84 142.928C11.84 143.92 11.5147 144.683 10.864 145.216C10.2133 145.739 9.29067 146 8.096 146H4.064C3.86133 146 3.696 145.941 3.568 145.824C3.45067 145.707 3.392 145.552 3.392 145.36V135.36C3.392 135.168 3.45067 135.013 3.568 134.896C3.696 134.779 3.86133 134.72 4.064 134.72H7.92C9.08267 134.72 9.984 134.976 10.624 135.488C11.264 136 11.584 136.725 11.584 137.664C11.584 138.272 11.424 138.795 11.104 139.232C10.7947 139.669 10.3573 139.995 9.792 140.208ZM4.688 139.728H7.728C8.57067 139.728 9.20533 139.557 9.632 139.216C10.0693 138.875 10.288 138.379 10.288 137.728C10.288 136.448 9.43467 135.808 7.728 135.808H4.688V139.728ZM7.968 144.912C8.85333 144.912 9.504 144.752 9.92 144.432C10.3467 144.101 10.56 143.589 10.56 142.896C10.56 141.509 9.696 140.816 7.968 140.816H4.688V144.912H7.968ZM19.9013 138.048C20.1039 138.048 20.2586 138.107 20.3653 138.224C20.4826 138.341 20.5413 138.496 20.5413 138.688V145.456C20.5413 145.637 20.4826 145.787 20.3653 145.904C20.2586 146.021 20.1039 146.08 19.9013 146.08C19.7093 146.08 19.5546 146.027 19.4373 145.92C19.3306 145.803 19.2773 145.653 19.2773 145.472V144.672C19.0319 145.141 18.6853 145.499 18.2373 145.744C17.7999 145.989 17.3039 146.112 16.7493 146.112C15.8213 146.112 15.1226 145.856 14.6533 145.344C14.1839 144.821 13.9493 144.053 13.9493 143.04V138.688C13.9493 138.496 14.0079 138.341 14.1253 138.224C14.2426 138.107 14.4026 138.048 14.6053 138.048C14.8079 138.048 14.9626 138.107 15.0693 138.224C15.1866 138.341 15.2453 138.496 15.2453 138.688V143.008C15.2453 143.701 15.3839 144.213 15.6613 144.544C15.9386 144.864 16.3759 145.024 16.9733 145.024C17.6559 145.024 18.2053 144.805 18.6213 144.368C19.0373 143.92 19.2453 143.333 19.2453 142.608V138.688C19.2453 138.496 19.3039 138.341 19.4213 138.224C19.5386 138.107 19.6986 138.048 19.9013 138.048ZM26.55 145.056C26.9233 145.088 27.11 145.259 27.11 145.568C27.11 145.749 27.0407 145.888 26.902 145.984C26.774 146.069 26.5767 146.101 26.31 146.08L25.878 146.048C25.0247 145.984 24.3953 145.728 23.99 145.28C23.5847 144.832 23.382 144.155 23.382 143.248V139.232H22.31C22.1287 139.232 21.9847 139.189 21.878 139.104C21.782 139.008 21.734 138.885 21.734 138.736C21.734 138.576 21.782 138.448 21.878 138.352C21.9847 138.256 22.1287 138.208 22.31 138.208H23.382V136.4C23.382 136.197 23.4407 136.043 23.558 135.936C23.6753 135.819 23.8353 135.76 24.038 135.76C24.23 135.76 24.3847 135.819 24.502 135.936C24.6193 136.043 24.678 136.197 24.678 136.4V138.208H26.454C26.6247 138.208 26.758 138.256 26.854 138.352C26.9607 138.448 27.014 138.576 27.014 138.736C27.014 138.885 26.9607 139.008 26.854 139.104C26.758 139.189 26.6247 139.232 26.454 139.232H24.678V143.312C24.678 143.899 24.7953 144.325 25.03 144.592C25.2753 144.848 25.638 144.992 26.118 145.024L26.55 145.056ZM38.1285 138.448C38.2458 138.192 38.4325 138.064 38.6885 138.064C38.8485 138.064 38.9925 138.117 39.1205 138.224C39.2485 138.331 39.3125 138.464 39.3125 138.624C39.3125 138.72 39.2912 138.805 39.2485 138.88L34.7525 148.576C34.6992 148.693 34.6192 148.784 34.5125 148.848C34.4165 148.912 34.3152 148.944 34.2085 148.944C34.0485 148.944 33.9045 148.891 33.7765 148.784C33.6592 148.688 33.6005 148.56 33.6005 148.4C33.6005 148.315 33.6218 148.229 33.6645 148.144L34.7845 145.728L31.6165 138.88C31.5738 138.805 31.5525 138.725 31.5525 138.64C31.5525 138.48 31.6218 138.341 31.7605 138.224C31.9098 138.107 32.0698 138.048 32.2405 138.048C32.3472 138.048 32.4485 138.08 32.5445 138.144C32.6512 138.208 32.7312 138.299 32.7845 138.416L35.4565 144.416L38.1285 138.448ZM43.8695 146.112C43.1335 146.112 42.4828 145.947 41.9175 145.616C41.3628 145.285 40.9308 144.816 40.6215 144.208C40.3228 143.589 40.1735 142.875 40.1735 142.064C40.1735 141.253 40.3228 140.544 40.6215 139.936C40.9308 139.317 41.3628 138.843 41.9175 138.512C42.4828 138.181 43.1335 138.016 43.8695 138.016C44.6055 138.016 45.2562 138.181 45.8215 138.512C46.3868 138.843 46.8188 139.317 47.1175 139.936C47.4268 140.544 47.5815 141.253 47.5815 142.064C47.5815 142.875 47.4268 143.589 47.1175 144.208C46.8188 144.816 46.3868 145.285 45.8215 145.616C45.2562 145.947 44.6055 146.112 43.8695 146.112ZM43.8695 145.04C44.6375 145.04 45.2242 144.789 45.6295 144.288C46.0455 143.776 46.2535 143.035 46.2535 142.064C46.2535 141.115 46.0455 140.384 45.6295 139.872C45.2135 139.349 44.6268 139.088 43.8695 139.088C43.1122 139.088 42.5255 139.349 42.1095 139.872C41.6935 140.384 41.4855 141.115 41.4855 142.064C41.4855 143.024 41.6882 143.76 42.0935 144.272C42.5095 144.784 43.1015 145.04 43.8695 145.04ZM55.4325 138.048C55.6352 138.048 55.7898 138.107 55.8965 138.224C56.0138 138.341 56.0725 138.496 56.0725 138.688V145.456C56.0725 145.637 56.0138 145.787 55.8965 145.904C55.7898 146.021 55.6352 146.08 55.4325 146.08C55.2405 146.08 55.0858 146.027 54.9685 145.92C54.8618 145.803 54.8085 145.653 54.8085 145.472V144.672C54.5632 145.141 54.2165 145.499 53.7685 145.744C53.3312 145.989 52.8352 146.112 52.2805 146.112C51.3525 146.112 50.6538 145.856 50.1845 145.344C49.7152 144.821 49.4805 144.053 49.4805 143.04V138.688C49.4805 138.496 49.5392 138.341 49.6565 138.224C49.7738 138.107 49.9338 138.048 50.1365 138.048C50.3392 138.048 50.4938 138.107 50.6005 138.224C50.7178 138.341 50.7765 138.496 50.7765 138.688V143.008C50.7765 143.701 50.9152 144.213 51.1925 144.544C51.4698 144.864 51.9072 145.024 52.5045 145.024C53.1872 145.024 53.7365 144.805 54.1525 144.368C54.5685 143.92 54.7765 143.333 54.7765 142.608V138.688C54.7765 138.496 54.8352 138.341 54.9525 138.224C55.0698 138.107 55.2298 138.048 55.4325 138.048ZM65.8223 146.112C65.0969 146.112 64.4516 145.947 63.8863 145.616C63.3316 145.285 62.8996 144.816 62.5903 144.208C62.2916 143.6 62.1423 142.896 62.1423 142.096C62.1423 141.296 62.2969 140.587 62.6063 139.968C62.9263 139.349 63.3689 138.869 63.9343 138.528C64.4996 138.187 65.1503 138.016 65.8863 138.016C66.2916 138.016 66.6916 138.075 67.0863 138.192C67.4916 138.299 67.8436 138.459 68.1423 138.672C68.3343 138.8 68.4676 138.928 68.5423 139.056C68.6276 139.173 68.6703 139.307 68.6703 139.456C68.6703 139.605 68.6276 139.728 68.5423 139.824C68.4676 139.92 68.3663 139.968 68.2383 139.968C68.1636 139.968 68.0836 139.947 67.9983 139.904C67.9129 139.861 67.8383 139.819 67.7743 139.776C67.7209 139.733 67.6836 139.707 67.6623 139.696C67.3849 139.515 67.1183 139.371 66.8623 139.264C66.6169 139.157 66.3129 139.104 65.9503 139.104C65.1716 139.104 64.5636 139.371 64.1263 139.904C63.6996 140.427 63.4863 141.157 63.4863 142.096C63.4863 143.035 63.6996 143.76 64.1263 144.272C64.5636 144.784 65.1716 145.04 65.9503 145.04C66.3129 145.04 66.6223 144.987 66.8783 144.88C67.1449 144.773 67.4116 144.629 67.6783 144.448C67.7956 144.373 67.9076 144.309 68.0143 144.256C68.1209 144.203 68.2116 144.176 68.2863 144.176C68.4036 144.176 68.4996 144.224 68.5743 144.32C68.6596 144.416 68.7023 144.539 68.7023 144.688C68.7023 144.827 68.6649 144.955 68.5903 145.072C68.5156 145.179 68.3769 145.301 68.1743 145.44C67.8756 145.643 67.5129 145.808 67.0863 145.936C66.6703 146.053 66.2489 146.112 65.8223 146.112ZM73.4465 138.016C75.3985 138.016 76.3745 139.04 76.3745 141.088V145.44C76.3745 145.632 76.3158 145.787 76.1985 145.904C76.0918 146.021 75.9425 146.08 75.7505 146.08C75.5585 146.08 75.4038 146.021 75.2865 145.904C75.1692 145.787 75.1105 145.632 75.1105 145.44V144.672C74.9078 145.131 74.5985 145.488 74.1825 145.744C73.7665 145.989 73.2865 146.112 72.7425 146.112C72.2412 146.112 71.7772 146.011 71.3505 145.808C70.9345 145.605 70.6038 145.323 70.3585 144.96C70.1132 144.597 69.9905 144.197 69.9905 143.76C69.9905 143.173 70.1398 142.72 70.4385 142.4C70.7372 142.069 71.2278 141.835 71.9105 141.696C72.5932 141.547 73.5425 141.472 74.7585 141.472H75.1105V140.944C75.1105 140.304 74.9772 139.835 74.7105 139.536C74.4545 139.237 74.0332 139.088 73.4465 139.088C72.7212 139.088 71.9852 139.285 71.2385 139.68C70.9505 139.861 70.7478 139.952 70.6305 139.952C70.5025 139.952 70.3958 139.904 70.3105 139.808C70.2252 139.712 70.1825 139.589 70.1825 139.44C70.1825 139.291 70.2252 139.163 70.3105 139.056C70.4065 138.939 70.5558 138.821 70.7585 138.704C71.1318 138.491 71.5532 138.325 72.0225 138.208C72.5025 138.08 72.9772 138.016 73.4465 138.016ZM72.9185 145.088C73.5585 145.088 74.0812 144.875 74.4865 144.448C74.9025 144.011 75.1105 143.451 75.1105 142.768V142.304H74.8225C73.8838 142.304 73.1692 142.347 72.6785 142.432C72.1878 142.507 71.8358 142.64 71.6225 142.832C71.4198 143.013 71.3185 143.285 71.3185 143.648C71.3185 144.064 71.4678 144.411 71.7665 144.688C72.0758 144.955 72.4598 145.088 72.9185 145.088ZM82.6669 138.016C84.5335 138.016 85.4669 139.045 85.4669 141.104V145.44C85.4669 145.643 85.4082 145.803 85.2909 145.92C85.1842 146.027 85.0295 146.08 84.8269 146.08C84.6242 146.08 84.4642 146.027 84.3469 145.92C84.2295 145.803 84.1709 145.643 84.1709 145.44V141.184C84.1709 140.459 84.0269 139.931 83.7389 139.6C83.4615 139.269 83.0135 139.104 82.3949 139.104C81.6802 139.104 81.1095 139.323 80.6829 139.76C80.2562 140.197 80.0429 140.789 80.0429 141.536V145.44C80.0429 145.643 79.9842 145.803 79.8669 145.92C79.7602 146.027 79.6055 146.08 79.4029 146.08C79.2002 146.08 79.0402 146.027 78.9229 145.92C78.8055 145.803 78.7469 145.643 78.7469 145.44V138.688C78.7469 138.496 78.8055 138.341 78.9229 138.224C79.0402 138.107 79.2002 138.048 79.4029 138.048C79.5949 138.048 79.7442 138.107 79.8509 138.224C79.9682 138.341 80.0269 138.491 80.0269 138.672V139.488C80.2829 139.008 80.6402 138.645 81.0989 138.4C81.5575 138.144 82.0802 138.016 82.6669 138.016ZM92.8296 146C92.627 146 92.4616 145.941 92.3336 145.824C92.2163 145.707 92.1576 145.552 92.1576 145.36V135.36C92.1576 135.168 92.2163 135.013 92.3336 134.896C92.4616 134.779 92.627 134.72 92.8296 134.72H95.9496C97.7523 134.72 99.1443 135.211 100.126 136.192C101.118 137.163 101.614 138.549 101.614 140.352C101.614 142.155 101.118 143.547 100.126 144.528C99.1336 145.509 97.7416 146 95.9496 146H92.8296ZM95.8696 144.88C98.7923 144.88 100.254 143.371 100.254 140.352C100.254 137.344 98.7923 135.84 95.8696 135.84H93.4696V144.88H95.8696ZM114.002 134.64C114.204 134.64 114.359 134.704 114.466 134.832C114.583 134.949 114.642 135.109 114.642 135.312V145.44C114.642 145.632 114.588 145.787 114.482 145.904C114.375 146.021 114.226 146.08 114.034 146.08C113.842 146.08 113.698 146.021 113.602 145.904C113.506 145.787 113.458 145.632 113.458 145.44V137.264L109.986 143.92C109.836 144.229 109.618 144.384 109.33 144.384C109.052 144.384 108.834 144.229 108.674 143.92L105.186 137.344V145.44C105.186 145.632 105.132 145.787 105.026 145.904C104.93 146.021 104.786 146.08 104.594 146.08C104.402 146.08 104.252 146.021 104.146 145.904C104.039 145.787 103.986 145.632 103.986 145.44V135.312C103.986 135.109 104.044 134.949 104.162 134.832C104.279 134.704 104.439 134.64 104.642 134.64C104.908 134.64 105.122 134.795 105.282 135.104L109.346 142.896L113.362 135.104C113.447 134.933 113.538 134.816 113.634 134.752C113.74 134.677 113.863 134.64 114.002 134.64ZM127.628 138.048C127.831 138.048 127.991 138.107 128.108 138.224C128.225 138.341 128.284 138.496 128.284 138.688V148.336C128.284 148.517 128.225 148.667 128.108 148.784C127.991 148.901 127.831 148.96 127.628 148.96C127.425 148.96 127.265 148.901 127.148 148.784C127.041 148.677 126.988 148.528 126.988 148.336V144.576C126.753 145.067 126.407 145.445 125.948 145.712C125.5 145.979 124.972 146.112 124.364 146.112C123.671 146.112 123.063 145.947 122.54 145.616C122.028 145.285 121.628 144.821 121.34 144.224C121.052 143.616 120.908 142.907 120.908 142.096C120.908 141.285 121.052 140.576 121.34 139.968C121.628 139.349 122.033 138.869 122.556 138.528C123.079 138.187 123.681 138.016 124.364 138.016C124.972 138.016 125.5 138.149 125.948 138.416C126.407 138.683 126.753 139.061 126.988 139.552V138.688C126.988 138.496 127.041 138.341 127.148 138.224C127.265 138.107 127.425 138.048 127.628 138.048ZM124.62 145.04C125.377 145.04 125.959 144.784 126.364 144.272C126.78 143.749 126.988 143.013 126.988 142.064C126.988 141.115 126.78 140.384 126.364 139.872C125.959 139.36 125.377 139.104 124.62 139.104C123.863 139.104 123.271 139.371 122.844 139.904C122.428 140.427 122.22 141.157 122.22 142.096C122.22 143.035 122.428 143.76 122.844 144.272C123.271 144.784 123.863 145.04 124.62 145.04ZM136.604 138.048C136.807 138.048 136.962 138.107 137.068 138.224C137.186 138.341 137.244 138.496 137.244 138.688V145.456C137.244 145.637 137.186 145.787 137.068 145.904C136.962 146.021 136.807 146.08 136.604 146.08C136.412 146.08 136.258 146.027 136.14 145.92C136.034 145.803 135.98 145.653 135.98 145.472V144.672C135.735 145.141 135.388 145.499 134.94 145.744C134.503 145.989 134.007 146.112 133.452 146.112C132.524 146.112 131.826 145.856 131.356 145.344C130.887 144.821 130.652 144.053 130.652 143.04V138.688C130.652 138.496 130.711 138.341 130.828 138.224C130.946 138.107 131.106 138.048 131.308 138.048C131.511 138.048 131.666 138.107 131.772 138.224C131.89 138.341 131.948 138.496 131.948 138.688V143.008C131.948 143.701 132.087 144.213 132.364 144.544C132.642 144.864 133.079 145.024 133.676 145.024C134.359 145.024 134.908 144.805 135.324 144.368C135.74 143.92 135.948 143.333 135.948 142.608V138.688C135.948 138.496 136.007 138.341 136.124 138.224C136.242 138.107 136.402 138.048 136.604 138.048ZM145.685 144.192C145.802 144.192 145.904 144.24 145.989 144.336C146.074 144.432 146.117 144.555 146.117 144.704C146.117 144.971 145.93 145.216 145.557 145.44C145.173 145.664 144.768 145.835 144.341 145.952C143.914 146.059 143.498 146.112 143.093 146.112C141.888 146.112 140.933 145.755 140.229 145.04C139.536 144.325 139.189 143.339 139.189 142.08C139.189 141.28 139.344 140.576 139.653 139.968C139.962 139.349 140.394 138.869 140.949 138.528C141.514 138.187 142.154 138.016 142.869 138.016C143.882 138.016 144.688 138.347 145.285 139.008C145.882 139.669 146.181 140.565 146.181 141.696C146.181 141.909 146.138 142.064 146.053 142.16C145.968 142.256 145.829 142.304 145.637 142.304H140.485C140.581 144.139 141.45 145.056 143.093 145.056C143.509 145.056 143.866 145.003 144.165 144.896C144.464 144.779 144.784 144.624 145.125 144.432C145.402 144.272 145.589 144.192 145.685 144.192ZM142.885 139.024C142.202 139.024 141.653 139.237 141.237 139.664C140.832 140.091 140.592 140.693 140.517 141.472H145.045C145.024 140.683 144.826 140.08 144.453 139.664C144.08 139.237 143.557 139.024 142.885 139.024ZM151.947 138.048C152.395 138.016 152.619 138.197 152.619 138.592C152.619 138.763 152.571 138.901 152.475 139.008C152.379 139.104 152.213 139.163 151.979 139.184L151.499 139.232C150.784 139.296 150.251 139.552 149.899 140C149.557 140.437 149.387 140.955 149.387 141.552V145.44C149.387 145.653 149.328 145.813 149.211 145.92C149.093 146.027 148.939 146.08 148.747 146.08C148.555 146.08 148.395 146.027 148.267 145.92C148.149 145.803 148.091 145.643 148.091 145.44V138.688C148.091 138.485 148.155 138.331 148.283 138.224C148.411 138.107 148.565 138.048 148.747 138.048C148.917 138.048 149.061 138.107 149.179 138.224C149.296 138.331 149.355 138.48 149.355 138.672V139.568C149.579 139.099 149.893 138.741 150.299 138.496C150.715 138.251 151.189 138.107 151.723 138.064L151.947 138.048ZM154.387 146.08C154.195 146.08 154.035 146.027 153.907 145.92C153.79 145.803 153.731 145.643 153.731 145.44V138.688C153.731 138.485 153.79 138.331 153.907 138.224C154.035 138.107 154.195 138.048 154.387 138.048C154.579 138.048 154.734 138.107 154.851 138.224C154.969 138.331 155.027 138.485 155.027 138.688V145.44C155.027 145.653 154.969 145.813 154.851 145.92C154.734 146.027 154.579 146.08 154.387 146.08ZM154.387 136.368C154.131 136.368 153.923 136.293 153.763 136.144C153.603 135.995 153.523 135.797 153.523 135.552C153.523 135.317 153.603 135.125 153.763 134.976C153.923 134.827 154.131 134.752 154.387 134.752C154.643 134.752 154.851 134.827 155.011 134.976C155.171 135.125 155.251 135.317 155.251 135.552C155.251 135.797 155.171 135.995 155.011 136.144C154.851 136.293 154.643 136.368 154.387 136.368ZM163.482 144.192C163.599 144.192 163.701 144.24 163.786 144.336C163.871 144.432 163.914 144.555 163.914 144.704C163.914 144.971 163.727 145.216 163.354 145.44C162.97 145.664 162.565 145.835 162.138 145.952C161.711 146.059 161.295 146.112 160.89 146.112C159.685 146.112 158.73 145.755 158.026 145.04C157.333 144.325 156.986 143.339 156.986 142.08C156.986 141.28 157.141 140.576 157.45 139.968C157.759 139.349 158.191 138.869 158.746 138.528C159.311 138.187 159.951 138.016 160.666 138.016C161.679 138.016 162.485 138.347 163.082 139.008C163.679 139.669 163.978 140.565 163.978 141.696C163.978 141.909 163.935 142.064 163.85 142.16C163.765 142.256 163.626 142.304 163.434 142.304H158.282C158.378 144.139 159.247 145.056 160.89 145.056C161.306 145.056 161.663 145.003 161.962 144.896C162.261 144.779 162.581 144.624 162.922 144.432C163.199 144.272 163.386 144.192 163.482 144.192ZM160.682 139.024C159.999 139.024 159.45 139.237 159.034 139.664C158.629 140.091 158.389 140.693 158.314 141.472H162.842C162.821 140.683 162.623 140.08 162.25 139.664C161.877 139.237 161.354 139.024 160.682 139.024ZM168.512 146.112C168.021 146.112 167.552 146.053 167.104 145.936C166.666 145.819 166.277 145.653 165.936 145.44C165.744 145.312 165.605 145.195 165.52 145.088C165.445 144.971 165.408 144.832 165.408 144.672C165.408 144.533 165.445 144.421 165.52 144.336C165.605 144.24 165.712 144.192 165.84 144.192C165.968 144.192 166.154 144.272 166.4 144.432C166.72 144.624 167.034 144.779 167.344 144.896C167.664 145.003 168.058 145.056 168.528 145.056C169.104 145.056 169.552 144.955 169.872 144.752C170.192 144.549 170.352 144.256 170.352 143.872C170.352 143.637 170.293 143.451 170.176 143.312C170.058 143.163 169.856 143.035 169.568 142.928C169.28 142.811 168.858 142.693 168.304 142.576C167.365 142.373 166.693 142.101 166.288 141.76C165.882 141.419 165.68 140.955 165.68 140.368C165.68 139.909 165.808 139.504 166.064 139.152C166.32 138.8 166.672 138.523 167.12 138.32C167.578 138.117 168.096 138.016 168.672 138.016C169.088 138.016 169.488 138.075 169.872 138.192C170.266 138.299 170.613 138.453 170.912 138.656C171.274 138.912 171.456 139.179 171.456 139.456C171.456 139.595 171.413 139.712 171.328 139.808C171.242 139.904 171.141 139.952 171.024 139.952C170.896 139.952 170.704 139.861 170.448 139.68C170.149 139.488 169.866 139.339 169.6 139.232C169.333 139.125 169.002 139.072 168.608 139.072C168.106 139.072 167.701 139.184 167.392 139.408C167.093 139.632 166.944 139.931 166.944 140.304C166.944 140.539 166.997 140.731 167.104 140.88C167.221 141.019 167.408 141.147 167.664 141.264C167.93 141.371 168.309 141.477 168.799 141.584C169.525 141.744 170.085 141.92 170.48 142.112C170.885 142.304 171.173 142.539 171.344 142.816C171.514 143.093 171.6 143.445 171.6 143.872C171.6 144.544 171.317 145.088 170.752 145.504C170.186 145.909 169.44 146.112 168.512 146.112ZM181.3 145.056C181.673 145.088 181.86 145.259 181.86 145.568C181.86 145.749 181.791 145.888 181.652 145.984C181.524 146.069 181.327 146.101 181.06 146.08L180.628 146.048C179.775 145.984 179.145 145.728 178.74 145.28C178.335 144.832 178.132 144.155 178.132 143.248V139.232H177.06C176.879 139.232 176.735 139.189 176.628 139.104C176.532 139.008 176.484 138.885 176.484 138.736C176.484 138.576 176.532 138.448 176.628 138.352C176.735 138.256 176.879 138.208 177.06 138.208H178.132V136.4C178.132 136.197 178.191 136.043 178.308 135.936C178.425 135.819 178.585 135.76 178.788 135.76C178.98 135.76 179.135 135.819 179.252 135.936C179.369 136.043 179.428 136.197 179.428 136.4V138.208H181.204C181.375 138.208 181.508 138.256 181.604 138.352C181.711 138.448 181.764 138.576 181.764 138.736C181.764 138.885 181.711 139.008 181.604 139.104C181.508 139.189 181.375 139.232 181.204 139.232H179.428V143.312C179.428 143.899 179.545 144.325 179.78 144.592C180.025 144.848 180.388 144.992 180.868 145.024L181.3 145.056ZM186.37 146.112C185.634 146.112 184.983 145.947 184.418 145.616C183.863 145.285 183.431 144.816 183.122 144.208C182.823 143.589 182.674 142.875 182.674 142.064C182.674 141.253 182.823 140.544 183.122 139.936C183.431 139.317 183.863 138.843 184.418 138.512C184.983 138.181 185.634 138.016 186.37 138.016C187.106 138.016 187.756 138.181 188.322 138.512C188.887 138.843 189.319 139.317 189.618 139.936C189.927 140.544 190.082 141.253 190.082 142.064C190.082 142.875 189.927 143.589 189.618 144.208C189.319 144.816 188.887 145.285 188.322 145.616C187.756 145.947 187.106 146.112 186.37 146.112ZM186.37 145.04C187.138 145.04 187.724 144.789 188.13 144.288C188.546 143.776 188.754 143.035 188.754 142.064C188.754 141.115 188.546 140.384 188.13 139.872C187.714 139.349 187.127 139.088 186.37 139.088C185.612 139.088 185.026 139.349 184.61 139.872C184.194 140.384 183.986 141.115 183.986 142.064C183.986 143.024 184.188 143.76 184.594 144.272C185.01 144.784 185.602 145.04 186.37 145.04ZM195.245 146.112C194.509 146.112 193.858 145.947 193.293 145.616C192.738 145.285 192.306 144.816 191.997 144.208C191.698 143.589 191.549 142.875 191.549 142.064C191.549 141.253 191.698 140.544 191.997 139.936C192.306 139.317 192.738 138.843 193.293 138.512C193.858 138.181 194.509 138.016 195.245 138.016C195.981 138.016 196.631 138.181 197.197 138.512C197.762 138.843 198.194 139.317 198.493 139.936C198.802 140.544 198.957 141.253 198.957 142.064C198.957 142.875 198.802 143.589 198.493 144.208C198.194 144.816 197.762 145.285 197.197 145.616C196.631 145.947 195.981 146.112 195.245 146.112ZM195.245 145.04C196.013 145.04 196.599 144.789 197.005 144.288C197.421 143.776 197.629 143.035 197.629 142.064C197.629 141.115 197.421 140.384 197.005 139.872C196.589 139.349 196.002 139.088 195.245 139.088C194.487 139.088 193.901 139.349 193.485 139.872C193.069 140.384 192.861 141.115 192.861 142.064C192.861 143.024 193.063 143.76 193.469 144.272C193.885 144.784 194.477 145.04 195.245 145.04ZM201.262 146.08C201.006 146.08 200.793 146 200.622 145.84C200.451 145.669 200.366 145.451 200.366 145.184C200.366 144.917 200.451 144.699 200.622 144.528C200.793 144.357 201.006 144.272 201.262 144.272C201.507 144.272 201.71 144.357 201.87 144.528C202.041 144.699 202.126 144.917 202.126 145.184C202.126 145.451 202.041 145.669 201.87 145.84C201.71 146 201.507 146.08 201.262 146.08Z" fill="#394677"/>
</svg>
