<svg width="55" height="60" viewBox="0 0 55 60" fill="none" xmlns="http://www.w3.org/2000/svg">
<g clip-path="url(#clip0)" filter="url(#filter0_d)">
<path d="M32.2363 9.2271C32.1704 9.17809 32.0956 9.14253 32.016 9.12244C31.9364 9.10236 31.8537 9.09814 31.7724 9.11004L14.4572 11.6464C13.3097 11.8158 12.2763 12.4334 11.5836 13.3638C10.891 14.2942 10.5957 15.4614 10.7625 16.6093L14.9293 45.0557C15.0987 46.2032 15.7164 47.2366 16.6468 47.9293C17.5772 48.6219 18.7444 48.9173 19.8922 48.7504L40.9179 45.6706C42.0653 45.5012 43.0988 44.8835 43.7914 43.9531C44.4841 43.0227 44.7794 41.8556 44.6126 40.7077L40.9892 15.9717C40.9774 15.8905 40.9496 15.8124 40.9075 15.7419C40.8654 15.6714 40.8099 15.6099 40.7441 15.5609L32.2363 9.2271ZM32.7001 11.1308L38.7874 15.6625L36.5699 15.9874C35.75 16.1065 34.9163 15.8956 34.2517 15.4008C33.5871 14.9061 33.1459 14.1679 33.0249 13.3483L32.7001 11.1308ZM14.6384 12.8832L31.3352 10.4374L31.7881 13.5294C31.9575 14.6769 32.5752 15.7104 33.5056 16.403C34.436 17.0957 35.6032 17.391 36.751 17.2242L39.843 16.7712L42.3794 34.0865L15.1697 38.0721L11.9993 16.4281C11.8801 15.6082 12.0911 14.7745 12.5858 14.1099C13.0806 13.4454 13.8188 13.0042 14.6384 12.8832ZM40.7367 44.4338L19.7111 47.5136C18.8912 47.6328 18.0575 47.4219 17.3929 46.9271C16.7283 46.4323 16.2871 45.6942 16.1661 44.8745L15.3509 39.3089L42.5605 35.3233L43.3758 40.8889C43.4949 41.7088 43.284 42.5425 42.7892 43.207C42.2945 43.8716 41.5563 44.3128 40.7367 44.4338Z" fill="#D4088C"/>
<path d="M27.9001 38.734C27.7361 38.7581 27.5883 38.8463 27.4894 38.9792C27.3904 39.1122 27.3483 39.279 27.3723 39.443L27.9158 43.1534C27.9398 43.3174 27.8977 43.4843 27.7987 43.6172C27.6997 43.7502 27.552 43.8384 27.388 43.8624C27.224 43.8864 27.0571 43.8443 26.9242 43.7453C26.7912 43.6464 26.703 43.4986 26.679 43.3346C26.655 43.1706 26.5668 43.0228 26.4338 42.9238C26.3009 42.8249 26.134 42.7827 25.97 42.8068C25.806 42.8308 25.6582 42.919 25.5593 43.0519C25.4603 43.1849 25.4182 43.3517 25.4422 43.5158C25.5143 44.0078 25.7788 44.451 26.1777 44.748C26.5766 45.0449 27.0771 45.1713 27.5691 45.0992C28.0612 45.0271 28.5044 44.7626 28.8014 44.3637C29.0983 43.9648 29.2247 43.4643 29.1526 42.9723L28.6091 39.2619C28.5851 39.0978 28.4969 38.9501 28.3639 38.8511C28.231 38.7521 28.0641 38.71 27.9001 38.734Z" fill="#D4088C"/>
<path d="M31.7915 39.4274L33.0283 39.2462C33.1923 39.2222 33.3401 39.134 33.439 39.001C33.538 38.8681 33.5801 38.7013 33.5561 38.5372C33.5321 38.3732 33.4439 38.2255 33.3109 38.1265C33.178 38.0275 33.0111 37.9854 32.8471 38.0094L31.6103 38.1906C31.1183 38.2627 30.6751 38.5272 30.3781 38.9261C30.0811 39.325 29.9548 39.8255 30.0269 40.3175C30.0989 40.8096 30.3635 41.2528 30.7624 41.5498C31.1613 41.8467 31.6618 41.9731 32.1538 41.901C32.3178 41.877 32.4847 41.9191 32.6176 42.0181C32.7506 42.1171 32.8388 42.2648 32.8628 42.4288C32.8868 42.5928 32.8447 42.7597 32.7457 42.8926C32.6468 43.0256 32.499 43.1138 32.335 43.1378L31.0982 43.319C30.9342 43.343 30.7864 43.4312 30.6874 43.5641C30.5885 43.6971 30.5464 43.8639 30.5704 44.0279C30.5944 44.192 30.6826 44.3397 30.8156 44.4387C30.9485 44.5377 31.1154 44.5798 31.2794 44.5558L32.5162 44.3746C33.0082 44.3025 33.4514 44.0379 33.7484 43.6391C34.0454 43.2402 34.1717 42.7397 34.0996 42.2476C34.0275 41.7556 33.763 41.3124 33.3641 41.0154C32.9652 40.7185 32.4647 40.5921 31.9727 40.6642C31.8087 40.6882 31.6418 40.6461 31.5089 40.5471C31.3759 40.4481 31.2877 40.3004 31.2637 40.1364C31.2397 39.9724 31.2818 39.8055 31.3808 39.6726C31.4797 39.5396 31.6275 39.4514 31.7915 39.4274Z" fill="#D4088C"/>
<path d="M29.7986 25.8225C30.1401 25.7725 30.3764 25.455 30.3264 25.1135C30.2764 24.772 29.959 24.5357 29.6174 24.5857C29.2759 24.6357 29.0396 24.9531 29.0896 25.2947C29.1396 25.6362 29.4571 25.8725 29.7986 25.8225Z" fill="#D4088C"/>
<path d="M24.8516 26.5473C25.1931 26.4973 25.4294 26.1798 25.3794 25.8383C25.3294 25.4968 25.0119 25.2605 24.6704 25.3105C24.3289 25.3605 24.0926 25.6779 24.1426 26.0195C24.1926 26.361 24.51 26.5973 24.8516 26.5473Z" fill="#D4088C"/>
<path d="M27.3252 26.1849C27.6667 26.1349 27.903 25.8175 27.853 25.4759C27.803 25.1344 27.4856 24.8981 27.144 24.9481C26.8025 24.9981 26.5662 25.3156 26.6162 25.6571C26.6662 25.9986 26.9837 26.2349 27.3252 26.1849Z" fill="#D4088C"/>
<path d="M19.286 27.3625C19.4499 27.3386 19.6167 27.3808 19.7496 27.4798C19.8825 27.5787 19.9707 27.7264 19.9949 27.8903L20.3573 30.3639C20.4299 30.8557 20.6946 31.2985 21.0933 31.5954C21.4921 31.8922 21.9923 32.0188 22.4842 31.9473C22.6482 31.9233 22.796 31.8351 22.895 31.7022C22.994 31.5692 23.0361 31.4024 23.012 31.2384C22.988 31.0743 22.8998 30.9266 22.7669 30.8276C22.6339 30.7286 22.4671 30.6865 22.3031 30.7105C22.1391 30.7344 21.9723 30.6922 21.8394 30.5932C21.7065 30.4943 21.6183 30.3466 21.5941 30.1827L21.2317 27.7091C21.1653 27.2524 20.932 26.8365 20.577 26.5417C20.8326 26.1574 20.9367 25.6921 20.8694 25.2355L20.5071 22.7619C20.4832 22.5979 20.5254 22.4312 20.6244 22.2983C20.7233 22.1654 20.871 22.0771 21.0349 22.0529C21.1989 22.0289 21.3466 21.9407 21.4456 21.8078C21.5446 21.6748 21.5867 21.508 21.5627 21.3439C21.5387 21.1799 21.4505 21.0322 21.3175 20.9332C21.1846 20.8342 21.0177 20.7921 20.8537 20.8161C20.362 20.8887 19.9191 21.1535 19.6222 21.5522C19.3254 21.9509 19.1988 22.4511 19.2703 22.9431L19.6326 25.4167C19.6564 25.5807 19.6142 25.7474 19.5153 25.8803C19.4163 26.0132 19.2687 26.1015 19.1048 26.1257C18.9408 26.1497 18.793 26.2379 18.694 26.3708C18.5951 26.5038 18.5529 26.6706 18.577 26.8347C18.601 26.9987 18.6892 27.1464 18.8221 27.2454C18.9551 27.3444 19.1219 27.3865 19.286 27.3625Z" fill="#D4088C"/>
<path d="M33.9623 28.371C33.9861 28.535 33.9439 28.7018 33.8449 28.8347C33.746 28.9676 33.5984 29.0558 33.4344 29.08C33.2704 29.104 33.1227 29.1922 33.0237 29.3252C32.9247 29.4582 32.8826 29.625 32.9066 29.789C32.9306 29.953 33.0188 30.1008 33.1518 30.1997C33.2848 30.2987 33.4516 30.3408 33.6156 30.3168C34.1074 30.2442 34.5503 29.9795 34.8471 29.5807C35.144 29.182 35.2705 28.6818 35.1991 28.1899L34.8367 25.7163C34.8129 25.5523 34.8551 25.3855 34.954 25.2526C35.053 25.1197 35.2006 25.0315 35.3645 25.0073C35.5285 24.9833 35.6763 24.8951 35.7753 24.7621C35.8743 24.6291 35.9164 24.4623 35.8924 24.2983C35.8683 24.1343 35.7801 23.9865 35.6472 23.8875C35.5142 23.7886 35.3474 23.7465 35.1834 23.7705C35.0194 23.7943 34.8527 23.7521 34.7197 23.6532C34.5868 23.5542 34.4986 23.4066 34.4744 23.2427L34.1121 20.7691C34.0394 20.2773 33.7747 19.8344 33.376 19.5375C32.9772 19.2407 32.477 19.1141 31.9851 19.1856C31.8211 19.2096 31.6733 19.2978 31.5744 19.4308C31.4754 19.5637 31.4333 19.7306 31.4573 19.8946C31.4813 20.0586 31.5695 20.2063 31.7025 20.3053C31.8354 20.4043 32.0023 20.4464 32.1663 20.4224C32.3302 20.3986 32.497 20.4408 32.6299 20.5397C32.7628 20.6387 32.8511 20.7863 32.8753 20.9502L33.2376 23.4238C33.304 23.8805 33.5373 24.2964 33.8923 24.5913C33.6368 24.9756 33.5326 25.4409 33.5999 25.8974L33.9623 28.371Z" fill="#D4088C"/>
</g>
<defs>
<filter id="filter0_d" x="-5" y="-3.02899" width="65.375" height="65.375" filterUnits="userSpaceOnUse" color-interpolation-filters="sRGB">
<feFlood flood-opacity="0" result="BackgroundImageFix"/>
<feColorMatrix in="SourceAlpha" type="matrix" values="0 0 0 0 0 0 0 0 0 0 0 0 0 0 0 0 0 0 127 0"/>
<feOffset dy="1"/>
<feGaussianBlur stdDeviation="5"/>
<feColorMatrix type="matrix" values="0 0 0 0 0.954167 0 0 0 0 0.365764 0 0 0 0 0.746495 0 0 0 1 0"/>
<feBlend mode="normal" in2="BackgroundImageFix" result="effect1_dropShadow"/>
<feBlend mode="normal" in="SourceGraphic" in2="effect1_dropShadow" result="shape"/>
</filter>
<clipPath id="clip0">
<rect width="40" height="40" fill="white" transform="translate(5 11.7683) rotate(-8.33342)"/>
</clipPath>
</defs>
</svg>
