<svg width="212" height="152" viewBox="0 0 212 152" fill="none" xmlns="http://www.w3.org/2000/svg">
<rect width="50" height="50" rx="10" fill="#E9F1FF"/>
<path d="M2.565 71.128H6.48V87.22H15.822V91H2.565V71.128ZM19.2409 79.201H23.0209V91H19.2409V79.201ZM19.1599 75.016C19.1599 74.458 19.3759 73.999 19.8079 73.639C20.2579 73.279 20.7349 73.099 21.2389 73.099C21.7429 73.099 22.2019 73.279 22.6159 73.639C23.0479 73.999 23.2639 74.458 23.2639 75.016C23.2639 75.574 23.0479 76.033 22.6159 76.393C22.2019 76.735 21.7429 76.906 21.2389 76.906C20.7349 76.906 20.2579 76.735 19.8079 76.393C19.3759 76.033 19.1599 75.574 19.1599 75.016ZM30.3427 79.201L30.6127 81.091C31.0267 80.353 31.6117 79.759 32.3677 79.309C33.1237 78.859 34.0417 78.634 35.1217 78.634C36.2377 78.634 37.1647 78.967 37.9027 79.633C38.6587 80.281 39.0457 81.127 39.0637 82.171V91H35.2837V83.575C35.2657 83.053 35.1217 82.639 34.8517 82.333C34.5997 82.009 34.1677 81.847 33.5557 81.847C32.6737 81.847 31.9717 82.261 31.4497 83.089C30.9457 83.899 30.6937 84.934 30.6937 86.194V91H26.9137V79.201H30.3427ZM42.945 91V69.697H46.725V83.035L52.341 78.904L54.636 80.929L50.451 84.088L55.068 91H50.667L47.778 86.086L46.725 86.869V91H42.945ZM63.2256 91.324C61.7856 91.324 60.5616 91.054 59.5536 90.514C58.5636 89.974 57.8076 89.227 57.2856 88.273C56.7636 87.319 56.5026 86.221 56.5026 84.979C56.5026 83.791 56.8086 82.72 57.4206 81.766C58.0326 80.812 58.8516 80.056 59.8776 79.498C60.9036 78.922 62.0466 78.634 63.3066 78.634C64.9986 78.634 66.3846 79.129 67.4646 80.119C68.5626 81.091 69.2736 82.504 69.5976 84.358L60.9576 87.112C61.5336 87.778 62.3166 88.111 63.3066 88.111C63.7206 88.111 64.1166 88.039 64.4946 87.895C64.8906 87.751 65.2776 87.562 65.6556 87.328L67.3296 90.136C66.6996 90.496 66.0156 90.784 65.2776 91C64.5576 91.216 63.8736 91.324 63.2256 91.324ZM60.2286 84.763C60.2286 84.853 60.2286 84.934 60.2286 85.006L65.4126 83.251C65.2506 82.801 64.9896 82.414 64.6296 82.09C64.2696 81.748 63.7296 81.577 63.0096 81.577C62.1636 81.577 61.4886 81.865 60.9846 82.441C60.4806 83.017 60.2286 83.791 60.2286 84.763ZM77.1504 91.324C76.0524 91.324 75.0714 91.072 74.2074 90.568C73.3434 90.046 72.6594 89.299 72.1554 88.327C71.6694 87.355 71.4264 86.203 71.4264 84.871C71.4264 83.539 71.6964 82.405 72.2364 81.469C72.7764 80.533 73.5144 79.822 74.4504 79.336C75.3864 78.85 76.4484 78.607 77.6364 78.607C78.3924 78.607 79.1124 78.724 79.7964 78.958C80.4984 79.192 81.0834 79.552 81.5514 80.038V69.697H85.3044V91H81.5244V89.758C80.9484 90.208 80.3004 90.586 79.5804 90.892C78.8604 91.18 78.0504 91.324 77.1504 91.324ZM78.3924 88.138C79.1484 88.138 79.7784 87.994 80.2824 87.706C80.7864 87.4 81.2004 86.95 81.5244 86.356V83.467C81.3084 82.891 80.9214 82.432 80.3634 82.09C79.8054 81.748 79.1484 81.577 78.3924 81.577C77.8344 81.577 77.3124 81.721 76.8264 82.009C76.3584 82.279 75.9804 82.657 75.6924 83.143C75.4044 83.629 75.2604 84.187 75.2604 84.817C75.2604 85.447 75.4044 86.014 75.6924 86.518C75.9804 87.022 76.3584 87.418 76.8264 87.706C77.3124 87.994 77.8344 88.138 78.3924 88.138ZM89.814 71.128H93.729V91H89.814V71.128ZM101.666 79.201L101.936 81.091C102.35 80.353 102.935 79.759 103.691 79.309C104.447 78.859 105.365 78.634 106.445 78.634C107.561 78.634 108.488 78.967 109.226 79.633C109.982 80.281 110.369 81.127 110.387 82.171V91H106.607V83.575C106.589 83.053 106.445 82.639 106.175 82.333C105.923 82.009 105.491 81.847 104.879 81.847C103.997 81.847 103.295 82.261 102.773 83.089C102.269 83.899 102.017 84.934 102.017 86.194V91H98.237V79.201H101.666Z" fill="#394677"/>
<path d="M35.4167 10H14.5833C12.0567 10 10 12.0567 10 14.5833V35.4167C10 37.9433 12.0567 40 14.5833 40H35.4167C37.9433 40 40 37.9433 40 35.4167V14.5833C40 12.0567 37.9433 10 35.4167 10ZM20 33.3333C20 33.7942 19.6275 34.1667 19.1667 34.1667H16.6667C16.2058 34.1667 15.8333 33.7942 15.8333 33.3333V22.5C15.8333 22.0392 16.2058 21.6667 16.6667 21.6667H19.1667C19.6275 21.6667 20 22.0392 20 22.5V33.3333ZM17.9167 20C16.7658 20 15.8333 19.0675 15.8333 17.9167C15.8333 16.7658 16.7658 15.8333 17.9167 15.8333C19.0675 15.8333 20 16.7658 20 17.9167C20 19.0675 19.0675 20 17.9167 20ZM34.1667 33.3333C34.1667 33.7942 33.7942 34.1667 33.3333 34.1667H30.8333C30.3725 34.1667 30 33.7942 30 33.3333V27.0833C30 25.9342 29.0658 25 27.9167 25C26.7675 25 25.8333 25.9342 25.8333 27.0833V33.3333C25.8333 33.7942 25.4608 34.1667 25 34.1667H22.5C22.0392 34.1667 21.6667 33.7942 21.6667 33.3333V22.5C21.6667 22.0392 22.0392 21.6667 22.5 21.6667H25C25.4608 21.6667 25.8333 22.0392 25.8333 22.5V22.9508C26.7192 22.155 27.885 21.6667 29.1667 21.6667C31.9242 21.6667 34.1667 23.9092 34.1667 26.6667V33.3333Z" fill="#394677"/>
<path d="M17.808 113.04C17.8507 112.901 17.9253 112.8 18.032 112.736C18.1387 112.661 18.256 112.624 18.384 112.624C18.5547 112.624 18.6987 112.677 18.816 112.784C18.944 112.88 19.008 113.013 19.008 113.184C19.008 113.259 18.992 113.344 18.96 113.44L15.344 123.632C15.2907 123.781 15.2 123.899 15.072 123.984C14.944 124.059 14.8 124.096 14.64 124.096C14.4907 124.096 14.352 124.059 14.224 123.984C14.096 123.899 14.0053 123.781 13.952 123.632L10.816 114.768L7.648 123.632C7.59467 123.781 7.504 123.899 7.376 123.984C7.248 124.059 7.10933 124.096 6.96 124.096C6.81067 124.096 6.672 124.059 6.544 123.984C6.416 123.899 6.32533 123.781 6.272 123.632L2.64 113.44C2.608 113.355 2.592 113.275 2.592 113.2C2.592 113.029 2.656 112.891 2.784 112.784C2.92267 112.677 3.07733 112.624 3.248 112.624C3.376 112.624 3.49333 112.661 3.6 112.736C3.71733 112.8 3.79733 112.901 3.84 113.04L6.992 122.128L10.192 113.136C10.2453 112.976 10.3307 112.859 10.448 112.784C10.5653 112.699 10.6933 112.656 10.832 112.656C10.9707 112.656 11.0987 112.699 11.216 112.784C11.3333 112.869 11.4187 112.992 11.472 113.152L14.624 122.16L17.808 113.04ZM25.6204 116.016C26.5377 116.016 27.231 116.277 27.7004 116.8C28.1697 117.312 28.4044 118.08 28.4044 119.104V123.44C28.4044 123.643 28.3457 123.803 28.2284 123.92C28.111 124.027 27.9564 124.08 27.7644 124.08C27.5617 124.08 27.4017 124.027 27.2844 123.92C27.167 123.803 27.1084 123.643 27.1084 123.44V119.136C27.1084 118.443 26.9644 117.931 26.6764 117.6C26.399 117.269 25.951 117.104 25.3324 117.104C24.6177 117.104 24.047 117.323 23.6204 117.76C23.1937 118.197 22.9804 118.789 22.9804 119.536V123.44C22.9804 123.643 22.9217 123.803 22.8044 123.92C22.6977 124.027 22.543 124.08 22.3404 124.08C22.1377 124.08 21.9777 124.027 21.8604 123.92C21.743 123.803 21.6844 123.643 21.6844 123.44V113.264C21.6844 113.083 21.743 112.933 21.8604 112.816C21.9884 112.699 22.1484 112.64 22.3404 112.64C22.543 112.64 22.6977 112.699 22.8044 112.816C22.9217 112.923 22.9804 113.072 22.9804 113.264V117.456C23.2364 116.987 23.5937 116.629 24.0524 116.384C24.511 116.139 25.0337 116.016 25.6204 116.016ZM33.9621 116.016C35.9141 116.016 36.8901 117.04 36.8901 119.088V123.44C36.8901 123.632 36.8315 123.787 36.7141 123.904C36.6075 124.021 36.4581 124.08 36.2661 124.08C36.0741 124.08 35.9195 124.021 35.8021 123.904C35.6848 123.787 35.6261 123.632 35.6261 123.44V122.672C35.4235 123.131 35.1141 123.488 34.6981 123.744C34.2821 123.989 33.8021 124.112 33.2581 124.112C32.7568 124.112 32.2928 124.011 31.8661 123.808C31.4501 123.605 31.1195 123.323 30.8741 122.96C30.6288 122.597 30.5061 122.197 30.5061 121.76C30.5061 121.173 30.6555 120.72 30.9541 120.4C31.2528 120.069 31.7435 119.835 32.4261 119.696C33.1088 119.547 34.0581 119.472 35.2741 119.472H35.6261V118.944C35.6261 118.304 35.4928 117.835 35.2261 117.536C34.9701 117.237 34.5488 117.088 33.9621 117.088C33.2368 117.088 32.5008 117.285 31.7541 117.68C31.4661 117.861 31.2635 117.952 31.1461 117.952C31.0181 117.952 30.9115 117.904 30.8261 117.808C30.7408 117.712 30.6981 117.589 30.6981 117.44C30.6981 117.291 30.7408 117.163 30.8261 117.056C30.9221 116.939 31.0715 116.821 31.2741 116.704C31.6475 116.491 32.0688 116.325 32.5381 116.208C33.0181 116.08 33.4928 116.016 33.9621 116.016ZM33.4341 123.088C34.0741 123.088 34.5968 122.875 35.0021 122.448C35.4181 122.011 35.6261 121.451 35.6261 120.768V120.304H35.3381C34.3995 120.304 33.6848 120.347 33.1941 120.432C32.7035 120.507 32.3515 120.64 32.1381 120.832C31.9355 121.013 31.8341 121.285 31.8341 121.648C31.8341 122.064 31.9835 122.411 32.2821 122.688C32.5915 122.955 32.9755 123.088 33.4341 123.088ZM42.8625 123.056C43.2358 123.088 43.4225 123.259 43.4225 123.568C43.4225 123.749 43.3532 123.888 43.2145 123.984C43.0865 124.069 42.8892 124.101 42.6225 124.08L42.1905 124.048C41.3372 123.984 40.7078 123.728 40.3025 123.28C39.8972 122.832 39.6945 122.155 39.6945 121.248V117.232H38.6225C38.4412 117.232 38.2972 117.189 38.1905 117.104C38.0945 117.008 38.0465 116.885 38.0465 116.736C38.0465 116.576 38.0945 116.448 38.1905 116.352C38.2972 116.256 38.4412 116.208 38.6225 116.208H39.6945V114.4C39.6945 114.197 39.7532 114.043 39.8705 113.936C39.9878 113.819 40.1478 113.76 40.3505 113.76C40.5425 113.76 40.6972 113.819 40.8145 113.936C40.9318 114.043 40.9905 114.197 40.9905 114.4V116.208H42.7665C42.9372 116.208 43.0705 116.256 43.1665 116.352C43.2732 116.448 43.3265 116.576 43.3265 116.736C43.3265 116.885 43.2732 117.008 43.1665 117.104C43.0705 117.189 42.9372 117.232 42.7665 117.232H40.9905V121.312C40.9905 121.899 41.1078 122.325 41.3425 122.592C41.5878 122.848 41.9505 122.992 42.4305 123.024L42.8625 123.056ZM52.009 116.016C53.961 116.016 54.937 117.04 54.937 119.088V123.44C54.937 123.632 54.8783 123.787 54.761 123.904C54.6543 124.021 54.505 124.08 54.313 124.08C54.121 124.08 53.9663 124.021 53.849 123.904C53.7317 123.787 53.673 123.632 53.673 123.44V122.672C53.4703 123.131 53.161 123.488 52.745 123.744C52.329 123.989 51.849 124.112 51.305 124.112C50.8037 124.112 50.3397 124.011 49.913 123.808C49.497 123.605 49.1663 123.323 48.921 122.96C48.6757 122.597 48.553 122.197 48.553 121.76C48.553 121.173 48.7023 120.72 49.001 120.4C49.2997 120.069 49.7903 119.835 50.473 119.696C51.1557 119.547 52.105 119.472 53.321 119.472H53.673V118.944C53.673 118.304 53.5397 117.835 53.273 117.536C53.017 117.237 52.5957 117.088 52.009 117.088C51.2837 117.088 50.5477 117.285 49.801 117.68C49.513 117.861 49.3103 117.952 49.193 117.952C49.065 117.952 48.9583 117.904 48.873 117.808C48.7877 117.712 48.745 117.589 48.745 117.44C48.745 117.291 48.7877 117.163 48.873 117.056C48.969 116.939 49.1183 116.821 49.321 116.704C49.6943 116.491 50.1157 116.325 50.585 116.208C51.065 116.08 51.5397 116.016 52.009 116.016ZM51.481 123.088C52.121 123.088 52.6437 122.875 53.049 122.448C53.465 122.011 53.673 121.451 53.673 120.768V120.304H53.385C52.4463 120.304 51.7317 120.347 51.241 120.432C50.7503 120.507 50.3983 120.64 50.185 120.832C49.9823 121.013 49.881 121.285 49.881 121.648C49.881 122.064 50.0303 122.411 50.329 122.688C50.6383 122.955 51.0223 123.088 51.481 123.088ZM65.3544 116.016C66.037 116.016 66.6397 116.181 67.1624 116.512C67.685 116.843 68.0904 117.312 68.3784 117.92C68.6664 118.528 68.8104 119.232 68.8104 120.032C68.8104 120.843 68.6664 121.557 68.3784 122.176C68.0904 122.784 67.685 123.259 67.1624 123.6C66.6397 123.941 66.037 124.112 65.3544 124.112C64.7464 124.112 64.213 123.979 63.7544 123.712C63.3064 123.445 62.965 123.067 62.7304 122.576V123.44C62.7304 123.632 62.6717 123.787 62.5544 123.904C62.4477 124.021 62.293 124.08 62.0904 124.08C61.8877 124.08 61.7277 124.021 61.6104 123.904C61.493 123.787 61.4344 123.632 61.4344 123.44V113.264C61.4344 113.083 61.493 112.933 61.6104 112.816C61.7277 112.699 61.8877 112.64 62.0904 112.64C62.293 112.64 62.4477 112.699 62.5544 112.816C62.6717 112.923 62.7304 113.072 62.7304 113.264V117.552C62.965 117.061 63.3064 116.683 63.7544 116.416C64.213 116.149 64.7464 116.016 65.3544 116.016ZM65.0984 123.04C65.8557 123.04 66.4424 122.779 66.8584 122.256C67.2744 121.723 67.4824 120.981 67.4824 120.032C67.4824 119.104 67.2744 118.384 66.8584 117.872C66.4424 117.36 65.8557 117.104 65.0984 117.104C64.341 117.104 63.7544 117.36 63.3384 117.872C62.933 118.384 62.7304 119.115 62.7304 120.064C62.7304 121.013 62.933 121.749 63.3384 122.272C63.7544 122.784 64.341 123.04 65.0984 123.04ZM76.7789 122.192C76.8962 122.192 76.9975 122.24 77.0829 122.336C77.1682 122.432 77.2109 122.555 77.2109 122.704C77.2109 122.971 77.0242 123.216 76.6509 123.44C76.2669 123.664 75.8615 123.835 75.4349 123.952C75.0082 124.059 74.5922 124.112 74.1869 124.112C72.9815 124.112 72.0269 123.755 71.3229 123.04C70.6295 122.325 70.2829 121.339 70.2829 120.08C70.2829 119.28 70.4375 118.576 70.7469 117.968C71.0562 117.349 71.4882 116.869 72.0429 116.528C72.6082 116.187 73.2482 116.016 73.9629 116.016C74.9762 116.016 75.7815 116.347 76.3789 117.008C76.9762 117.669 77.2749 118.565 77.2749 119.696C77.2749 119.909 77.2322 120.064 77.1469 120.16C77.0615 120.256 76.9229 120.304 76.7309 120.304H71.5789C71.6749 122.139 72.5442 123.056 74.1869 123.056C74.6029 123.056 74.9602 123.003 75.2589 122.896C75.5575 122.779 75.8775 122.624 76.2189 122.432C76.4962 122.272 76.6829 122.192 76.7789 122.192ZM73.9789 117.024C73.2962 117.024 72.7469 117.237 72.3309 117.664C71.9255 118.091 71.6855 118.693 71.6109 119.472H76.1389C76.1175 118.683 75.9202 118.08 75.5469 117.664C75.1735 117.237 74.6509 117.024 73.9789 117.024ZM82.7375 123.056C83.1108 123.088 83.2975 123.259 83.2975 123.568C83.2975 123.749 83.2282 123.888 83.0895 123.984C82.9615 124.069 82.7642 124.101 82.4975 124.08L82.0655 124.048C81.2122 123.984 80.5828 123.728 80.1775 123.28C79.7722 122.832 79.5695 122.155 79.5695 121.248V117.232H78.4975C78.3162 117.232 78.1722 117.189 78.0655 117.104C77.9695 117.008 77.9215 116.885 77.9215 116.736C77.9215 116.576 77.9695 116.448 78.0655 116.352C78.1722 116.256 78.3162 116.208 78.4975 116.208H79.5695V114.4C79.5695 114.197 79.6282 114.043 79.7455 113.936C79.8628 113.819 80.0228 113.76 80.2255 113.76C80.4175 113.76 80.5722 113.819 80.6895 113.936C80.8068 114.043 80.8655 114.197 80.8655 114.4V116.208H82.6415C82.8122 116.208 82.9455 116.256 83.0415 116.352C83.1482 116.448 83.2015 116.576 83.2015 116.736C83.2015 116.885 83.1482 117.008 83.0415 117.104C82.9455 117.189 82.8122 117.232 82.6415 117.232H80.8655V121.312C80.8655 121.899 80.9828 122.325 81.2175 122.592C81.4628 122.848 81.8255 122.992 82.3055 123.024L82.7375 123.056ZM88.2219 123.056C88.5952 123.088 88.7819 123.259 88.7819 123.568C88.7819 123.749 88.7125 123.888 88.5739 123.984C88.4459 124.069 88.2485 124.101 87.9819 124.08L87.5499 124.048C86.6965 123.984 86.0672 123.728 85.6619 123.28C85.2565 122.832 85.0539 122.155 85.0539 121.248V117.232H83.9819C83.8005 117.232 83.6565 117.189 83.5499 117.104C83.4539 117.008 83.4059 116.885 83.4059 116.736C83.4059 116.576 83.4539 116.448 83.5499 116.352C83.6565 116.256 83.8005 116.208 83.9819 116.208H85.0539V114.4C85.0539 114.197 85.1125 114.043 85.2299 113.936C85.3472 113.819 85.5072 113.76 85.7099 113.76C85.9019 113.76 86.0565 113.819 86.1739 113.936C86.2912 114.043 86.3499 114.197 86.3499 114.4V116.208H88.1259C88.2965 116.208 88.4299 116.256 88.5259 116.352C88.6325 116.448 88.6859 116.576 88.6859 116.736C88.6859 116.885 88.6325 117.008 88.5259 117.104C88.4299 117.189 88.2965 117.232 88.1259 117.232H86.3499V121.312C86.3499 121.899 86.4672 122.325 86.7019 122.592C86.9472 122.848 87.3099 122.992 87.7899 123.024L88.2219 123.056ZM96.0914 122.192C96.2087 122.192 96.31 122.24 96.3954 122.336C96.4807 122.432 96.5234 122.555 96.5234 122.704C96.5234 122.971 96.3367 123.216 95.9634 123.44C95.5794 123.664 95.174 123.835 94.7474 123.952C94.3207 124.059 93.9047 124.112 93.4994 124.112C92.294 124.112 91.3394 123.755 90.6354 123.04C89.942 122.325 89.5954 121.339 89.5954 120.08C89.5954 119.28 89.75 118.576 90.0594 117.968C90.3687 117.349 90.8007 116.869 91.3554 116.528C91.9207 116.187 92.5607 116.016 93.2754 116.016C94.2887 116.016 95.094 116.347 95.6914 117.008C96.2887 117.669 96.5874 118.565 96.5874 119.696C96.5874 119.909 96.5447 120.064 96.4594 120.16C96.374 120.256 96.2354 120.304 96.0434 120.304H90.8914C90.9874 122.139 91.8567 123.056 93.4994 123.056C93.9154 123.056 94.2727 123.003 94.5714 122.896C94.87 122.779 95.19 122.624 95.5314 122.432C95.8087 122.272 95.9954 122.192 96.0914 122.192ZM93.2914 117.024C92.6087 117.024 92.0594 117.237 91.6434 117.664C91.238 118.091 90.998 118.693 90.9234 119.472H95.4514C95.43 118.683 95.2327 118.08 94.8594 117.664C94.486 117.237 93.9634 117.024 93.2914 117.024ZM102.353 116.048C102.801 116.016 103.025 116.197 103.025 116.592C103.025 116.763 102.977 116.901 102.881 117.008C102.785 117.104 102.62 117.163 102.385 117.184L101.905 117.232C101.19 117.296 100.657 117.552 100.305 118C99.9635 118.437 99.7929 118.955 99.7929 119.552V123.44C99.7929 123.653 99.7342 123.813 99.6169 123.92C99.4995 124.027 99.3449 124.08 99.1529 124.08C98.9609 124.08 98.8009 124.027 98.6729 123.92C98.5555 123.803 98.4969 123.643 98.4969 123.44V116.688C98.4969 116.485 98.5609 116.331 98.6889 116.224C98.8169 116.107 98.9715 116.048 99.1529 116.048C99.3235 116.048 99.4675 116.107 99.5849 116.224C99.7022 116.331 99.7609 116.48 99.7609 116.672V117.568C99.9849 117.099 100.3 116.741 100.705 116.496C101.121 116.251 101.596 116.107 102.129 116.064L102.353 116.048ZM112.183 116.016C112.865 116.016 113.468 116.187 113.991 116.528C114.513 116.869 114.919 117.349 115.207 117.968C115.495 118.576 115.639 119.285 115.639 120.096C115.639 120.907 115.495 121.616 115.207 122.224C114.919 122.821 114.513 123.285 113.991 123.616C113.479 123.947 112.876 124.112 112.183 124.112C111.575 124.112 111.041 123.979 110.583 123.712C110.135 123.445 109.793 123.067 109.559 122.576V126.336C109.559 126.528 109.5 126.677 109.383 126.784C109.276 126.901 109.121 126.96 108.919 126.96C108.716 126.96 108.556 126.901 108.439 126.784C108.321 126.667 108.263 126.517 108.263 126.336V116.688C108.263 116.496 108.321 116.341 108.439 116.224C108.556 116.107 108.716 116.048 108.919 116.048C109.121 116.048 109.276 116.107 109.383 116.224C109.5 116.341 109.559 116.496 109.559 116.688V117.552C109.793 117.061 110.135 116.683 110.583 116.416C111.041 116.149 111.575 116.016 112.183 116.016ZM111.927 123.04C112.684 123.04 113.271 122.784 113.687 122.272C114.103 121.76 114.311 121.035 114.311 120.096C114.311 119.157 114.103 118.427 113.687 117.904C113.271 117.371 112.684 117.104 111.927 117.104C111.169 117.104 110.583 117.36 110.167 117.872C109.761 118.384 109.559 119.115 109.559 120.064C109.559 121.013 109.761 121.749 110.167 122.272C110.583 122.784 111.169 123.04 111.927 123.04ZM118.231 124.08C118.039 124.08 117.879 124.027 117.751 123.92C117.634 123.803 117.575 123.643 117.575 123.44V113.28C117.575 113.077 117.634 112.923 117.751 112.816C117.879 112.699 118.039 112.64 118.231 112.64C118.412 112.64 118.562 112.699 118.679 112.816C118.807 112.923 118.871 113.077 118.871 113.28V123.44C118.871 123.643 118.807 123.803 118.679 123.92C118.562 124.027 118.412 124.08 118.231 124.08ZM124.478 116.016C126.43 116.016 127.406 117.04 127.406 119.088V123.44C127.406 123.632 127.347 123.787 127.23 123.904C127.123 124.021 126.974 124.08 126.782 124.08C126.59 124.08 126.435 124.021 126.318 123.904C126.2 123.787 126.142 123.632 126.142 123.44V122.672C125.939 123.131 125.63 123.488 125.214 123.744C124.798 123.989 124.318 124.112 123.774 124.112C123.272 124.112 122.808 124.011 122.382 123.808C121.966 123.605 121.635 123.323 121.39 122.96C121.144 122.597 121.022 122.197 121.022 121.76C121.022 121.173 121.171 120.72 121.47 120.4C121.768 120.069 122.259 119.835 122.942 119.696C123.624 119.547 124.574 119.472 125.79 119.472H126.142V118.944C126.142 118.304 126.008 117.835 125.742 117.536C125.486 117.237 125.064 117.088 124.478 117.088C123.752 117.088 123.016 117.285 122.27 117.68C121.982 117.861 121.779 117.952 121.662 117.952C121.534 117.952 121.427 117.904 121.342 117.808C121.256 117.712 121.214 117.589 121.214 117.44C121.214 117.291 121.256 117.163 121.342 117.056C121.438 116.939 121.587 116.821 121.79 116.704C122.163 116.491 122.584 116.325 123.054 116.208C123.534 116.08 124.008 116.016 124.478 116.016ZM123.95 123.088C124.59 123.088 125.112 122.875 125.518 122.448C125.934 122.011 126.142 121.451 126.142 120.768V120.304H125.854C124.915 120.304 124.2 120.347 123.71 120.432C123.219 120.507 122.867 120.64 122.654 120.832C122.451 121.013 122.35 121.285 122.35 121.648C122.35 122.064 122.499 122.411 122.798 122.688C123.107 122.955 123.491 123.088 123.95 123.088ZM132.994 124.112C132.269 124.112 131.623 123.947 131.058 123.616C130.503 123.285 130.071 122.816 129.762 122.208C129.463 121.6 129.314 120.896 129.314 120.096C129.314 119.296 129.469 118.587 129.778 117.968C130.098 117.349 130.541 116.869 131.106 116.528C131.671 116.187 132.322 116.016 133.058 116.016C133.463 116.016 133.863 116.075 134.258 116.192C134.663 116.299 135.015 116.459 135.314 116.672C135.506 116.8 135.639 116.928 135.714 117.056C135.799 117.173 135.842 117.307 135.842 117.456C135.842 117.605 135.799 117.728 135.714 117.824C135.639 117.92 135.538 117.968 135.41 117.968C135.335 117.968 135.255 117.947 135.17 117.904C135.085 117.861 135.01 117.819 134.946 117.776C134.893 117.733 134.855 117.707 134.834 117.696C134.557 117.515 134.29 117.371 134.034 117.264C133.789 117.157 133.485 117.104 133.122 117.104C132.343 117.104 131.735 117.371 131.298 117.904C130.871 118.427 130.658 119.157 130.658 120.096C130.658 121.035 130.871 121.76 131.298 122.272C131.735 122.784 132.343 123.04 133.122 123.04C133.485 123.04 133.794 122.987 134.05 122.88C134.317 122.773 134.583 122.629 134.85 122.448C134.967 122.373 135.079 122.309 135.186 122.256C135.293 122.203 135.383 122.176 135.458 122.176C135.575 122.176 135.671 122.224 135.746 122.32C135.831 122.416 135.874 122.539 135.874 122.688C135.874 122.827 135.837 122.955 135.762 123.072C135.687 123.179 135.549 123.301 135.346 123.44C135.047 123.643 134.685 123.808 134.258 123.936C133.842 124.053 133.421 124.112 132.994 124.112ZM143.466 122.192C143.584 122.192 143.685 122.24 143.77 122.336C143.856 122.432 143.898 122.555 143.898 122.704C143.898 122.971 143.712 123.216 143.338 123.44C142.954 123.664 142.549 123.835 142.122 123.952C141.696 124.059 141.28 124.112 140.874 124.112C139.669 124.112 138.714 123.755 138.01 123.04C137.317 122.325 136.97 121.339 136.97 120.08C136.97 119.28 137.125 118.576 137.434 117.968C137.744 117.349 138.176 116.869 138.73 116.528C139.296 116.187 139.936 116.016 140.65 116.016C141.664 116.016 142.469 116.347 143.066 117.008C143.664 117.669 143.962 118.565 143.962 119.696C143.962 119.909 143.92 120.064 143.834 120.16C143.749 120.256 143.61 120.304 143.418 120.304H138.266C138.362 122.139 139.232 123.056 140.874 123.056C141.29 123.056 141.648 123.003 141.946 122.896C142.245 122.779 142.565 122.624 142.906 122.432C143.184 122.272 143.37 122.192 143.466 122.192ZM140.666 117.024C139.984 117.024 139.434 117.237 139.018 117.664C138.613 118.091 138.373 118.693 138.298 119.472H142.826C142.805 118.683 142.608 118.08 142.234 117.664C141.861 117.237 141.338 117.024 140.666 117.024ZM153.597 123.056C153.97 123.088 154.157 123.259 154.157 123.568C154.157 123.749 154.088 123.888 153.949 123.984C153.821 124.069 153.624 124.101 153.357 124.08L152.925 124.048C152.072 123.984 151.442 123.728 151.037 123.28C150.632 122.832 150.429 122.155 150.429 121.248V117.232H149.357C149.176 117.232 149.032 117.189 148.925 117.104C148.829 117.008 148.781 116.885 148.781 116.736C148.781 116.576 148.829 116.448 148.925 116.352C149.032 116.256 149.176 116.208 149.357 116.208H150.429V114.4C150.429 114.197 150.488 114.043 150.605 113.936C150.722 113.819 150.882 113.76 151.085 113.76C151.277 113.76 151.432 113.819 151.549 113.936C151.666 114.043 151.725 114.197 151.725 114.4V116.208H153.501C153.672 116.208 153.805 116.256 153.901 116.352C154.008 116.448 154.061 116.576 154.061 116.736C154.061 116.885 154.008 117.008 153.901 117.104C153.805 117.189 153.672 117.232 153.501 117.232H151.725V121.312C151.725 121.899 151.842 122.325 152.077 122.592C152.322 122.848 152.685 122.992 153.165 123.024L153.597 123.056ZM158.666 124.112C157.93 124.112 157.28 123.947 156.714 123.616C156.16 123.285 155.728 122.816 155.418 122.208C155.12 121.589 154.97 120.875 154.97 120.064C154.97 119.253 155.12 118.544 155.418 117.936C155.728 117.317 156.16 116.843 156.714 116.512C157.28 116.181 157.93 116.016 158.666 116.016C159.402 116.016 160.053 116.181 160.618 116.512C161.184 116.843 161.616 117.317 161.914 117.936C162.224 118.544 162.378 119.253 162.378 120.064C162.378 120.875 162.224 121.589 161.914 122.208C161.616 122.816 161.184 123.285 160.618 123.616C160.053 123.947 159.402 124.112 158.666 124.112ZM158.666 123.04C159.434 123.04 160.021 122.789 160.426 122.288C160.842 121.776 161.05 121.035 161.05 120.064C161.05 119.115 160.842 118.384 160.426 117.872C160.01 117.349 159.424 117.088 158.666 117.088C157.909 117.088 157.322 117.349 156.906 117.872C156.49 118.384 156.282 119.115 156.282 120.064C156.282 121.024 156.485 121.76 156.89 122.272C157.306 122.784 157.898 123.04 158.666 123.04ZM172.37 116.016C173.288 116.016 173.981 116.277 174.45 116.8C174.92 117.312 175.154 118.08 175.154 119.104V123.44C175.154 123.643 175.096 123.803 174.978 123.92C174.861 124.027 174.706 124.08 174.514 124.08C174.312 124.08 174.152 124.027 174.034 123.92C173.917 123.803 173.858 123.643 173.858 123.44V119.136C173.858 118.443 173.714 117.931 173.426 117.6C173.149 117.269 172.701 117.104 172.082 117.104C171.368 117.104 170.797 117.323 170.37 117.76C169.944 118.197 169.73 118.789 169.73 119.536V123.44C169.73 123.643 169.672 123.803 169.554 123.92C169.448 124.027 169.293 124.08 169.09 124.08C168.888 124.08 168.728 124.027 168.61 123.92C168.493 123.803 168.434 123.643 168.434 123.44V113.264C168.434 113.083 168.493 112.933 168.61 112.816C168.738 112.699 168.898 112.64 169.09 112.64C169.293 112.64 169.448 112.699 169.554 112.816C169.672 112.923 169.73 113.072 169.73 113.264V117.456C169.986 116.987 170.344 116.629 170.802 116.384C171.261 116.139 171.784 116.016 172.37 116.016ZM180.712 116.016C182.664 116.016 183.64 117.04 183.64 119.088V123.44C183.64 123.632 183.581 123.787 183.464 123.904C183.357 124.021 183.208 124.08 183.016 124.08C182.824 124.08 182.669 124.021 182.552 123.904C182.435 123.787 182.376 123.632 182.376 123.44V122.672C182.173 123.131 181.864 123.488 181.448 123.744C181.032 123.989 180.552 124.112 180.008 124.112C179.507 124.112 179.043 124.011 178.616 123.808C178.2 123.605 177.869 123.323 177.624 122.96C177.379 122.597 177.256 122.197 177.256 121.76C177.256 121.173 177.405 120.72 177.704 120.4C178.003 120.069 178.493 119.835 179.176 119.696C179.859 119.547 180.808 119.472 182.024 119.472H182.376V118.944C182.376 118.304 182.243 117.835 181.976 117.536C181.72 117.237 181.299 117.088 180.712 117.088C179.987 117.088 179.251 117.285 178.504 117.68C178.216 117.861 178.013 117.952 177.896 117.952C177.768 117.952 177.661 117.904 177.576 117.808C177.491 117.712 177.448 117.589 177.448 117.44C177.448 117.291 177.491 117.163 177.576 117.056C177.672 116.939 177.821 116.821 178.024 116.704C178.397 116.491 178.819 116.325 179.288 116.208C179.768 116.08 180.243 116.016 180.712 116.016ZM180.184 123.088C180.824 123.088 181.347 122.875 181.752 122.448C182.168 122.011 182.376 121.451 182.376 120.768V120.304H182.088C181.149 120.304 180.435 120.347 179.944 120.432C179.453 120.507 179.101 120.64 178.888 120.832C178.685 121.013 178.584 121.285 178.584 121.648C178.584 122.064 178.733 122.411 179.032 122.688C179.341 122.955 179.725 123.088 180.184 123.088ZM191.629 116.448C191.746 116.192 191.933 116.064 192.189 116.064C192.349 116.064 192.493 116.117 192.621 116.224C192.749 116.331 192.812 116.464 192.812 116.624C192.812 116.72 192.791 116.805 192.749 116.88L189.629 123.6C189.565 123.739 189.469 123.851 189.341 123.936C189.213 124.011 189.074 124.048 188.924 124.048C188.786 124.048 188.653 124.011 188.525 123.936C188.397 123.851 188.295 123.739 188.221 123.6L185.117 116.88C185.074 116.805 185.053 116.725 185.053 116.64C185.053 116.48 185.122 116.341 185.261 116.224C185.41 116.107 185.57 116.048 185.741 116.048C185.847 116.048 185.949 116.08 186.045 116.144C186.151 116.208 186.231 116.299 186.285 116.416L188.957 122.416L191.629 116.448ZM200.17 122.192C200.287 122.192 200.388 122.24 200.474 122.336C200.559 122.432 200.602 122.555 200.602 122.704C200.602 122.971 200.415 123.216 200.042 123.44C199.658 123.664 199.252 123.835 198.826 123.952C198.399 124.059 197.983 124.112 197.578 124.112C196.372 124.112 195.418 123.755 194.714 123.04C194.02 122.325 193.674 121.339 193.674 120.08C193.674 119.28 193.828 118.576 194.138 117.968C194.447 117.349 194.879 116.869 195.434 116.528C195.999 116.187 196.639 116.016 197.354 116.016C198.367 116.016 199.172 116.347 199.77 117.008C200.367 117.669 200.666 118.565 200.666 119.696C200.666 119.909 200.623 120.064 200.538 120.16C200.452 120.256 200.314 120.304 200.122 120.304H194.97C195.066 122.139 195.935 123.056 197.578 123.056C197.994 123.056 198.351 123.003 198.65 122.896C198.948 122.779 199.268 122.624 199.61 122.432C199.887 122.272 200.074 122.192 200.17 122.192ZM197.37 117.024C196.687 117.024 196.138 117.237 195.722 117.664C195.316 118.091 195.076 118.693 195.002 119.472H199.53C199.508 118.683 199.311 118.08 198.938 117.664C198.564 117.237 198.042 117.024 197.37 117.024ZM6.384 138.016C8.336 138.016 9.312 139.04 9.312 141.088V145.44C9.312 145.632 9.25333 145.787 9.136 145.904C9.02933 146.021 8.88 146.08 8.688 146.08C8.496 146.08 8.34133 146.021 8.224 145.904C8.10667 145.787 8.048 145.632 8.048 145.44V144.672C7.84533 145.131 7.536 145.488 7.12 145.744C6.704 145.989 6.224 146.112 5.68 146.112C5.17867 146.112 4.71467 146.011 4.288 145.808C3.872 145.605 3.54133 145.323 3.296 144.96C3.05067 144.597 2.928 144.197 2.928 143.76C2.928 143.173 3.07733 142.72 3.376 142.4C3.67467 142.069 4.16533 141.835 4.848 141.696C5.53067 141.547 6.48 141.472 7.696 141.472H8.048V140.944C8.048 140.304 7.91467 139.835 7.648 139.536C7.392 139.237 6.97067 139.088 6.384 139.088C5.65867 139.088 4.92267 139.285 4.176 139.68C3.888 139.861 3.68533 139.952 3.568 139.952C3.44 139.952 3.33333 139.904 3.248 139.808C3.16267 139.712 3.12 139.589 3.12 139.44C3.12 139.291 3.16267 139.163 3.248 139.056C3.344 138.939 3.49333 138.821 3.696 138.704C4.06933 138.491 4.49067 138.325 4.96 138.208C5.44 138.08 5.91467 138.016 6.384 138.016ZM5.856 145.088C6.496 145.088 7.01867 144.875 7.424 144.448C7.84 144.011 8.048 143.451 8.048 142.768V142.304H7.76C6.82133 142.304 6.10667 142.347 5.616 142.432C5.12533 142.507 4.77333 142.64 4.56 142.832C4.35733 143.013 4.256 143.285 4.256 143.648C4.256 144.064 4.40533 144.411 4.704 144.688C5.01333 144.955 5.39733 145.088 5.856 145.088ZM19.0254 146.112C18.3 146.112 17.6547 145.947 17.0894 145.616C16.5347 145.285 16.1027 144.816 15.7934 144.208C15.4947 143.6 15.3454 142.896 15.3454 142.096C15.3454 141.296 15.5 140.587 15.8094 139.968C16.1294 139.349 16.572 138.869 17.1374 138.528C17.7027 138.187 18.3534 138.016 19.0894 138.016C19.4947 138.016 19.8947 138.075 20.2894 138.192C20.6947 138.299 21.0467 138.459 21.3454 138.672C21.5374 138.8 21.6707 138.928 21.7454 139.056C21.8307 139.173 21.8734 139.307 21.8734 139.456C21.8734 139.605 21.8307 139.728 21.7454 139.824C21.6707 139.92 21.5694 139.968 21.4414 139.968C21.3667 139.968 21.2867 139.947 21.2014 139.904C21.116 139.861 21.0414 139.819 20.9774 139.776C20.924 139.733 20.8867 139.707 20.8654 139.696C20.588 139.515 20.3214 139.371 20.0654 139.264C19.82 139.157 19.516 139.104 19.1534 139.104C18.3747 139.104 17.7667 139.371 17.3294 139.904C16.9027 140.427 16.6894 141.157 16.6894 142.096C16.6894 143.035 16.9027 143.76 17.3294 144.272C17.7667 144.784 18.3747 145.04 19.1534 145.04C19.516 145.04 19.8254 144.987 20.0814 144.88C20.348 144.773 20.6147 144.629 20.8814 144.448C20.9987 144.373 21.1107 144.309 21.2174 144.256C21.324 144.203 21.4147 144.176 21.4894 144.176C21.6067 144.176 21.7027 144.224 21.7774 144.32C21.8627 144.416 21.9054 144.539 21.9054 144.688C21.9054 144.827 21.868 144.955 21.7934 145.072C21.7187 145.179 21.58 145.301 21.3774 145.44C21.0787 145.643 20.716 145.808 20.2894 145.936C19.8734 146.053 19.452 146.112 19.0254 146.112ZM27.4016 138.016C28.319 138.016 29.0123 138.277 29.4816 138.8C29.951 139.312 30.1856 140.08 30.1856 141.104V145.44C30.1856 145.643 30.127 145.803 30.0096 145.92C29.8923 146.027 29.7376 146.08 29.5456 146.08C29.343 146.08 29.183 146.027 29.0656 145.92C28.9483 145.803 28.8896 145.643 28.8896 145.44V141.136C28.8896 140.443 28.7456 139.931 28.4576 139.6C28.1803 139.269 27.7323 139.104 27.1136 139.104C26.399 139.104 25.8283 139.323 25.4016 139.76C24.975 140.197 24.7616 140.789 24.7616 141.536V145.44C24.7616 145.643 24.703 145.803 24.5856 145.92C24.479 146.027 24.3243 146.08 24.1216 146.08C23.919 146.08 23.759 146.027 23.6416 145.92C23.5243 145.803 23.4656 145.643 23.4656 145.44V135.264C23.4656 135.083 23.5243 134.933 23.6416 134.816C23.7696 134.699 23.9296 134.64 24.1216 134.64C24.3243 134.64 24.479 134.699 24.5856 134.816C24.703 134.923 24.7616 135.072 24.7616 135.264V139.456C25.0176 138.987 25.375 138.629 25.8336 138.384C26.2923 138.139 26.815 138.016 27.4016 138.016ZM35.7434 138.016C37.6954 138.016 38.6714 139.04 38.6714 141.088V145.44C38.6714 145.632 38.6127 145.787 38.4954 145.904C38.3887 146.021 38.2394 146.08 38.0474 146.08C37.8554 146.08 37.7007 146.021 37.5834 145.904C37.466 145.787 37.4074 145.632 37.4074 145.44V144.672C37.2047 145.131 36.8954 145.488 36.4794 145.744C36.0634 145.989 35.5834 146.112 35.0394 146.112C34.538 146.112 34.074 146.011 33.6474 145.808C33.2314 145.605 32.9007 145.323 32.6554 144.96C32.41 144.597 32.2874 144.197 32.2874 143.76C32.2874 143.173 32.4367 142.72 32.7354 142.4C33.034 142.069 33.5247 141.835 34.2074 141.696C34.89 141.547 35.8394 141.472 37.0554 141.472H37.4074V140.944C37.4074 140.304 37.274 139.835 37.0074 139.536C36.7514 139.237 36.33 139.088 35.7434 139.088C35.018 139.088 34.282 139.285 33.5354 139.68C33.2474 139.861 33.0447 139.952 32.9274 139.952C32.7994 139.952 32.6927 139.904 32.6074 139.808C32.522 139.712 32.4794 139.589 32.4794 139.44C32.4794 139.291 32.522 139.163 32.6074 139.056C32.7034 138.939 32.8527 138.821 33.0554 138.704C33.4287 138.491 33.85 138.325 34.3194 138.208C34.7994 138.08 35.274 138.016 35.7434 138.016ZM35.2154 145.088C35.8554 145.088 36.378 144.875 36.7834 144.448C37.1994 144.011 37.4074 143.451 37.4074 142.768V142.304H37.1194C36.1807 142.304 35.466 142.347 34.9754 142.432C34.4847 142.507 34.1327 142.64 33.9194 142.832C33.7167 143.013 33.6154 143.285 33.6154 143.648C33.6154 144.064 33.7647 144.411 34.0634 144.688C34.3727 144.955 34.7567 145.088 35.2154 145.088ZM44.6438 145.056C45.0171 145.088 45.2038 145.259 45.2038 145.568C45.2038 145.749 45.1344 145.888 44.9958 145.984C44.8678 146.069 44.6704 146.101 44.4038 146.08L43.9718 146.048C43.1184 145.984 42.4891 145.728 42.0838 145.28C41.6784 144.832 41.4758 144.155 41.4758 143.248V139.232H40.4038C40.2224 139.232 40.0784 139.189 39.9718 139.104C39.8758 139.008 39.8277 138.885 39.8277 138.736C39.8277 138.576 39.8758 138.448 39.9718 138.352C40.0784 138.256 40.2224 138.208 40.4038 138.208H41.4758V136.4C41.4758 136.197 41.5344 136.043 41.6518 135.936C41.7691 135.819 41.9291 135.76 42.1318 135.76C42.3238 135.76 42.4784 135.819 42.5958 135.936C42.7131 136.043 42.7718 136.197 42.7718 136.4V138.208H44.5477C44.7184 138.208 44.8518 138.256 44.9478 138.352C45.0544 138.448 45.1078 138.576 45.1078 138.736C45.1078 138.885 45.0544 139.008 44.9478 139.104C44.8518 139.189 44.7184 139.232 44.5477 139.232H42.7718V143.312C42.7718 143.899 42.8891 144.325 43.1238 144.592C43.3691 144.848 43.7318 144.992 44.2118 145.024L44.6438 145.056ZM54.5263 138.016C55.2089 138.016 55.8116 138.187 56.3343 138.528C56.8569 138.869 57.2623 139.349 57.5503 139.968C57.8383 140.576 57.9823 141.285 57.9823 142.096C57.9823 142.907 57.8383 143.616 57.5503 144.224C57.2623 144.821 56.8569 145.285 56.3343 145.616C55.8223 145.947 55.2196 146.112 54.5263 146.112C53.9183 146.112 53.3849 145.979 52.9263 145.712C52.4783 145.445 52.1369 145.067 51.9023 144.576V148.336C51.9023 148.528 51.8436 148.677 51.7263 148.784C51.6196 148.901 51.4649 148.96 51.2623 148.96C51.0596 148.96 50.8996 148.901 50.7823 148.784C50.6649 148.667 50.6063 148.517 50.6063 148.336V138.688C50.6063 138.496 50.6649 138.341 50.7823 138.224C50.8996 138.107 51.0596 138.048 51.2623 138.048C51.4649 138.048 51.6196 138.107 51.7263 138.224C51.8436 138.341 51.9023 138.496 51.9023 138.688V139.552C52.1369 139.061 52.4783 138.683 52.9263 138.416C53.3849 138.149 53.9183 138.016 54.5263 138.016ZM54.2703 145.04C55.0276 145.04 55.6143 144.784 56.0303 144.272C56.4463 143.76 56.6543 143.035 56.6543 142.096C56.6543 141.157 56.4463 140.427 56.0303 139.904C55.6143 139.371 55.0276 139.104 54.2703 139.104C53.5129 139.104 52.9263 139.36 52.5103 139.872C52.1049 140.384 51.9023 141.115 51.9023 142.064C51.9023 143.013 52.1049 143.749 52.5103 144.272C52.9263 144.784 53.5129 145.04 54.2703 145.04ZM63.7748 138.048C64.2228 138.016 64.4468 138.197 64.4468 138.592C64.4468 138.763 64.3988 138.901 64.3028 139.008C64.2068 139.104 64.0414 139.163 63.8068 139.184L63.3268 139.232C62.6121 139.296 62.0788 139.552 61.7268 140C61.3854 140.437 61.2148 140.955 61.2148 141.552V145.44C61.2148 145.653 61.1561 145.813 61.0388 145.92C60.9214 146.027 60.7668 146.08 60.5748 146.08C60.3828 146.08 60.2228 146.027 60.0948 145.92C59.9774 145.803 59.9188 145.643 59.9188 145.44V138.688C59.9188 138.485 59.9828 138.331 60.1108 138.224C60.2388 138.107 60.3934 138.048 60.5748 138.048C60.7454 138.048 60.8894 138.107 61.0068 138.224C61.1241 138.331 61.1828 138.48 61.1828 138.672V139.568C61.4068 139.099 61.7214 138.741 62.1268 138.496C62.5428 138.251 63.0174 138.107 63.5508 138.064L63.7748 138.048ZM68.6351 146.112C67.8991 146.112 67.2485 145.947 66.6831 145.616C66.1285 145.285 65.6965 144.816 65.3871 144.208C65.0885 143.589 64.9391 142.875 64.9391 142.064C64.9391 141.253 65.0885 140.544 65.3871 139.936C65.6965 139.317 66.1285 138.843 66.6831 138.512C67.2485 138.181 67.8991 138.016 68.6351 138.016C69.3711 138.016 70.0218 138.181 70.5871 138.512C71.1525 138.843 71.5845 139.317 71.8831 139.936C72.1925 140.544 72.3471 141.253 72.3471 142.064C72.3471 142.875 72.1925 143.589 71.8831 144.208C71.5845 144.816 71.1525 145.285 70.5871 145.616C70.0218 145.947 69.3711 146.112 68.6351 146.112ZM68.6351 145.04C69.4031 145.04 69.9898 144.789 70.3951 144.288C70.8111 143.776 71.0191 143.035 71.0191 142.064C71.0191 141.115 70.8111 140.384 70.3951 139.872C69.9791 139.349 69.3925 139.088 68.6351 139.088C67.8778 139.088 67.2911 139.349 66.8751 139.872C66.4591 140.384 66.2511 141.115 66.2511 142.064C66.2511 143.024 66.4538 143.76 66.8591 144.272C67.2751 144.784 67.8671 145.04 68.6351 145.04ZM77.7025 135.744C77.1372 135.787 76.7105 135.968 76.4225 136.288C76.1345 136.597 75.9905 137.067 75.9905 137.696V138.208H77.7665C77.9478 138.208 78.0865 138.256 78.1825 138.352C78.2785 138.448 78.3265 138.576 78.3265 138.736C78.3265 138.896 78.2785 139.019 78.1825 139.104C78.0865 139.189 77.9478 139.232 77.7665 139.232H75.9905V145.44C75.9905 145.643 75.9265 145.803 75.7985 145.92C75.6812 146.027 75.5318 146.08 75.3505 146.08C75.1585 146.08 74.9985 146.027 74.8705 145.92C74.7532 145.803 74.6945 145.643 74.6945 145.44V139.232H73.6225C73.4412 139.232 73.2972 139.189 73.1905 139.104C73.0945 139.008 73.0465 138.885 73.0465 138.736C73.0465 138.576 73.0945 138.448 73.1905 138.352C73.2972 138.256 73.4412 138.208 73.6225 138.208H74.6945V137.92C74.6945 136.96 74.9345 136.208 75.4145 135.664C75.8945 135.109 76.5825 134.8 77.4785 134.736L77.8945 134.704C78.1718 134.683 78.3692 134.709 78.4865 134.784C78.6145 134.859 78.6785 134.992 78.6785 135.184C78.6785 135.493 78.4918 135.669 78.1185 135.712L77.7025 135.744ZM85.4664 144.192C85.5837 144.192 85.685 144.24 85.7704 144.336C85.8557 144.432 85.8984 144.555 85.8984 144.704C85.8984 144.971 85.7117 145.216 85.3384 145.44C84.9544 145.664 84.549 145.835 84.1224 145.952C83.6957 146.059 83.2797 146.112 82.8744 146.112C81.669 146.112 80.7144 145.755 80.0104 145.04C79.317 144.325 78.9704 143.339 78.9704 142.08C78.9704 141.28 79.125 140.576 79.4344 139.968C79.7437 139.349 80.1757 138.869 80.7304 138.528C81.2957 138.187 81.9357 138.016 82.6504 138.016C83.6637 138.016 84.469 138.347 85.0664 139.008C85.6637 139.669 85.9624 140.565 85.9624 141.696C85.9624 141.909 85.9197 142.064 85.8344 142.16C85.749 142.256 85.6104 142.304 85.4184 142.304H80.2664C80.3624 144.139 81.2317 145.056 82.8744 145.056C83.2904 145.056 83.6477 145.003 83.9464 144.896C84.245 144.779 84.565 144.624 84.9064 144.432C85.1837 144.272 85.3704 144.192 85.4664 144.192ZM82.6664 139.024C81.9837 139.024 81.4344 139.237 81.0184 139.664C80.613 140.091 80.373 140.693 80.2984 141.472H84.8264C84.805 140.683 84.6077 140.08 84.2344 139.664C83.861 139.237 83.3384 139.024 82.6664 139.024ZM90.4959 146.112C90.0052 146.112 89.5359 146.053 89.0879 145.936C88.6505 145.819 88.2612 145.653 87.9199 145.44C87.7279 145.312 87.5892 145.195 87.5039 145.088C87.4292 144.971 87.3919 144.832 87.3919 144.672C87.3919 144.533 87.4292 144.421 87.5039 144.336C87.5892 144.24 87.6959 144.192 87.8239 144.192C87.9519 144.192 88.1385 144.272 88.3839 144.432C88.7039 144.624 89.0185 144.779 89.3279 144.896C89.6479 145.003 90.0425 145.056 90.5119 145.056C91.0879 145.056 91.5359 144.955 91.8559 144.752C92.1759 144.549 92.3359 144.256 92.3359 143.872C92.3359 143.637 92.2772 143.451 92.1599 143.312C92.0425 143.163 91.8399 143.035 91.5519 142.928C91.2639 142.811 90.8425 142.693 90.2879 142.576C89.3492 142.373 88.6772 142.101 88.2719 141.76C87.8665 141.419 87.6639 140.955 87.6639 140.368C87.6639 139.909 87.7919 139.504 88.0479 139.152C88.3039 138.8 88.6559 138.523 89.1039 138.32C89.5625 138.117 90.0799 138.016 90.6559 138.016C91.0719 138.016 91.4719 138.075 91.8559 138.192C92.2505 138.299 92.5972 138.453 92.8959 138.656C93.2585 138.912 93.4399 139.179 93.4399 139.456C93.4399 139.595 93.3972 139.712 93.3119 139.808C93.2265 139.904 93.1252 139.952 93.0079 139.952C92.8799 139.952 92.6879 139.861 92.4319 139.68C92.1332 139.488 91.8505 139.339 91.5839 139.232C91.3172 139.125 90.9865 139.072 90.5919 139.072C90.0905 139.072 89.6852 139.184 89.3759 139.408C89.0772 139.632 88.9279 139.931 88.9279 140.304C88.9279 140.539 88.9812 140.731 89.0879 140.88C89.2052 141.019 89.3919 141.147 89.6479 141.264C89.9145 141.371 90.2932 141.477 90.7839 141.584C91.5092 141.744 92.0692 141.92 92.4639 142.112C92.8692 142.304 93.1572 142.539 93.3279 142.816C93.4985 143.093 93.5839 143.445 93.5839 143.872C93.5839 144.544 93.3012 145.088 92.7359 145.504C92.1705 145.909 91.4239 146.112 90.4959 146.112ZM98.1834 146.112C97.6927 146.112 97.2234 146.053 96.7754 145.936C96.338 145.819 95.9487 145.653 95.6074 145.44C95.4154 145.312 95.2767 145.195 95.1914 145.088C95.1167 144.971 95.0794 144.832 95.0794 144.672C95.0794 144.533 95.1167 144.421 95.1914 144.336C95.2767 144.24 95.3834 144.192 95.5114 144.192C95.6394 144.192 95.826 144.272 96.0714 144.432C96.3914 144.624 96.706 144.779 97.0154 144.896C97.3354 145.003 97.73 145.056 98.1994 145.056C98.7754 145.056 99.2234 144.955 99.5434 144.752C99.8634 144.549 100.023 144.256 100.023 143.872C100.023 143.637 99.9647 143.451 99.8474 143.312C99.73 143.163 99.5274 143.035 99.2394 142.928C98.9514 142.811 98.53 142.693 97.9754 142.576C97.0367 142.373 96.3647 142.101 95.9594 141.76C95.554 141.419 95.3514 140.955 95.3514 140.368C95.3514 139.909 95.4794 139.504 95.7354 139.152C95.9914 138.8 96.3434 138.523 96.7914 138.32C97.25 138.117 97.7674 138.016 98.3434 138.016C98.7594 138.016 99.1594 138.075 99.5434 138.192C99.938 138.299 100.285 138.453 100.583 138.656C100.946 138.912 101.127 139.179 101.127 139.456C101.127 139.595 101.085 139.712 100.999 139.808C100.914 139.904 100.813 139.952 100.695 139.952C100.567 139.952 100.375 139.861 100.119 139.68C99.8207 139.488 99.538 139.339 99.2714 139.232C99.0047 139.125 98.674 139.072 98.2794 139.072C97.778 139.072 97.3727 139.184 97.0634 139.408C96.7647 139.632 96.6154 139.931 96.6154 140.304C96.6154 140.539 96.6687 140.731 96.7754 140.88C96.8927 141.019 97.0794 141.147 97.3354 141.264C97.602 141.371 97.9807 141.477 98.4714 141.584C99.1967 141.744 99.7567 141.92 100.151 142.112C100.557 142.304 100.845 142.539 101.015 142.816C101.186 143.093 101.271 143.445 101.271 143.872C101.271 144.544 100.989 145.088 100.423 145.504C99.858 145.909 99.1114 146.112 98.1834 146.112ZM103.903 146.08C103.711 146.08 103.551 146.027 103.423 145.92C103.306 145.803 103.247 145.643 103.247 145.44V138.688C103.247 138.485 103.306 138.331 103.423 138.224C103.551 138.107 103.711 138.048 103.903 138.048C104.095 138.048 104.25 138.107 104.367 138.224C104.484 138.331 104.543 138.485 104.543 138.688V145.44C104.543 145.653 104.484 145.813 104.367 145.92C104.25 146.027 104.095 146.08 103.903 146.08ZM103.903 136.368C103.647 136.368 103.439 136.293 103.279 136.144C103.119 135.995 103.039 135.797 103.039 135.552C103.039 135.317 103.119 135.125 103.279 134.976C103.439 134.827 103.647 134.752 103.903 134.752C104.159 134.752 104.367 134.827 104.527 134.976C104.687 135.125 104.767 135.317 104.767 135.552C104.767 135.797 104.687 135.995 104.527 136.144C104.367 136.293 104.159 136.368 103.903 136.368ZM110.198 146.112C109.462 146.112 108.811 145.947 108.246 145.616C107.691 145.285 107.259 144.816 106.95 144.208C106.651 143.589 106.502 142.875 106.502 142.064C106.502 141.253 106.651 140.544 106.95 139.936C107.259 139.317 107.691 138.843 108.246 138.512C108.811 138.181 109.462 138.016 110.198 138.016C110.934 138.016 111.584 138.181 112.15 138.512C112.715 138.843 113.147 139.317 113.446 139.936C113.755 140.544 113.91 141.253 113.91 142.064C113.91 142.875 113.755 143.589 113.446 144.208C113.147 144.816 112.715 145.285 112.15 145.616C111.584 145.947 110.934 146.112 110.198 146.112ZM110.198 145.04C110.966 145.04 111.552 144.789 111.958 144.288C112.374 143.776 112.582 143.035 112.582 142.064C112.582 141.115 112.374 140.384 111.958 139.872C111.542 139.349 110.955 139.088 110.198 139.088C109.44 139.088 108.854 139.349 108.438 139.872C108.022 140.384 107.814 141.115 107.814 142.064C107.814 143.024 108.016 143.76 108.422 144.272C108.838 144.784 109.43 145.04 110.198 145.04ZM119.761 138.016C121.627 138.016 122.561 139.045 122.561 141.104V145.44C122.561 145.643 122.502 145.803 122.385 145.92C122.278 146.027 122.123 146.08 121.921 146.08C121.718 146.08 121.558 146.027 121.441 145.92C121.323 145.803 121.265 145.643 121.265 145.44V141.184C121.265 140.459 121.121 139.931 120.833 139.6C120.555 139.269 120.107 139.104 119.489 139.104C118.774 139.104 118.203 139.323 117.777 139.76C117.35 140.197 117.137 140.789 117.137 141.536V145.44C117.137 145.643 117.078 145.803 116.961 145.92C116.854 146.027 116.699 146.08 116.497 146.08C116.294 146.08 116.134 146.027 116.017 145.92C115.899 145.803 115.841 145.643 115.841 145.44V138.688C115.841 138.496 115.899 138.341 116.017 138.224C116.134 138.107 116.294 138.048 116.497 138.048C116.689 138.048 116.838 138.107 116.945 138.224C117.062 138.341 117.121 138.491 117.121 138.672V139.488C117.377 139.008 117.734 138.645 118.193 138.4C118.651 138.144 119.174 138.016 119.761 138.016ZM128.118 138.016C130.07 138.016 131.046 139.04 131.046 141.088V145.44C131.046 145.632 130.988 145.787 130.87 145.904C130.764 146.021 130.614 146.08 130.422 146.08C130.23 146.08 130.076 146.021 129.958 145.904C129.841 145.787 129.782 145.632 129.782 145.44V144.672C129.58 145.131 129.27 145.488 128.854 145.744C128.438 145.989 127.958 146.112 127.414 146.112C126.913 146.112 126.449 146.011 126.022 145.808C125.606 145.605 125.276 145.323 125.03 144.96C124.785 144.597 124.662 144.197 124.662 143.76C124.662 143.173 124.812 142.72 125.11 142.4C125.409 142.069 125.9 141.835 126.582 141.696C127.265 141.547 128.214 141.472 129.43 141.472H129.782V140.944C129.782 140.304 129.649 139.835 129.382 139.536C129.126 139.237 128.705 139.088 128.118 139.088C127.393 139.088 126.657 139.285 125.91 139.68C125.622 139.861 125.42 139.952 125.302 139.952C125.174 139.952 125.068 139.904 124.982 139.808C124.897 139.712 124.854 139.589 124.854 139.44C124.854 139.291 124.897 139.163 124.982 139.056C125.078 138.939 125.228 138.821 125.43 138.704C125.804 138.491 126.225 138.325 126.694 138.208C127.174 138.08 127.649 138.016 128.118 138.016ZM127.59 145.088C128.23 145.088 128.753 144.875 129.158 144.448C129.574 144.011 129.782 143.451 129.782 142.768V142.304H129.494C128.556 142.304 127.841 142.347 127.35 142.432C126.86 142.507 126.508 142.64 126.294 142.832C126.092 143.013 125.99 143.285 125.99 143.648C125.99 144.064 126.14 144.411 126.438 144.688C126.748 144.955 127.132 145.088 127.59 145.088ZM134.075 146.08C133.883 146.08 133.723 146.027 133.595 145.92C133.477 145.803 133.419 145.643 133.419 145.44V135.28C133.419 135.077 133.477 134.923 133.595 134.816C133.723 134.699 133.883 134.64 134.075 134.64C134.256 134.64 134.405 134.699 134.523 134.816C134.651 134.923 134.715 135.077 134.715 135.28V145.44C134.715 145.643 134.651 145.803 134.523 145.92C134.405 146.027 134.256 146.08 134.075 146.08ZM137.794 146.08C137.602 146.08 137.442 146.027 137.314 145.92C137.196 145.803 137.138 145.643 137.138 145.44V135.28C137.138 135.077 137.196 134.923 137.314 134.816C137.442 134.699 137.602 134.64 137.794 134.64C137.975 134.64 138.124 134.699 138.242 134.816C138.37 134.923 138.434 135.077 138.434 135.28V145.44C138.434 145.643 138.37 145.803 138.242 145.92C138.124 146.027 137.975 146.08 137.794 146.08ZM146.472 138.448C146.59 138.192 146.776 138.064 147.032 138.064C147.192 138.064 147.336 138.117 147.464 138.224C147.592 138.331 147.656 138.464 147.656 138.624C147.656 138.72 147.635 138.805 147.592 138.88L143.096 148.576C143.043 148.693 142.963 148.784 142.856 148.848C142.76 148.912 142.659 148.944 142.552 148.944C142.392 148.944 142.248 148.891 142.12 148.784C142.003 148.688 141.944 148.56 141.944 148.4C141.944 148.315 141.966 148.229 142.008 148.144L143.128 145.728L139.96 138.88C139.918 138.805 139.896 138.725 139.896 138.64C139.896 138.48 139.966 138.341 140.104 138.224C140.254 138.107 140.414 138.048 140.584 138.048C140.691 138.048 140.792 138.08 140.888 138.144C140.995 138.208 141.075 138.299 141.128 138.416L143.8 144.416L146.472 138.448Z" fill="#394677"/>
</svg>
