<svg width="36" height="23" viewBox="0 0 36 23" fill="none" xmlns="http://www.w3.org/2000/svg">
<path d="M4.63721 0.349121L1.23779 10.8107L9.79724 13.592L9.17916 15.4941L15.8365 17.6574L16.4546 15.7553L31.6714 20.6999L35.0708 10.2383L4.63721 0.349121ZM5.77828 2.58873L12.5415 4.7864L12.5434 4.787L10.1737 12.0796L8.48147 11.5298L10.3013 5.92933L8.61095 5.38007L6.79113 10.9805L3.40859 9.88135L5.77828 2.58873ZM14.2337 5.33627L20.9951 7.53334L20.9969 7.53394L18.6278 14.8247L15.2453 13.7256L14.6954 15.4178L11.3148 14.3192L14.2337 5.33627ZM22.6873 8.08321L32.8312 11.3794L32.833 11.38L30.4634 18.6726L28.7712 18.1228L30.591 12.5223L28.9006 11.9731L27.0808 17.5735L25.3905 17.0242L27.2103 11.4238L25.5181 10.8739L23.6983 16.4744L20.3176 15.3758L22.6873 8.08321ZM17.0645 8.127L15.794 12.0371L17.4843 12.5863L18.7549 8.67627L17.0645 8.127Z" fill="#308EE8"/>
</svg>
