<svg width="30" height="30" viewBox="0 0 30 30" fill="none" xmlns="http://www.w3.org/2000/svg">
<path d="M28.1238 23.2461C27.8681 22.8444 19.6481 9.92725 19.3948 9.52922V5.27344C20.8486 5.27344 22.0315 4.09061 22.0315 2.63672C22.0315 1.18283 20.8487 0 19.3948 0H10.6057C9.15181 0 7.96897 1.18283 7.96897 2.63672C7.96897 4.09061 9.15181 5.27344 10.6057 5.27344V9.52922L1.87675 23.2461C0.0128802 26.1752 2.11306 30 5.58427 30H24.4162C27.888 30 29.9873 26.1746 28.1238 23.2461ZM12.2262 10.257C12.3159 10.116 12.3636 9.95232 12.3636 9.78516V5.27344C12.849 5.27344 13.2425 4.87992 13.2425 4.39453C13.2425 3.90914 12.849 3.51562 12.3636 3.51562H10.6058C10.1211 3.51562 9.72684 3.12135 9.72684 2.63672C9.72684 2.15209 10.1211 1.75781 10.6058 1.75781H19.3948C19.8794 1.75781 20.2737 2.15209 20.2737 2.63672C20.2737 3.12135 19.8794 3.51562 19.3948 3.51562H17.637C17.1516 3.51562 16.7581 3.90914 16.7581 4.39453C16.7581 4.87992 17.1516 5.27344 17.637 5.27344V9.78516C17.637 9.95232 17.6846 10.116 17.7744 10.257L20.164 14.0121C18.1188 13.5745 15.9429 13.9598 14.1282 15.1696L11.3818 17.0006C10.1636 17.8127 8.72384 18.1566 7.29977 17.9987L12.2262 10.257ZM24.4162 28.2422H5.58427C3.50126 28.2422 2.24155 25.947 3.35975 24.1899L6.2755 19.608C6.83946 19.7323 7.4097 19.7948 7.97747 19.7948C9.51772 19.7948 11.0383 19.3421 12.3567 18.4632L15.1031 16.6322C17.122 15.2863 19.7153 15.2516 21.7643 16.5271L26.6406 24.1899C27.7591 25.9472 26.499 28.2422 24.4162 28.2422Z" fill="#A4A4A4"/>
<path d="M9.72656 21.2109C8.27268 21.2109 7.08984 22.3938 7.08984 23.8477C7.08984 25.3015 8.27268 26.4844 9.72656 26.4844C11.1804 26.4844 12.3633 25.3015 12.3633 23.8477C12.3633 22.3938 11.1805 21.2109 9.72656 21.2109ZM9.72656 24.7266C9.24193 24.7266 8.84766 24.3323 8.84766 23.8477C8.84766 23.363 9.24193 22.9688 9.72656 22.9688C10.2112 22.9688 10.6055 23.363 10.6055 23.8477C10.6055 24.3323 10.2113 24.7266 9.72656 24.7266Z" fill="#A4A4A4"/>
<path d="M18.5156 17.6953C17.0617 17.6953 15.8789 18.8781 15.8789 20.332C15.8789 21.7859 17.0617 22.9688 18.5156 22.9688C19.9695 22.9688 21.1523 21.7859 21.1523 20.332C21.1523 18.8781 19.9696 17.6953 18.5156 17.6953ZM18.5156 21.2109C18.031 21.2109 17.6367 20.8167 17.6367 20.332C17.6367 19.8474 18.031 19.4531 18.5156 19.4531C19.0003 19.4531 19.3945 19.8474 19.3945 20.332C19.3945 20.8167 19.0003 21.2109 18.5156 21.2109Z" fill="#A4A4A4"/>
<path d="M15 24.7266C15.4854 24.7266 15.8789 24.3331 15.8789 23.8477C15.8789 23.3622 15.4854 22.9688 15 22.9688C14.5146 22.9688 14.1211 23.3622 14.1211 23.8477C14.1211 24.3331 14.5146 24.7266 15 24.7266Z" fill="#A4A4A4"/>
<path d="M22.0312 24.7266C22.5167 24.7266 22.9102 24.3331 22.9102 23.8477C22.9102 23.3622 22.5167 22.9688 22.0312 22.9688C21.5458 22.9688 21.1523 23.3622 21.1523 23.8477C21.1523 24.3331 21.5458 24.7266 22.0312 24.7266Z" fill="#A4A4A4"/>
<path d="M18.5156 26.4844C19.001 26.4844 19.3945 26.0909 19.3945 25.6055C19.3945 25.1201 19.001 24.7266 18.5156 24.7266C18.0302 24.7266 17.6367 25.1201 17.6367 25.6055C17.6367 26.0909 18.0302 26.4844 18.5156 26.4844Z" fill="#A4A4A4"/>
</svg>
