<svg width="486" height="227" viewBox="0 0 486 227" fill="none" xmlns="http://www.w3.org/2000/svg">
<g opacity="0.5" clip-path="url(#clip0)">
<path d="M31.0245 226.361C31.0245 226.361 4.40758 157.491 43.3427 116.367C93.5587 63.3265 158.453 107.663 182.802 106.374C207.152 105.085 208.525 54.1883 281.279 48.1084C337.534 43.4056 429.918 43.0382 410.209 126.187C395.222 189.405 478.596 156.66 462.367 226.499L31.0245 226.361Z" fill="#EBF2F9"/>
<path d="M485.527 225.651H0.473099C0.211813 225.651 0 225.863 0 226.124V226.527C0 226.788 0.211813 227 0.473099 227H485.527C485.788 227 486 226.788 486 226.527V226.124C486 225.863 485.788 225.651 485.527 225.651Z" fill="#2E3552"/>
<path d="M87.9476 137.411L89.5638 138.725C89.5638 138.725 93.9906 137.138 94.9883 142.399C94.9883 142.399 95.2542 144.642 93.8349 144.645C92.4156 144.648 93.0033 144.402 90.9919 144.465C88.9805 144.529 87.3187 143.463 87.0249 141.832L86.0625 140.449L87.9476 137.411Z" fill="#EA8E50"/>
<path d="M87.764 140.234C89.0555 138.885 88.9512 137.883 88.9512 137.883C88.9512 137.883 74.003 125.642 72.4955 124.644C71.4671 123.965 60.455 114.21 55.3053 108.252C52.7532 105.301 49.5914 106.446 45.9741 107.485L42.9959 108.339C39.3992 109.367 38.4633 114.404 41.415 116.848C49.7221 123.743 63.5493 131.487 66.1366 133.115C72.5587 137.155 85.1311 141.958 85.1311 141.958C85.1311 141.958 86.6562 141.391 87.764 140.234Z" fill="#1E3D70"/>
<path d="M104.822 215.44C104.822 215.44 108.45 218.159 114.008 216.721C114.008 216.721 118.489 215.693 119.472 217.935C119.472 217.935 112.599 221.429 110.861 222.384C109.549 223.104 108.181 224.24 107.214 225.117C107.032 225.282 106.819 225.408 106.587 225.487C106.356 225.566 106.11 225.597 105.866 225.578C105.622 225.56 105.384 225.491 105.167 225.377C104.95 225.263 104.759 225.106 104.604 224.916C104.302 224.544 103.957 224.102 103.576 223.593C102.515 222.157 100.05 217.516 100.05 217.516L104.822 215.44Z" fill="#233862"/>
<path d="M106.951 214.059C106.951 214.059 104.747 219.152 99.6444 218.216C99.6444 218.216 89.2392 209.622 82.103 200.694C79.7845 197.794 77.8113 194.859 76.6521 192.17C71.9196 181.211 59.1459 164.864 51.0254 156.578L71.3437 149.23C71.3437 149.23 77.8525 162.326 86.5122 178.411C92.7521 190.001 100.109 203.142 106.951 214.059Z" fill="#2B478B"/>
<path d="M108.137 117.33C108.272 116.088 108.311 114.839 108.256 113.591C108.242 113.314 108.312 113.039 108.455 112.801C108.598 112.563 108.809 112.374 109.061 112.257L115.062 109.464C115.372 109.321 115.618 109.066 115.75 108.751C115.882 108.435 115.892 108.082 115.777 107.76L113.706 102.063C113.593 101.754 113.371 101.498 113.081 101.343C112.791 101.188 112.454 101.146 112.135 101.224L106.215 102.676C105.932 102.745 105.635 102.722 105.366 102.61C105.097 102.499 104.871 102.305 104.72 102.056C103.366 99.847 101.67 97.8676 99.6948 96.1921C99.4609 95.9924 99.3002 95.7204 99.2382 95.419C99.1762 95.1177 99.2164 94.8044 99.3525 94.5285L100.989 91.1968C101.14 90.8899 101.172 90.5383 101.079 90.2093C100.986 89.8803 100.775 89.5972 100.487 89.4141L95.4119 86.1971C95.1212 86.0128 94.772 85.9443 94.4332 86.0053C94.0945 86.0663 93.791 86.2522 93.5827 86.5263L90.0154 91.2056C87.4251 90.5502 84.7452 90.3223 82.0814 90.5311C81.8057 90.5537 81.5296 90.4914 81.2903 90.3524C81.051 90.2134 80.86 90.0044 80.743 89.7536L78.4965 84.9126C78.3498 84.5929 78.0883 84.3399 77.764 84.2038C77.4396 84.0677 77.076 84.0584 76.7451 84.1778L71.1517 86.2133C70.8226 86.3329 70.5493 86.57 70.3844 86.879C70.2195 87.188 70.1746 87.5471 70.2584 87.8872L71.472 92.8354C71.5403 93.1133 71.5205 93.4055 71.4151 93.6715C71.3098 93.9375 71.1243 94.1641 70.8843 94.3198C69.3008 95.3416 67.8414 96.544 66.5353 97.9028C66.3299 98.114 66.063 98.2549 65.7728 98.3053C65.4825 98.3557 65.1837 98.3131 64.9192 98.1835L59.5182 95.5293C59.2103 95.3778 58.8572 95.3454 58.5269 95.4385C58.1966 95.5315 57.9123 95.7434 57.7287 96.0334L54.5257 101.087C54.338 101.383 54.2682 101.738 54.3299 102.082C54.3917 102.426 54.5806 102.735 54.8592 102.947L60.1177 106.951C60.3341 107.116 60.4965 107.342 60.5842 107.6C60.6719 107.858 60.6808 108.136 60.6099 108.399C60.2846 109.611 60.0538 110.847 59.9193 112.095C59.8458 112.767 59.8008 113.435 59.7841 114.1C59.7782 114.366 59.6978 114.625 59.5521 114.848C59.4065 115.071 59.2013 115.248 58.9599 115.361L53.1872 118.043C52.8778 118.186 52.6335 118.44 52.5027 118.755C52.3718 119.07 52.3639 119.423 52.4805 119.743L54.5272 125.372C54.6474 125.701 54.8849 125.975 55.1942 126.14C55.5036 126.305 55.863 126.35 56.2036 126.267L60.8934 125.116C61.1957 125.041 61.5145 125.07 61.7985 125.198C62.0824 125.326 62.3148 125.546 62.4582 125.823C63.6157 128.065 65.114 130.114 66.8997 131.897C67.1085 132.104 67.2472 132.371 67.2962 132.661C67.3452 132.951 67.3021 133.249 67.173 133.514L64.7796 138.385C64.6247 138.701 64.5918 139.063 64.6872 139.401C64.7827 139.74 64.9997 140.031 65.2968 140.22L70.3392 143.416C70.6302 143.601 70.9801 143.67 71.3195 143.609C71.659 143.548 71.963 143.362 72.1714 143.087L75.6667 138.496C75.8413 138.267 76.0815 138.097 76.3553 138.008C76.6292 137.919 76.9235 137.916 77.1991 137.999C78.5755 138.4 79.9846 138.68 81.41 138.834C82.1902 138.919 82.9645 138.964 83.7329 138.981C83.9939 138.984 84.2487 139.061 84.4679 139.203C84.687 139.345 84.8616 139.546 84.9715 139.783L87.2517 144.696C87.401 145.016 87.6646 145.269 87.9908 145.405C88.317 145.541 88.6823 145.55 89.0148 145.431L94.62 143.387C94.9439 143.27 95.2131 143.037 95.3758 142.733C95.5385 142.43 95.5833 142.077 95.5016 141.742L94.5319 137.795C94.4595 137.493 94.4896 137.176 94.6173 136.894C94.745 136.612 94.9631 136.38 95.2371 136.235C98.1043 134.736 100.645 132.682 102.71 130.191C102.908 129.953 103.18 129.789 103.482 129.725C103.785 129.661 104.1 129.7 104.377 129.837L108.748 131.973C109.055 132.124 109.408 132.157 109.737 132.064C110.067 131.971 110.35 131.76 110.533 131.471L113.733 126.42C113.922 126.122 113.992 125.765 113.93 125.419C113.868 125.072 113.678 124.762 113.398 124.549L108.352 120.709C108.146 120.551 107.989 120.34 107.898 120.098C107.806 119.857 107.784 119.594 107.833 119.34C107.96 118.683 108.062 118.013 108.137 117.33ZM89.1515 126.894C76.5483 131.402 66.074 118.295 73.3159 106.962C74.4032 105.26 76.8524 103.288 78.7521 102.592C91.373 97.9439 101.925 110.985 94.8213 122.334C93.6944 124.13 91.1452 126.18 89.1515 126.894Z" fill="#AFCDFB"/>
<path d="M86.5127 178.414L82.1049 200.698C79.7864 197.799 77.8132 194.864 76.654 192.174C71.9215 181.215 59.1479 164.868 51.0273 156.583L71.3456 149.234C71.3456 149.234 77.8529 162.324 86.5127 178.414Z" fill="#233862"/>
<path d="M69.9028 218.395C69.9028 218.395 69.6824 222.462 74.6043 223.004C74.6043 223.004 77.5766 223.064 77.5854 225.649H63.1135C63.1135 225.649 62.6977 224.606 62.5963 222.371C62.5184 220.654 64.2595 216.166 64.2595 216.166L69.9028 218.395Z" fill="#233862"/>
<path d="M64.6789 149.228C64.6789 149.228 73.731 159.178 79.4772 177.101C82.6038 186.854 73.7471 211.373 72.0208 219.893C72.0208 219.893 66.0791 220.397 62.0167 218.826C62.0167 218.826 61.7081 201.23 64.0839 187.669C65.4136 180.08 52.1653 171.437 46.3765 157.724C42.4389 148.393 47.2301 148.552 53.1174 148.329L64.6789 149.228Z" fill="#2B478B"/>
<path d="M54.2301 104.842C49.1935 107.686 38.8838 105.063 38.8838 105.063C38.8838 105.063 43.0712 100.275 41.1685 92.571L45.1222 94.58L49.3669 96.73C49.5911 97.9899 49.7466 99.2611 49.8326 100.538C49.8811 101.168 49.9252 101.872 49.9546 102.641C51.5026 103.107 52.9518 103.853 54.2301 104.842Z" fill="#FFB07B"/>
<path d="M72.6977 148.716C72.6977 149.597 71.678 150.025 71.4621 150.068C69.4301 150.44 63.7588 152.645 58.6487 153.154C54.3468 153.604 50.3533 153.176 45.9647 152.294C45.3843 152.178 44.0194 151.811 43.9224 151.254C43.8019 150.645 26.9966 116.985 40.0598 102.526C40.3668 102.188 42.9454 102.798 45.3035 103.358C47.2916 103.83 49.3782 103.661 51.2643 102.875L53.4681 104.039C56.1848 105.552 61.3228 110.93 61.9237 115.15C62.2293 117.296 63.4561 118.886 63.8117 120.773C63.9439 121.471 64.0776 122.155 64.2157 122.819C64.4831 124.122 64.7588 125.363 65.0429 126.543C65.8113 129.735 66.6223 132.483 67.4187 134.857C68.2664 137.377 69.098 139.473 69.84 141.228C70.8038 143.501 71.6163 145.196 72.1247 146.502C72.492 147.414 72.6977 148.14 72.6977 148.716Z" fill="#2A4E96"/>
<path d="M72.1314 146.498C48.4104 135.318 40.1943 113.851 40.1943 113.851C40.1943 113.851 59.468 120.963 64.2224 122.816C64.4898 124.119 64.7656 125.361 65.0496 126.54C65.818 129.732 66.6291 132.48 67.4254 134.854C68.2732 137.374 69.1048 139.47 69.8467 141.225C70.8179 143.497 71.6231 145.2 72.1314 146.498Z" fill="#1E3D70"/>
<path d="M86.0115 140.02L88.0685 140.771C88.0685 140.771 92.1736 137.867 94.7301 142.59C94.7301 142.59 95.6543 144.647 94.1909 145.1C92.7275 145.553 93.2594 145.127 91.2024 145.811C89.1454 146.496 87.1193 146.002 86.3421 144.533L84.9492 143.504L86.0115 140.02Z" fill="#FFB07B"/>
<path d="M87.6978 142.919C88.4559 140.941 88.8027 140.044 88.8027 140.044C88.8027 140.044 73.3153 127.417 71.7344 126.333C70.6589 125.598 59.9524 117.589 54.7322 111.343C53.4604 109.825 51.8005 108.682 49.9299 108.035C48.0592 107.388 46.048 107.261 44.1109 107.669L40.8595 108.35C36.9322 109.175 35.6568 114.145 38.7026 116.757C47.2801 124.105 61.7493 132.643 64.4469 134.419C71.1423 138.828 85.9553 145 85.9553 145C85.9553 145 87.1027 144.472 87.6978 142.919Z" fill="#2A4E96"/>
<path d="M49.8346 100.538C44.8817 100.817 41.6611 96.727 41.6611 96.727C41.6611 96.727 43.9003 95.4852 45.1212 94.5725L49.3659 96.73C49.5911 97.9898 49.7476 99.261 49.8346 100.538Z" fill="#EA8E50"/>
<path d="M51.9458 95.4528C51.9458 95.4528 44.4423 100.839 41.16 96.1127C37.8778 91.3864 34.6954 88.8997 39.3529 85.2609C44.0104 81.6221 46.1981 82.7714 47.6761 84.0852C49.1542 85.3991 53.8132 93.9288 51.9458 95.4528Z" fill="#FFB07B"/>
<path d="M48.4687 79.8145C48.3171 78.7469 48.0231 77.7045 47.5945 76.715C47.5945 76.715 47.1229 78.6652 43.5585 78.3963C39.9941 78.1273 34.3434 78.7475 32.4598 82.8052C32.3393 83.0639 32.2335 83.3299 32.138 83.6017C31.7972 82.7009 31.7149 81.3517 31.7149 81.3517C31.0376 83.1006 31.7149 85.2889 31.7149 85.2889C31.7046 85.3521 31.6958 85.4167 31.687 85.4799C30.8994 86.1457 30.2383 88.2135 30.2383 88.2135C30.4763 87.6374 31.0552 87.2597 31.5709 87.0289C31.5562 90.1901 32.8374 93.2808 35.0868 94.2022C38.3779 95.5469 38.3515 94.5211 41.6602 96.7168C41.6602 96.7168 42.5418 95.6146 41.9423 94.8739C41.3429 94.1332 39.0508 93.0574 40.3261 91.9816C41.6015 90.9058 42.076 92.1153 42.5462 91.3761C43.0163 90.6369 40.6626 88.4824 43.6893 86.4646C46.7159 84.4468 48.7376 81.631 48.4687 79.8145Z" fill="#233862"/>
<path d="M398.279 219.023C398.279 219.023 398.683 225.545 399.944 225.636C400.111 225.648 406.343 225.648 406.343 225.648H414.304C414.304 225.648 414.243 223.685 411.918 223.281C409.594 222.876 405.702 221.241 404.294 218.168C402.813 214.937 398.279 219.023 398.279 219.023Z" fill="#163560"/>
<path d="M366.782 165.422C367.915 167.525 369.185 169.553 370.583 171.49C374.767 177.381 379.32 182.236 380.114 186.827C380.292 187.823 380.538 188.805 380.848 189.767C381.18 190.818 381.583 191.924 382.062 193.068C383.837 197.368 386.492 202.179 389.142 206.568C393.723 214.141 398.033 220.46 398.033 220.46L405.933 220.085C405.617 219.204 402.17 208.746 397.558 195.967L391.775 179.939C391.519 179.229 391.262 178.521 391.01 177.82C390.422 176.192 389.844 174.587 389.28 173.028C384.952 161.029 381.504 151.475 381.504 151.475C381.504 151.475 364.203 144.164 362.403 148.901C360.928 152.807 362.134 156.634 366.782 165.422Z" fill="#599DAD"/>
<path d="M381.313 211.955C381.313 211.955 378.42 214.637 378.984 216.544C379.548 218.45 382.161 219.721 382.51 222.05C382.86 224.38 384.273 225.651 385.546 225.651H391.602C391.602 225.651 392.538 224.012 390.279 223.517C388.021 223.022 387.169 220.284 387.312 217.744C387.454 215.205 387.099 211.814 387.099 211.814L382.3 210.684L381.313 211.955Z" fill="#233862"/>
<path d="M383.873 150.575C383.873 150.575 402.077 180.114 402.077 182.466C402.077 187.664 388.322 217.59 388.322 217.59C388.322 217.59 381.021 213.732 381.314 211.024C381.314 211.024 385.695 190.008 386.969 186.638C388.243 183.268 363.96 170.538 362.687 155.166L383.873 150.575Z" fill="#6BB7BF"/>
<path d="M392.799 135.386C392.799 135.386 396.553 137.521 397.603 137.521C398.654 137.521 402.781 136.723 403.93 137.311C405.079 137.899 407.162 140.264 407.553 141.037C408.255 142.425 404.725 141.813 403.057 140.628C402.937 140.543 402.801 140.484 402.658 140.454C402.514 140.425 402.366 140.425 402.223 140.456C401.359 140.646 399.563 140.972 398.696 140.65C397.53 140.22 391.39 139.739 391.39 139.739L392.799 135.386Z" fill="#E49963"/>
<path d="M364.227 106.302C364.227 106.302 368.119 133.97 374.563 136.45C377.744 137.672 391.797 140.444 395.954 140.722C395.954 140.722 396.972 139.896 396.724 136.532C396.724 136.532 382 131.125 379.908 128.185C376.796 123.808 381.842 110.306 377.935 106.196C374.028 102.085 367.459 100.32 364.227 106.302Z" fill="#ED7D2B"/>
<path d="M379.448 104.559C374.246 105.903 365.621 101.082 365.621 101.082C365.621 101.082 368.97 98.8301 370.211 93.8804C370.274 93.632 370.33 93.3763 370.381 93.1147L373.054 92.5474L377.021 96.1084C376.905 97.4586 376.708 98.8008 376.433 100.128C376.347 100.569 376.248 101.048 376.139 101.555C377.417 102.345 378.539 103.363 379.448 104.559Z" fill="#E49963"/>
<path d="M360.113 126.129C360.858 136.153 359.878 151.406 360.723 154.041C361.458 156.319 369.766 154.964 373.084 154.205C374.312 153.922 375.799 153.521 377.336 153.045C381.622 151.722 386.298 149.822 386.792 148.416C386.811 148.363 386.826 148.309 386.837 148.254C386.88 148.06 386.877 147.859 386.829 147.666C386.663 146.95 386.018 146.173 385.947 144.398C385.862 142.415 385.875 140.08 385.8 137.57C385.8 137.288 385.793 136.982 385.762 136.697V136.594C385.762 136.541 385.762 136.488 385.762 136.434C385.69 133.634 385.543 130.69 385.374 127.763C385.265 125.93 385.141 124.114 384.997 122.374C384.623 117.884 384.115 113.889 383.452 111.365C382.364 107.25 379.961 104.565 377.775 102.598L376.194 101.24C374.431 101.627 372.342 101.371 370.455 100.476C368.413 99.5061 367.708 98.811 367.352 99.0726C362.626 102.717 359.232 113.872 360.113 126.129Z" fill="#F99746"/>
<path d="M377.336 153.045C381.622 151.722 386.298 149.822 386.792 148.416C386.811 148.363 386.826 148.309 386.837 148.254C386.837 148.058 386.835 147.862 386.829 147.666C386.663 146.95 386.018 146.173 385.947 144.398C385.862 142.415 385.875 140.08 385.8 137.57C385.8 137.287 385.793 136.982 385.762 136.697V136.594C385.762 136.541 385.762 136.488 385.762 136.434L368.428 114.352C368.428 114.352 356.782 138.61 377.336 153.045Z" fill="#ED7D2B"/>
<path d="M377.027 96.1142C376.91 97.4644 376.714 98.8066 376.439 100.134C372.559 98.8801 370.799 95.3735 370.211 93.8862C370.274 93.6379 370.33 93.3822 370.381 93.1206L373.054 92.5533L377.027 96.1142Z" fill="#D68D5D"/>
<path d="M377.55 98.354C377.55 98.354 369.088 96.9417 370.048 91.6833C371.007 86.4249 370.563 82.7023 376.007 83.3813C381.45 84.0602 382.131 86.2588 382.237 88.0929C382.342 89.9271 379.776 98.5862 377.55 98.354Z" fill="#E49963"/>
<path d="M410.853 143.347L411.599 143.589L417.951 124.045L417.205 123.802L410.853 143.347Z" fill="#4A75CB"/>
<path d="M390.041 143.146L411.596 143.605L411.623 142.315L390.069 141.855L390.041 143.146Z" fill="#4A75CB"/>
<path d="M390.481 144.152C390.481 144.152 397.408 145.978 400.005 145.787C402.603 145.596 404.763 144.36 405.089 143.714C405.415 143.069 406.103 141.924 404.334 142.136C402.565 142.348 400.152 142.724 400.073 142.383C399.993 142.042 401.514 142.076 401.514 142.076C401.514 142.076 401.973 141.41 401.395 141.385C400.818 141.36 399.135 140.904 398.509 141.218C397.884 141.531 397.306 142.687 396.849 142.636C396.392 142.584 391.054 140.23 391.054 140.23L390.481 144.152Z" fill="#E49963"/>
<path d="M365.95 107.438C365.95 107.438 366.769 135.361 372.901 138.541C375.926 140.106 389.589 144.412 393.69 145.147C393.69 145.147 394.793 144.437 394.918 141.067C394.918 141.067 380.879 134.069 379.125 130.917C376.513 126.224 383.016 113.36 379.586 108.844C376.157 104.328 369.81 101.846 365.95 107.438Z" fill="#F99746"/>
<path d="M370.211 93.8847C370.211 93.8847 370.114 92.0815 371.226 91.0483C371.226 91.0483 370.84 89.2392 371.556 88.9408C372.271 88.6425 372.419 90.1636 372.747 89.924C373.075 89.6845 374.535 88.5529 375.161 86.8834C375.787 85.2139 381.516 87.2361 382.183 87.5373C382.85 87.8386 384.996 86.7349 385.415 85.8399C385.415 85.8399 384.223 84.8861 383.687 84.1704C383.151 83.4547 379.395 78.6255 374.149 79.9967C368.902 81.3678 368.188 83.8736 368.486 86.0222C368.785 88.1708 368.063 93.1646 370.211 93.8847Z" fill="#2B478B"/>
<path d="M361.833 154.491L345.439 144.612C344.774 144.203 344.235 143.618 343.881 142.921C343.527 142.224 343.373 141.444 343.435 140.665C343.603 138.639 343.686 136.591 343.685 134.523C343.698 130.753 343.411 126.989 342.828 123.264C342.69 122.434 342.805 121.58 343.16 120.816C343.514 120.052 344.09 119.413 344.813 118.982L361.937 108.641C362.827 108.109 363.482 107.26 363.772 106.264C364.063 105.269 363.967 104.2 363.504 103.273L355.443 86.8555C355.002 85.9615 354.247 85.261 353.323 84.8873C352.398 84.5136 351.369 84.4928 350.43 84.8289L333.118 91.1175C331.447 91.7656 329.546 91.2012 328.416 89.739C323.63 83.5527 317.894 78.1647 311.42 73.7758C310.657 73.2475 310.09 72.482 309.806 71.5981C309.523 70.7142 309.539 69.7615 309.852 68.8878L313.696 58.3593C314.041 57.3836 314.02 56.3154 313.636 55.3543C313.252 54.3932 312.531 53.6047 311.608 53.1362L295.299 45.1575C294.976 44.9891 294.629 44.8693 294.271 44.8019C293.437 44.6289 292.57 44.7213 291.79 45.066C291.011 45.4107 290.36 45.9905 289.926 46.7242L282.536 58.9633L280.739 61.9511C277.322 61.4629 273.875 61.2174 270.424 61.2163C265.813 61.2137 261.213 61.6403 256.682 62.4904C255.859 62.6521 255.007 62.5564 254.241 62.2164C253.475 61.8764 252.832 61.3085 252.4 60.5902L244.089 46.7756C243.54 45.8717 242.673 45.2062 241.658 44.9102C240.643 44.6142 239.554 44.7093 238.606 45.1766L226.054 51.3388L222.461 53.1142C221.512 53.5777 220.767 54.3759 220.37 55.3555C219.973 56.335 219.952 57.4268 220.31 58.421L225.553 72.8969C225.862 73.7029 225.907 74.5863 225.682 75.4196C225.456 76.2529 224.972 76.9932 224.299 77.5336C220.229 80.8463 216.525 84.5864 213.252 88.6896C212.956 89.0178 212.677 89.3612 212.416 89.7184C212.329 89.839 212.231 89.9507 212.122 90.052C211.558 90.6522 210.828 91.0717 210.025 91.2576C209.222 91.4436 208.383 91.3877 207.612 91.0969L190.502 84.8877C190.313 84.8121 190.116 84.756 189.915 84.7201C189.005 84.5401 188.061 84.6632 187.227 85.0706C186.394 85.478 185.717 86.1473 185.3 86.976L177.322 103.227C176.857 104.176 176.765 105.264 177.062 106.277C177.36 107.29 178.026 108.155 178.929 108.702L196.033 118.999C196.743 119.421 197.309 120.048 197.655 120.797C198.002 121.547 198.114 122.384 197.975 123.198C197.403 126.943 197.117 130.726 197.118 134.514C197.118 136.561 197.202 138.587 197.37 140.593C197.434 141.391 197.274 142.191 196.909 142.903C196.544 143.616 195.988 144.212 195.302 144.625L178.847 154.569C177.968 155.101 177.32 155.942 177.03 156.928C176.741 157.914 176.83 158.972 177.281 159.895L185.279 176.126C185.744 177.079 186.546 177.827 187.529 178.224C188.513 178.621 189.609 178.64 190.605 178.277L204.304 173.305C205.191 172.982 206.161 172.965 207.059 173.258C207.956 173.551 208.729 174.137 209.254 174.922C213.457 181.285 218.622 186.958 224.562 191.738C225.257 192.286 225.761 193.04 226.001 193.892C226.241 194.744 226.205 195.65 225.898 196.48L220.302 211.897C219.943 212.897 219.963 213.994 220.36 214.979C220.757 215.965 221.501 216.771 222.453 217.243L238.638 225.203C239.571 225.663 240.643 225.756 241.642 225.462C242.64 225.167 243.491 224.508 244.026 223.615L244.466 222.904L253.048 208.68C253.493 207.939 254.154 207.351 254.941 206.996C255.729 206.642 256.607 206.536 257.456 206.694H257.477C261.75 207.46 266.083 207.845 270.425 207.843C272.785 207.843 275.102 207.718 277.42 207.51C278.205 207.427 278.997 207.57 279.703 207.921C280.41 208.273 281.001 208.818 281.409 209.494L289.846 223.511C290.4 224.436 291.282 225.119 292.316 225.425C293.35 225.73 294.461 225.636 295.429 225.16L311.591 217.202C312.032 216.974 312.435 216.676 312.782 216.32C313.318 215.749 313.686 215.042 313.848 214.276C314.01 213.51 313.959 212.714 313.7 211.974L309.482 200.423C309.239 199.729 309.178 198.983 309.307 198.259C309.436 197.534 309.749 196.855 310.217 196.288C310.475 195.986 310.771 195.719 311.098 195.494C319.236 190.062 326.209 183.059 331.606 174.897C332.051 174.222 332.683 173.692 333.426 173.373C334.168 173.053 334.988 172.958 335.783 173.1C336.018 173.143 336.248 173.206 336.472 173.288L350.319 178.323C351.291 178.674 352.358 178.655 353.317 178.27C354.276 177.885 355.06 177.159 355.518 176.233L355.706 175.857L363.493 160.023C363.956 159.06 364.043 157.958 363.736 156.935C363.429 155.911 362.75 155.04 361.833 154.491ZM232.416 123.261C233.247 120.317 234.352 117.456 235.716 114.717C238.431 109.265 245.133 102.519 250.606 99.8236C251.194 99.5297 251.782 99.2593 252.361 98.9874C288.155 82.9022 322.676 118.059 305.321 153.884C303.045 158.563 298.012 164.058 293.104 167.462C292.041 168.199 290.924 168.855 289.763 169.427C284.768 171.849 279.802 173.27 274.956 173.814C247.348 176.884 224.626 151.503 232.416 123.261Z" fill="#AFCDFB"/>
<path d="M363.467 209.774L359.808 207.57C359.661 207.478 359.542 207.346 359.464 207.191C359.387 207.035 359.353 206.862 359.367 206.688C359.406 206.236 359.425 205.779 359.425 205.317C359.426 204.478 359.362 203.639 359.231 202.81C359.2 202.625 359.225 202.435 359.304 202.264C359.383 202.094 359.511 201.951 359.671 201.855L363.491 199.547C363.69 199.429 363.837 199.239 363.901 199.017C363.966 198.795 363.945 198.556 363.841 198.35L362.043 194.684C361.944 194.485 361.775 194.329 361.569 194.245C361.363 194.162 361.133 194.157 360.923 194.232L357.059 195.635C356.875 195.704 356.673 195.712 356.484 195.657C356.295 195.601 356.129 195.486 356.012 195.328C354.943 193.948 353.662 192.745 352.217 191.766C352.046 191.648 351.92 191.477 351.857 191.28C351.794 191.082 351.798 190.87 351.868 190.675L352.725 188.324C352.802 188.106 352.798 187.868 352.712 187.653C352.626 187.438 352.465 187.263 352.259 187.158L348.618 185.377C348.547 185.34 348.47 185.313 348.391 185.298C348.205 185.259 348.011 185.28 347.837 185.357C347.663 185.434 347.518 185.563 347.421 185.727L345.771 188.459L345.37 189.126C344.607 189.017 343.838 188.963 343.068 188.963C342.039 188.962 341.012 189.057 340.001 189.247C339.818 189.283 339.628 189.262 339.457 189.186C339.286 189.11 339.143 188.984 339.046 188.823L337.191 185.737C337.069 185.534 336.875 185.385 336.648 185.318C336.421 185.251 336.178 185.272 335.965 185.377L333.164 186.753L332.363 187.149C332.151 187.253 331.984 187.431 331.895 187.649C331.807 187.868 331.802 188.112 331.882 188.334L333.058 191.567C333.125 191.746 333.135 191.942 333.085 192.127C333.035 192.311 332.927 192.476 332.779 192.596C331.871 193.336 331.044 194.17 330.313 195.085C330.247 195.158 330.185 195.235 330.127 195.315C330.107 195.342 330.085 195.366 330.061 195.388C329.935 195.522 329.772 195.616 329.593 195.658C329.414 195.7 329.226 195.687 329.054 195.622L325.234 194.237C325.192 194.221 325.148 194.208 325.103 194.199C324.9 194.16 324.69 194.187 324.504 194.278C324.319 194.369 324.168 194.519 324.075 194.703L322.294 198.33C322.191 198.542 322.17 198.785 322.237 199.011C322.303 199.237 322.452 199.43 322.654 199.552L326.474 201.85C326.634 201.943 326.762 202.083 326.84 202.25C326.919 202.418 326.945 202.605 326.915 202.788C326.787 203.624 326.723 204.468 326.724 205.314C326.724 205.771 326.742 206.224 326.78 206.671C326.794 206.849 326.758 207.027 326.677 207.187C326.596 207.346 326.471 207.479 326.318 207.572L322.645 209.789C322.449 209.908 322.304 210.096 322.239 210.316C322.174 210.537 322.195 210.773 322.296 210.98L324.081 214.601C324.185 214.814 324.363 214.981 324.583 215.069C324.802 215.158 325.047 215.162 325.269 215.081L328.327 213.972C328.525 213.9 328.741 213.896 328.941 213.961C329.141 214.026 329.314 214.156 329.432 214.33C330.369 215.751 331.521 217.017 332.848 218.084C333.002 218.207 333.114 218.375 333.166 218.565C333.219 218.755 333.21 218.957 333.142 219.142L331.893 222.582C331.813 222.806 331.817 223.051 331.906 223.271C331.994 223.491 332.161 223.67 332.373 223.776L335.985 225.553C336.193 225.656 336.432 225.676 336.655 225.611C336.878 225.545 337.067 225.398 337.186 225.198L337.285 225.04L339.195 221.865C339.294 221.7 339.442 221.57 339.617 221.491C339.793 221.412 339.988 221.389 340.178 221.424C341.131 221.596 342.099 221.682 343.068 221.682C343.595 221.682 344.112 221.654 344.629 221.607C344.804 221.588 344.981 221.62 345.139 221.698C345.296 221.776 345.429 221.897 345.52 222.047L347.402 225.175C347.526 225.381 347.722 225.534 347.953 225.602C348.184 225.67 348.432 225.649 348.648 225.544L352.255 223.767C352.353 223.717 352.443 223.651 352.521 223.571C352.641 223.444 352.723 223.286 352.759 223.115C352.795 222.944 352.783 222.766 352.725 222.602L351.783 220.024C351.729 219.869 351.715 219.703 351.744 219.541C351.773 219.379 351.842 219.228 351.946 219.101C352.004 219.033 352.07 218.974 352.143 218.923C353.959 217.711 355.515 216.148 356.72 214.326C356.819 214.176 356.96 214.057 357.126 213.986C357.291 213.915 357.474 213.894 357.651 213.925C357.704 213.935 357.755 213.949 357.806 213.967L360.891 215.092C361.108 215.17 361.346 215.166 361.56 215.08C361.775 214.993 361.949 214.831 362.052 214.624L362.094 214.541L363.832 211.013C363.938 210.799 363.958 210.552 363.891 210.323C363.823 210.093 363.671 209.898 363.467 209.774ZM334.584 202.81C334.769 202.151 335.015 201.512 335.319 200.899C335.924 199.682 337.421 198.176 338.642 197.575C338.773 197.51 338.902 197.449 339.033 197.388C347.023 193.8 354.726 201.65 350.853 209.641C350.345 210.686 349.222 211.911 348.126 212.671C347.889 212.837 347.64 212.984 347.381 213.112C346.344 213.625 345.226 213.956 344.077 214.091C337.917 214.773 332.846 209.107 334.584 202.81Z" fill="#F99746"/>
<path d="M483.479 141.526L477.996 138.222C477.773 138.085 477.593 137.889 477.474 137.655C477.356 137.422 477.304 137.16 477.324 136.899C477.382 136.222 477.408 135.537 477.408 134.842C477.413 133.581 477.317 132.322 477.123 131.077C477.077 130.799 477.115 130.514 477.233 130.258C477.351 130.002 477.544 129.788 477.786 129.644L483.516 126.186C483.813 126.008 484.032 125.724 484.129 125.391C484.226 125.058 484.194 124.7 484.039 124.39L481.341 118.894C481.193 118.595 480.941 118.36 480.632 118.235C480.323 118.111 479.979 118.104 479.665 118.216L473.874 120.319C473.598 120.422 473.295 120.433 473.012 120.35C472.728 120.267 472.479 120.094 472.302 119.858C470.701 117.789 468.782 115.987 466.616 114.52C466.361 114.343 466.172 114.087 466.077 113.792C465.983 113.496 465.988 113.178 466.093 112.886L467.377 109.359C467.493 109.032 467.486 108.675 467.358 108.354C467.229 108.032 466.988 107.769 466.68 107.613L461.224 104.944C461.117 104.887 461.001 104.847 460.882 104.825C460.603 104.767 460.313 104.798 460.052 104.913C459.792 105.028 459.574 105.222 459.429 105.467L456.956 109.561L456.355 110.561C455.212 110.398 454.06 110.317 452.905 110.317C451.363 110.316 449.824 110.459 448.308 110.743C448.033 110.797 447.748 110.765 447.492 110.651C447.236 110.537 447.021 110.347 446.877 110.107L444.097 105.488C443.913 105.184 443.623 104.961 443.283 104.861C442.942 104.762 442.577 104.793 442.259 104.95L438.061 107.007L436.86 107.595C436.542 107.75 436.293 108.017 436.16 108.345C436.027 108.673 436.021 109.038 436.141 109.37L437.894 114.211C437.997 114.481 438.012 114.777 437.937 115.055C437.862 115.334 437.7 115.582 437.475 115.763C436.113 116.871 434.874 118.122 433.779 119.495C433.674 119.606 433.591 119.718 433.499 119.836C433.471 119.877 433.439 119.914 433.402 119.949C433.213 120.149 432.969 120.289 432.701 120.351C432.432 120.413 432.151 120.394 431.894 120.297L426.172 118.222C426.109 118.197 426.044 118.179 425.977 118.166C425.672 118.106 425.357 118.148 425.078 118.284C424.799 118.42 424.572 118.644 424.433 118.921L421.765 124.359C421.61 124.676 421.579 125.04 421.678 125.379C421.778 125.718 422 126.007 422.302 126.19L428.024 129.635C428.261 129.776 428.451 129.986 428.567 130.237C428.683 130.487 428.72 130.768 428.673 131.04C428.479 132.293 428.381 133.558 428.379 134.826C428.379 135.512 428.407 136.19 428.463 136.86C428.485 137.126 428.431 137.394 428.309 137.632C428.187 137.87 428.001 138.069 427.772 138.207L422.267 141.533C421.973 141.711 421.756 141.993 421.659 142.323C421.562 142.653 421.593 143.007 421.744 143.316L424.419 148.745C424.575 149.064 424.843 149.314 425.172 149.447C425.501 149.579 425.867 149.585 426.2 149.463L430.783 147.801C431.079 147.693 431.403 147.687 431.703 147.784C432.003 147.882 432.261 148.077 432.437 148.339C433.843 150.467 435.571 152.364 437.558 153.963C437.789 154.147 437.956 154.4 438.035 154.685C438.114 154.97 438.101 155.272 437.998 155.549L436.126 160.706C436.006 161.04 436.012 161.408 436.145 161.737C436.277 162.067 436.527 162.337 436.845 162.495L442.259 165.158C442.571 165.311 442.93 165.342 443.264 165.243C443.597 165.145 443.882 164.924 444.06 164.626L444.207 164.389L447.078 159.63C447.227 159.383 447.447 159.188 447.709 159.069C447.972 158.95 448.264 158.914 448.548 158.966C449.977 159.222 451.427 159.351 452.879 159.351C453.668 159.351 454.444 159.308 455.218 159.239C455.48 159.212 455.745 159.26 455.981 159.377C456.217 159.494 456.415 159.676 456.552 159.902L459.374 164.59C459.559 164.899 459.854 165.128 460.199 165.23C460.544 165.332 460.915 165.301 461.239 165.143L466.646 162.481C466.793 162.405 466.928 162.306 467.044 162.187C467.223 161.997 467.347 161.76 467.401 161.504C467.455 161.247 467.438 160.981 467.351 160.734L465.941 156.87C465.859 156.638 465.839 156.389 465.882 156.147C465.925 155.904 466.029 155.677 466.186 155.487C466.271 155.386 466.37 155.296 466.48 155.221C469.202 153.405 471.534 151.062 473.34 148.332C473.489 148.106 473.7 147.929 473.949 147.823C474.197 147.716 474.471 147.684 474.737 147.731C474.815 147.746 474.892 147.767 474.966 147.794L479.599 149.478C479.924 149.596 480.28 149.589 480.601 149.461C480.921 149.332 481.183 149.09 481.337 148.78L481.4 148.654L484.006 143.363C484.16 143.045 484.19 142.683 484.093 142.344C483.996 142.005 483.777 141.714 483.479 141.526ZM440.187 131.078C440.466 130.093 440.836 129.136 441.291 128.22C442.199 126.397 444.441 124.14 446.272 123.239C446.467 123.141 446.662 123.05 446.859 122.959C458.832 117.58 470.379 129.338 464.574 141.32C463.813 142.885 462.129 144.724 460.488 145.863C460.132 146.109 459.759 146.329 459.37 146.52C457.815 147.288 456.14 147.785 454.417 147.989C445.183 149.021 437.587 140.525 440.187 131.078Z" fill="#EBF2F9"/>
<path d="M224.531 38.5603L218.725 35.8591C218.489 35.7472 218.288 35.5721 218.145 35.3532C218.002 35.1343 217.923 34.8801 217.915 34.6187C217.898 33.9398 217.852 33.2549 217.777 32.5686C217.646 31.3143 217.415 30.0725 217.087 28.8548C217.013 28.5841 217.021 28.2973 217.112 28.0316C217.203 27.7659 217.371 27.5336 217.595 27.3646L222.917 23.3099C223.194 23.1005 223.381 22.7944 223.442 22.4527C223.503 22.111 223.432 21.7589 223.244 21.467L219.972 16.2983C219.793 16.0171 219.517 15.8116 219.196 15.7208C218.876 15.63 218.533 15.6603 218.233 15.8059L212.7 18.5174C212.435 18.6508 212.134 18.6943 211.842 18.6412C211.551 18.5882 211.284 18.4415 211.083 18.2235C209.268 16.3396 207.166 14.7553 204.855 13.5295C204.583 13.3812 204.367 13.1472 204.241 12.8636C204.115 12.5801 204.086 12.263 204.159 11.9614L205.057 8.32108C205.137 7.98436 205.092 7.62984 204.93 7.32406C204.767 7.01828 204.499 6.78229 204.175 6.66039L198.463 4.6029C198.35 4.5584 198.231 4.53067 198.11 4.5206C197.826 4.49336 197.541 4.55551 197.295 4.69833C197.048 4.84116 196.852 5.05752 196.735 5.31714L194.717 9.65404L194.228 10.7122C193.074 10.6735 191.919 10.7167 190.771 10.8415C189.239 11.0055 187.725 11.312 186.25 11.7571C185.983 11.8406 185.696 11.8395 185.429 11.7541C185.162 11.6686 184.928 11.5029 184.759 11.2795L181.497 6.98812C181.283 6.70565 180.97 6.51425 180.62 6.4519C180.271 6.38956 179.911 6.46083 179.612 6.65157L175.661 9.14995L174.53 9.87007C174.231 10.0583 174.012 10.3505 173.915 10.6905C173.819 11.0305 173.851 11.3941 174.007 11.7115L176.271 16.3365C176.404 16.5946 176.451 16.8884 176.405 17.175C176.359 17.4616 176.222 17.726 176.015 17.9296C174.784 19.1808 173.689 20.5604 172.751 22.0445C172.664 22.1637 172.584 22.2873 172.51 22.4149C172.486 22.4584 172.457 22.4992 172.425 22.5369C172.258 22.7582 172.029 22.925 171.768 23.0158C171.506 23.1066 171.223 23.1174 170.955 23.0468L165.043 21.6007C164.978 21.5824 164.911 21.5711 164.843 21.5669C164.534 21.5398 164.225 21.6146 163.963 21.7799C163.7 21.9453 163.499 22.192 163.39 22.4825L161.323 28.1744C161.202 28.507 161.211 28.8727 161.347 29.1993C161.483 29.5258 161.737 29.7895 162.058 29.938L168.117 32.7464C168.368 32.8604 168.578 33.0479 168.72 33.284C168.862 33.5202 168.93 33.7939 168.913 34.0691C168.858 35.3358 168.899 36.6048 169.036 37.8652C169.11 38.5451 169.211 39.2158 169.339 39.8771C169.389 40.1401 169.365 40.4118 169.269 40.6618C169.173 40.9118 169.01 41.1302 168.797 41.2924L163.683 45.1928C163.409 45.401 163.224 45.704 163.163 46.0422C163.102 46.3803 163.17 46.729 163.353 47.0195L166.599 52.1295C166.788 52.4294 167.082 52.6488 167.423 52.7454C167.764 52.842 168.129 52.8089 168.447 52.6526L172.824 50.5055C173.106 50.3629 173.428 50.3193 173.737 50.3816C174.047 50.444 174.327 50.6088 174.531 50.8494C176.158 52.8136 178.08 54.5136 180.228 55.8888C180.479 56.046 180.674 56.2788 180.784 56.5536C180.895 56.8285 180.916 57.1313 180.843 57.4187L179.542 62.7535C179.458 63.099 179.504 63.4632 179.672 63.7768C179.839 64.0904 180.116 64.3314 180.45 64.4538L186.118 66.5113C186.445 66.6308 186.805 66.6229 187.126 66.4893C187.448 66.3556 187.707 66.1059 187.853 65.7897L187.972 65.5369L190.314 60.4976C190.435 60.235 190.634 60.0158 190.883 59.8694C191.132 59.7231 191.42 59.6566 191.708 59.679C193.157 59.7794 194.612 59.7509 196.056 59.5937C196.841 59.5085 197.608 59.3836 198.37 59.2307C198.628 59.1753 198.897 59.1944 199.144 59.2857C199.392 59.3771 199.608 59.5369 199.769 59.7466L203.079 64.1041C203.296 64.3903 203.613 64.5847 203.967 64.6489C204.32 64.7131 204.685 64.6424 204.989 64.4509L210.078 61.2177C210.217 61.1261 210.34 61.013 210.443 60.8826C210.6 60.6731 210.697 60.4245 210.723 60.1639C210.749 59.9033 210.703 59.6405 210.59 59.4042L208.78 55.7227C208.673 55.5007 208.626 55.255 208.642 55.0093C208.659 54.7637 208.739 54.5265 208.874 54.3207C208.948 54.2116 209.037 54.1128 209.137 54.0268C211.646 51.9275 213.712 49.3484 215.212 46.4405C215.335 46.2003 215.526 46.0015 215.761 45.8685C215.996 45.7356 216.265 45.6744 216.534 45.6925C216.614 45.6983 216.693 45.7106 216.771 45.7292L221.556 46.9049C221.892 46.9868 222.246 46.9422 222.552 46.7796C222.857 46.6169 223.091 46.3477 223.211 46.0231L223.259 45.8923L225.279 40.3459C225.401 40.0087 225.391 39.6382 225.252 39.3077C225.114 38.9771 224.857 38.7105 224.531 38.5603ZM180.372 32.842C180.542 31.8329 180.806 30.842 181.161 29.8821C181.867 27.9716 183.852 25.4864 185.568 24.393C185.752 24.274 185.937 24.1623 186.121 24.0521C197.444 17.4122 210.19 27.8584 205.71 40.3959C205.123 42.0345 203.653 44.0435 202.137 45.3515C201.81 45.6354 201.463 45.8943 201.097 46.126C199.634 47.0568 198.022 47.7308 196.332 48.1188C187.27 50.1352 178.807 42.5151 180.372 32.842Z" fill="#EBF2F9"/>
<path d="M259.829 202.14C259.984 202.311 260.087 202.523 260.124 202.751C260.162 202.978 260.134 203.212 260.042 203.424C259.732 204.279 258.709 205.235 257.522 206.19C257.375 206.312 257.228 206.424 257.117 206.526L257.027 206.607C257.002 206.629 256.98 206.651 256.957 206.671C255.849 207.699 256.266 207.927 254.275 209.999C252.007 212.361 250.445 212.404 250 212.188C249.624 212.005 250.388 210.752 251.234 209.344L251.358 209.139C251.471 208.953 251.582 208.762 251.694 208.574C252.687 206.879 252.429 206.084 252.196 203.564C252.005 201.506 249.01 192.115 249.01 192.115L253.359 191.367C253.359 191.367 254.668 198.851 256.11 200.003C256.882 200.617 257.746 200.624 258.488 201.08L258.634 201.179C259.074 201.444 259.476 201.767 259.829 202.14Z" fill="#E49963"/>
<path d="M259.829 202.14C259.984 202.311 260.087 202.523 260.125 202.751C260.162 202.978 260.134 203.212 260.042 203.424C259.663 204.279 258.666 205.23 257.518 206.181C257.371 206.306 257.236 206.419 257.117 206.526L257.027 206.607C257.002 206.629 256.98 206.651 256.957 206.671C255.849 207.699 256.266 207.927 254.275 209.999C252.007 212.361 250.445 212.404 250 212.187C249.624 212.005 250.388 210.752 251.234 209.344C252.821 208.724 254.217 207.696 255.279 206.363C256.645 204.619 257.556 202.378 258.488 201.073L258.635 201.171C259.075 201.439 259.476 201.764 259.829 202.14Z" fill="#C65447"/>
<path d="M224.765 199.43C224.496 200.771 222.583 200.548 220.445 200.017C218.307 199.487 218.816 200.117 215.773 199.779C212.73 199.441 211.806 198.31 211.716 197.856C211.634 197.454 213.137 197.313 214.749 197.121C214.951 197.099 215.156 197.074 215.36 197.049C217.18 196.82 218.513 195.645 220.167 194.68C221.733 193.766 224.071 190.042 224.071 190.042L228.242 190.372C228.242 190.372 226.053 193.698 225.207 195.144C224.709 195.995 224.735 197.119 224.797 197.989C224.851 198.469 224.84 198.953 224.765 199.43Z" fill="#E49963"/>
<path d="M220.445 200.017C218.307 199.496 218.816 200.117 215.773 199.779C212.73 199.441 211.806 198.31 211.716 197.856C211.634 197.454 213.137 197.313 214.749 197.121L214.765 197.152C216.068 197.989 217.573 198.457 219.121 198.507C221.178 198.557 223.372 197.966 224.797 197.989C224.85 198.464 224.839 198.944 224.765 199.416C224.502 200.766 222.583 200.542 220.445 200.017Z" fill="#C65447"/>
<path d="M234.051 138.127C234.051 138.127 233.057 135.69 231.963 135.591C230.87 135.493 227.391 134.945 227.143 135.444C226.895 135.944 227.143 137.731 227.888 138.384C228.633 139.036 233.256 140.074 233.256 140.074L234.051 138.127Z" fill="#E49963"/>
<path d="M240.754 172.738L249.746 196.943C250.655 197.011 251.57 196.927 252.452 196.696C253.67 196.343 255.068 195.422 255.068 195.422C255.068 195.422 252.837 172.18 248.75 167.352C244.662 162.524 240.754 172.738 240.754 172.738Z" fill="#AA413E"/>
<path d="M276.32 162.946C276.32 162.946 250.482 154.206 244.719 156.065C238.957 157.924 221.652 192.356 221.652 192.356C221.652 192.356 222.043 192.877 223.108 193.276C224.1 193.648 226.499 193.625 226.499 193.625C226.499 193.625 242.115 180.238 243.973 176.333C245.832 172.428 246.575 168.708 248.434 169.082C250.292 169.455 272.413 178.193 277.432 172.985C282.451 167.777 281.139 161.015 281.139 161.015L276.32 162.946Z" fill="#C65447"/>
<path d="M260.53 122.291C260.118 121.439 259.649 119.925 259.43 117.227C259.465 117.494 259.931 120.901 261.239 122.823C266.612 126.35 276.911 138.136 276.708 140.369C276.708 140.369 280.336 134.215 280.398 134.178C280.398 134.178 287.09 125.666 279.159 120.789C275.127 118.312 275.148 115.131 275.317 112.368C275.486 109.605 274.218 97.7116 266.143 100.824C266.143 100.824 264.846 100.248 264.265 100.335C264.265 100.335 264.74 100.425 264.981 100.674C264.045 100.619 262.706 100.688 261.59 101.323C258.629 103.005 255.98 118.101 260.53 122.291Z" fill="#B5453C"/>
<path d="M261.556 123C261.529 123.012 264.151 124.374 266.124 123.835C267.978 123.327 269.19 120.923 269.164 120.917C268.379 120.762 268.151 119.681 268.169 115.039L267.813 115.109L261.844 116.285C261.844 116.285 261.979 118.165 261.983 119.936C261.986 121.432 261.897 122.841 261.556 123Z" fill="#E49963"/>
<path d="M261.844 116.294C261.844 116.294 261.979 118.173 261.983 119.944C265.324 119.85 267.09 116.801 267.813 115.112L261.844 116.294Z" fill="#D68D5D"/>
<path d="M268.432 114.461C268.432 114.461 270.182 111.694 270.603 109.328C270.896 107.639 270.043 101.377 263.753 102.273C262.486 102.449 261.274 102.907 260.208 103.614C258.843 104.537 256.871 106.528 259.075 111.991L259.648 113.836L268.432 114.461Z" fill="#B5453C"/>
<path d="M260.728 117.971C260.728 117.971 268.632 118.101 268.638 113.177C268.644 108.252 269.667 104.947 264.621 104.653C259.576 104.359 258.597 106.24 258.19 107.886C257.783 109.532 258.672 117.81 260.728 117.971Z" fill="#E49963"/>
<path d="M261.02 104.538C261.02 104.538 263.184 110.317 266.506 111.171C269.828 112.025 271.268 111.135 271.268 111.135C271.268 111.135 268.72 109.11 268.191 105.577C268.191 105.577 262.652 101.788 261.02 104.538Z" fill="#B5453C"/>
<path d="M261.557 105.007C261.557 105.007 259.941 106.297 259.547 107.552C259.153 108.807 258.975 111.388 258.224 111.3C258.224 111.3 256.593 107.373 258.426 105.151C260.368 102.795 261.557 105.007 261.557 105.007Z" fill="#B5453C"/>
<path d="M279.158 144.271C279.936 141.001 277.284 134.655 274.516 129.401C272.004 124.641 269.397 120.777 269.162 120.917C262.538 124.85 261.938 121.58 261.938 121.58C261.938 121.58 255.914 122.379 254.217 125.314C251.866 129.37 249.294 141.546 246.771 141.367C245.613 141.283 233.964 136.904 233.964 136.904C233.964 136.904 232.024 138.723 232.396 140.954C232.396 140.954 238.147 144.808 243.011 147.265C245.584 148.565 247.908 149.469 249.001 149.218C251.217 148.696 254.679 143.557 256.549 140.532L256.562 140.512C258.948 154.033 255.703 157.106 257.345 158.531C259.08 160.036 261.559 157.814 267.013 160.179C270.589 161.731 275.552 163.975 278.893 164.364C280.646 164.57 281.954 164.266 282.38 163.081C283.621 159.641 277.672 150.505 279.158 144.271Z" fill="#699DEE"/>
<path d="M262.484 114.986C262.484 114.986 262.337 115.61 260.781 115.515C260.781 115.515 259.473 115.434 259.515 114.746C259.515 114.746 260.781 114.257 262.484 114.986Z" fill="white"/>
<path d="M282.381 163.081C281.955 164.266 280.648 164.57 278.895 164.364C276.582 163.357 266.593 159.485 266.7 156.862C266.866 152.979 268.62 152.855 267.382 148.061C266.386 144.212 275.61 137.055 277.089 135.499C279.857 140.753 279.934 141.001 279.155 144.271C277.673 150.505 283.622 159.641 282.381 163.081Z" fill="#4A75CB"/>
<path d="M256.55 140.533C254.68 143.557 251.218 148.696 249.003 149.218C247.91 149.475 245.585 148.566 243.013 147.265C244.89 147.75 246.714 147.737 248.487 147.559C250.407 147.374 250.966 145.018 254.001 141.485C255.97 139.2 256.453 139.777 256.55 140.533Z" fill="#4A75CB"/>
<path d="M265.805 147.967C265.805 147.967 264.133 146.667 262.552 146.977C260.971 147.287 260.201 148.372 260.26 148.867C260.319 149.362 261.158 150.757 262.365 150.882C263.573 151.007 267.014 150.137 267.014 150.137L265.805 147.967Z" fill="#E49963"/>
<path d="M269.167 120.917C269.167 120.917 275.61 121.314 277.836 124.425C280.975 128.805 286.428 146.687 284.941 150.777L265.34 150.695C265.34 150.695 264.865 148.474 265.526 147.4C266.187 146.326 276.928 144.59 277.427 144.095C277.927 143.6 271.224 134.425 271.224 132.937C271.224 131.45 269.167 120.917 269.167 120.917Z" fill="#699DEE"/>
<path d="M259.808 141.801H236.115L240.392 156.722H264.124L259.808 141.801Z" fill="#1C468A"/>
<path d="M271.497 156.142H240.474V156.724H271.497V156.142Z" fill="#163560"/>
<path d="M249.828 149.021C249.745 148.757 249.584 148.525 249.365 148.355C249.147 148.185 248.882 148.086 248.606 148.07C248.082 148.07 247.779 148.496 247.929 149.021C248.012 149.285 248.173 149.516 248.391 149.686C248.609 149.856 248.874 149.955 249.15 149.97C249.674 149.969 249.978 149.544 249.828 149.021Z" fill="#163560"/>
<path d="M169.812 181.624H132.432C131.122 181.624 130.06 182.686 130.06 183.997V190.322C130.06 191.633 131.122 192.696 132.432 192.696H169.812C171.122 192.696 172.184 191.633 172.184 190.322V183.997C172.184 182.686 171.122 181.624 169.812 181.624Z" fill="#F99746"/>
<path d="M172.184 189.17V190.318C172.183 190.947 171.932 191.55 171.488 191.995C171.043 192.44 170.441 192.691 169.812 192.693H132.432C131.803 192.691 131.201 192.44 130.756 191.995C130.312 191.55 130.061 190.947 130.06 190.318V189.072H171.504C171.734 189.072 171.963 189.106 172.184 189.17Z" fill="#ED7D2B"/>
<path d="M139.059 192.696L137.375 199.08L130.361 225.649H129.626L133.68 203.605C133.68 203.583 133.69 203.561 133.694 203.537L135.7 192.636L139.059 192.696Z" fill="#E8C6A7"/>
<path d="M139.059 192.696L137.375 199.08C137.278 199.127 134.212 200.714 133.691 203.539L135.697 192.637L139.059 192.696Z" fill="#C69D7B"/>
<path d="M172.185 225.651H171.45L165.732 204.008L164.433 199.086L162.749 192.702L166.115 192.644L167.261 198.877L168.121 203.546C168.121 203.57 168.129 203.592 168.134 203.614L172.185 225.651Z" fill="#E8C6A7"/>
<path d="M160.791 201.055C160.791 201.055 160.783 201.055 160.78 201.055C160.777 201.055 160.767 201.026 160.791 201.055Z" fill="#E8C6A7"/>
<path d="M167.258 198.871C166.638 199.775 165.782 201.475 165.732 204.003L164.433 199.081L162.749 192.697L166.115 192.64L167.258 198.871Z" fill="#C69D7B"/>
<path d="M124.932 57.11C125.8 56.2047 126.389 56.5442 126.389 56.5442C126.389 56.5442 136.648 64.4229 137.626 64.9961C138.605 65.5693 151.948 65.9558 151.948 65.9558C151.948 65.9558 157.292 65.8955 158.588 68.6393C159.715 71.0245 158.92 73.0776 157.756 74.5855C157.075 75.4619 156.146 76.113 155.09 76.4537C154.034 76.7945 152.9 76.8092 151.835 76.496C146.944 75.0675 137.216 72.1532 135.396 71.0392C131.344 68.5614 124.028 58.6634 124.028 58.6634C124.206 58.083 124.515 57.5514 124.932 57.11Z" fill="#599DAD"/>
<path d="M135.988 49.4547L130.866 46.3684C130.658 46.2407 130.49 46.0579 130.379 45.8403C130.269 45.6227 130.221 45.3787 130.24 45.1354C130.291 44.5015 130.317 43.8617 130.318 43.2161C130.322 42.0386 130.233 40.8626 130.051 39.6992C130.008 39.4396 130.044 39.173 130.154 38.9342C130.265 38.6953 130.445 38.4954 130.671 38.3604L136.02 35.1272C136.298 34.9612 136.504 34.696 136.594 34.3849C136.685 34.0739 136.655 33.74 136.51 33.4503L133.996 28.3213C133.858 28.0419 133.622 27.8231 133.333 27.7066C133.044 27.59 132.723 27.5839 132.429 27.6894L127.017 29.6528C126.758 29.75 126.475 29.7606 126.21 29.6829C125.945 29.6053 125.713 29.4436 125.547 29.2222C124.052 27.2898 122.259 25.6068 120.236 24.2357C119.998 24.0703 119.821 23.8313 119.732 23.5554C119.643 23.2795 119.647 22.9821 119.744 22.7088L120.944 19.4197C121.054 19.1151 121.048 18.7808 120.928 18.4801C120.808 18.1794 120.581 17.9333 120.292 17.7884L115.197 15.2901C115.096 15.2384 114.988 15.2012 114.876 15.1798C114.616 15.1256 114.345 15.1543 114.101 15.2618C113.858 15.3693 113.654 15.5503 113.519 15.7794L111.209 19.6005L110.648 20.5337C109.58 20.3814 108.503 20.3048 107.424 20.3045C105.987 20.3076 104.553 20.4439 103.141 20.7115C102.885 20.7625 102.619 20.7335 102.38 20.6283C102.141 20.5232 101.94 20.347 101.804 20.1237L99.2068 15.8103C99.0356 15.5272 98.7646 15.3186 98.4472 15.2255C98.1298 15.1325 97.789 15.1618 97.4922 15.3077L93.5707 17.2329L92.4423 17.7826C92.1455 17.9272 91.9126 18.1765 91.7884 18.4825C91.6642 18.7885 91.6574 19.1296 91.7694 19.4403L93.4076 23.9638C93.5043 24.2158 93.5184 24.4919 93.4478 24.7524C93.3773 25.0129 93.2259 25.2442 93.0154 25.4129C91.7439 26.4478 90.5868 27.616 89.5641 28.8974C89.4717 28.9994 89.3849 29.1064 89.304 29.2178C89.2768 29.2556 89.2458 29.2906 89.2115 29.3221C89.035 29.5095 88.807 29.6404 88.5563 29.6984C88.3056 29.7565 88.0433 29.7391 87.8024 29.6484L82.4588 27.71C82.4 27.6863 82.3389 27.6685 82.2766 27.657C81.992 27.6 81.6966 27.6381 81.4359 27.7656C81.1751 27.8931 80.9636 28.1028 80.8338 28.3625L78.3361 33.4401C78.1919 33.7364 78.1635 34.0758 78.2565 34.392C78.3494 34.7081 78.557 34.9782 78.8386 35.1492L84.1881 38.3663C84.41 38.4977 84.5868 38.6933 84.6952 38.9274C84.8035 39.1615 84.8383 39.4229 84.7949 39.6772C84.6161 40.8478 84.5267 42.0304 84.5275 43.2146C84.5275 43.8554 84.5539 44.4873 84.6054 45.1148C84.6255 45.364 84.5758 45.6138 84.4619 45.8363C84.348 46.0588 84.1743 46.2451 83.9604 46.3743L78.818 49.4811C78.5435 49.6469 78.341 49.9095 78.2505 50.2171C78.1599 50.5248 78.1878 50.8552 78.3287 51.1433L80.8265 56.215C80.9717 56.5128 81.222 56.7462 81.5291 56.8702C81.8363 56.9942 82.1785 57.0001 82.4896 56.8866L86.771 55.3332C87.0478 55.2329 87.3502 55.2279 87.6302 55.319C87.9102 55.41 88.1518 55.5919 88.3167 55.8358C89.6298 57.8238 91.2431 59.5962 93.0991 61.0898C93.3165 61.2607 93.474 61.4963 93.549 61.7625C93.6239 62.0287 93.6125 62.3119 93.5164 62.5712L91.768 67.3887C91.6557 67.701 91.6622 68.0438 91.7863 68.3517C91.9104 68.6596 92.1434 68.911 92.4409 69.0582L97.4966 71.5448C97.788 71.6892 98.1232 71.7185 98.4353 71.6267C98.7474 71.5349 99.0134 71.3288 99.1803 71.0495L99.3214 70.8364L102.004 66.3922C102.143 66.1607 102.349 65.9771 102.595 65.8663C102.841 65.7554 103.116 65.7225 103.381 65.7721C104.716 66.0111 106.07 66.1311 107.426 66.1306C108.16 66.1306 108.895 66.091 109.612 66.0263C109.857 66.0004 110.105 66.0451 110.325 66.1549C110.546 66.2648 110.731 66.4353 110.858 66.6465L113.494 71.026C113.667 71.3145 113.942 71.5274 114.265 71.6227C114.588 71.7179 114.934 71.6886 115.236 71.5404L120.286 69.0552C120.424 68.9842 120.55 68.8914 120.659 68.7804C120.828 68.6024 120.944 68.3818 120.996 68.1424C121.047 67.9031 121.033 67.6541 120.953 67.4225L119.631 63.813C119.554 63.5963 119.535 63.3635 119.575 63.1372C119.615 62.9109 119.713 62.6988 119.859 62.5212C119.939 62.4273 120.032 62.3438 120.133 62.2729C122.676 60.5764 124.855 58.3889 126.541 55.8388C126.679 55.6278 126.877 55.4621 127.109 55.3623C127.341 55.2625 127.597 55.233 127.845 55.2774C127.918 55.2906 127.99 55.3103 128.06 55.3362L132.387 56.9087C132.691 57.0168 133.024 57.0102 133.323 56.89C133.622 56.7698 133.867 56.5444 134.012 56.2562L134.071 56.1386L136.504 51.1918C136.651 50.8903 136.68 50.5444 136.584 50.2227C136.489 49.901 136.276 49.6269 135.988 49.4547ZM95.5542 39.6978C95.8135 38.7777 96.1578 37.8837 96.5827 37.0274C97.4304 35.3241 99.5212 33.2167 101.234 32.3746C101.417 32.2835 101.6 32.1982 101.782 32.113C112.966 27.0883 123.752 38.0724 118.329 49.2651C117.618 50.7274 116.046 52.4439 114.509 53.5079C114.177 53.7379 113.828 53.9427 113.466 54.1208C112.013 54.8379 110.448 55.3016 108.839 55.4919C100.219 56.4516 93.1211 48.5215 95.5542 39.6978Z" fill="#F99746"/>
<path d="M113.594 59.6907C113.594 59.6907 113.609 55.902 113.006 54.7998C112.404 53.6975 111.042 52.319 110.262 52.7599C109.481 53.2008 109.242 56.8925 109.481 57.5539C109.721 58.2152 111.493 60.6959 111.493 60.6959L113.594 59.6907Z" fill="#FFB27D"/>
<path d="M160.552 181.624C161.397 180.9 160.89 176.85 160.89 176.85C160.89 176.85 156.542 173.371 155.944 176.034C155.346 178.697 151.813 179.895 149.803 180.222C148.461 180.439 148.015 181.164 147.866 181.624H160.552Z" fill="#2C3A64"/>
<path d="M161.039 177.04C157.013 177.664 155.541 176.706 155.541 176.706C155.594 172.738 154.365 163.797 152.695 153.528C150.491 139.99 147.488 124.147 145.594 114.382C144.504 108.763 143.779 105.157 143.779 105.157L147.069 105.092L163.477 104.767C163.477 104.767 162.251 122.932 162.586 131.904C162.666 134.045 162.837 135.665 163.134 136.387C165.93 143.184 161.039 177.04 161.039 177.04Z" fill="#35488B"/>
<path d="M162.585 131.904C160.357 136.076 154.772 146.824 152.695 153.528C150.491 139.99 147.488 124.147 145.594 114.382C145.686 110.69 146.129 107.464 147.063 105.092L163.471 104.767C163.471 104.767 162.251 122.932 162.585 131.904Z" fill="#2C3A64"/>
<path d="M146.731 181.624C147.576 180.9 147.071 176.85 147.071 176.85C147.071 176.85 142.722 173.371 142.124 176.034C141.526 178.697 137.994 179.895 135.982 180.222C134.641 180.439 134.196 181.164 134.046 181.624H146.731Z" fill="#2C3A64"/>
<path d="M136.641 104.762C136.641 104.762 143.086 164.421 141.809 176.453C141.809 176.453 143.188 177.532 147.246 177.284C147.246 177.284 154.61 142.915 153.049 137.354C151.965 133.486 156.282 106.177 156.282 106.177L136.641 104.762Z" fill="#35488B"/>
<path d="M152.516 62.0979C152.516 62.0979 144.319 66.1937 140.252 64.3258C140.252 64.3258 141.961 62.114 143.874 61.1955C143.833 60.4607 143.809 59.8082 143.797 59.2247C143.762 57.2848 143.859 56.1928 143.859 56.1928L147.385 53.621L149.792 51.878C149.662 52.8708 149.63 53.874 149.695 54.8731C150.011 59.5877 152.516 62.0979 152.516 62.0979Z" fill="#FFB27D"/>
<path d="M149.695 54.8703C149.695 54.8703 147.785 58.6811 143.798 59.2248C143.762 57.2849 143.859 56.193 143.859 56.193L147.386 53.6211C148.939 54.2031 149.695 54.8703 149.695 54.8703Z" fill="#ED975D"/>
<path d="M142.943 55.946C142.943 55.946 150.281 58.5605 151.838 53.9649C153.395 49.3694 155.389 46.6167 150.771 44.7488C146.153 42.8809 144.643 44.3285 143.751 45.7364C142.859 47.1443 141.076 55.148 142.943 55.946Z" fill="#FFB27D"/>
<path d="M163.997 104.762C162.848 107.156 137.423 107.05 136.166 105.361C135.654 104.676 135.069 97.8103 134.734 89.8287C134.549 85.4065 134.44 80.642 134.46 76.3962C134.499 69.4668 134.887 63.9219 135.862 63.4971C141.312 61.134 144.678 59.6291 151.799 59.8466C152.877 59.876 153.926 60.2003 154.833 60.7843C155.739 61.3683 156.469 62.1897 156.941 63.1591C158.653 66.6995 161.079 72.9719 161.264 80.3818C161.548 91.798 165.438 101.746 163.997 104.762Z" fill="#6BB7BF"/>
<path d="M142.687 71.6932C142.687 71.6932 141.86 83.6326 134.734 89.8286C134.549 85.4064 134.44 80.6419 134.46 76.3961C136.589 73.5479 139.399 71.4978 142.687 71.6932Z" fill="#599DAD"/>
<path d="M146.19 60.0993C146.19 60.0993 138.369 60.1493 135.916 62.4287C134.153 64.0629 122.857 72.9719 122.139 72.8513C121.42 72.7308 114.146 58.205 114.146 58.205C114.146 58.205 110.558 58.5077 109.96 60.0611C109.96 60.0611 113.339 78.1994 120.643 82.1424C120.643 82.1424 139.094 78.6417 144.568 72.5368C147.39 69.3933 146.19 60.0993 146.19 60.0993Z" fill="#6BB7BF"/>
<path d="M143.269 42.1506C143.269 42.1506 143.71 46.5345 145.019 47.7352C146.329 48.9359 145.988 50.579 146.132 50.8215C146.276 51.0639 147.638 50.3556 147.879 50.7597C148.43 51.6871 147.567 52.3631 147.023 52.588C146.48 52.8128 148.413 56.5751 149.833 56.7132C152.288 56.9542 156.082 50.1616 156.402 48.1717C156.821 45.5675 155.347 41.5084 151.121 41.7053C144.48 42.0169 143.136 40.5752 143.269 42.1506Z" fill="#2B478B"/>
<path d="M341.454 22.9556H333.615V71.8004H341.454V22.9556Z" fill="#AFCDFB"/>
<path d="M354.649 9.34106H346.811V71.8005H354.649V9.34106Z" fill="#AFCDFB"/>
<path d="M368.664 34.7672H360.825V71.8005H368.664V34.7672Z" fill="#AFCDFB"/>
<path d="M354.217 2.43174e-06H347.579C347.486 -0.00429525 347.393 0.0102914 347.306 0.0428804C347.219 0.0754694 347.139 0.125384 347.072 0.189606C347.005 0.253828 346.951 0.331024 346.915 0.416525C346.878 0.502027 346.859 0.594059 346.859 0.687057C346.859 0.780055 346.878 0.872087 346.915 0.957589C346.951 1.04309 347.005 1.12029 347.072 1.18451C347.139 1.24873 347.219 1.29865 347.306 1.33123C347.393 1.36382 347.486 1.37841 347.579 1.37411H354.217C354.31 1.37841 354.403 1.36382 354.49 1.33123C354.577 1.29865 354.656 1.24873 354.723 1.18451C354.791 1.12029 354.844 1.04309 354.881 0.957589C354.917 0.872087 354.936 0.780055 354.936 0.687057C354.936 0.594059 354.917 0.502027 354.881 0.416525C354.844 0.331024 354.791 0.253828 354.723 0.189606C354.656 0.125384 354.577 0.0754694 354.49 0.0428804C354.403 0.0102914 354.31 -0.00429525 354.217 2.43174e-06Z" fill="#AFCDFB"/>
<path d="M349.095 3.87387C349.271 3.86569 349.438 3.78974 349.56 3.66178C349.682 3.53383 349.75 3.36372 349.75 3.18681C349.75 3.0099 349.682 2.8398 349.56 2.71184C349.438 2.58389 349.271 2.50793 349.095 2.49976H347.583C347.49 2.49546 347.397 2.51005 347.31 2.54264C347.223 2.57523 347.143 2.62514 347.076 2.68936C347.009 2.75358 346.955 2.83078 346.919 2.91628C346.882 3.00178 346.863 3.09382 346.863 3.18681C346.863 3.27981 346.882 3.37184 346.919 3.45734C346.955 3.54285 347.009 3.62004 347.076 3.68426C347.143 3.74849 347.223 3.7984 347.31 3.83099C347.397 3.86358 347.49 3.87817 347.583 3.87387H349.095Z" fill="#AFCDFB"/>
<path d="M368.063 27.4822H361.423C361.242 27.4826 361.067 27.5551 360.939 27.6837C360.81 27.8123 360.738 27.9866 360.737 28.1685C360.738 28.3506 360.81 28.5251 360.939 28.6539C361.067 28.7828 361.241 28.8555 361.423 28.8563H368.063C368.245 28.8555 368.419 28.7828 368.548 28.6539C368.676 28.5251 368.749 28.3506 368.749 28.1685C368.749 27.9866 368.676 27.8123 368.548 27.6837C368.419 27.5551 368.245 27.4826 368.063 27.4822Z" fill="#AFCDFB"/>
<path d="M361.424 31.3518H362.936C363.029 31.3561 363.122 31.3415 363.209 31.3089C363.296 31.2763 363.376 31.2264 363.443 31.1622C363.51 31.0979 363.564 31.0207 363.6 30.9352C363.637 30.8497 363.656 30.7577 363.656 30.6647C363.656 30.5717 363.637 30.4797 363.6 30.3942C363.564 30.3087 363.51 30.2315 363.443 30.1673C363.376 30.103 363.296 30.0531 363.209 30.0205C363.122 29.988 363.029 29.9734 362.936 29.9777H361.424C361.248 29.9858 361.081 30.0618 360.959 30.1897C360.837 30.3177 360.769 30.4878 360.769 30.6647C360.769 30.8416 360.837 31.0117 360.959 31.1397C361.081 31.2676 361.248 31.3436 361.424 31.3518Z" fill="#AFCDFB"/>
</g>
<defs>
<clipPath id="clip0">
<rect width="486" height="227" fill="white"/>
</clipPath>
</defs>
</svg>
