<svg width="32" height="32" viewBox="0 0 32 32" fill="none" xmlns="http://www.w3.org/2000/svg">
<path d="M11.1868 4.97874C6.99898 6.69005 7.01769 9.21024 7.52912 10.4618L8.49296 12.8204L13.3066 10.8534L13.5033 11.3348L6.33099 14.2656C4.7425 14.9148 3.42476 16.9138 4.88035 20.4758C6.33595 24.0379 8.67655 24.542 10.265 23.8929L13.1051 22.7323L11.9249 19.8442C11.4921 18.7852 12.0045 17.5646 13.0635 17.1319L18.8398 14.7715C19.6581 14.4371 20.0282 13.5556 19.6938 12.7373L17.1563 6.52773C16.4679 4.84297 14.1713 3.75919 11.1868 4.97874ZM10.791 10.1961C10.2615 10.4125 9.65126 10.1563 9.43489 9.62683C9.21852 9.09733 9.47471 8.48708 10.0042 8.2707C10.5337 8.05433 11.144 8.31052 11.3603 8.84002C11.5767 9.36952 11.3205 9.97978 10.791 10.1961Z" fill="#D4088C"/>
<path d="M20.7164 26.9246C24.9043 25.2133 24.8856 22.6931 24.3741 21.4416L23.4103 19.0829L18.5967 21.0499L18.4 20.5686L25.5723 17.6377C27.1608 16.9886 28.4785 14.9896 27.0229 11.4275C25.5673 7.86545 23.2267 7.36138 21.6382 8.0105L18.7982 9.17104L20.1751 12.5406C20.6079 13.5996 20.0955 14.8201 19.0365 15.2528L13.2602 17.6132C12.4418 17.9476 12.0718 18.8291 12.4062 19.6474L14.7469 25.3756C15.4354 27.0604 17.732 28.1442 20.7164 26.9246ZM21.1122 21.7072C21.6417 21.4908 22.252 21.747 22.4684 22.2765C22.6847 22.806 22.4286 23.4163 21.8991 23.6327C21.3696 23.849 20.7593 23.5928 20.5429 23.0633C20.3266 22.5338 20.5828 21.9236 21.1122 21.7072Z" fill="#D4088C"/>
</svg>
