<svg width="46" height="48" viewBox="0 0 46 48" fill="none" xmlns="http://www.w3.org/2000/svg">
<g opacity="0.8" clip-path="url(#clip0)" filter="url(#filter0_d)">
<path d="M28.0318 9.38993C27.9341 9.42565 27.85 9.49833 27.8026 9.60002L27.4602 10.3377C27.3656 10.5415 27.4541 10.7827 27.6574 10.8774C27.737 10.9144 27.8222 10.9237 27.9021 10.9089C28.0271 10.8859 28.139 10.8041 28.1971 10.6802L28.5397 9.94333C28.6343 9.73957 28.5466 9.49815 28.3433 9.40347C28.2412 9.356 28.1294 9.35421 28.0318 9.38993ZM16.4593 13.1261C15.9421 13.2052 15.4757 13.3985 15.0925 13.7252C14.4794 14.2479 14.1694 15.0367 14.1073 15.9426C14.0452 16.8484 14.2178 17.89 14.585 19.0221C14.7053 19.3932 14.8543 19.7772 15.0162 20.1658C14.6459 20.365 14.2883 20.5681 13.9612 20.7799C12.9622 21.4269 12.1715 22.1265 11.6484 22.8686C11.1253 23.6108 10.8684 24.4184 11.0146 25.2108C11.1607 26.0032 11.6888 26.666 12.4423 27.1727C13.1957 27.6794 14.1841 28.0508 15.3481 28.2988C15.7293 28.38 16.1358 28.4421 16.5528 28.4962C16.5402 28.9169 16.5379 29.328 16.5578 29.7176C16.6187 30.9062 16.8291 31.9408 17.2103 32.7649C17.5915 33.589 18.1625 34.2153 18.9218 34.4849C19.6811 34.7545 20.5192 34.6286 21.3347 34.2294C22.1503 33.8303 22.966 33.16 23.7628 32.276C24.0239 31.9863 24.2811 31.6656 24.5366 31.3312C24.8944 31.5523 25.2494 31.7604 25.5965 31.9377C26.6563 32.4793 27.6575 32.8144 28.5618 32.8963C29.4661 32.9783 30.2939 32.7969 30.9071 32.2741C31.5202 31.7514 31.8302 30.9626 31.8923 30.0567C31.9544 29.1509 31.7818 28.1093 31.4146 26.9772C31.2944 26.6066 31.1453 26.2231 30.9837 25.8351C31.3541 25.6358 31.7114 25.4321 32.0386 25.2202C33.0375 24.5732 33.8283 23.8736 34.3514 23.1315C34.8745 22.3893 35.1313 21.5817 34.9852 20.7893C34.839 19.9969 34.3109 19.3341 33.5574 18.8274C32.804 18.3207 31.8157 17.9493 30.6516 17.7013C30.2704 17.62 29.8639 17.5572 29.4468 17.5031C29.4594 17.0829 29.4618 16.6716 29.4419 16.2825C29.3811 15.0939 29.1706 14.0593 28.7894 13.2352C28.4083 12.4111 27.8373 11.7848 27.078 11.5152C26.3187 11.2456 25.4806 11.3715 24.665 11.7707C23.8495 12.1698 23.0337 12.8401 22.2369 13.7241C21.9759 14.0137 21.7185 14.3347 21.4631 14.6688C21.1052 14.4476 20.7503 14.239 20.4031 14.0616C19.3433 13.52 18.3421 13.1849 17.4378 13.103C17.0987 13.0722 16.7697 13.0787 16.4593 13.1261ZM29.7906 10.7631C29.7397 10.7769 29.6907 10.8011 29.6467 10.8356L29.0073 11.3368C28.8309 11.4755 28.7997 11.7319 28.9384 11.9079C29.0351 12.0313 29.1882 12.0829 29.332 12.0563C29.3944 12.0448 29.4552 12.0186 29.5086 11.977L30.1478 11.475C30.3243 11.3363 30.3556 11.0807 30.2169 10.9047C30.1128 10.7721 29.9433 10.7216 29.7906 10.7631ZM16.5876 13.9263C16.8215 13.8916 17.0806 13.8871 17.3645 13.9128C18.1214 13.9814 19.0376 14.2775 20.0324 14.7859C20.3411 14.9437 20.66 15.1284 20.9816 15.3257C20.3359 16.2563 19.7224 17.3255 19.1616 18.4983C17.9149 18.8665 16.7625 19.3036 15.7415 19.7939C15.5976 19.4452 15.4655 19.1012 15.3585 18.7713C15.0138 17.7087 14.8661 16.757 14.918 15.9988C14.97 15.2405 15.2084 14.6943 15.6197 14.3436C15.8767 14.1245 16.1977 13.9841 16.5876 13.9263ZM25.7523 12.2366C26.1371 12.1515 26.4878 12.168 26.8061 12.281C27.3154 12.4618 27.7329 12.8863 28.052 13.5761C28.371 14.2659 28.5719 15.2086 28.6291 16.3243C28.6468 16.6706 28.6467 17.0382 28.6367 17.4154C27.5079 17.3215 26.2755 17.3244 24.9794 17.4251C24.0372 16.5296 23.0826 15.7505 22.1475 15.1114C22.3775 14.8125 22.6087 14.5262 22.8408 14.2687C23.5887 13.4389 24.3389 12.8346 25.0215 12.5005C25.2775 12.3752 25.5214 12.2876 25.7523 12.2366ZM30.7735 12.6885L30.0049 12.9529C29.7928 13.0259 29.6803 13.2576 29.7533 13.4697C29.8199 13.6627 30.0163 13.7729 30.2109 13.737C30.2305 13.7334 30.2495 13.728 30.2693 13.7214L31.0379 13.457C31.25 13.384 31.3634 13.1529 31.2904 12.9409C31.2175 12.7292 30.9871 12.6193 30.7735 12.6885ZM21.6658 15.7675C22.3975 16.2666 23.1488 16.8582 23.8993 17.5316C23.2892 17.6035 22.6713 17.6903 22.0419 17.8064C21.4122 17.9226 20.8037 18.0619 20.2078 18.2125C20.6688 17.3154 21.1601 16.495 21.6658 15.7675ZM30.5138 14.8414C30.2922 14.8695 30.1327 15.0722 30.1609 15.2946C30.1884 15.5176 30.3921 15.6757 30.6149 15.6474L31.4208 15.5463C31.4289 15.5452 31.4364 15.5442 31.4444 15.5428C31.6541 15.5041 31.7996 15.3069 31.7728 15.0925C31.7453 14.8695 31.5426 14.7121 31.3198 14.7403L30.5138 14.8414ZM22.1892 18.6054C23.039 18.4487 23.8722 18.3381 24.6816 18.2643C25.2631 18.8319 25.8395 19.4434 26.4 20.1008C26.9608 20.7585 27.4736 21.4242 27.9422 22.0884C27.7414 22.8761 27.4999 23.681 27.2107 24.4954C26.9216 25.3095 26.6012 26.0864 26.2605 26.8241C25.478 27.044 24.6602 27.2379 23.8105 27.3947C22.9607 27.5514 22.1275 27.662 21.3181 27.7358C20.7364 27.168 20.1596 26.5571 19.5989 25.8994C19.0382 25.2418 18.526 24.5751 18.0573 23.9109C18.2581 23.1237 18.4993 22.3187 18.7883 21.5048C19.0775 20.6904 19.3983 19.914 19.7392 19.176C20.5217 18.9561 21.3395 18.7622 22.1892 18.6054ZM18.7137 19.4862C18.4708 20.0508 18.2367 20.6296 18.0225 21.233C17.8084 21.8359 17.6254 22.4325 17.4579 23.0234C16.9117 22.1758 16.4466 21.341 16.0695 20.5395C16.8677 20.1553 17.755 19.7995 18.7137 19.4862ZM25.7496 18.1883C26.7572 18.139 27.7133 18.1547 28.5963 18.2288C28.5299 19.1122 28.3935 20.0587 28.1856 21.0454C27.818 20.5528 27.4339 20.0609 27.0185 19.5736C26.6032 19.0866 26.1777 18.629 25.7496 18.1883ZM15.3449 20.9112C15.828 21.9356 16.4467 23.0012 17.182 24.0732C16.8775 25.337 16.6798 26.5531 16.5939 27.6825C16.22 27.6329 15.8567 27.5757 15.5177 27.5035C14.425 27.2707 13.5263 26.9226 12.8956 26.4985C12.2649 26.0744 11.9116 25.5949 11.8136 25.0634C11.7155 24.5319 11.8746 23.958 12.3124 23.3367C12.7503 22.7155 13.4657 22.0697 14.4033 21.4624C14.6943 21.274 15.0133 21.091 15.3449 20.9112ZM29.405 18.3177C29.7792 18.3674 30.1428 18.4243 30.4821 18.4966C31.5747 18.7294 32.4734 19.0775 33.1041 19.5016C33.7348 19.9257 34.0881 20.4052 34.1862 20.9367C34.2842 21.4681 34.1252 22.0421 33.6873 22.6633C33.2495 23.2846 32.534 23.9303 31.5964 24.5376C31.3054 24.7261 30.9864 24.9091 30.6548 25.0889C30.1717 24.0644 29.5523 22.9991 28.817 21.927C29.1213 20.6635 29.3192 19.4469 29.405 18.3177ZM22.484 20.2035C20.9442 20.4875 19.9193 21.9761 20.2033 23.5159C20.4873 25.0557 21.9759 26.0806 23.5157 25.7966C25.0555 25.5126 26.0805 24.024 25.7964 22.4842C25.5124 20.9444 24.0238 19.9195 22.484 20.2035ZM22.6314 21.0025C23.7394 20.7981 24.793 21.5236 24.9974 22.6316C25.2018 23.7395 24.4763 24.7932 23.3683 24.9976C22.2604 25.202 21.2067 24.4765 21.0023 23.3685C20.7979 22.2606 21.5235 21.2069 22.6314 21.0025ZM28.5416 22.9759C29.0879 23.8236 29.5531 24.6591 29.9303 25.4606C29.1318 25.8449 28.2442 26.2007 27.2853 26.5141C27.5281 25.9496 27.7623 25.3704 27.9765 24.7672C28.1907 24.1639 28.374 23.5673 28.5416 22.9759ZM17.8143 24.9554C18.1816 25.4476 18.5654 25.9398 18.9805 26.4266C19.3959 26.9138 19.821 27.3711 20.2494 27.8119C19.2421 27.8612 18.2862 27.8454 17.4034 27.7713C17.4698 26.8879 17.6064 25.9422 17.8143 24.9554ZM17.3631 28.5847C18.4918 28.6786 19.7243 28.6757 21.0203 28.575C21.9626 29.4705 22.9172 30.2504 23.8524 30.8894C23.6224 31.1884 23.3902 31.474 23.1581 31.7315C22.4102 32.5614 21.6601 33.1657 20.9774 33.4998C20.2948 33.8339 19.7031 33.9007 19.1938 33.7199C18.6845 33.539 18.2661 33.1139 17.947 32.4241C17.6279 31.7343 17.427 30.7916 17.3699 29.6759C17.3522 29.3296 17.353 28.9619 17.3631 28.5847ZM30.2582 26.2061C30.4021 26.5549 30.5334 26.8983 30.6403 27.2281C30.985 28.2908 31.1336 29.2431 31.0817 30.0013C31.0297 30.7596 30.7912 31.3051 30.3799 31.6557C29.9686 32.0063 29.3922 32.1558 28.6352 32.0872C27.8783 32.0187 26.9612 31.7219 25.9664 31.2135C25.6577 31.0558 25.3396 30.8709 25.018 30.6736C25.6636 29.743 26.2774 28.6746 26.8382 27.5018C28.0848 27.1336 29.2372 26.6965 30.2582 26.2061ZM14.5193 29.4046C14.2937 29.4156 14.1223 29.6064 14.1339 29.8307C14.1448 30.0551 14.3357 30.2272 14.56 30.216L15.3715 30.1753C15.3899 30.1743 15.4077 30.1726 15.4252 30.1694C15.6226 30.133 15.7674 29.9546 15.7568 29.7492C15.746 29.5248 15.555 29.3526 15.3307 29.3638L14.5193 29.4046ZM22.0996 28.4687C22.71 28.3967 23.3282 28.3098 23.9579 28.1937C24.5873 28.0776 25.1955 27.9382 25.7912 27.7877C25.3302 28.6846 24.8395 29.5052 24.334 30.2326C23.6021 29.7334 22.8503 29.1422 22.0996 28.4687ZM15.514 31.3286L14.7208 31.5031C14.5012 31.5511 14.3623 31.7672 14.4105 31.9864C14.4576 32.2012 14.6664 32.3386 14.8805 32.2991C14.8853 32.2982 14.8906 32.2976 14.8946 32.2965L15.6878 32.1219C15.9074 32.074 16.0463 31.8578 15.998 31.6387C15.9501 31.4191 15.7314 31.2732 15.514 31.3286ZM16.2055 33.1399C16.1529 33.1441 16.1008 33.159 16.0509 33.1853L15.3293 33.5597C15.1302 33.6629 15.0527 33.9081 15.156 34.1072C15.2401 34.2698 15.4192 34.3516 15.5905 34.3199C15.6289 34.3129 15.6666 34.2998 15.7035 34.2806L16.4252 33.9062C16.6242 33.803 16.7021 33.5577 16.5985 33.3587C16.5214 33.2093 16.3635 33.1271 16.2055 33.1399ZM17.3499 34.5981C17.2466 34.6093 17.1474 34.6592 17.0771 34.7461L16.5669 35.3792C16.426 35.5535 16.4536 35.8095 16.628 35.9504C16.7241 36.0281 16.8448 36.0541 16.9571 36.0333C17.0494 36.0163 17.1359 35.9672 17.1991 35.8887L17.7094 35.2564C17.8503 35.0821 17.8227 34.826 17.6484 34.6851C17.5608 34.6147 17.4533 34.587 17.3499 34.5981Z" fill="white"/>
</g>
<defs>
<filter id="filter0_d" x="-2.14258" y="-1.14249" width="50.285" height="50.285" filterUnits="userSpaceOnUse" color-interpolation-filters="sRGB">
<feFlood flood-opacity="0" result="BackgroundImageFix"/>
<feColorMatrix in="SourceAlpha" type="matrix" values="0 0 0 0 0 0 0 0 0 0 0 0 0 0 0 0 0 0 127 0"/>
<feOffset dy="1"/>
<feGaussianBlur stdDeviation="5"/>
<feColorMatrix type="matrix" values="0 0 0 0 1 0 0 0 0 1 0 0 0 0 1 0 0 0 1 0"/>
<feBlend mode="normal" in2="BackgroundImageFix" result="effect1_dropShadow"/>
<feBlend mode="normal" in="SourceGraphic" in2="effect1_dropShadow" result="shape"/>
</filter>
<clipPath id="clip0">
<rect width="26" height="26" fill="white" transform="translate(7.85742 12.5738) rotate(-10.4511)"/>
</clipPath>
</defs>
</svg>
