<svg width="31" height="25" viewBox="0 0 31 25" fill="none" xmlns="http://www.w3.org/2000/svg">
<path d="M15.6284 0.986287C15.4629 0.989021 15.3051 1.06105 15.1898 1.18656C15.0744 1.31208 15.0109 1.48082 15.0132 1.65576V3.63711C15.012 3.72462 15.0273 3.81151 15.0582 3.89273C15.0891 3.97394 15.1349 4.04786 15.1931 4.11019C15.2512 4.17251 15.3205 4.222 15.3969 4.25579C15.4734 4.28957 15.5554 4.30696 15.6382 4.30696C15.721 4.30696 15.803 4.28957 15.8794 4.25579C15.9558 4.222 16.0251 4.17251 16.0833 4.11019C16.1414 4.04786 16.1873 3.97394 16.2182 3.89273C16.2491 3.81151 16.2644 3.72462 16.2632 3.63711V1.65576C16.2643 1.5674 16.2487 1.4797 16.2172 1.39784C16.1857 1.31599 16.1389 1.24164 16.0797 1.17922C16.0206 1.11679 15.9501 1.06755 15.8726 1.03441C15.7951 1.00127 15.712 0.984907 15.6284 0.986287V0.986287ZM10.3281 3.31075C10.2039 3.31104 10.0826 3.35045 9.97962 3.42393C9.87668 3.49741 9.79679 3.60164 9.75016 3.72332C9.70352 3.84499 9.69226 3.97859 9.7178 4.10706C9.74334 4.23553 9.80453 4.35305 9.89355 4.44461L11.2192 5.84548C11.2768 5.90887 11.3458 5.95947 11.4221 5.99433C11.4985 6.0292 11.5806 6.04761 11.6638 6.04851C11.7469 6.0494 11.8294 6.03276 11.9064 5.99954C11.9834 5.96633 12.0533 5.91722 12.1121 5.85508C12.1709 5.79295 12.2174 5.71904 12.2488 5.63769C12.2803 5.55634 12.296 5.46917 12.2952 5.38131C12.2943 5.29344 12.2769 5.20663 12.2439 5.12597C12.2109 5.04532 12.163 4.97242 12.103 4.91157L10.7773 3.51069C10.719 3.44727 10.6491 3.39689 10.5719 3.36254C10.4948 3.3282 10.4119 3.31059 10.3281 3.31075V3.31075ZM20.9287 3.31075C20.7663 3.31587 20.6122 3.38758 20.499 3.51069L19.1733 4.91157C19.1134 4.97242 19.0655 5.04532 19.0325 5.12597C18.9995 5.20663 18.9821 5.29344 18.9812 5.38131C18.9804 5.46917 18.9961 5.55634 19.0275 5.63769C19.059 5.71904 19.1055 5.79295 19.1643 5.85508C19.2231 5.91722 19.293 5.96633 19.37 5.99954C19.447 6.03276 19.5294 6.0494 19.6126 6.04851C19.6958 6.04761 19.7779 6.0292 19.8542 5.99433C19.9306 5.95947 19.9995 5.90887 20.0571 5.84548L21.3828 4.44461C21.4731 4.35184 21.5348 4.2324 21.5598 4.10195C21.5848 3.9715 21.5719 3.83612 21.5228 3.71355C21.4737 3.59098 21.3907 3.48694 21.2847 3.41506C21.1787 3.34319 21.0546 3.30683 20.9287 3.31075V3.31075ZM15.6382 5.61845C13.5745 5.61845 11.8882 7.40043 11.8882 9.58114C11.8882 11.7618 13.5745 13.5438 15.6382 13.5438C17.7018 13.5438 19.3882 11.7618 19.3882 9.58114C19.3882 7.40043 17.7018 5.61845 15.6382 5.61845ZM15.6382 6.93935C17.0263 6.93935 18.1382 8.11429 18.1382 9.58114C18.1382 11.048 17.0263 12.2229 15.6382 12.2229C14.2501 12.2229 13.1382 11.048 13.1382 9.58114C13.1382 8.11429 14.2501 6.93935 15.6382 6.93935ZM8.13818 8.92069C8.05536 8.91945 7.97314 8.93562 7.89628 8.96826C7.81943 9.00089 7.74948 9.04934 7.69049 9.11079C7.63151 9.17224 7.58468 9.24547 7.55271 9.32621C7.52074 9.40696 7.50428 9.49361 7.50428 9.58114C7.50428 9.66866 7.52074 9.75532 7.55271 9.83606C7.58468 9.91681 7.63151 9.99003 7.69049 10.0515C7.74948 10.1129 7.81943 10.1614 7.89628 10.194C7.97314 10.2267 8.05536 10.2428 8.13818 10.2416H10.0132C10.096 10.2428 10.1782 10.2267 10.2551 10.194C10.3319 10.1614 10.4019 10.1129 10.4609 10.0515C10.5199 9.99003 10.5667 9.91681 10.5987 9.83606C10.6306 9.75532 10.6471 9.66866 10.6471 9.58114C10.6471 9.49361 10.6306 9.40696 10.5987 9.32621C10.5667 9.24547 10.5199 9.17224 10.4609 9.11079C10.4019 9.04934 10.3319 9.00089 10.2551 8.96826C10.1782 8.93562 10.096 8.91945 10.0132 8.92069H8.13818ZM21.2632 8.92069C21.1804 8.91945 21.0981 8.93562 21.0213 8.96826C20.9444 9.00089 20.8745 9.04934 20.8155 9.11079C20.7565 9.17224 20.7097 9.24547 20.6777 9.32621C20.6457 9.40696 20.6293 9.49361 20.6293 9.58114C20.6293 9.66866 20.6457 9.75532 20.6777 9.83606C20.7097 9.91681 20.7565 9.99003 20.8155 10.0515C20.8745 10.1129 20.9444 10.1614 21.0213 10.194C21.0981 10.2267 21.1804 10.2428 21.2632 10.2416H23.1382C23.221 10.2428 23.3032 10.2267 23.3801 10.194C23.4569 10.1614 23.5269 10.1129 23.5859 10.0515C23.6449 9.99003 23.6917 9.91681 23.7237 9.83606C23.7556 9.75532 23.7721 9.66866 23.7721 9.58114C23.7721 9.49361 23.7556 9.40696 23.7237 9.32621C23.6917 9.24547 23.6449 9.17224 23.5859 9.11079C23.5269 9.04934 23.4569 9.00089 23.3801 8.96826C23.3032 8.93562 23.221 8.91945 23.1382 8.92069H21.2632ZM5.63818 11.5625C3.9197 11.5625 2.51318 13.0488 2.51318 14.8647C2.51318 16.6807 3.9197 18.167 5.63818 18.167C7.35667 18.167 8.76318 16.6807 8.76318 14.8647C8.76318 13.0488 7.35667 11.5625 5.63818 11.5625ZM25.6382 11.5625C23.9197 11.5625 22.5132 13.0488 22.5132 14.8647C22.5132 16.6807 23.9197 18.167 25.6382 18.167C27.3567 18.167 28.7632 16.6807 28.7632 14.8647C28.7632 13.0488 27.3567 11.5625 25.6382 11.5625ZM5.63818 12.8834C6.68112 12.8834 7.51318 13.7626 7.51318 14.8647C7.51318 15.9668 6.68112 16.8461 5.63818 16.8461C4.59525 16.8461 3.76318 15.9668 3.76318 14.8647C3.76318 13.7626 4.59525 12.8834 5.63818 12.8834ZM25.6382 12.8834C26.6811 12.8834 27.5132 13.7626 27.5132 14.8647C27.5132 15.9668 26.6811 16.8461 25.6382 16.8461C24.5952 16.8461 23.7632 15.9668 23.7632 14.8647C23.7632 13.7626 24.5952 12.8834 25.6382 12.8834ZM13.1382 14.8647C11.0785 14.8647 9.38818 16.6509 9.38818 18.8274V20.1302C8.88013 19.7321 8.25872 19.4879 7.58276 19.4879H5.63818H3.6936C2.01584 19.4879 0.638184 20.9436 0.638184 22.7166V24.111H1.88818V22.7166C1.88818 21.6641 2.69762 20.8087 3.6936 20.8087H5.63818H7.58276C8.57875 20.8087 9.38818 21.6641 9.38818 22.7166V23.4505V24.111H10.6382V22.7166V18.8274C10.6382 17.3714 11.7603 16.1856 13.1382 16.1856H18.1382C19.516 16.1856 20.6382 17.3714 20.6382 18.8274V22.7166V24.111H21.8882V22.7166C21.8882 21.6641 22.6976 20.8087 23.6936 20.8087H25.6382H27.5828C28.5787 20.8087 29.3882 21.6641 29.3882 22.7166V24.111H30.6382V22.7166C30.6382 20.9436 29.2605 19.4879 27.5828 19.4879H25.6382H23.6936C23.0176 19.4879 22.3962 19.7321 21.8882 20.1302V18.8274C21.8882 16.6509 20.1978 14.8647 18.1382 14.8647H13.1382Z" fill="#A4A4A4"/>
</svg>
