<svg width="212" height="147" viewBox="0 0 212 147" fill="none" xmlns="http://www.w3.org/2000/svg">
<rect width="50" height="50" rx="10" fill="#CCF6C8"/>
<path d="M1.215 71.128H14.607V74.908H9.774V91H5.859V74.908H1.215V71.128ZM20.8799 91.324C19.4399 91.324 18.2159 91.054 17.2079 90.514C16.2179 89.974 15.4619 89.227 14.9399 88.273C14.4179 87.319 14.1569 86.221 14.1569 84.979C14.1569 83.791 14.4629 82.72 15.0749 81.766C15.6869 80.812 16.5059 80.056 17.5319 79.498C18.5579 78.922 19.7009 78.634 20.9609 78.634C22.6529 78.634 24.0389 79.129 25.1189 80.119C26.2169 81.091 26.9279 82.504 27.2519 84.358L18.6119 87.112C19.1879 87.778 19.9709 88.111 20.9609 88.111C21.3749 88.111 21.7709 88.039 22.1489 87.895C22.5449 87.751 22.9319 87.562 23.3099 87.328L24.9839 90.136C24.3539 90.496 23.6699 90.784 22.9319 91C22.2119 91.216 21.5279 91.324 20.8799 91.324ZM17.8829 84.763C17.8829 84.853 17.8829 84.934 17.8829 85.006L23.0669 83.251C22.9049 82.801 22.6439 82.414 22.2839 82.09C21.9239 81.748 21.3839 81.577 20.6639 81.577C19.8179 81.577 19.1429 81.865 18.6389 82.441C18.1349 83.017 17.8829 83.791 17.8829 84.763ZM29.9987 69.697H33.7787V91H29.9987V69.697ZM43.4765 91.324C42.0365 91.324 40.8125 91.054 39.8045 90.514C38.8145 89.974 38.0585 89.227 37.5365 88.273C37.0145 87.319 36.7535 86.221 36.7535 84.979C36.7535 83.791 37.0595 82.72 37.6715 81.766C38.2835 80.812 39.1025 80.056 40.1285 79.498C41.1545 78.922 42.2975 78.634 43.5575 78.634C45.2495 78.634 46.6355 79.129 47.7155 80.119C48.8135 81.091 49.5245 82.504 49.8485 84.358L41.2085 87.112C41.7845 87.778 42.5675 88.111 43.5575 88.111C43.9715 88.111 44.3675 88.039 44.7455 87.895C45.1415 87.751 45.5285 87.562 45.9065 87.328L47.5805 90.136C46.9505 90.496 46.2665 90.784 45.5285 91C44.8085 91.216 44.1245 91.324 43.4765 91.324ZM40.4795 84.763C40.4795 84.853 40.4795 84.934 40.4795 85.006L45.6635 83.251C45.5015 82.801 45.2405 82.414 44.8805 82.09C44.5205 81.748 43.9805 81.577 43.2605 81.577C42.4145 81.577 41.7395 81.865 41.2355 82.441C40.7315 83.017 40.4795 83.791 40.4795 84.763ZM58.6974 96.94C57.6354 96.94 56.7354 96.814 55.9974 96.562C55.2774 96.31 54.6654 96.004 54.1614 95.644C53.6574 95.284 53.2074 94.942 52.8114 94.618L55.0254 92.026C55.4394 92.404 55.9164 92.764 56.4564 93.106C57.0144 93.466 57.7434 93.646 58.6434 93.646C59.5434 93.646 60.3264 93.412 60.9924 92.944C61.6764 92.494 62.0184 91.828 62.0184 90.946V89.272C61.6764 89.83 61.1454 90.316 60.4254 90.73C59.7054 91.126 58.7694 91.324 57.6174 91.324C56.5554 91.324 55.5654 91.054 54.6474 90.514C53.7474 89.956 53.0274 89.209 52.4874 88.273C51.9474 87.319 51.6774 86.239 51.6774 85.033C51.6774 83.791 51.9654 82.693 52.5414 81.739C53.1174 80.767 53.8644 80.002 54.7824 79.444C55.7004 78.886 56.6724 78.607 57.6984 78.607C58.7244 78.607 59.6064 78.76 60.3444 79.066C61.1004 79.354 61.6584 79.705 62.0184 80.119L62.3154 79.201H65.7984V91C65.7984 92.152 65.4744 93.169 64.8264 94.051C64.1784 94.951 63.3144 95.653 62.2344 96.157C61.1724 96.679 59.9934 96.94 58.6974 96.94ZM55.4844 84.925C55.4844 85.861 55.7994 86.653 56.4294 87.301C57.0594 87.931 57.8334 88.246 58.7514 88.246C60.2634 88.246 61.3524 87.652 62.0184 86.464V83.575C61.7664 82.999 61.3524 82.54 60.7764 82.198C60.2004 81.856 59.5254 81.685 58.7514 81.685C57.8334 81.685 57.0594 81.991 56.4294 82.603C55.7994 83.197 55.4844 83.971 55.4844 84.925ZM73.0833 79.201L73.3803 81.901C73.7223 81.217 74.1903 80.632 74.7843 80.146C75.3783 79.642 75.9633 79.264 76.5393 79.012C77.1153 78.742 77.5563 78.607 77.8623 78.607L77.6733 82.387C76.7913 82.279 76.0353 82.423 75.4053 82.819C74.7753 83.215 74.2893 83.737 73.9473 84.385C73.6053 85.033 73.4343 85.699 73.4343 86.383V91H69.6813V79.201H73.0833ZM85.328 91.324C84.23 91.324 83.231 91.108 82.331 90.676C81.449 90.226 80.747 89.542 80.225 88.624C79.703 87.706 79.442 86.536 79.442 85.114C79.442 83.782 79.712 82.63 80.252 81.658C80.792 80.686 81.503 79.939 82.385 79.417C83.267 78.877 84.203 78.607 85.193 78.607C86.363 78.607 87.245 78.796 87.839 79.174C88.451 79.552 88.937 79.966 89.297 80.416L89.54 79.201H93.05V91H89.27V89.542C89.09 89.722 88.82 89.956 88.46 90.244C88.118 90.532 87.686 90.784 87.164 91C86.642 91.216 86.03 91.324 85.328 91.324ZM86.408 88.246C87.722 88.246 88.676 87.652 89.27 86.464V83.575C89.054 82.999 88.676 82.54 88.136 82.198C87.614 81.856 86.993 81.685 86.273 81.685C85.463 81.685 84.761 81.991 84.167 82.603C83.573 83.197 83.276 83.971 83.276 84.925C83.276 85.555 83.42 86.122 83.708 86.626C83.996 87.13 84.374 87.526 84.842 87.814C85.328 88.102 85.85 88.246 86.408 88.246ZM100.374 79.201L100.644 81.064C101.094 80.29 101.67 79.687 102.372 79.255C103.092 78.823 103.938 78.607 104.91 78.607C105.864 78.607 106.656 78.805 107.286 79.201C107.934 79.579 108.357 80.155 108.555 80.929C109.041 80.227 109.626 79.669 110.31 79.255C111.012 78.823 111.741 78.607 112.497 78.607C113.667 78.607 114.594 78.94 115.278 79.606C115.98 80.254 116.34 81.1 116.358 82.144V91H112.605V83.71C112.587 83.188 112.506 82.765 112.362 82.441C112.218 82.099 111.885 81.91 111.363 81.874C110.751 81.874 110.229 82.09 109.797 82.522C109.383 82.936 109.068 83.476 108.852 84.142C108.654 84.79 108.555 85.465 108.555 86.167V91H104.775V83.71C104.757 83.188 104.658 82.765 104.478 82.441C104.316 82.099 103.974 81.91 103.452 81.874C102.858 81.874 102.354 82.09 101.94 82.522C101.544 82.936 101.238 83.467 101.022 84.115C100.824 84.763 100.725 85.429 100.725 86.113V91H96.945V79.201H100.374Z" fill="#394677"/>
<path d="M37.5875 12.1949C37.5875 12.1949 15.7383 21.1281 9.00098 23.9634V25.4997L16.9919 28.6933L19.7733 37.1066L20.5911 37.1117L25.8258 32.6896L32.1492 38.7825H34.1987L39.001 12.7317L37.5875 12.1949Z" stroke="#28A41C" stroke-width="2" stroke-miterlimit="10"/>
<path d="M32.695 18.2593C32.695 18.2593 18.5405 26.4269 15.5605 28.1196C16.4002 28.4561 16.9925 28.6934 16.9925 28.6934C16.9925 28.6934 18.9292 34.4901 19.3314 35.7605C19.7335 37.0326 20.0566 37.0629 20.0566 37.0629C20.1458 37.1016 20.2333 37.1168 20.314 37.1168C20.3797 37.1168 20.4251 37.0932 20.4806 37.0781L22.4611 29.3244L33.0315 18.5975L32.695 18.2593Z" fill="#28A41C"/>
<path d="M17.808 108.04C17.8507 107.901 17.9253 107.8 18.032 107.736C18.1387 107.661 18.256 107.624 18.384 107.624C18.5547 107.624 18.6987 107.677 18.816 107.784C18.944 107.88 19.008 108.013 19.008 108.184C19.008 108.259 18.992 108.344 18.96 108.44L15.344 118.632C15.2907 118.781 15.2 118.899 15.072 118.984C14.944 119.059 14.8 119.096 14.64 119.096C14.4907 119.096 14.352 119.059 14.224 118.984C14.096 118.899 14.0053 118.781 13.952 118.632L10.816 109.768L7.648 118.632C7.59467 118.781 7.504 118.899 7.376 118.984C7.248 119.059 7.10933 119.096 6.96 119.096C6.81067 119.096 6.672 119.059 6.544 118.984C6.416 118.899 6.32533 118.781 6.272 118.632L2.64 108.44C2.608 108.355 2.592 108.275 2.592 108.2C2.592 108.029 2.656 107.891 2.784 107.784C2.92267 107.677 3.07733 107.624 3.248 107.624C3.376 107.624 3.49333 107.661 3.6 107.736C3.71733 107.8 3.79733 107.901 3.84 108.04L6.992 117.128L10.192 108.136C10.2453 107.976 10.3307 107.859 10.448 107.784C10.5653 107.699 10.6933 107.656 10.832 107.656C10.9707 107.656 11.0987 107.699 11.216 107.784C11.3333 107.869 11.4187 107.992 11.472 108.152L14.624 117.16L17.808 108.04ZM25.9508 117.192C26.0681 117.192 26.1694 117.24 26.2548 117.336C26.3401 117.432 26.3828 117.555 26.3828 117.704C26.3828 117.971 26.1961 118.216 25.8228 118.44C25.4388 118.664 25.0334 118.835 24.6068 118.952C24.1801 119.059 23.7641 119.112 23.3588 119.112C22.1534 119.112 21.1988 118.755 20.4948 118.04C19.8014 117.325 19.4548 116.339 19.4548 115.08C19.4548 114.28 19.6094 113.576 19.9188 112.968C20.2281 112.349 20.6601 111.869 21.2148 111.528C21.7801 111.187 22.4201 111.016 23.1348 111.016C24.1481 111.016 24.9534 111.347 25.5508 112.008C26.1481 112.669 26.4468 113.565 26.4468 114.696C26.4468 114.909 26.4041 115.064 26.3188 115.16C26.2334 115.256 26.0948 115.304 25.9028 115.304H20.7508C20.8468 117.139 21.7161 118.056 23.3588 118.056C23.7748 118.056 24.1321 118.003 24.4308 117.896C24.7294 117.779 25.0494 117.624 25.3908 117.432C25.6681 117.272 25.8548 117.192 25.9508 117.192ZM23.1508 112.024C22.4681 112.024 21.9188 112.237 21.5028 112.664C21.0974 113.091 20.8574 113.693 20.7828 114.472H25.3108C25.2894 113.683 25.0921 113.08 24.7188 112.664C24.3454 112.237 23.8228 112.024 23.1508 112.024ZM35.1053 119.112C34.6146 119.112 34.1453 119.053 33.6973 118.936C33.2599 118.819 32.8706 118.653 32.5293 118.44C32.3373 118.312 32.1986 118.195 32.1133 118.088C32.0386 117.971 32.0013 117.832 32.0013 117.672C32.0013 117.533 32.0386 117.421 32.1133 117.336C32.1986 117.24 32.3053 117.192 32.4333 117.192C32.5613 117.192 32.7479 117.272 32.9933 117.432C33.3133 117.624 33.6279 117.779 33.9373 117.896C34.2573 118.003 34.6519 118.056 35.1213 118.056C35.6973 118.056 36.1453 117.955 36.4653 117.752C36.7853 117.549 36.9453 117.256 36.9453 116.872C36.9453 116.637 36.8866 116.451 36.7693 116.312C36.6519 116.163 36.4493 116.035 36.1613 115.928C35.8733 115.811 35.4519 115.693 34.8973 115.576C33.9586 115.373 33.2866 115.101 32.8813 114.76C32.4759 114.419 32.2733 113.955 32.2733 113.368C32.2733 112.909 32.4013 112.504 32.6573 112.152C32.9133 111.8 33.2653 111.523 33.7133 111.32C34.1719 111.117 34.6893 111.016 35.2653 111.016C35.6813 111.016 36.0813 111.075 36.4653 111.192C36.8599 111.299 37.2066 111.453 37.5053 111.656C37.8679 111.912 38.0493 112.179 38.0493 112.456C38.0493 112.595 38.0066 112.712 37.9213 112.808C37.8359 112.904 37.7346 112.952 37.6173 112.952C37.4893 112.952 37.2973 112.861 37.0413 112.68C36.7426 112.488 36.4599 112.339 36.1933 112.232C35.9266 112.125 35.5959 112.072 35.2013 112.072C34.6999 112.072 34.2946 112.184 33.9853 112.408C33.6866 112.632 33.5373 112.931 33.5373 113.304C33.5373 113.539 33.5906 113.731 33.6973 113.88C33.8146 114.019 34.0013 114.147 34.2573 114.264C34.5239 114.371 34.9026 114.477 35.3932 114.584C36.1186 114.744 36.6786 114.92 37.0733 115.112C37.4786 115.304 37.7666 115.539 37.9373 115.816C38.1079 116.093 38.1933 116.445 38.1933 116.872C38.1933 117.544 37.9106 118.088 37.3453 118.504C36.7799 118.909 36.0333 119.112 35.1053 119.112ZM44.1048 111.016C45.0221 111.016 45.7154 111.277 46.1848 111.8C46.6541 112.312 46.8888 113.08 46.8888 114.104V118.44C46.8888 118.643 46.8301 118.803 46.7128 118.92C46.5954 119.027 46.4408 119.08 46.2488 119.08C46.0461 119.08 45.8861 119.027 45.7688 118.92C45.6514 118.803 45.5928 118.643 45.5928 118.44V114.136C45.5928 113.443 45.4488 112.931 45.1608 112.6C44.8834 112.269 44.4354 112.104 43.8168 112.104C43.1021 112.104 42.5314 112.323 42.1048 112.76C41.6781 113.197 41.4648 113.789 41.4648 114.536V118.44C41.4648 118.643 41.4061 118.803 41.2888 118.92C41.1821 119.027 41.0274 119.08 40.8248 119.08C40.6221 119.08 40.4621 119.027 40.3448 118.92C40.2274 118.803 40.1688 118.643 40.1688 118.44V108.264C40.1688 108.083 40.2274 107.933 40.3448 107.816C40.4728 107.699 40.6328 107.64 40.8248 107.64C41.0274 107.64 41.1821 107.699 41.2888 107.816C41.4061 107.923 41.4648 108.072 41.4648 108.264V112.456C41.7208 111.987 42.0781 111.629 42.5368 111.384C42.9954 111.139 43.5181 111.016 44.1048 111.016ZM52.4465 111.016C54.3985 111.016 55.3745 112.04 55.3745 114.088V118.44C55.3745 118.632 55.3158 118.787 55.1985 118.904C55.0918 119.021 54.9425 119.08 54.7505 119.08C54.5585 119.08 54.4038 119.021 54.2865 118.904C54.1692 118.787 54.1105 118.632 54.1105 118.44V117.672C53.9078 118.131 53.5985 118.488 53.1825 118.744C52.7665 118.989 52.2865 119.112 51.7425 119.112C51.2412 119.112 50.7772 119.011 50.3505 118.808C49.9345 118.605 49.6038 118.323 49.3585 117.96C49.1132 117.597 48.9905 117.197 48.9905 116.76C48.9905 116.173 49.1398 115.72 49.4385 115.4C49.7372 115.069 50.2278 114.835 50.9105 114.696C51.5932 114.547 52.5425 114.472 53.7585 114.472H54.1105V113.944C54.1105 113.304 53.9772 112.835 53.7105 112.536C53.4545 112.237 53.0332 112.088 52.4465 112.088C51.7212 112.088 50.9852 112.285 50.2385 112.68C49.9505 112.861 49.7478 112.952 49.6305 112.952C49.5025 112.952 49.3958 112.904 49.3105 112.808C49.2252 112.712 49.1825 112.589 49.1825 112.44C49.1825 112.291 49.2252 112.163 49.3105 112.056C49.4065 111.939 49.5558 111.821 49.7585 111.704C50.1318 111.491 50.5532 111.325 51.0225 111.208C51.5025 111.08 51.9772 111.016 52.4465 111.016ZM51.9185 118.088C52.5585 118.088 53.0812 117.875 53.4865 117.448C53.9025 117.011 54.1105 116.451 54.1105 115.768V115.304H53.8225C52.8838 115.304 52.1692 115.347 51.6785 115.432C51.1878 115.507 50.8358 115.64 50.6225 115.832C50.4198 116.013 50.3185 116.285 50.3185 116.648C50.3185 117.064 50.4678 117.411 50.7665 117.688C51.0758 117.955 51.4598 118.088 51.9185 118.088ZM61.6029 111.048C62.0509 111.016 62.2749 111.197 62.2749 111.592C62.2749 111.763 62.2269 111.901 62.1309 112.008C62.0349 112.104 61.8695 112.163 61.6349 112.184L61.1549 112.232C60.4402 112.296 59.9069 112.552 59.5549 113C59.2135 113.437 59.0429 113.955 59.0429 114.552V118.44C59.0429 118.653 58.9842 118.813 58.8669 118.92C58.7495 119.027 58.5949 119.08 58.4029 119.08C58.2109 119.08 58.0509 119.027 57.9229 118.92C57.8055 118.803 57.7469 118.643 57.7469 118.44V111.688C57.7469 111.485 57.8109 111.331 57.9389 111.224C58.0669 111.107 58.2215 111.048 58.4029 111.048C58.5735 111.048 58.7175 111.107 58.8349 111.224C58.9522 111.331 59.0109 111.48 59.0109 111.672V112.568C59.2349 112.099 59.5495 111.741 59.9549 111.496C60.3709 111.251 60.8455 111.107 61.3789 111.064L61.6029 111.048ZM69.2633 117.192C69.3806 117.192 69.4819 117.24 69.5673 117.336C69.6526 117.432 69.6953 117.555 69.6953 117.704C69.6953 117.971 69.5086 118.216 69.1353 118.44C68.7513 118.664 68.3459 118.835 67.9193 118.952C67.4926 119.059 67.0766 119.112 66.6713 119.112C65.4659 119.112 64.5113 118.755 63.8073 118.04C63.1139 117.325 62.7673 116.339 62.7673 115.08C62.7673 114.28 62.9219 113.576 63.2313 112.968C63.5406 112.349 63.9726 111.869 64.5273 111.528C65.0926 111.187 65.7326 111.016 66.4473 111.016C67.4606 111.016 68.2659 111.347 68.8633 112.008C69.4606 112.669 69.7593 113.565 69.7593 114.696C69.7593 114.909 69.7166 115.064 69.6313 115.16C69.5459 115.256 69.4073 115.304 69.2153 115.304H64.0633C64.1593 117.139 65.0286 118.056 66.6713 118.056C67.0873 118.056 67.4446 118.003 67.7433 117.896C68.0419 117.779 68.3619 117.624 68.7033 117.432C68.9806 117.272 69.1673 117.192 69.2633 117.192ZM66.4633 112.024C65.7806 112.024 65.2313 112.237 64.8153 112.664C64.4099 113.091 64.1699 113.693 64.0953 114.472H68.6233C68.6019 113.683 68.4046 113.08 68.0313 112.664C67.6579 112.237 67.1353 112.024 66.4633 112.024ZM79.0098 119.112C78.2844 119.112 77.6391 118.947 77.0738 118.616C76.5191 118.285 76.0871 117.816 75.7778 117.208C75.4791 116.6 75.3298 115.896 75.3298 115.096C75.3298 114.296 75.4844 113.587 75.7938 112.968C76.1138 112.349 76.5564 111.869 77.1218 111.528C77.6871 111.187 78.3378 111.016 79.0738 111.016C79.4791 111.016 79.8791 111.075 80.2738 111.192C80.6791 111.299 81.0311 111.459 81.3298 111.672C81.5218 111.8 81.6551 111.928 81.7298 112.056C81.8151 112.173 81.8578 112.307 81.8578 112.456C81.8578 112.605 81.8151 112.728 81.7298 112.824C81.6551 112.92 81.5538 112.968 81.4258 112.968C81.3511 112.968 81.2711 112.947 81.1858 112.904C81.1004 112.861 81.0258 112.819 80.9618 112.776C80.9084 112.733 80.8711 112.707 80.8498 112.696C80.5724 112.515 80.3058 112.371 80.0498 112.264C79.8044 112.157 79.5004 112.104 79.1378 112.104C78.3591 112.104 77.7511 112.371 77.3138 112.904C76.8871 113.427 76.6738 114.157 76.6738 115.096C76.6738 116.035 76.8871 116.76 77.3138 117.272C77.7511 117.784 78.3591 118.04 79.1378 118.04C79.5004 118.04 79.8098 117.987 80.0658 117.88C80.3324 117.773 80.5991 117.629 80.8658 117.448C80.9831 117.373 81.0951 117.309 81.2018 117.256C81.3084 117.203 81.3991 117.176 81.4738 117.176C81.5911 117.176 81.6871 117.224 81.7618 117.32C81.8471 117.416 81.8898 117.539 81.8898 117.688C81.8898 117.827 81.8524 117.955 81.7778 118.072C81.7031 118.179 81.5644 118.301 81.3618 118.44C81.0631 118.643 80.7004 118.808 80.2738 118.936C79.8578 119.053 79.4364 119.112 79.0098 119.112ZM87.306 111.048C87.754 111.016 87.978 111.197 87.978 111.592C87.978 111.763 87.93 111.901 87.834 112.008C87.738 112.104 87.5727 112.163 87.338 112.184L86.858 112.232C86.1433 112.296 85.61 112.552 85.258 113C84.9167 113.437 84.746 113.955 84.746 114.552V118.44C84.746 118.653 84.6873 118.813 84.57 118.92C84.4527 119.027 84.298 119.08 84.106 119.08C83.914 119.08 83.754 119.027 83.626 118.92C83.5087 118.803 83.45 118.643 83.45 118.44V111.688C83.45 111.485 83.514 111.331 83.642 111.224C83.77 111.107 83.9247 111.048 84.106 111.048C84.2767 111.048 84.4207 111.107 84.538 111.224C84.6553 111.331 84.714 111.48 84.714 111.672V112.568C84.938 112.099 85.2527 111.741 85.658 111.496C86.074 111.251 86.5487 111.107 87.082 111.064L87.306 111.048ZM92.2121 111.016C94.1641 111.016 95.1401 112.04 95.1401 114.088V118.44C95.1401 118.632 95.0815 118.787 94.9641 118.904C94.8575 119.021 94.7081 119.08 94.5161 119.08C94.3241 119.08 94.1695 119.021 94.0521 118.904C93.9348 118.787 93.8761 118.632 93.8761 118.44V117.672C93.6735 118.131 93.3641 118.488 92.9481 118.744C92.5321 118.989 92.0521 119.112 91.5081 119.112C91.0068 119.112 90.5428 119.011 90.1161 118.808C89.7001 118.605 89.3695 118.323 89.1241 117.96C88.8788 117.597 88.7561 117.197 88.7561 116.76C88.7561 116.173 88.9055 115.72 89.2041 115.4C89.5028 115.069 89.9935 114.835 90.6761 114.696C91.3588 114.547 92.3081 114.472 93.5241 114.472H93.8761V113.944C93.8761 113.304 93.7428 112.835 93.4761 112.536C93.2201 112.237 92.7988 112.088 92.2121 112.088C91.4868 112.088 90.7508 112.285 90.0041 112.68C89.7161 112.861 89.5135 112.952 89.3961 112.952C89.2681 112.952 89.1615 112.904 89.0761 112.808C88.9908 112.712 88.9481 112.589 88.9481 112.44C88.9481 112.291 88.9908 112.163 89.0761 112.056C89.1721 111.939 89.3215 111.821 89.5241 111.704C89.8975 111.491 90.3188 111.325 90.7881 111.208C91.2681 111.08 91.7428 111.016 92.2121 111.016ZM91.6841 118.088C92.3241 118.088 92.8468 117.875 93.2521 117.448C93.6681 117.011 93.8761 116.451 93.8761 115.768V115.304H93.5881C92.6495 115.304 91.9348 115.347 91.4441 115.432C90.9535 115.507 90.6015 115.64 90.3881 115.832C90.1855 116.013 90.0841 116.285 90.0841 116.648C90.0841 117.064 90.2335 117.411 90.5321 117.688C90.8415 117.955 91.2255 118.088 91.6841 118.088ZM103.241 117.976C103.422 117.976 103.561 118.024 103.657 118.12C103.753 118.205 103.801 118.328 103.801 118.488C103.801 118.648 103.753 118.776 103.657 118.872C103.561 118.957 103.422 119 103.241 119H97.6405C97.4592 119 97.3098 118.947 97.1925 118.84C97.0752 118.723 97.0165 118.584 97.0165 118.424C97.0165 118.253 97.0805 118.088 97.2085 117.928L101.945 112.232H97.5605C97.3792 112.232 97.2352 112.189 97.1285 112.104C97.0325 112.008 96.9845 111.885 96.9845 111.736C96.9845 111.576 97.0325 111.448 97.1285 111.352C97.2352 111.256 97.3792 111.208 97.5605 111.208H102.985C103.177 111.208 103.331 111.267 103.449 111.384C103.566 111.491 103.625 111.624 103.625 111.784C103.625 111.955 103.561 112.12 103.433 112.28L98.6805 117.976H103.241ZM111.082 111.448C111.199 111.192 111.386 111.064 111.642 111.064C111.802 111.064 111.946 111.117 112.074 111.224C112.202 111.331 112.266 111.464 112.266 111.624C112.266 111.72 112.244 111.805 112.202 111.88L107.706 121.576C107.652 121.693 107.572 121.784 107.466 121.848C107.37 121.912 107.268 121.944 107.162 121.944C107.002 121.944 106.858 121.891 106.73 121.784C106.612 121.688 106.554 121.56 106.554 121.4C106.554 121.315 106.575 121.229 106.618 121.144L107.738 118.728L104.57 111.88C104.527 111.805 104.506 111.725 104.506 111.64C104.506 111.48 104.575 111.341 104.714 111.224C104.863 111.107 105.023 111.048 105.194 111.048C105.3 111.048 105.402 111.08 105.498 111.144C105.604 111.208 105.684 111.299 105.738 111.416L108.41 117.416L111.082 111.448ZM126.481 111.016C128.209 111.016 129.073 112.045 129.073 114.104V118.44C129.073 118.643 129.015 118.803 128.897 118.92C128.78 119.027 128.625 119.08 128.433 119.08C128.241 119.08 128.081 119.027 127.953 118.92C127.836 118.803 127.777 118.643 127.777 118.44V114.136C127.777 113.421 127.649 112.904 127.393 112.584C127.137 112.264 126.737 112.104 126.193 112.104C125.543 112.104 125.031 112.323 124.657 112.76C124.284 113.197 124.097 113.789 124.097 114.536V118.44C124.097 118.643 124.033 118.803 123.905 118.92C123.788 119.027 123.633 119.08 123.441 119.08C123.249 119.08 123.095 119.027 122.977 118.92C122.86 118.803 122.801 118.643 122.801 118.44V114.136C122.801 113.421 122.673 112.904 122.417 112.584C122.161 112.264 121.756 112.104 121.201 112.104C120.561 112.104 120.049 112.323 119.665 112.76C119.292 113.197 119.105 113.789 119.105 114.536V118.44C119.105 118.643 119.047 118.803 118.929 118.92C118.812 119.027 118.657 119.08 118.465 119.08C118.273 119.08 118.113 119.027 117.985 118.92C117.868 118.803 117.809 118.643 117.809 118.44V111.688C117.809 111.496 117.868 111.341 117.985 111.224C118.113 111.107 118.273 111.048 118.465 111.048C118.647 111.048 118.796 111.107 118.913 111.224C119.031 111.331 119.089 111.48 119.089 111.672V112.44C119.324 111.981 119.649 111.629 120.065 111.384C120.481 111.139 120.961 111.016 121.505 111.016C122.721 111.016 123.516 111.528 123.889 112.552C124.113 112.083 124.455 111.709 124.913 111.432C125.372 111.155 125.895 111.016 126.481 111.016ZM137.466 117.192C137.584 117.192 137.685 117.24 137.77 117.336C137.856 117.432 137.898 117.555 137.898 117.704C137.898 117.971 137.712 118.216 137.338 118.44C136.954 118.664 136.549 118.835 136.122 118.952C135.696 119.059 135.28 119.112 134.874 119.112C133.669 119.112 132.714 118.755 132.01 118.04C131.317 117.325 130.97 116.339 130.97 115.08C130.97 114.28 131.125 113.576 131.434 112.968C131.744 112.349 132.176 111.869 132.73 111.528C133.296 111.187 133.936 111.016 134.65 111.016C135.664 111.016 136.469 111.347 137.066 112.008C137.664 112.669 137.962 113.565 137.962 114.696C137.962 114.909 137.92 115.064 137.834 115.16C137.749 115.256 137.61 115.304 137.418 115.304H132.266C132.362 117.139 133.232 118.056 134.874 118.056C135.29 118.056 135.648 118.003 135.946 117.896C136.245 117.779 136.565 117.624 136.906 117.432C137.184 117.272 137.37 117.192 137.466 117.192ZM134.666 112.024C133.984 112.024 133.434 112.237 133.018 112.664C132.613 113.091 132.373 113.693 132.298 114.472H136.826C136.805 113.683 136.608 113.08 136.234 112.664C135.861 112.237 135.338 112.024 134.666 112.024ZM148.544 111.016C150.272 111.016 151.136 112.045 151.136 114.104V118.44C151.136 118.643 151.077 118.803 150.96 118.92C150.843 119.027 150.688 119.08 150.496 119.08C150.304 119.08 150.144 119.027 150.016 118.92C149.899 118.803 149.84 118.643 149.84 118.44V114.136C149.84 113.421 149.712 112.904 149.456 112.584C149.2 112.264 148.8 112.104 148.256 112.104C147.605 112.104 147.093 112.323 146.72 112.76C146.347 113.197 146.16 113.789 146.16 114.536V118.44C146.16 118.643 146.096 118.803 145.968 118.92C145.851 119.027 145.696 119.08 145.504 119.08C145.312 119.08 145.157 119.027 145.04 118.92C144.923 118.803 144.864 118.643 144.864 118.44V114.136C144.864 113.421 144.736 112.904 144.48 112.584C144.224 112.264 143.819 112.104 143.264 112.104C142.624 112.104 142.112 112.323 141.728 112.76C141.355 113.197 141.168 113.789 141.168 114.536V118.44C141.168 118.643 141.109 118.803 140.992 118.92C140.875 119.027 140.72 119.08 140.528 119.08C140.336 119.08 140.176 119.027 140.048 118.92C139.931 118.803 139.872 118.643 139.872 118.44V111.688C139.872 111.496 139.931 111.341 140.048 111.224C140.176 111.107 140.336 111.048 140.528 111.048C140.709 111.048 140.859 111.107 140.976 111.224C141.093 111.331 141.152 111.48 141.152 111.672V112.44C141.387 111.981 141.712 111.629 142.128 111.384C142.544 111.139 143.024 111.016 143.568 111.016C144.784 111.016 145.579 111.528 145.952 112.552C146.176 112.083 146.517 111.709 146.976 111.432C147.435 111.155 147.957 111.016 148.544 111.016ZM159.529 117.192C159.646 117.192 159.748 117.24 159.833 117.336C159.918 117.432 159.961 117.555 159.961 117.704C159.961 117.971 159.774 118.216 159.401 118.44C159.017 118.664 158.612 118.835 158.185 118.952C157.758 119.059 157.342 119.112 156.937 119.112C155.732 119.112 154.777 118.755 154.073 118.04C153.38 117.325 153.033 116.339 153.033 115.08C153.033 114.28 153.188 113.576 153.497 112.968C153.806 112.349 154.238 111.869 154.793 111.528C155.358 111.187 155.998 111.016 156.713 111.016C157.726 111.016 158.532 111.347 159.129 112.008C159.726 112.669 160.025 113.565 160.025 114.696C160.025 114.909 159.982 115.064 159.897 115.16C159.812 115.256 159.673 115.304 159.481 115.304H154.329C154.425 117.139 155.294 118.056 156.937 118.056C157.353 118.056 157.71 118.003 158.009 117.896C158.308 117.779 158.628 117.624 158.969 117.432C159.246 117.272 159.433 117.192 159.529 117.192ZM156.729 112.024C156.046 112.024 155.497 112.237 155.081 112.664C154.676 113.091 154.436 113.693 154.361 114.472H158.889C158.868 113.683 158.67 113.08 158.297 112.664C157.924 112.237 157.401 112.024 156.729 112.024ZM164.558 119.112C164.068 119.112 163.598 119.053 163.15 118.936C162.713 118.819 162.324 118.653 161.982 118.44C161.79 118.312 161.652 118.195 161.566 118.088C161.492 117.971 161.454 117.832 161.454 117.672C161.454 117.533 161.492 117.421 161.566 117.336C161.652 117.24 161.758 117.192 161.886 117.192C162.014 117.192 162.201 117.272 162.446 117.432C162.766 117.624 163.081 117.779 163.39 117.896C163.71 118.003 164.105 118.056 164.574 118.056C165.15 118.056 165.598 117.955 165.918 117.752C166.238 117.549 166.398 117.256 166.398 116.872C166.398 116.637 166.34 116.451 166.222 116.312C166.105 116.163 165.902 116.035 165.614 115.928C165.326 115.811 164.905 115.693 164.35 115.576C163.412 115.373 162.74 115.101 162.334 114.76C161.929 114.419 161.726 113.955 161.726 113.368C161.726 112.909 161.854 112.504 162.11 112.152C162.366 111.8 162.718 111.523 163.166 111.32C163.625 111.117 164.142 111.016 164.718 111.016C165.134 111.016 165.534 111.075 165.918 111.192C166.313 111.299 166.66 111.453 166.958 111.656C167.321 111.912 167.502 112.179 167.502 112.456C167.502 112.595 167.46 112.712 167.374 112.808C167.289 112.904 167.188 112.952 167.07 112.952C166.942 112.952 166.75 112.861 166.494 112.68C166.196 112.488 165.913 112.339 165.646 112.232C165.38 112.125 165.049 112.072 164.654 112.072C164.153 112.072 163.748 112.184 163.438 112.408C163.14 112.632 162.99 112.931 162.99 113.304C162.99 113.539 163.044 113.731 163.15 113.88C163.268 114.019 163.454 114.147 163.71 114.264C163.977 114.371 164.356 114.477 164.846 114.584C165.572 114.744 166.132 114.92 166.526 115.112C166.932 115.304 167.22 115.539 167.39 115.816C167.561 116.093 167.646 116.445 167.646 116.872C167.646 117.544 167.364 118.088 166.798 118.504C166.233 118.909 165.486 119.112 164.558 119.112ZM177.683 111.016C178.6 111.016 179.294 111.277 179.763 111.8C180.232 112.312 180.467 113.08 180.467 114.104V118.44C180.467 118.643 180.408 118.803 180.291 118.92C180.174 119.027 180.019 119.08 179.827 119.08C179.624 119.08 179.464 119.027 179.347 118.92C179.23 118.803 179.171 118.643 179.171 118.44V114.136C179.171 113.443 179.027 112.931 178.739 112.6C178.462 112.269 178.014 112.104 177.395 112.104C176.68 112.104 176.11 112.323 175.683 112.76C175.256 113.197 175.043 113.789 175.043 114.536V118.44C175.043 118.643 174.984 118.803 174.867 118.92C174.76 119.027 174.606 119.08 174.403 119.08C174.2 119.08 174.04 119.027 173.923 118.92C173.806 118.803 173.747 118.643 173.747 118.44V108.264C173.747 108.083 173.806 107.933 173.923 107.816C174.051 107.699 174.211 107.64 174.403 107.64C174.606 107.64 174.76 107.699 174.867 107.816C174.984 107.923 175.043 108.072 175.043 108.264V112.456C175.299 111.987 175.656 111.629 176.115 111.384C176.574 111.139 177.096 111.016 177.683 111.016ZM188.873 117.192C188.99 117.192 189.091 117.24 189.177 117.336C189.262 117.432 189.305 117.555 189.305 117.704C189.305 117.971 189.118 118.216 188.745 118.44C188.361 118.664 187.955 118.835 187.529 118.952C187.102 119.059 186.686 119.112 186.281 119.112C185.075 119.112 184.121 118.755 183.417 118.04C182.723 117.325 182.377 116.339 182.377 115.08C182.377 114.28 182.531 113.576 182.841 112.968C183.15 112.349 183.582 111.869 184.137 111.528C184.702 111.187 185.342 111.016 186.057 111.016C187.07 111.016 187.875 111.347 188.473 112.008C189.07 112.669 189.369 113.565 189.369 114.696C189.369 114.909 189.326 115.064 189.241 115.16C189.155 115.256 189.017 115.304 188.825 115.304H183.673C183.769 117.139 184.638 118.056 186.281 118.056C186.697 118.056 187.054 118.003 187.353 117.896C187.651 117.779 187.971 117.624 188.313 117.432C188.59 117.272 188.777 117.192 188.873 117.192ZM186.073 112.024C185.39 112.024 184.841 112.237 184.425 112.664C184.019 113.091 183.779 113.693 183.705 114.472H188.233C188.211 113.683 188.014 113.08 187.641 112.664C187.267 112.237 186.745 112.024 186.073 112.024ZM195.134 111.048C195.582 111.016 195.806 111.197 195.806 111.592C195.806 111.763 195.758 111.901 195.662 112.008C195.566 112.104 195.401 112.163 195.166 112.184L194.686 112.232C193.971 112.296 193.438 112.552 193.086 113C192.745 113.437 192.574 113.955 192.574 114.552V118.44C192.574 118.653 192.515 118.813 192.398 118.92C192.281 119.027 192.126 119.08 191.934 119.08C191.742 119.08 191.582 119.027 191.454 118.92C191.337 118.803 191.278 118.643 191.278 118.44V111.688C191.278 111.485 191.342 111.331 191.47 111.224C191.598 111.107 191.753 111.048 191.934 111.048C192.105 111.048 192.249 111.107 192.366 111.224C192.483 111.331 192.542 111.48 192.542 111.672V112.568C192.766 112.099 193.081 111.741 193.486 111.496C193.902 111.251 194.377 111.107 194.91 111.064L195.134 111.048ZM202.795 117.192C202.912 117.192 203.013 117.24 203.099 117.336C203.184 117.432 203.227 117.555 203.227 117.704C203.227 117.971 203.04 118.216 202.667 118.44C202.283 118.664 201.877 118.835 201.451 118.952C201.024 119.059 200.608 119.112 200.203 119.112C198.997 119.112 198.043 118.755 197.339 118.04C196.645 117.325 196.299 116.339 196.299 115.08C196.299 114.28 196.453 113.576 196.763 112.968C197.072 112.349 197.504 111.869 198.059 111.528C198.624 111.187 199.264 111.016 199.979 111.016C200.992 111.016 201.797 111.347 202.395 112.008C202.992 112.669 203.291 113.565 203.291 114.696C203.291 114.909 203.248 115.064 203.163 115.16C203.077 115.256 202.939 115.304 202.747 115.304H197.595C197.691 117.139 198.56 118.056 200.203 118.056C200.619 118.056 200.976 118.003 201.275 117.896C201.573 117.779 201.893 117.624 202.235 117.432C202.512 117.272 202.699 117.192 202.795 117.192ZM199.995 112.024C199.312 112.024 198.763 112.237 198.347 112.664C197.941 113.091 197.701 113.693 197.627 114.472H202.155C202.133 113.683 201.936 113.08 201.563 112.664C201.189 112.237 200.667 112.024 199.995 112.024ZM205.84 119.08C205.584 119.08 205.371 119 205.2 118.84C205.029 118.669 204.944 118.451 204.944 118.184C204.944 117.917 205.029 117.699 205.2 117.528C205.371 117.357 205.584 117.272 205.84 117.272C206.085 117.272 206.288 117.357 206.448 117.528C206.619 117.699 206.704 117.917 206.704 118.184C206.704 118.451 206.619 118.669 206.448 118.84C206.288 119 206.085 119.08 205.84 119.08ZM9.792 135.208C10.4427 135.379 10.944 135.699 11.296 136.168C11.6587 136.637 11.84 137.224 11.84 137.928C11.84 138.92 11.5147 139.683 10.864 140.216C10.2133 140.739 9.29067 141 8.096 141H4.064C3.86133 141 3.696 140.941 3.568 140.824C3.45067 140.707 3.392 140.552 3.392 140.36V130.36C3.392 130.168 3.45067 130.013 3.568 129.896C3.696 129.779 3.86133 129.72 4.064 129.72H7.92C9.08267 129.72 9.984 129.976 10.624 130.488C11.264 131 11.584 131.725 11.584 132.664C11.584 133.272 11.424 133.795 11.104 134.232C10.7947 134.669 10.3573 134.995 9.792 135.208ZM4.688 134.728H7.728C8.57067 134.728 9.20533 134.557 9.632 134.216C10.0693 133.875 10.288 133.379 10.288 132.728C10.288 131.448 9.43467 130.808 7.728 130.808H4.688V134.728ZM7.968 139.912C8.85333 139.912 9.504 139.752 9.92 139.432C10.3467 139.101 10.56 138.589 10.56 137.896C10.56 136.509 9.696 135.816 7.968 135.816H4.688V139.912H7.968ZM19.9013 133.048C20.1039 133.048 20.2586 133.107 20.3653 133.224C20.4826 133.341 20.5413 133.496 20.5413 133.688V140.456C20.5413 140.637 20.4826 140.787 20.3653 140.904C20.2586 141.021 20.1039 141.08 19.9013 141.08C19.7093 141.08 19.5546 141.027 19.4373 140.92C19.3306 140.803 19.2773 140.653 19.2773 140.472V139.672C19.0319 140.141 18.6853 140.499 18.2373 140.744C17.7999 140.989 17.3039 141.112 16.7493 141.112C15.8213 141.112 15.1226 140.856 14.6533 140.344C14.1839 139.821 13.9493 139.053 13.9493 138.04V133.688C13.9493 133.496 14.0079 133.341 14.1253 133.224C14.2426 133.107 14.4026 133.048 14.6053 133.048C14.8079 133.048 14.9626 133.107 15.0693 133.224C15.1866 133.341 15.2453 133.496 15.2453 133.688V138.008C15.2453 138.701 15.3839 139.213 15.6613 139.544C15.9386 139.864 16.3759 140.024 16.9733 140.024C17.6559 140.024 18.2053 139.805 18.6213 139.368C19.0373 138.92 19.2453 138.333 19.2453 137.608V133.688C19.2453 133.496 19.3039 133.341 19.4213 133.224C19.5386 133.107 19.6986 133.048 19.9013 133.048ZM26.55 140.056C26.9233 140.088 27.11 140.259 27.11 140.568C27.11 140.749 27.0407 140.888 26.902 140.984C26.774 141.069 26.5767 141.101 26.31 141.08L25.878 141.048C25.0247 140.984 24.3953 140.728 23.99 140.28C23.5847 139.832 23.382 139.155 23.382 138.248V134.232H22.31C22.1287 134.232 21.9847 134.189 21.878 134.104C21.782 134.008 21.734 133.885 21.734 133.736C21.734 133.576 21.782 133.448 21.878 133.352C21.9847 133.256 22.1287 133.208 22.31 133.208H23.382V131.4C23.382 131.197 23.4407 131.043 23.558 130.936C23.6753 130.819 23.8353 130.76 24.038 130.76C24.23 130.76 24.3847 130.819 24.502 130.936C24.6193 131.043 24.678 131.197 24.678 131.4V133.208H26.454C26.6247 133.208 26.758 133.256 26.854 133.352C26.9607 133.448 27.014 133.576 27.014 133.736C27.014 133.885 26.9607 134.008 26.854 134.104C26.758 134.189 26.6247 134.232 26.454 134.232H24.678V138.312C24.678 138.899 24.7953 139.325 25.03 139.592C25.2753 139.848 25.638 139.992 26.118 140.024L26.55 140.056ZM38.1285 133.448C38.2458 133.192 38.4325 133.064 38.6885 133.064C38.8485 133.064 38.9925 133.117 39.1205 133.224C39.2485 133.331 39.3125 133.464 39.3125 133.624C39.3125 133.72 39.2912 133.805 39.2485 133.88L34.7525 143.576C34.6992 143.693 34.6192 143.784 34.5125 143.848C34.4165 143.912 34.3152 143.944 34.2085 143.944C34.0485 143.944 33.9045 143.891 33.7765 143.784C33.6592 143.688 33.6005 143.56 33.6005 143.4C33.6005 143.315 33.6218 143.229 33.6645 143.144L34.7845 140.728L31.6165 133.88C31.5738 133.805 31.5525 133.725 31.5525 133.64C31.5525 133.48 31.6218 133.341 31.7605 133.224C31.9098 133.107 32.0698 133.048 32.2405 133.048C32.3472 133.048 32.4485 133.08 32.5445 133.144C32.6512 133.208 32.7312 133.299 32.7845 133.416L35.4565 139.416L38.1285 133.448ZM43.8695 141.112C43.1335 141.112 42.4828 140.947 41.9175 140.616C41.3628 140.285 40.9308 139.816 40.6215 139.208C40.3228 138.589 40.1735 137.875 40.1735 137.064C40.1735 136.253 40.3228 135.544 40.6215 134.936C40.9308 134.317 41.3628 133.843 41.9175 133.512C42.4828 133.181 43.1335 133.016 43.8695 133.016C44.6055 133.016 45.2562 133.181 45.8215 133.512C46.3868 133.843 46.8188 134.317 47.1175 134.936C47.4268 135.544 47.5815 136.253 47.5815 137.064C47.5815 137.875 47.4268 138.589 47.1175 139.208C46.8188 139.816 46.3868 140.285 45.8215 140.616C45.2562 140.947 44.6055 141.112 43.8695 141.112ZM43.8695 140.04C44.6375 140.04 45.2242 139.789 45.6295 139.288C46.0455 138.776 46.2535 138.035 46.2535 137.064C46.2535 136.115 46.0455 135.384 45.6295 134.872C45.2135 134.349 44.6268 134.088 43.8695 134.088C43.1122 134.088 42.5255 134.349 42.1095 134.872C41.6935 135.384 41.4855 136.115 41.4855 137.064C41.4855 138.024 41.6882 138.76 42.0935 139.272C42.5095 139.784 43.1015 140.04 43.8695 140.04ZM55.4325 133.048C55.6352 133.048 55.7898 133.107 55.8965 133.224C56.0138 133.341 56.0725 133.496 56.0725 133.688V140.456C56.0725 140.637 56.0138 140.787 55.8965 140.904C55.7898 141.021 55.6352 141.08 55.4325 141.08C55.2405 141.08 55.0858 141.027 54.9685 140.92C54.8618 140.803 54.8085 140.653 54.8085 140.472V139.672C54.5632 140.141 54.2165 140.499 53.7685 140.744C53.3312 140.989 52.8352 141.112 52.2805 141.112C51.3525 141.112 50.6538 140.856 50.1845 140.344C49.7152 139.821 49.4805 139.053 49.4805 138.04V133.688C49.4805 133.496 49.5392 133.341 49.6565 133.224C49.7738 133.107 49.9338 133.048 50.1365 133.048C50.3392 133.048 50.4938 133.107 50.6005 133.224C50.7178 133.341 50.7765 133.496 50.7765 133.688V138.008C50.7765 138.701 50.9152 139.213 51.1925 139.544C51.4698 139.864 51.9072 140.024 52.5045 140.024C53.1872 140.024 53.7365 139.805 54.1525 139.368C54.5685 138.92 54.7765 138.333 54.7765 137.608V133.688C54.7765 133.496 54.8352 133.341 54.9525 133.224C55.0698 133.107 55.2298 133.048 55.4325 133.048ZM65.8223 141.112C65.0969 141.112 64.4516 140.947 63.8863 140.616C63.3316 140.285 62.8996 139.816 62.5903 139.208C62.2916 138.6 62.1423 137.896 62.1423 137.096C62.1423 136.296 62.2969 135.587 62.6063 134.968C62.9263 134.349 63.3689 133.869 63.9343 133.528C64.4996 133.187 65.1503 133.016 65.8863 133.016C66.2916 133.016 66.6916 133.075 67.0863 133.192C67.4916 133.299 67.8436 133.459 68.1423 133.672C68.3343 133.8 68.4676 133.928 68.5423 134.056C68.6276 134.173 68.6703 134.307 68.6703 134.456C68.6703 134.605 68.6276 134.728 68.5423 134.824C68.4676 134.92 68.3663 134.968 68.2383 134.968C68.1636 134.968 68.0836 134.947 67.9983 134.904C67.9129 134.861 67.8383 134.819 67.7743 134.776C67.7209 134.733 67.6836 134.707 67.6623 134.696C67.3849 134.515 67.1183 134.371 66.8623 134.264C66.6169 134.157 66.3129 134.104 65.9503 134.104C65.1716 134.104 64.5636 134.371 64.1263 134.904C63.6996 135.427 63.4863 136.157 63.4863 137.096C63.4863 138.035 63.6996 138.76 64.1263 139.272C64.5636 139.784 65.1716 140.04 65.9503 140.04C66.3129 140.04 66.6223 139.987 66.8783 139.88C67.1449 139.773 67.4116 139.629 67.6783 139.448C67.7956 139.373 67.9076 139.309 68.0143 139.256C68.1209 139.203 68.2116 139.176 68.2863 139.176C68.4036 139.176 68.4996 139.224 68.5743 139.32C68.6596 139.416 68.7023 139.539 68.7023 139.688C68.7023 139.827 68.6649 139.955 68.5903 140.072C68.5156 140.179 68.3769 140.301 68.1743 140.44C67.8756 140.643 67.5129 140.808 67.0863 140.936C66.6703 141.053 66.2489 141.112 65.8223 141.112ZM73.4465 133.016C75.3985 133.016 76.3745 134.04 76.3745 136.088V140.44C76.3745 140.632 76.3158 140.787 76.1985 140.904C76.0918 141.021 75.9425 141.08 75.7505 141.08C75.5585 141.08 75.4038 141.021 75.2865 140.904C75.1692 140.787 75.1105 140.632 75.1105 140.44V139.672C74.9078 140.131 74.5985 140.488 74.1825 140.744C73.7665 140.989 73.2865 141.112 72.7425 141.112C72.2412 141.112 71.7772 141.011 71.3505 140.808C70.9345 140.605 70.6038 140.323 70.3585 139.96C70.1132 139.597 69.9905 139.197 69.9905 138.76C69.9905 138.173 70.1398 137.72 70.4385 137.4C70.7372 137.069 71.2278 136.835 71.9105 136.696C72.5932 136.547 73.5425 136.472 74.7585 136.472H75.1105V135.944C75.1105 135.304 74.9772 134.835 74.7105 134.536C74.4545 134.237 74.0332 134.088 73.4465 134.088C72.7212 134.088 71.9852 134.285 71.2385 134.68C70.9505 134.861 70.7478 134.952 70.6305 134.952C70.5025 134.952 70.3958 134.904 70.3105 134.808C70.2252 134.712 70.1825 134.589 70.1825 134.44C70.1825 134.291 70.2252 134.163 70.3105 134.056C70.4065 133.939 70.5558 133.821 70.7585 133.704C71.1318 133.491 71.5532 133.325 72.0225 133.208C72.5025 133.08 72.9772 133.016 73.4465 133.016ZM72.9185 140.088C73.5585 140.088 74.0812 139.875 74.4865 139.448C74.9025 139.011 75.1105 138.451 75.1105 137.768V137.304H74.8225C73.8838 137.304 73.1692 137.347 72.6785 137.432C72.1878 137.507 71.8358 137.64 71.6225 137.832C71.4198 138.013 71.3185 138.285 71.3185 138.648C71.3185 139.064 71.4678 139.411 71.7665 139.688C72.0758 139.955 72.4598 140.088 72.9185 140.088ZM82.6669 133.016C84.5335 133.016 85.4669 134.045 85.4669 136.104V140.44C85.4669 140.643 85.4082 140.803 85.2909 140.92C85.1842 141.027 85.0295 141.08 84.8269 141.08C84.6242 141.08 84.4642 141.027 84.3469 140.92C84.2295 140.803 84.1709 140.643 84.1709 140.44V136.184C84.1709 135.459 84.0269 134.931 83.7389 134.6C83.4615 134.269 83.0135 134.104 82.3949 134.104C81.6802 134.104 81.1095 134.323 80.6829 134.76C80.2562 135.197 80.0429 135.789 80.0429 136.536V140.44C80.0429 140.643 79.9842 140.803 79.8669 140.92C79.7602 141.027 79.6055 141.08 79.4029 141.08C79.2002 141.08 79.0402 141.027 78.9229 140.92C78.8055 140.803 78.7469 140.643 78.7469 140.44V133.688C78.7469 133.496 78.8055 133.341 78.9229 133.224C79.0402 133.107 79.2002 133.048 79.4029 133.048C79.5949 133.048 79.7442 133.107 79.8509 133.224C79.9682 133.341 80.0269 133.491 80.0269 133.672V134.488C80.2829 134.008 80.6402 133.645 81.0989 133.4C81.5575 133.144 82.0802 133.016 82.6669 133.016ZM92.8296 141C92.627 141 92.4616 140.941 92.3336 140.824C92.2163 140.707 92.1576 140.552 92.1576 140.36V130.36C92.1576 130.168 92.2163 130.013 92.3336 129.896C92.4616 129.779 92.627 129.72 92.8296 129.72H95.9496C97.7523 129.72 99.1443 130.211 100.126 131.192C101.118 132.163 101.614 133.549 101.614 135.352C101.614 137.155 101.118 138.547 100.126 139.528C99.1336 140.509 97.7416 141 95.9496 141H92.8296ZM95.8696 139.88C98.7923 139.88 100.254 138.371 100.254 135.352C100.254 132.344 98.7923 130.84 95.8696 130.84H93.4696V139.88H95.8696ZM114.002 129.64C114.204 129.64 114.359 129.704 114.466 129.832C114.583 129.949 114.642 130.109 114.642 130.312V140.44C114.642 140.632 114.588 140.787 114.482 140.904C114.375 141.021 114.226 141.08 114.034 141.08C113.842 141.08 113.698 141.021 113.602 140.904C113.506 140.787 113.458 140.632 113.458 140.44V132.264L109.986 138.92C109.836 139.229 109.618 139.384 109.33 139.384C109.052 139.384 108.834 139.229 108.674 138.92L105.186 132.344V140.44C105.186 140.632 105.132 140.787 105.026 140.904C104.93 141.021 104.786 141.08 104.594 141.08C104.402 141.08 104.252 141.021 104.146 140.904C104.039 140.787 103.986 140.632 103.986 140.44V130.312C103.986 130.109 104.044 129.949 104.162 129.832C104.279 129.704 104.439 129.64 104.642 129.64C104.908 129.64 105.122 129.795 105.282 130.104L109.346 137.896L113.362 130.104C113.447 129.933 113.538 129.816 113.634 129.752C113.74 129.677 113.863 129.64 114.002 129.64ZM127.628 133.048C127.831 133.048 127.991 133.107 128.108 133.224C128.225 133.341 128.284 133.496 128.284 133.688V143.336C128.284 143.517 128.225 143.667 128.108 143.784C127.991 143.901 127.831 143.96 127.628 143.96C127.425 143.96 127.265 143.901 127.148 143.784C127.041 143.677 126.988 143.528 126.988 143.336V139.576C126.753 140.067 126.407 140.445 125.948 140.712C125.5 140.979 124.972 141.112 124.364 141.112C123.671 141.112 123.063 140.947 122.54 140.616C122.028 140.285 121.628 139.821 121.34 139.224C121.052 138.616 120.908 137.907 120.908 137.096C120.908 136.285 121.052 135.576 121.34 134.968C121.628 134.349 122.033 133.869 122.556 133.528C123.079 133.187 123.681 133.016 124.364 133.016C124.972 133.016 125.5 133.149 125.948 133.416C126.407 133.683 126.753 134.061 126.988 134.552V133.688C126.988 133.496 127.041 133.341 127.148 133.224C127.265 133.107 127.425 133.048 127.628 133.048ZM124.62 140.04C125.377 140.04 125.959 139.784 126.364 139.272C126.78 138.749 126.988 138.013 126.988 137.064C126.988 136.115 126.78 135.384 126.364 134.872C125.959 134.36 125.377 134.104 124.62 134.104C123.863 134.104 123.271 134.371 122.844 134.904C122.428 135.427 122.22 136.157 122.22 137.096C122.22 138.035 122.428 138.76 122.844 139.272C123.271 139.784 123.863 140.04 124.62 140.04ZM136.604 133.048C136.807 133.048 136.962 133.107 137.068 133.224C137.186 133.341 137.244 133.496 137.244 133.688V140.456C137.244 140.637 137.186 140.787 137.068 140.904C136.962 141.021 136.807 141.08 136.604 141.08C136.412 141.08 136.258 141.027 136.14 140.92C136.034 140.803 135.98 140.653 135.98 140.472V139.672C135.735 140.141 135.388 140.499 134.94 140.744C134.503 140.989 134.007 141.112 133.452 141.112C132.524 141.112 131.826 140.856 131.356 140.344C130.887 139.821 130.652 139.053 130.652 138.04V133.688C130.652 133.496 130.711 133.341 130.828 133.224C130.946 133.107 131.106 133.048 131.308 133.048C131.511 133.048 131.666 133.107 131.772 133.224C131.89 133.341 131.948 133.496 131.948 133.688V138.008C131.948 138.701 132.087 139.213 132.364 139.544C132.642 139.864 133.079 140.024 133.676 140.024C134.359 140.024 134.908 139.805 135.324 139.368C135.74 138.92 135.948 138.333 135.948 137.608V133.688C135.948 133.496 136.007 133.341 136.124 133.224C136.242 133.107 136.402 133.048 136.604 133.048ZM145.685 139.192C145.802 139.192 145.904 139.24 145.989 139.336C146.074 139.432 146.117 139.555 146.117 139.704C146.117 139.971 145.93 140.216 145.557 140.44C145.173 140.664 144.768 140.835 144.341 140.952C143.914 141.059 143.498 141.112 143.093 141.112C141.888 141.112 140.933 140.755 140.229 140.04C139.536 139.325 139.189 138.339 139.189 137.08C139.189 136.28 139.344 135.576 139.653 134.968C139.962 134.349 140.394 133.869 140.949 133.528C141.514 133.187 142.154 133.016 142.869 133.016C143.882 133.016 144.688 133.347 145.285 134.008C145.882 134.669 146.181 135.565 146.181 136.696C146.181 136.909 146.138 137.064 146.053 137.16C145.968 137.256 145.829 137.304 145.637 137.304H140.485C140.581 139.139 141.45 140.056 143.093 140.056C143.509 140.056 143.866 140.003 144.165 139.896C144.464 139.779 144.784 139.624 145.125 139.432C145.402 139.272 145.589 139.192 145.685 139.192ZM142.885 134.024C142.202 134.024 141.653 134.237 141.237 134.664C140.832 135.091 140.592 135.693 140.517 136.472H145.045C145.024 135.683 144.826 135.08 144.453 134.664C144.08 134.237 143.557 134.024 142.885 134.024ZM151.947 133.048C152.395 133.016 152.619 133.197 152.619 133.592C152.619 133.763 152.571 133.901 152.475 134.008C152.379 134.104 152.213 134.163 151.979 134.184L151.499 134.232C150.784 134.296 150.251 134.552 149.899 135C149.557 135.437 149.387 135.955 149.387 136.552V140.44C149.387 140.653 149.328 140.813 149.211 140.92C149.093 141.027 148.939 141.08 148.747 141.08C148.555 141.08 148.395 141.027 148.267 140.92C148.149 140.803 148.091 140.643 148.091 140.44V133.688C148.091 133.485 148.155 133.331 148.283 133.224C148.411 133.107 148.565 133.048 148.747 133.048C148.917 133.048 149.061 133.107 149.179 133.224C149.296 133.331 149.355 133.48 149.355 133.672V134.568C149.579 134.099 149.893 133.741 150.299 133.496C150.715 133.251 151.189 133.107 151.723 133.064L151.947 133.048ZM154.387 141.08C154.195 141.08 154.035 141.027 153.907 140.92C153.79 140.803 153.731 140.643 153.731 140.44V133.688C153.731 133.485 153.79 133.331 153.907 133.224C154.035 133.107 154.195 133.048 154.387 133.048C154.579 133.048 154.734 133.107 154.851 133.224C154.969 133.331 155.027 133.485 155.027 133.688V140.44C155.027 140.653 154.969 140.813 154.851 140.92C154.734 141.027 154.579 141.08 154.387 141.08ZM154.387 131.368C154.131 131.368 153.923 131.293 153.763 131.144C153.603 130.995 153.523 130.797 153.523 130.552C153.523 130.317 153.603 130.125 153.763 129.976C153.923 129.827 154.131 129.752 154.387 129.752C154.643 129.752 154.851 129.827 155.011 129.976C155.171 130.125 155.251 130.317 155.251 130.552C155.251 130.797 155.171 130.995 155.011 131.144C154.851 131.293 154.643 131.368 154.387 131.368ZM163.482 139.192C163.599 139.192 163.701 139.24 163.786 139.336C163.871 139.432 163.914 139.555 163.914 139.704C163.914 139.971 163.727 140.216 163.354 140.44C162.97 140.664 162.565 140.835 162.138 140.952C161.711 141.059 161.295 141.112 160.89 141.112C159.685 141.112 158.73 140.755 158.026 140.04C157.333 139.325 156.986 138.339 156.986 137.08C156.986 136.28 157.141 135.576 157.45 134.968C157.759 134.349 158.191 133.869 158.746 133.528C159.311 133.187 159.951 133.016 160.666 133.016C161.679 133.016 162.485 133.347 163.082 134.008C163.679 134.669 163.978 135.565 163.978 136.696C163.978 136.909 163.935 137.064 163.85 137.16C163.765 137.256 163.626 137.304 163.434 137.304H158.282C158.378 139.139 159.247 140.056 160.89 140.056C161.306 140.056 161.663 140.003 161.962 139.896C162.261 139.779 162.581 139.624 162.922 139.432C163.199 139.272 163.386 139.192 163.482 139.192ZM160.682 134.024C159.999 134.024 159.45 134.237 159.034 134.664C158.629 135.091 158.389 135.693 158.314 136.472H162.842C162.821 135.683 162.623 135.08 162.25 134.664C161.877 134.237 161.354 134.024 160.682 134.024ZM168.512 141.112C168.021 141.112 167.552 141.053 167.104 140.936C166.666 140.819 166.277 140.653 165.936 140.44C165.744 140.312 165.605 140.195 165.52 140.088C165.445 139.971 165.408 139.832 165.408 139.672C165.408 139.533 165.445 139.421 165.52 139.336C165.605 139.24 165.712 139.192 165.84 139.192C165.968 139.192 166.154 139.272 166.4 139.432C166.72 139.624 167.034 139.779 167.344 139.896C167.664 140.003 168.058 140.056 168.528 140.056C169.104 140.056 169.552 139.955 169.872 139.752C170.192 139.549 170.352 139.256 170.352 138.872C170.352 138.637 170.293 138.451 170.176 138.312C170.058 138.163 169.856 138.035 169.568 137.928C169.28 137.811 168.858 137.693 168.304 137.576C167.365 137.373 166.693 137.101 166.288 136.76C165.882 136.419 165.68 135.955 165.68 135.368C165.68 134.909 165.808 134.504 166.064 134.152C166.32 133.8 166.672 133.523 167.12 133.32C167.578 133.117 168.096 133.016 168.672 133.016C169.088 133.016 169.488 133.075 169.872 133.192C170.266 133.299 170.613 133.453 170.912 133.656C171.274 133.912 171.456 134.179 171.456 134.456C171.456 134.595 171.413 134.712 171.328 134.808C171.242 134.904 171.141 134.952 171.024 134.952C170.896 134.952 170.704 134.861 170.448 134.68C170.149 134.488 169.866 134.339 169.6 134.232C169.333 134.125 169.002 134.072 168.608 134.072C168.106 134.072 167.701 134.184 167.392 134.408C167.093 134.632 166.944 134.931 166.944 135.304C166.944 135.539 166.997 135.731 167.104 135.88C167.221 136.019 167.408 136.147 167.664 136.264C167.93 136.371 168.309 136.477 168.799 136.584C169.525 136.744 170.085 136.92 170.48 137.112C170.885 137.304 171.173 137.539 171.344 137.816C171.514 138.093 171.6 138.445 171.6 138.872C171.6 139.544 171.317 140.088 170.752 140.504C170.186 140.909 169.44 141.112 168.512 141.112ZM181.3 140.056C181.673 140.088 181.86 140.259 181.86 140.568C181.86 140.749 181.791 140.888 181.652 140.984C181.524 141.069 181.327 141.101 181.06 141.08L180.628 141.048C179.775 140.984 179.145 140.728 178.74 140.28C178.335 139.832 178.132 139.155 178.132 138.248V134.232H177.06C176.879 134.232 176.735 134.189 176.628 134.104C176.532 134.008 176.484 133.885 176.484 133.736C176.484 133.576 176.532 133.448 176.628 133.352C176.735 133.256 176.879 133.208 177.06 133.208H178.132V131.4C178.132 131.197 178.191 131.043 178.308 130.936C178.425 130.819 178.585 130.76 178.788 130.76C178.98 130.76 179.135 130.819 179.252 130.936C179.369 131.043 179.428 131.197 179.428 131.4V133.208H181.204C181.375 133.208 181.508 133.256 181.604 133.352C181.711 133.448 181.764 133.576 181.764 133.736C181.764 133.885 181.711 134.008 181.604 134.104C181.508 134.189 181.375 134.232 181.204 134.232H179.428V138.312C179.428 138.899 179.545 139.325 179.78 139.592C180.025 139.848 180.388 139.992 180.868 140.024L181.3 140.056ZM186.37 141.112C185.634 141.112 184.983 140.947 184.418 140.616C183.863 140.285 183.431 139.816 183.122 139.208C182.823 138.589 182.674 137.875 182.674 137.064C182.674 136.253 182.823 135.544 183.122 134.936C183.431 134.317 183.863 133.843 184.418 133.512C184.983 133.181 185.634 133.016 186.37 133.016C187.106 133.016 187.756 133.181 188.322 133.512C188.887 133.843 189.319 134.317 189.618 134.936C189.927 135.544 190.082 136.253 190.082 137.064C190.082 137.875 189.927 138.589 189.618 139.208C189.319 139.816 188.887 140.285 188.322 140.616C187.756 140.947 187.106 141.112 186.37 141.112ZM186.37 140.04C187.138 140.04 187.724 139.789 188.13 139.288C188.546 138.776 188.754 138.035 188.754 137.064C188.754 136.115 188.546 135.384 188.13 134.872C187.714 134.349 187.127 134.088 186.37 134.088C185.612 134.088 185.026 134.349 184.61 134.872C184.194 135.384 183.986 136.115 183.986 137.064C183.986 138.024 184.188 138.76 184.594 139.272C185.01 139.784 185.602 140.04 186.37 140.04ZM195.245 141.112C194.509 141.112 193.858 140.947 193.293 140.616C192.738 140.285 192.306 139.816 191.997 139.208C191.698 138.589 191.549 137.875 191.549 137.064C191.549 136.253 191.698 135.544 191.997 134.936C192.306 134.317 192.738 133.843 193.293 133.512C193.858 133.181 194.509 133.016 195.245 133.016C195.981 133.016 196.631 133.181 197.197 133.512C197.762 133.843 198.194 134.317 198.493 134.936C198.802 135.544 198.957 136.253 198.957 137.064C198.957 137.875 198.802 138.589 198.493 139.208C198.194 139.816 197.762 140.285 197.197 140.616C196.631 140.947 195.981 141.112 195.245 141.112ZM195.245 140.04C196.013 140.04 196.599 139.789 197.005 139.288C197.421 138.776 197.629 138.035 197.629 137.064C197.629 136.115 197.421 135.384 197.005 134.872C196.589 134.349 196.002 134.088 195.245 134.088C194.487 134.088 193.901 134.349 193.485 134.872C193.069 135.384 192.861 136.115 192.861 137.064C192.861 138.024 193.063 138.76 193.469 139.272C193.885 139.784 194.477 140.04 195.245 140.04ZM201.262 141.08C201.006 141.08 200.793 141 200.622 140.84C200.451 140.669 200.366 140.451 200.366 140.184C200.366 139.917 200.451 139.699 200.622 139.528C200.793 139.357 201.006 139.272 201.262 139.272C201.507 139.272 201.71 139.357 201.87 139.528C202.041 139.699 202.126 139.917 202.126 140.184C202.126 140.451 202.041 140.669 201.87 140.84C201.71 141 201.507 141.08 201.262 141.08Z" fill="#394677"/>
</svg>
