<svg width="212" height="152" viewBox="0 0 212 152" fill="none" xmlns="http://www.w3.org/2000/svg">
<rect width="50" height="50" rx="10" fill="#CCF6C8"/>
<path d="M1.215 71.128H14.607V74.908H9.774V91H5.859V74.908H1.215V71.128ZM24.0262 79.201L26.2402 84.412L28.1842 79.201H31.8562L26.5372 91.702L22.7572 83.872L19.3012 91.702L13.9282 79.201H17.6002L19.7872 84.196L21.4342 80.551L20.8132 79.201H24.0262ZM34.0592 79.201H37.8392V91H34.0592V79.201ZM33.9782 75.016C33.9782 74.458 34.1942 73.999 34.6262 73.639C35.0762 73.279 35.5532 73.099 36.0572 73.099C36.5612 73.099 37.0202 73.279 37.4342 73.639C37.8662 73.999 38.0822 74.458 38.0822 75.016C38.0822 75.574 37.8662 76.033 37.4342 76.393C37.0202 76.735 36.5612 76.906 36.0572 76.906C35.5532 76.906 35.0762 76.735 34.6262 76.393C34.1942 76.033 33.9782 75.574 33.9782 75.016ZM42.8391 74.017H46.6191V79.147H49.4811V82.09H46.6191V91H42.8391V82.09H41.0031V79.147H42.8391V74.017ZM53.4651 74.017H57.2451V79.147H60.1071V82.09H57.2451V91H53.4651V82.09H51.6291V79.147H53.4651V74.017ZM68.789 91.324C67.349 91.324 66.125 91.054 65.117 90.514C64.127 89.974 63.371 89.227 62.849 88.273C62.327 87.319 62.066 86.221 62.066 84.979C62.066 83.791 62.372 82.72 62.984 81.766C63.596 80.812 64.415 80.056 65.441 79.498C66.467 78.922 67.61 78.634 68.87 78.634C70.562 78.634 71.948 79.129 73.028 80.119C74.126 81.091 74.837 82.504 75.161 84.358L66.521 87.112C67.097 87.778 67.88 88.111 68.87 88.111C69.284 88.111 69.68 88.039 70.058 87.895C70.454 87.751 70.841 87.562 71.219 87.328L72.893 90.136C72.263 90.496 71.579 90.784 70.841 91C70.121 91.216 69.437 91.324 68.789 91.324ZM65.792 84.763C65.792 84.853 65.792 84.934 65.792 85.006L70.976 83.251C70.814 82.801 70.553 82.414 70.193 82.09C69.833 81.748 69.293 81.577 68.573 81.577C67.727 81.577 67.052 81.865 66.548 82.441C66.044 83.017 65.792 83.791 65.792 84.763ZM81.3099 79.201L81.6069 81.901C81.9489 81.217 82.4169 80.632 83.0109 80.146C83.6049 79.642 84.1899 79.264 84.7659 79.012C85.3419 78.742 85.7829 78.607 86.0889 78.607L85.8999 82.387C85.0179 82.279 84.2619 82.423 83.6319 82.819C83.0019 83.215 82.5159 83.737 82.1739 84.385C81.8319 85.033 81.6609 85.699 81.6609 86.383V91H77.9079V79.201H81.3099Z" fill="#394677"/>
<path d="M40 12.999C38.83 13.6935 36.4825 14.64 35.1025 14.913C35.062 14.9235 35.029 14.937 34.99 14.9475C33.7705 13.7445 32.0995 12.999 30.25 12.999C26.5225 12.999 23.5 16.0215 23.5 19.749C23.5 19.9455 23.4835 20.307 23.5 20.499C18.4705 20.499 14.6425 17.865 11.8975 14.499C11.599 15.249 11.4685 16.434 11.4685 17.547C11.4685 19.6485 13.111 21.7125 15.6685 22.992C15.1975 23.1135 14.6785 23.2005 14.1385 23.2005C13.267 23.2005 12.3445 22.971 11.5 22.275C11.5 22.3005 11.5 22.3245 11.5 22.3515C11.5 25.2885 14.617 27.288 17.389 27.8445C16.8265 28.176 15.6925 28.209 15.139 28.209C14.749 28.209 13.369 28.0305 13 27.9615C13.771 30.369 16.552 31.722 19.2025 31.77C17.1295 33.396 15.691 33.999 11.446 33.999H10C12.682 35.718 16.0975 37.0005 19.5205 37.0005C30.6655 37.0005 37 28.506 37 20.499C37 20.37 36.997 20.1 36.9925 19.8285C36.9925 19.8015 37 19.776 37 19.749C37 19.7085 36.988 19.6695 36.988 19.629C36.9835 19.425 36.979 19.2345 36.9745 19.1355C38.1595 18.2805 39.187 17.214 40 15.999C38.9125 16.482 37.7455 16.806 36.52 16.953C37.771 16.203 39.5485 14.415 40 12.999Z" fill="#28A41C"/>
<path d="M6.992 124.128C6.192 124.128 5.424 124.011 4.688 123.776C3.96267 123.531 3.38133 123.205 2.944 122.8C2.784 122.651 2.704 122.464 2.704 122.24C2.704 122.091 2.74667 121.963 2.832 121.856C2.91733 121.739 3.01867 121.68 3.136 121.68C3.27467 121.68 3.424 121.739 3.584 121.856C4.576 122.624 5.70667 123.008 6.976 123.008C7.89333 123.008 8.59733 122.832 9.088 122.48C9.57867 122.128 9.824 121.627 9.824 120.976C9.824 120.603 9.70667 120.304 9.472 120.08C9.23733 119.845 8.928 119.659 8.544 119.52C8.16 119.381 7.64267 119.237 6.992 119.088C6.11733 118.885 5.39733 118.672 4.832 118.448C4.27733 118.224 3.824 117.904 3.472 117.488C3.13067 117.072 2.96 116.528 2.96 115.856C2.96 115.216 3.13067 114.651 3.472 114.16C3.824 113.659 4.30933 113.275 4.928 113.008C5.55733 112.731 6.272 112.592 7.072 112.592C7.81867 112.592 8.512 112.709 9.152 112.944C9.80267 113.168 10.3467 113.493 10.784 113.92C10.9547 114.091 11.04 114.277 11.04 114.48C11.04 114.629 10.9973 114.763 10.912 114.88C10.8267 114.987 10.7253 115.04 10.608 115.04C10.4907 115.04 10.336 114.981 10.144 114.864C9.62133 114.437 9.136 114.139 8.688 113.968C8.24 113.797 7.70133 113.712 7.072 113.712C6.18667 113.712 5.49867 113.899 5.008 114.272C4.51733 114.635 4.272 115.147 4.272 115.808C4.272 116.373 4.48533 116.8 4.912 117.088C5.34933 117.365 6.016 117.611 6.912 117.824C7.88267 118.059 8.64533 118.277 9.2 118.48C9.75467 118.672 10.2133 118.965 10.576 119.36C10.9493 119.755 11.136 120.283 11.136 120.944C11.136 121.573 10.96 122.128 10.608 122.608C10.2667 123.088 9.78133 123.461 9.152 123.728C8.52267 123.995 7.80267 124.128 6.992 124.128ZM16.6281 123.056C17.0015 123.088 17.1881 123.259 17.1881 123.568C17.1881 123.749 17.1188 123.888 16.9801 123.984C16.8521 124.069 16.6548 124.101 16.3881 124.08L15.9561 124.048C15.1028 123.984 14.4735 123.728 14.0681 123.28C13.6628 122.832 13.4601 122.155 13.4601 121.248V117.232H12.3881C12.2068 117.232 12.0628 117.189 11.9561 117.104C11.8601 117.008 11.8121 116.885 11.8121 116.736C11.8121 116.576 11.8601 116.448 11.9561 116.352C12.0628 116.256 12.2068 116.208 12.3881 116.208H13.4601V114.4C13.4601 114.197 13.5188 114.043 13.6361 113.936C13.7535 113.819 13.9135 113.76 14.1161 113.76C14.3081 113.76 14.4628 113.819 14.5801 113.936C14.6975 114.043 14.7561 114.197 14.7561 114.4V116.208H16.5321C16.7028 116.208 16.8361 116.256 16.9321 116.352C17.0388 116.448 17.0921 116.576 17.0921 116.736C17.0921 116.885 17.0388 117.008 16.9321 117.104C16.8361 117.189 16.7028 117.232 16.5321 117.232H14.7561V121.312C14.7561 121.899 14.8735 122.325 15.1081 122.592C15.3535 122.848 15.7161 122.992 16.1961 123.024L16.6281 123.056ZM21.6496 116.016C23.6016 116.016 24.5776 117.04 24.5776 119.088V123.44C24.5776 123.632 24.519 123.787 24.4016 123.904C24.295 124.021 24.1456 124.08 23.9536 124.08C23.7616 124.08 23.607 124.021 23.4896 123.904C23.3723 123.787 23.3136 123.632 23.3136 123.44V122.672C23.111 123.131 22.8016 123.488 22.3856 123.744C21.9696 123.989 21.4896 124.112 20.9456 124.112C20.4443 124.112 19.9803 124.011 19.5536 123.808C19.1376 123.605 18.807 123.323 18.5616 122.96C18.3163 122.597 18.1936 122.197 18.1936 121.76C18.1936 121.173 18.343 120.72 18.6416 120.4C18.9403 120.069 19.431 119.835 20.1136 119.696C20.7963 119.547 21.7456 119.472 22.9616 119.472H23.3136V118.944C23.3136 118.304 23.1803 117.835 22.9136 117.536C22.6576 117.237 22.2363 117.088 21.6496 117.088C20.9243 117.088 20.1883 117.285 19.4416 117.68C19.1536 117.861 18.951 117.952 18.8336 117.952C18.7056 117.952 18.599 117.904 18.5136 117.808C18.4283 117.712 18.3856 117.589 18.3856 117.44C18.3856 117.291 18.4283 117.163 18.5136 117.056C18.6096 116.939 18.759 116.821 18.9616 116.704C19.335 116.491 19.7563 116.325 20.2256 116.208C20.7056 116.08 21.1803 116.016 21.6496 116.016ZM21.1216 123.088C21.7616 123.088 22.2843 122.875 22.6896 122.448C23.1056 122.011 23.3136 121.451 23.3136 120.768V120.304H23.0256C22.087 120.304 21.3723 120.347 20.8816 120.432C20.391 120.507 20.039 120.64 19.8256 120.832C19.623 121.013 19.5216 121.285 19.5216 121.648C19.5216 122.064 19.671 122.411 19.9696 122.688C20.279 122.955 20.663 123.088 21.1216 123.088ZM32.566 116.448C32.6833 116.192 32.87 116.064 33.126 116.064C33.286 116.064 33.43 116.117 33.558 116.224C33.686 116.331 33.75 116.464 33.75 116.624C33.75 116.72 33.7287 116.805 33.686 116.88L29.19 126.576C29.1367 126.693 29.0567 126.784 28.95 126.848C28.854 126.912 28.7527 126.944 28.646 126.944C28.486 126.944 28.342 126.891 28.214 126.784C28.0967 126.688 28.038 126.56 28.038 126.4C28.038 126.315 28.0593 126.229 28.102 126.144L29.222 123.728L26.054 116.88C26.0113 116.805 25.99 116.725 25.99 116.64C25.99 116.48 26.0593 116.341 26.198 116.224C26.3473 116.107 26.5073 116.048 26.678 116.048C26.7847 116.048 26.886 116.08 26.982 116.144C27.0887 116.208 27.1687 116.299 27.222 116.416L29.894 122.416L32.566 116.448ZM36.0279 124.08C35.8359 124.08 35.6759 124.027 35.5479 123.92C35.4305 123.803 35.3719 123.643 35.3719 123.44V116.688C35.3719 116.485 35.4305 116.331 35.5479 116.224C35.6759 116.107 35.8359 116.048 36.0279 116.048C36.2199 116.048 36.3745 116.107 36.4919 116.224C36.6092 116.331 36.6679 116.485 36.6679 116.688V123.44C36.6679 123.653 36.6092 123.813 36.4919 123.92C36.3745 124.027 36.2199 124.08 36.0279 124.08ZM36.0279 114.368C35.7719 114.368 35.5639 114.293 35.4039 114.144C35.2439 113.995 35.1639 113.797 35.1639 113.552C35.1639 113.317 35.2439 113.125 35.4039 112.976C35.5639 112.827 35.7719 112.752 36.0279 112.752C36.2839 112.752 36.4919 112.827 36.6519 112.976C36.8119 113.125 36.8919 113.317 36.8919 113.552C36.8919 113.797 36.8119 113.995 36.6519 114.144C36.4919 114.293 36.2839 114.368 36.0279 114.368ZM43.0106 116.016C44.8773 116.016 45.8106 117.045 45.8106 119.104V123.44C45.8106 123.643 45.752 123.803 45.6346 123.92C45.528 124.027 45.3733 124.08 45.1706 124.08C44.968 124.08 44.808 124.027 44.6906 123.92C44.5733 123.803 44.5146 123.643 44.5146 123.44V119.184C44.5146 118.459 44.3706 117.931 44.0826 117.6C43.8053 117.269 43.3573 117.104 42.7386 117.104C42.024 117.104 41.4533 117.323 41.0266 117.76C40.6 118.197 40.3866 118.789 40.3866 119.536V123.44C40.3866 123.643 40.328 123.803 40.2106 123.92C40.104 124.027 39.9493 124.08 39.7466 124.08C39.544 124.08 39.384 124.027 39.2666 123.92C39.1493 123.803 39.0906 123.643 39.0906 123.44V116.688C39.0906 116.496 39.1493 116.341 39.2666 116.224C39.384 116.107 39.544 116.048 39.7466 116.048C39.9386 116.048 40.088 116.107 40.1946 116.224C40.312 116.341 40.3706 116.491 40.3706 116.672V117.488C40.6266 117.008 40.984 116.645 41.4426 116.4C41.9013 116.144 42.424 116.016 43.0106 116.016ZM54.5044 116.048C54.707 116.048 54.867 116.107 54.9844 116.224C55.1017 116.341 55.1604 116.496 55.1604 116.688V123.472C55.1604 124.635 54.8617 125.509 54.2644 126.096C53.667 126.693 52.7817 126.992 51.6084 126.992C50.467 126.992 49.5177 126.768 48.7604 126.32C48.3764 126.107 48.1844 125.861 48.1844 125.584C48.1844 125.435 48.2217 125.312 48.2964 125.216C48.3817 125.12 48.4884 125.072 48.6164 125.072C48.723 125.072 48.915 125.147 49.1924 125.296C49.5657 125.488 49.9337 125.643 50.2964 125.76C50.659 125.877 51.091 125.936 51.5924 125.936C52.3497 125.936 52.9204 125.733 53.3044 125.328C53.6884 124.933 53.8804 124.352 53.8804 123.584V122.208C53.6564 122.709 53.3097 123.093 52.8404 123.36C52.3817 123.627 51.8377 123.76 51.2084 123.76C50.5257 123.76 49.9177 123.6 49.3844 123.28C48.8617 122.96 48.451 122.507 48.1524 121.92C47.8644 121.333 47.7204 120.656 47.7204 119.888C47.7204 119.12 47.8644 118.443 48.1524 117.856C48.451 117.269 48.8617 116.816 49.3844 116.496C49.9177 116.176 50.5257 116.016 51.2084 116.016C51.827 116.016 52.3657 116.149 52.8244 116.416C53.283 116.683 53.6297 117.061 53.8644 117.552V116.688C53.8644 116.496 53.9177 116.341 54.0244 116.224C54.1417 116.107 54.3017 116.048 54.5044 116.048ZM51.4644 122.688C52.211 122.688 52.7977 122.443 53.2244 121.952C53.651 121.451 53.8644 120.763 53.8644 119.888C53.8644 119.024 53.651 118.347 53.2244 117.856C52.8084 117.355 52.2217 117.104 51.4644 117.104C50.707 117.104 50.1097 117.355 49.6724 117.856C49.2457 118.347 49.0324 119.024 49.0324 119.888C49.0324 120.763 49.2457 121.451 49.6724 121.952C50.1097 122.443 50.707 122.688 51.4644 122.688ZM64.8684 116.016C66.8204 116.016 67.7964 117.04 67.7964 119.088V123.44C67.7964 123.632 67.7377 123.787 67.6204 123.904C67.5137 124.021 67.3644 124.08 67.1724 124.08C66.9804 124.08 66.8257 124.021 66.7084 123.904C66.591 123.787 66.5324 123.632 66.5324 123.44V122.672C66.3297 123.131 66.0204 123.488 65.6044 123.744C65.1884 123.989 64.7084 124.112 64.1644 124.112C63.663 124.112 63.199 124.011 62.7724 123.808C62.3564 123.605 62.0257 123.323 61.7804 122.96C61.535 122.597 61.4124 122.197 61.4124 121.76C61.4124 121.173 61.5617 120.72 61.8604 120.4C62.159 120.069 62.6497 119.835 63.3324 119.696C64.015 119.547 64.9644 119.472 66.1804 119.472H66.5324V118.944C66.5324 118.304 66.399 117.835 66.1324 117.536C65.8764 117.237 65.455 117.088 64.8684 117.088C64.143 117.088 63.407 117.285 62.6604 117.68C62.3724 117.861 62.1697 117.952 62.0524 117.952C61.9244 117.952 61.8177 117.904 61.7324 117.808C61.647 117.712 61.6044 117.589 61.6044 117.44C61.6044 117.291 61.647 117.163 61.7324 117.056C61.8284 116.939 61.9777 116.821 62.1804 116.704C62.5537 116.491 62.975 116.325 63.4444 116.208C63.9244 116.08 64.399 116.016 64.8684 116.016ZM64.3404 123.088C64.9804 123.088 65.503 122.875 65.9084 122.448C66.3244 122.011 66.5324 121.451 66.5324 120.768V120.304H66.2444C65.3057 120.304 64.591 120.347 64.1004 120.432C63.6097 120.507 63.2577 120.64 63.0444 120.832C62.8417 121.013 62.7404 121.285 62.7404 121.648C62.7404 122.064 62.8897 122.411 63.1884 122.688C63.4977 122.955 63.8817 123.088 64.3404 123.088ZM80.8248 116.464C80.9314 116.208 81.1074 116.08 81.3528 116.08C81.5128 116.08 81.6568 116.133 81.7848 116.24C81.9128 116.347 81.9768 116.48 81.9768 116.64C81.9768 116.715 81.9608 116.795 81.9288 116.88L79.2728 123.6C79.2088 123.739 79.1128 123.851 78.9848 123.936C78.8674 124.011 78.7341 124.048 78.5848 124.048C78.4461 124.048 78.3128 124.011 78.1848 123.936C78.0674 123.851 77.9768 123.739 77.9128 123.6L75.7048 117.984L73.5128 123.6C73.4594 123.739 73.3688 123.851 73.2408 123.936C73.1128 124.011 72.9741 124.048 72.8248 124.048C72.6861 124.048 72.5528 124.011 72.4248 123.936C72.2968 123.851 72.2008 123.739 72.1368 123.6L69.4808 116.896C69.4488 116.811 69.4328 116.736 69.4328 116.672C69.4328 116.501 69.5021 116.357 69.6408 116.24C69.7901 116.123 69.9501 116.064 70.1208 116.064C70.3768 116.064 70.5581 116.192 70.6648 116.448L72.8568 122.352L75.1128 116.496C75.1768 116.357 75.2621 116.251 75.3688 116.176C75.4861 116.101 75.6088 116.064 75.7368 116.064C75.8754 116.064 75.9981 116.101 76.1048 116.176C76.2221 116.251 76.3074 116.357 76.3608 116.496L78.6168 122.336L80.8248 116.464ZM86.6809 116.016C88.6329 116.016 89.6089 117.04 89.6089 119.088V123.44C89.6089 123.632 89.5502 123.787 89.4329 123.904C89.3262 124.021 89.1769 124.08 88.9849 124.08C88.7929 124.08 88.6382 124.021 88.5209 123.904C88.4035 123.787 88.3449 123.632 88.3449 123.44V122.672C88.1422 123.131 87.8329 123.488 87.4169 123.744C87.0009 123.989 86.5209 124.112 85.9769 124.112C85.4755 124.112 85.0115 124.011 84.5849 123.808C84.1689 123.605 83.8382 123.323 83.5929 122.96C83.3475 122.597 83.2249 122.197 83.2249 121.76C83.2249 121.173 83.3742 120.72 83.6729 120.4C83.9715 120.069 84.4622 119.835 85.1449 119.696C85.8275 119.547 86.7769 119.472 87.9929 119.472H88.3449V118.944C88.3449 118.304 88.2115 117.835 87.9449 117.536C87.6889 117.237 87.2675 117.088 86.6809 117.088C85.9555 117.088 85.2195 117.285 84.4729 117.68C84.1849 117.861 83.9822 117.952 83.8649 117.952C83.7369 117.952 83.6302 117.904 83.5449 117.808C83.4595 117.712 83.4169 117.589 83.4169 117.44C83.4169 117.291 83.4595 117.163 83.5449 117.056C83.6409 116.939 83.7902 116.821 83.9929 116.704C84.3662 116.491 84.7875 116.325 85.2569 116.208C85.7369 116.08 86.2115 116.016 86.6809 116.016ZM86.1529 123.088C86.7929 123.088 87.3155 122.875 87.7209 122.448C88.1369 122.011 88.3449 121.451 88.3449 120.768V120.304H88.0569C87.1182 120.304 86.4035 120.347 85.9129 120.432C85.4222 120.507 85.0702 120.64 84.8569 120.832C84.6542 121.013 84.5529 121.285 84.5529 121.648C84.5529 122.064 84.7022 122.411 85.0009 122.688C85.3102 122.955 85.6942 123.088 86.1529 123.088ZM97.5973 116.448C97.7146 116.192 97.9013 116.064 98.1573 116.064C98.3173 116.064 98.4613 116.117 98.5893 116.224C98.7173 116.331 98.7812 116.464 98.7812 116.624C98.7812 116.72 98.7599 116.805 98.7173 116.88L94.2213 126.576C94.1679 126.693 94.0879 126.784 93.9813 126.848C93.8853 126.912 93.7839 126.944 93.6773 126.944C93.5173 126.944 93.3733 126.891 93.2453 126.784C93.1279 126.688 93.0693 126.56 93.0693 126.4C93.0693 126.315 93.0906 126.229 93.1332 126.144L94.2533 123.728L91.0853 116.88C91.0426 116.805 91.0213 116.725 91.0213 116.64C91.0213 116.48 91.0906 116.341 91.2293 116.224C91.3786 116.107 91.5386 116.048 91.7093 116.048C91.8159 116.048 91.9173 116.08 92.0133 116.144C92.1199 116.208 92.1999 116.299 92.2533 116.416L94.9253 122.416L97.5973 116.448ZM107.765 113.744C107.2 113.787 106.773 113.968 106.485 114.288C106.197 114.597 106.053 115.067 106.053 115.696V116.208H107.829C108.01 116.208 108.149 116.256 108.245 116.352C108.341 116.448 108.389 116.576 108.389 116.736C108.389 116.896 108.341 117.019 108.245 117.104C108.149 117.189 108.01 117.232 107.829 117.232H106.053V123.44C106.053 123.643 105.989 123.803 105.861 123.92C105.744 124.027 105.594 124.08 105.413 124.08C105.221 124.08 105.061 124.027 104.933 123.92C104.816 123.803 104.757 123.643 104.757 123.44V117.232H103.685C103.504 117.232 103.36 117.189 103.253 117.104C103.157 117.008 103.109 116.885 103.109 116.736C103.109 116.576 103.157 116.448 103.253 116.352C103.36 116.256 103.504 116.208 103.685 116.208H104.757V115.92C104.757 114.96 104.997 114.208 105.477 113.664C105.957 113.109 106.645 112.8 107.541 112.736L107.957 112.704C108.234 112.683 108.432 112.709 108.549 112.784C108.677 112.859 108.741 112.992 108.741 113.184C108.741 113.493 108.554 113.669 108.181 113.712L107.765 113.744ZM113.431 116.048C113.879 116.016 114.103 116.197 114.103 116.592C114.103 116.763 114.055 116.901 113.959 117.008C113.863 117.104 113.698 117.163 113.463 117.184L112.983 117.232C112.268 117.296 111.735 117.552 111.383 118C111.042 118.437 110.871 118.955 110.871 119.552V123.44C110.871 123.653 110.812 123.813 110.695 123.92C110.578 124.027 110.423 124.08 110.231 124.08C110.039 124.08 109.879 124.027 109.751 123.92C109.634 123.803 109.575 123.643 109.575 123.44V116.688C109.575 116.485 109.639 116.331 109.767 116.224C109.895 116.107 110.05 116.048 110.231 116.048C110.402 116.048 110.546 116.107 110.663 116.224C110.78 116.331 110.839 116.48 110.839 116.672V117.568C111.063 117.099 111.378 116.741 111.783 116.496C112.199 116.251 112.674 116.107 113.207 116.064L113.431 116.048ZM118.291 124.112C117.555 124.112 116.905 123.947 116.339 123.616C115.785 123.285 115.353 122.816 115.043 122.208C114.745 121.589 114.595 120.875 114.595 120.064C114.595 119.253 114.745 118.544 115.043 117.936C115.353 117.317 115.785 116.843 116.339 116.512C116.905 116.181 117.555 116.016 118.291 116.016C119.027 116.016 119.678 116.181 120.243 116.512C120.809 116.843 121.241 117.317 121.539 117.936C121.849 118.544 122.003 119.253 122.003 120.064C122.003 120.875 121.849 121.589 121.539 122.208C121.241 122.816 120.809 123.285 120.243 123.616C119.678 123.947 119.027 124.112 118.291 124.112ZM118.291 123.04C119.059 123.04 119.646 122.789 120.051 122.288C120.467 121.776 120.675 121.035 120.675 120.064C120.675 119.115 120.467 118.384 120.051 117.872C119.635 117.349 119.049 117.088 118.291 117.088C117.534 117.088 116.947 117.349 116.531 117.872C116.115 118.384 115.907 119.115 115.907 120.064C115.907 121.024 116.11 121.76 116.515 122.272C116.931 122.784 117.523 123.04 118.291 123.04ZM132.606 116.016C134.334 116.016 135.198 117.045 135.198 119.104V123.44C135.198 123.643 135.14 123.803 135.022 123.92C134.905 124.027 134.75 124.08 134.558 124.08C134.366 124.08 134.206 124.027 134.078 123.92C133.961 123.803 133.902 123.643 133.902 123.44V119.136C133.902 118.421 133.774 117.904 133.518 117.584C133.262 117.264 132.862 117.104 132.318 117.104C131.668 117.104 131.156 117.323 130.782 117.76C130.409 118.197 130.222 118.789 130.222 119.536V123.44C130.222 123.643 130.158 123.803 130.03 123.92C129.913 124.027 129.758 124.08 129.566 124.08C129.374 124.08 129.22 124.027 129.102 123.92C128.985 123.803 128.926 123.643 128.926 123.44V119.136C128.926 118.421 128.798 117.904 128.542 117.584C128.286 117.264 127.881 117.104 127.326 117.104C126.686 117.104 126.174 117.323 125.79 117.76C125.417 118.197 125.23 118.789 125.23 119.536V123.44C125.23 123.643 125.172 123.803 125.054 123.92C124.937 124.027 124.782 124.08 124.59 124.08C124.398 124.08 124.238 124.027 124.11 123.92C123.993 123.803 123.934 123.643 123.934 123.44V116.688C123.934 116.496 123.993 116.341 124.11 116.224C124.238 116.107 124.398 116.048 124.59 116.048C124.772 116.048 124.921 116.107 125.038 116.224C125.156 116.331 125.214 116.48 125.214 116.672V117.44C125.449 116.981 125.774 116.629 126.19 116.384C126.606 116.139 127.086 116.016 127.63 116.016C128.846 116.016 129.641 116.528 130.014 117.552C130.238 117.083 130.58 116.709 131.038 116.432C131.497 116.155 132.02 116.016 132.606 116.016ZM145.604 116.016C146.287 116.016 146.89 116.187 147.412 116.528C147.935 116.869 148.34 117.349 148.628 117.968C148.916 118.576 149.06 119.285 149.06 120.096C149.06 120.907 148.916 121.616 148.628 122.224C148.34 122.821 147.935 123.285 147.412 123.616C146.9 123.947 146.298 124.112 145.604 124.112C144.996 124.112 144.463 123.979 144.004 123.712C143.556 123.445 143.215 123.067 142.98 122.576V126.336C142.98 126.528 142.922 126.677 142.804 126.784C142.698 126.901 142.543 126.96 142.34 126.96C142.138 126.96 141.978 126.901 141.86 126.784C141.743 126.667 141.684 126.517 141.684 126.336V116.688C141.684 116.496 141.743 116.341 141.86 116.224C141.978 116.107 142.138 116.048 142.34 116.048C142.543 116.048 142.698 116.107 142.804 116.224C142.922 116.341 142.98 116.496 142.98 116.688V117.552C143.215 117.061 143.556 116.683 144.004 116.416C144.463 116.149 144.996 116.016 145.604 116.016ZM145.348 123.04C146.106 123.04 146.692 122.784 147.108 122.272C147.524 121.76 147.732 121.035 147.732 120.096C147.732 119.157 147.524 118.427 147.108 117.904C146.692 117.371 146.106 117.104 145.348 117.104C144.591 117.104 144.004 117.36 143.588 117.872C143.183 118.384 142.98 119.115 142.98 120.064C142.98 121.013 143.183 121.749 143.588 122.272C144.004 122.784 144.591 123.04 145.348 123.04ZM154.229 124.112C153.493 124.112 152.842 123.947 152.277 123.616C151.722 123.285 151.29 122.816 150.981 122.208C150.682 121.589 150.533 120.875 150.533 120.064C150.533 119.253 150.682 118.544 150.981 117.936C151.29 117.317 151.722 116.843 152.277 116.512C152.842 116.181 153.493 116.016 154.229 116.016C154.965 116.016 155.616 116.181 156.181 116.512C156.746 116.843 157.178 117.317 157.477 117.936C157.786 118.544 157.941 119.253 157.941 120.064C157.941 120.875 157.786 121.589 157.477 122.208C157.178 122.816 156.746 123.285 156.181 123.616C155.616 123.947 154.965 124.112 154.229 124.112ZM154.229 123.04C154.997 123.04 155.584 122.789 155.989 122.288C156.405 121.776 156.613 121.035 156.613 120.064C156.613 119.115 156.405 118.384 155.989 117.872C155.573 117.349 154.986 117.088 154.229 117.088C153.472 117.088 152.885 117.349 152.469 117.872C152.053 118.384 151.845 119.115 151.845 120.064C151.845 121.024 152.048 121.76 152.453 122.272C152.869 122.784 153.461 123.04 154.229 123.04ZM160.528 124.08C160.336 124.08 160.176 124.027 160.048 123.92C159.931 123.803 159.872 123.643 159.872 123.44V113.28C159.872 113.077 159.931 112.923 160.048 112.816C160.176 112.699 160.336 112.64 160.528 112.64C160.709 112.64 160.859 112.699 160.976 112.816C161.104 112.923 161.168 113.077 161.168 113.28V123.44C161.168 123.643 161.104 123.803 160.976 123.92C160.859 124.027 160.709 124.08 160.528 124.08ZM164.247 124.08C164.055 124.08 163.895 124.027 163.767 123.92C163.649 123.803 163.591 123.643 163.591 123.44V116.688C163.591 116.485 163.649 116.331 163.767 116.224C163.895 116.107 164.055 116.048 164.247 116.048C164.439 116.048 164.593 116.107 164.711 116.224C164.828 116.331 164.887 116.485 164.887 116.688V123.44C164.887 123.653 164.828 123.813 164.711 123.92C164.593 124.027 164.439 124.08 164.247 124.08ZM164.247 114.368C163.991 114.368 163.783 114.293 163.623 114.144C163.463 113.995 163.383 113.797 163.383 113.552C163.383 113.317 163.463 113.125 163.623 112.976C163.783 112.827 163.991 112.752 164.247 112.752C164.503 112.752 164.711 112.827 164.871 112.976C165.031 113.125 165.111 113.317 165.111 113.552C165.111 113.797 165.031 113.995 164.871 114.144C164.711 114.293 164.503 114.368 164.247 114.368ZM171.034 123.056C171.408 123.088 171.594 123.259 171.594 123.568C171.594 123.749 171.525 123.888 171.386 123.984C171.258 124.069 171.061 124.101 170.794 124.08L170.362 124.048C169.509 123.984 168.88 123.728 168.474 123.28C168.069 122.832 167.866 122.155 167.866 121.248V117.232H166.794C166.613 117.232 166.469 117.189 166.362 117.104C166.266 117.008 166.218 116.885 166.218 116.736C166.218 116.576 166.266 116.448 166.362 116.352C166.469 116.256 166.613 116.208 166.794 116.208H167.866V114.4C167.866 114.197 167.925 114.043 168.042 113.936C168.16 113.819 168.32 113.76 168.522 113.76C168.714 113.76 168.869 113.819 168.986 113.936C169.104 114.043 169.162 114.197 169.162 114.4V116.208H170.938C171.109 116.208 171.242 116.256 171.338 116.352C171.445 116.448 171.498 116.576 171.498 116.736C171.498 116.885 171.445 117.008 171.338 117.104C171.242 117.189 171.109 117.232 170.938 117.232H169.162V121.312C169.162 121.899 169.28 122.325 169.514 122.592C169.76 122.848 170.122 122.992 170.602 123.024L171.034 123.056ZM173.528 124.08C173.336 124.08 173.176 124.027 173.048 123.92C172.931 123.803 172.872 123.643 172.872 123.44V116.688C172.872 116.485 172.931 116.331 173.048 116.224C173.176 116.107 173.336 116.048 173.528 116.048C173.72 116.048 173.875 116.107 173.992 116.224C174.109 116.331 174.168 116.485 174.168 116.688V123.44C174.168 123.653 174.109 123.813 173.992 123.92C173.875 124.027 173.72 124.08 173.528 124.08ZM173.528 114.368C173.272 114.368 173.064 114.293 172.904 114.144C172.744 113.995 172.664 113.797 172.664 113.552C172.664 113.317 172.744 113.125 172.904 112.976C173.064 112.827 173.272 112.752 173.528 112.752C173.784 112.752 173.992 112.827 174.152 112.976C174.312 113.125 174.392 113.317 174.392 113.552C174.392 113.797 174.312 113.995 174.152 114.144C173.992 114.293 173.784 114.368 173.528 114.368ZM179.807 124.112C179.081 124.112 178.436 123.947 177.871 123.616C177.316 123.285 176.884 122.816 176.575 122.208C176.276 121.6 176.127 120.896 176.127 120.096C176.127 119.296 176.281 118.587 176.591 117.968C176.911 117.349 177.353 116.869 177.919 116.528C178.484 116.187 179.135 116.016 179.871 116.016C180.276 116.016 180.676 116.075 181.071 116.192C181.476 116.299 181.828 116.459 182.127 116.672C182.319 116.8 182.452 116.928 182.527 117.056C182.612 117.173 182.655 117.307 182.655 117.456C182.655 117.605 182.612 117.728 182.527 117.824C182.452 117.92 182.351 117.968 182.223 117.968C182.148 117.968 182.068 117.947 181.983 117.904C181.897 117.861 181.823 117.819 181.759 117.776C181.705 117.733 181.668 117.707 181.647 117.696C181.369 117.515 181.103 117.371 180.847 117.264C180.601 117.157 180.297 117.104 179.935 117.104C179.156 117.104 178.548 117.371 178.111 117.904C177.684 118.427 177.471 119.157 177.471 120.096C177.471 121.035 177.684 121.76 178.111 122.272C178.548 122.784 179.156 123.04 179.935 123.04C180.297 123.04 180.607 122.987 180.863 122.88C181.129 122.773 181.396 122.629 181.663 122.448C181.78 122.373 181.892 122.309 181.999 122.256C182.105 122.203 182.196 122.176 182.271 122.176C182.388 122.176 182.484 122.224 182.559 122.32C182.644 122.416 182.687 122.539 182.687 122.688C182.687 122.827 182.649 122.955 182.575 123.072C182.5 123.179 182.361 123.301 182.159 123.44C181.86 123.643 181.497 123.808 181.071 123.936C180.655 124.053 180.233 124.112 179.807 124.112ZM186.871 124.112C186.38 124.112 185.911 124.053 185.463 123.936C185.026 123.819 184.636 123.653 184.295 123.44C184.103 123.312 183.964 123.195 183.879 123.088C183.804 122.971 183.767 122.832 183.767 122.672C183.767 122.533 183.804 122.421 183.879 122.336C183.964 122.24 184.071 122.192 184.199 122.192C184.327 122.192 184.514 122.272 184.759 122.432C185.079 122.624 185.394 122.779 185.703 122.896C186.023 123.003 186.418 123.056 186.887 123.056C187.463 123.056 187.911 122.955 188.231 122.752C188.551 122.549 188.711 122.256 188.711 121.872C188.711 121.637 188.652 121.451 188.535 121.312C188.418 121.163 188.215 121.035 187.927 120.928C187.639 120.811 187.218 120.693 186.663 120.576C185.724 120.373 185.052 120.101 184.647 119.76C184.242 119.419 184.039 118.955 184.039 118.368C184.039 117.909 184.167 117.504 184.423 117.152C184.679 116.8 185.031 116.523 185.479 116.32C185.938 116.117 186.455 116.016 187.031 116.016C187.447 116.016 187.847 116.075 188.231 116.192C188.626 116.299 188.972 116.453 189.271 116.656C189.634 116.912 189.815 117.179 189.815 117.456C189.815 117.595 189.772 117.712 189.687 117.808C189.602 117.904 189.5 117.952 189.383 117.952C189.255 117.952 189.063 117.861 188.807 117.68C188.508 117.488 188.226 117.339 187.959 117.232C187.692 117.125 187.362 117.072 186.967 117.072C186.466 117.072 186.06 117.184 185.751 117.408C185.452 117.632 185.303 117.931 185.303 118.304C185.303 118.539 185.356 118.731 185.463 118.88C185.58 119.019 185.767 119.147 186.023 119.264C186.29 119.371 186.668 119.477 187.159 119.584C187.884 119.744 188.444 119.92 188.839 120.112C189.244 120.304 189.532 120.539 189.703 120.816C189.874 121.093 189.959 121.445 189.959 121.872C189.959 122.544 189.676 123.088 189.111 123.504C188.546 123.909 187.799 124.112 186.871 124.112ZM192.496 124.08C192.24 124.08 192.027 124 191.856 123.84C191.686 123.669 191.6 123.451 191.6 123.184C191.6 122.917 191.686 122.699 191.856 122.528C192.027 122.357 192.24 122.272 192.496 122.272C192.742 122.272 192.944 122.357 193.104 122.528C193.275 122.699 193.36 122.917 193.36 123.184C193.36 123.451 193.275 123.669 193.104 123.84C192.944 124 192.742 124.08 192.496 124.08ZM2.64 146.08C2.37333 146.101 2.17067 146.064 2.032 145.968C1.89333 145.872 1.824 145.728 1.824 145.536C1.824 145.184 2.02133 145.003 2.416 144.992L2.896 144.96C3.44 144.928 3.84533 144.763 4.112 144.464C4.37867 144.155 4.512 143.664 4.512 142.992V135.312C4.512 135.109 4.576 134.949 4.704 134.832C4.832 134.704 4.98667 134.64 5.168 134.64C5.37067 134.64 5.53067 134.704 5.648 134.832C5.76533 134.949 5.824 135.109 5.824 135.312V143.008C5.824 143.989 5.6 144.731 5.152 145.232C4.704 145.723 4.02667 145.995 3.12 146.048L2.64 146.08ZM14.3388 138.048C14.5414 138.048 14.6961 138.107 14.8028 138.224C14.9201 138.341 14.9788 138.496 14.9788 138.688V145.456C14.9788 145.637 14.9201 145.787 14.8028 145.904C14.6961 146.021 14.5414 146.08 14.3388 146.08C14.1468 146.08 13.9921 146.027 13.8748 145.92C13.7681 145.803 13.7148 145.653 13.7148 145.472V144.672C13.4694 145.141 13.1228 145.499 12.6748 145.744C12.2374 145.989 11.7414 146.112 11.1868 146.112C10.2588 146.112 9.56008 145.856 9.09075 145.344C8.62142 144.821 8.38675 144.053 8.38675 143.04V138.688C8.38675 138.496 8.44542 138.341 8.56275 138.224C8.68008 138.107 8.84008 138.048 9.04275 138.048C9.24542 138.048 9.40008 138.107 9.50675 138.224C9.62408 138.341 9.68275 138.496 9.68275 138.688V143.008C9.68275 143.701 9.82142 144.213 10.0988 144.544C10.3761 144.864 10.8134 145.024 11.4108 145.024C12.0934 145.024 12.6428 144.805 13.0588 144.368C13.4748 143.92 13.6828 143.333 13.6828 142.608V138.688C13.6828 138.496 13.7414 138.341 13.8588 138.224C13.9761 138.107 14.1361 138.048 14.3388 138.048ZM20.0115 146.112C19.5208 146.112 19.0515 146.053 18.6035 145.936C18.1662 145.819 17.7768 145.653 17.4355 145.44C17.2435 145.312 17.1048 145.195 17.0195 145.088C16.9448 144.971 16.9075 144.832 16.9075 144.672C16.9075 144.533 16.9448 144.421 17.0195 144.336C17.1048 144.24 17.2115 144.192 17.3395 144.192C17.4675 144.192 17.6542 144.272 17.8995 144.432C18.2195 144.624 18.5342 144.779 18.8435 144.896C19.1635 145.003 19.5582 145.056 20.0275 145.056C20.6035 145.056 21.0515 144.955 21.3715 144.752C21.6915 144.549 21.8515 144.256 21.8515 143.872C21.8515 143.637 21.7928 143.451 21.6755 143.312C21.5582 143.163 21.3555 143.035 21.0675 142.928C20.7795 142.811 20.3582 142.693 19.8035 142.576C18.8648 142.373 18.1928 142.101 17.7875 141.76C17.3822 141.419 17.1795 140.955 17.1795 140.368C17.1795 139.909 17.3075 139.504 17.5635 139.152C17.8195 138.8 18.1715 138.523 18.6195 138.32C19.0782 138.117 19.5955 138.016 20.1715 138.016C20.5875 138.016 20.9875 138.075 21.3715 138.192C21.7662 138.299 22.1128 138.453 22.4115 138.656C22.7742 138.912 22.9555 139.179 22.9555 139.456C22.9555 139.595 22.9128 139.712 22.8275 139.808C22.7422 139.904 22.6408 139.952 22.5235 139.952C22.3955 139.952 22.2035 139.861 21.9475 139.68C21.6488 139.488 21.3662 139.339 21.0995 139.232C20.8328 139.125 20.5022 139.072 20.1075 139.072C19.6062 139.072 19.2008 139.184 18.8915 139.408C18.5928 139.632 18.4435 139.931 18.4435 140.304C18.4435 140.539 18.4968 140.731 18.6035 140.88C18.7208 141.019 18.9075 141.147 19.1635 141.264C19.4302 141.371 19.8088 141.477 20.2995 141.584C21.0248 141.744 21.5848 141.92 21.9795 142.112C22.3848 142.304 22.6728 142.539 22.8435 142.816C23.0142 143.093 23.0995 143.445 23.0995 143.872C23.0995 144.544 22.8168 145.088 22.2515 145.504C21.6862 145.909 20.9395 146.112 20.0115 146.112ZM28.5969 145.056C28.9702 145.088 29.1569 145.259 29.1569 145.568C29.1569 145.749 29.0875 145.888 28.9489 145.984C28.8209 146.069 28.6235 146.101 28.3569 146.08L27.9249 146.048C27.0715 145.984 26.4422 145.728 26.0369 145.28C25.6315 144.832 25.4289 144.155 25.4289 143.248V139.232H24.3569C24.1755 139.232 24.0315 139.189 23.9249 139.104C23.8289 139.008 23.7809 138.885 23.7809 138.736C23.7809 138.576 23.8289 138.448 23.9249 138.352C24.0315 138.256 24.1755 138.208 24.3569 138.208H25.4289V136.4C25.4289 136.197 25.4875 136.043 25.6049 135.936C25.7222 135.819 25.8822 135.76 26.0849 135.76C26.2769 135.76 26.4315 135.819 26.5489 135.936C26.6662 136.043 26.7249 136.197 26.7249 136.4V138.208H28.5009C28.6715 138.208 28.8049 138.256 28.9009 138.352C29.0075 138.448 29.0609 138.576 29.0609 138.736C29.0609 138.885 29.0075 139.008 28.9009 139.104C28.8049 139.189 28.6715 139.232 28.5009 139.232H26.7249V143.312C26.7249 143.899 26.8422 144.325 27.0769 144.592C27.3222 144.848 27.6849 144.992 28.1649 145.024L28.5969 145.056ZM38.4954 138.016C39.4127 138.016 40.106 138.277 40.5754 138.8C41.0447 139.312 41.2794 140.08 41.2794 141.104V145.44C41.2794 145.643 41.2207 145.803 41.1034 145.92C40.986 146.027 40.8314 146.08 40.6394 146.08C40.4367 146.08 40.2767 146.027 40.1594 145.92C40.042 145.803 39.9834 145.643 39.9834 145.44V141.136C39.9834 140.443 39.8394 139.931 39.5514 139.6C39.274 139.269 38.826 139.104 38.2074 139.104C37.4927 139.104 36.922 139.323 36.4954 139.76C36.0687 140.197 35.8554 140.789 35.8554 141.536V145.44C35.8554 145.643 35.7967 145.803 35.6794 145.92C35.5727 146.027 35.418 146.08 35.2154 146.08C35.0127 146.08 34.8527 146.027 34.7354 145.92C34.618 145.803 34.5594 145.643 34.5594 145.44V135.264C34.5594 135.083 34.618 134.933 34.7354 134.816C34.8634 134.699 35.0234 134.64 35.2154 134.64C35.418 134.64 35.5727 134.699 35.6794 134.816C35.7967 134.923 35.8554 135.072 35.8554 135.264V139.456C36.1114 138.987 36.4687 138.629 36.9274 138.384C37.386 138.139 37.9087 138.016 38.4954 138.016ZM49.6851 144.192C49.8025 144.192 49.9038 144.24 49.9891 144.336C50.0745 144.432 50.1171 144.555 50.1171 144.704C50.1171 144.971 49.9305 145.216 49.5571 145.44C49.1731 145.664 48.7678 145.835 48.3411 145.952C47.9145 146.059 47.4985 146.112 47.0931 146.112C45.8878 146.112 44.9331 145.755 44.2291 145.04C43.5358 144.325 43.1891 143.339 43.1891 142.08C43.1891 141.28 43.3438 140.576 43.6531 139.968C43.9625 139.349 44.3945 138.869 44.9491 138.528C45.5145 138.187 46.1545 138.016 46.8691 138.016C47.8825 138.016 48.6878 138.347 49.2851 139.008C49.8825 139.669 50.1811 140.565 50.1811 141.696C50.1811 141.909 50.1385 142.064 50.0531 142.16C49.9678 142.256 49.8291 142.304 49.6371 142.304H44.4851C44.5811 144.139 45.4505 145.056 47.0931 145.056C47.5091 145.056 47.8665 145.003 48.1651 144.896C48.4638 144.779 48.7838 144.624 49.1251 144.432C49.4025 144.272 49.5891 144.192 49.6851 144.192ZM46.8851 139.024C46.2025 139.024 45.6531 139.237 45.2371 139.664C44.8318 140.091 44.5918 140.693 44.5171 141.472H49.0451C49.0238 140.683 48.8265 140.08 48.4531 139.664C48.0798 139.237 47.5571 139.024 46.8851 139.024ZM55.9466 138.048C56.3946 138.016 56.6186 138.197 56.6186 138.592C56.6186 138.763 56.5706 138.901 56.4746 139.008C56.3786 139.104 56.2133 139.163 55.9786 139.184L55.4986 139.232C54.784 139.296 54.2506 139.552 53.8986 140C53.5573 140.437 53.3866 140.955 53.3866 141.552V145.44C53.3866 145.653 53.328 145.813 53.2106 145.92C53.0933 146.027 52.9386 146.08 52.7466 146.08C52.5546 146.08 52.3946 146.027 52.2666 145.92C52.1493 145.803 52.0906 145.643 52.0906 145.44V138.688C52.0906 138.485 52.1546 138.331 52.2826 138.224C52.4106 138.107 52.5653 138.048 52.7466 138.048C52.9173 138.048 53.0613 138.107 53.1786 138.224C53.296 138.331 53.3546 138.48 53.3546 138.672V139.568C53.5786 139.099 53.8933 138.741 54.2986 138.496C54.7146 138.251 55.1893 138.107 55.7226 138.064L55.9466 138.048ZM63.607 144.192C63.7243 144.192 63.8257 144.24 63.911 144.336C63.9963 144.432 64.039 144.555 64.039 144.704C64.039 144.971 63.8523 145.216 63.479 145.44C63.095 145.664 62.6897 145.835 62.263 145.952C61.8363 146.059 61.4203 146.112 61.015 146.112C59.8097 146.112 58.855 145.755 58.151 145.04C57.4577 144.325 57.111 143.339 57.111 142.08C57.111 141.28 57.2657 140.576 57.575 139.968C57.8843 139.349 58.3163 138.869 58.871 138.528C59.4363 138.187 60.0763 138.016 60.791 138.016C61.8043 138.016 62.6097 138.347 63.207 139.008C63.8043 139.669 64.103 140.565 64.103 141.696C64.103 141.909 64.0603 142.064 63.975 142.16C63.8897 142.256 63.751 142.304 63.559 142.304H58.407C58.503 144.139 59.3723 145.056 61.015 145.056C61.431 145.056 61.7883 145.003 62.087 144.896C62.3857 144.779 62.7057 144.624 63.047 144.432C63.3243 144.272 63.511 144.192 63.607 144.192ZM60.807 139.024C60.1243 139.024 59.575 139.237 59.159 139.664C58.7537 140.091 58.5137 140.693 58.439 141.472H62.967C62.9457 140.683 62.7483 140.08 62.375 139.664C62.0017 139.237 61.479 139.024 60.807 139.024ZM73.5775 135.744C73.0122 135.787 72.5855 135.968 72.2975 136.288C72.0095 136.597 71.8655 137.067 71.8655 137.696V138.208H73.6415C73.8228 138.208 73.9615 138.256 74.0575 138.352C74.1535 138.448 74.2015 138.576 74.2015 138.736C74.2015 138.896 74.1535 139.019 74.0575 139.104C73.9615 139.189 73.8228 139.232 73.6415 139.232H71.8655V145.44C71.8655 145.643 71.8015 145.803 71.6735 145.92C71.5562 146.027 71.4068 146.08 71.2255 146.08C71.0335 146.08 70.8735 146.027 70.7455 145.92C70.6282 145.803 70.5695 145.643 70.5695 145.44V139.232H69.4975C69.3162 139.232 69.1722 139.189 69.0655 139.104C68.9695 139.008 68.9215 138.885 68.9215 138.736C68.9215 138.576 68.9695 138.448 69.0655 138.352C69.1722 138.256 69.3162 138.208 69.4975 138.208H70.5695V137.92C70.5695 136.96 70.8095 136.208 71.2895 135.664C71.7695 135.109 72.4575 134.8 73.3535 134.736L73.7695 134.704C74.0468 134.683 74.2442 134.709 74.3615 134.784C74.4895 134.859 74.5535 134.992 74.5535 135.184C74.5535 135.493 74.3668 135.669 73.9935 135.712L73.5775 135.744ZM78.5414 146.112C77.8054 146.112 77.1547 145.947 76.5894 145.616C76.0347 145.285 75.6027 144.816 75.2934 144.208C74.9947 143.589 74.8454 142.875 74.8454 142.064C74.8454 141.253 74.9947 140.544 75.2934 139.936C75.6027 139.317 76.0347 138.843 76.5894 138.512C77.1547 138.181 77.8054 138.016 78.5414 138.016C79.2774 138.016 79.928 138.181 80.4934 138.512C81.0587 138.843 81.4907 139.317 81.7894 139.936C82.0987 140.544 82.2534 141.253 82.2534 142.064C82.2534 142.875 82.0987 143.589 81.7894 144.208C81.4907 144.816 81.0587 145.285 80.4934 145.616C79.928 145.947 79.2774 146.112 78.5414 146.112ZM78.5414 145.04C79.3094 145.04 79.896 144.789 80.3014 144.288C80.7174 143.776 80.9254 143.035 80.9254 142.064C80.9254 141.115 80.7174 140.384 80.3014 139.872C79.8854 139.349 79.2987 139.088 78.5414 139.088C77.784 139.088 77.1974 139.349 76.7814 139.872C76.3654 140.384 76.1574 141.115 76.1574 142.064C76.1574 143.024 76.36 143.76 76.7654 144.272C77.1814 144.784 77.7734 145.04 78.5414 145.04ZM88.0404 138.048C88.4884 138.016 88.7124 138.197 88.7124 138.592C88.7124 138.763 88.6644 138.901 88.5684 139.008C88.4724 139.104 88.307 139.163 88.0724 139.184L87.5924 139.232C86.8777 139.296 86.3444 139.552 85.9924 140C85.651 140.437 85.4804 140.955 85.4804 141.552V145.44C85.4804 145.653 85.4217 145.813 85.3044 145.92C85.187 146.027 85.0324 146.08 84.8404 146.08C84.6484 146.08 84.4884 146.027 84.3604 145.92C84.243 145.803 84.1844 145.643 84.1844 145.44V138.688C84.1844 138.485 84.2484 138.331 84.3764 138.224C84.5044 138.107 84.659 138.048 84.8404 138.048C85.011 138.048 85.155 138.107 85.2724 138.224C85.3897 138.331 85.4484 138.48 85.4484 138.672V139.568C85.6724 139.099 85.987 138.741 86.3924 138.496C86.8084 138.251 87.283 138.107 87.8164 138.064L88.0404 138.048ZM97.39 135.744C96.8247 135.787 96.398 135.968 96.11 136.288C95.822 136.597 95.678 137.067 95.678 137.696V138.208H97.454C97.6353 138.208 97.774 138.256 97.87 138.352C97.966 138.448 98.014 138.576 98.014 138.736C98.014 138.896 97.966 139.019 97.87 139.104C97.774 139.189 97.6353 139.232 97.454 139.232H95.678V145.44C95.678 145.643 95.614 145.803 95.486 145.92C95.3687 146.027 95.2193 146.08 95.038 146.08C94.846 146.08 94.686 146.027 94.558 145.92C94.4407 145.803 94.382 145.643 94.382 145.44V139.232H93.31C93.1287 139.232 92.9847 139.189 92.878 139.104C92.782 139.008 92.734 138.885 92.734 138.736C92.734 138.576 92.782 138.448 92.878 138.352C92.9847 138.256 93.1287 138.208 93.31 138.208H94.382V137.92C94.382 136.96 94.622 136.208 95.102 135.664C95.582 135.109 96.27 134.8 97.166 134.736L97.582 134.704C97.8593 134.683 98.0567 134.709 98.174 134.784C98.302 134.859 98.366 134.992 98.366 135.184C98.366 135.493 98.1793 135.669 97.806 135.712L97.39 135.744ZM105.12 138.048C105.323 138.048 105.477 138.107 105.584 138.224C105.701 138.341 105.76 138.496 105.76 138.688V145.456C105.76 145.637 105.701 145.787 105.584 145.904C105.477 146.021 105.323 146.08 105.12 146.08C104.928 146.08 104.773 146.027 104.656 145.92C104.549 145.803 104.496 145.653 104.496 145.472V144.672C104.251 145.141 103.904 145.499 103.456 145.744C103.019 145.989 102.523 146.112 101.968 146.112C101.04 146.112 100.341 145.856 99.872 145.344C99.4027 144.821 99.168 144.053 99.168 143.04V138.688C99.168 138.496 99.2267 138.341 99.344 138.224C99.4613 138.107 99.6213 138.048 99.824 138.048C100.027 138.048 100.181 138.107 100.288 138.224C100.405 138.341 100.464 138.496 100.464 138.688V143.008C100.464 143.701 100.603 144.213 100.88 144.544C101.157 144.864 101.595 145.024 102.192 145.024C102.875 145.024 103.424 144.805 103.84 144.368C104.256 143.92 104.464 143.333 104.464 142.608V138.688C104.464 138.496 104.523 138.341 104.64 138.224C104.757 138.107 104.917 138.048 105.12 138.048ZM112.089 138.016C113.955 138.016 114.889 139.045 114.889 141.104V145.44C114.889 145.643 114.83 145.803 114.713 145.92C114.606 146.027 114.451 146.08 114.249 146.08C114.046 146.08 113.886 146.027 113.769 145.92C113.651 145.803 113.593 145.643 113.593 145.44V141.184C113.593 140.459 113.449 139.931 113.161 139.6C112.883 139.269 112.435 139.104 111.817 139.104C111.102 139.104 110.531 139.323 110.105 139.76C109.678 140.197 109.465 140.789 109.465 141.536V145.44C109.465 145.643 109.406 145.803 109.289 145.92C109.182 146.027 109.027 146.08 108.825 146.08C108.622 146.08 108.462 146.027 108.345 145.92C108.227 145.803 108.169 145.643 108.169 145.44V138.688C108.169 138.496 108.227 138.341 108.345 138.224C108.462 138.107 108.622 138.048 108.825 138.048C109.017 138.048 109.166 138.107 109.273 138.224C109.39 138.341 109.449 138.491 109.449 138.672V139.488C109.705 139.008 110.062 138.645 110.521 138.4C110.979 138.144 111.502 138.016 112.089 138.016ZM117.903 146.08C117.647 146.08 117.433 146 117.263 145.84C117.092 145.669 117.007 145.451 117.007 145.184C117.007 144.917 117.092 144.699 117.263 144.528C117.433 144.357 117.647 144.272 117.903 144.272C118.148 144.272 118.351 144.357 118.511 144.528C118.681 144.699 118.767 144.917 118.767 145.184C118.767 145.451 118.681 145.669 118.511 145.84C118.351 146 118.148 146.08 117.903 146.08Z" fill="#394677"/>
</svg>
