<svg width="43" height="42" viewBox="0 0 43 42" fill="none" xmlns="http://www.w3.org/2000/svg">
<g clip-path="url(#clip0)">
<path d="M8.06938 16.4006C9.54846 15.4398 10.3291 13.873 9.68057 12.1511C7.77679 8.38684 2.15557 11.4595 3.55208 15.161C4.2196 16.9303 6.59369 17.3582 8.06938 16.4006ZM4.49653 12.2526C4.4567 12.4264 4.48645 12.5381 4.58597 12.5234C4.71529 12.5034 4.91917 12.2345 5.04018 11.9093C5.09351 11.7689 5.13782 11.6452 5.17028 11.5456C5.50092 11.3238 5.89806 11.183 6.34305 11.1647C6.91909 11.1414 7.43936 11.3534 7.87333 11.69C7.64664 11.7365 7.41183 11.9682 7.28628 12.3051C7.10039 12.8035 7.16377 13.3868 7.36673 13.6609C7.4868 13.8237 7.59123 14.0018 7.67584 14.1941C7.69794 14.2444 7.71509 14.2944 7.7297 14.3455C7.75476 14.4314 7.95337 14.0375 8.17314 13.466C8.19815 13.4017 8.22243 13.3371 8.24721 13.2723C8.38546 12.9147 8.43727 12.5025 8.38724 12.1877C8.55517 12.3918 8.69882 12.6151 8.8151 12.845C8.94679 13.1953 9.01028 13.5544 9.01303 13.902C8.94389 14.0408 8.86405 14.2256 8.78094 14.4414C8.67845 14.7082 8.57579 14.9732 8.4751 15.2386C8.42929 15.3574 8.39218 15.4658 8.36073 15.5651C8.00906 15.9015 7.52031 16.1232 6.88881 16.1484C5.78599 16.1927 4.87995 15.386 4.41654 14.4676C4.03454 13.7108 4.11154 12.8878 4.49653 12.2526Z" fill="#3392E9"/>
<path d="M34.3239 19.0049C35.9809 18.1663 36.8472 16.3782 36.1744 14.5943C34.243 10.7756 28.4898 13.5386 29.9581 17.4321C30.5915 19.1116 32.7742 19.7884 34.3239 19.0049ZM32.1758 13.6843C32.4025 13.5979 32.6309 13.5707 32.8579 13.569C32.658 13.6872 32.4622 13.9169 32.357 14.183C32.2001 14.5779 32.297 14.9386 32.5556 15.0405C32.8142 15.1423 33.1456 14.8893 33.3174 14.4249C33.4382 14.0992 33.4343 13.786 33.3288 13.615C33.8728 13.7324 34.3755 14.0436 34.7584 14.4608C34.5603 14.5116 34.3507 14.7389 34.2238 15.0782C34.02 15.6239 33.9264 16.1684 34.0022 16.3022C34.0484 16.3824 34.0898 16.4654 34.1277 16.5516C34.265 16.8637 34.3392 17.1866 34.3582 17.5077C34.3909 18.053 34.4334 18.0258 34.6598 17.4568C34.8033 17.0975 34.9472 16.7374 35.0908 16.3757C35.2021 16.0959 35.2994 15.8339 35.3689 15.6325C35.5958 16.7676 35.1635 17.8887 33.9578 18.3434C32.7428 18.8017 31.4456 17.9691 30.9106 16.9113C30.282 15.6683 30.9011 14.1652 32.1758 13.6843Z" fill="#3392E9"/>
<path d="M14.2833 37.9828C15.779 41.9484 21.8994 38.8924 20.4739 35.1127C20.4689 35.0986 20.4559 35.0952 20.4493 35.083C20.445 35.0703 20.4494 35.0557 20.4433 35.0432C18.5484 31.2962 12.8724 34.2416 14.2833 37.9828ZM19.7522 36.607C19.6694 36.7065 19.5767 36.8757 19.4887 37.1106C19.3474 37.4889 19.2092 37.8616 19.0724 38.2295C19.0269 38.3519 18.9924 38.4621 18.9659 38.5628C18.7379 38.7413 18.4621 38.8826 18.1272 38.9694C16.9971 39.2612 15.9075 38.5426 15.3202 37.6399C14.4782 36.3429 15.1357 34.5141 16.6289 34.1279C16.7697 34.0914 16.9081 34.0753 17.0447 34.0679C16.9895 34.1861 16.8855 34.4329 16.7674 34.7247C16.6034 35.13 16.4814 35.461 16.4951 35.4647C16.5106 35.4682 16.6531 35.1396 16.8157 34.7313C16.9325 34.4352 17.0279 34.1825 17.0675 34.0646C17.6994 34.0361 18.2903 34.2958 18.7659 34.7037C18.6097 34.8057 18.4388 35.0699 18.3286 35.4224C18.1545 35.9738 18.1316 36.5551 18.2499 36.7386C18.3215 36.8476 18.3856 36.963 18.4398 37.0863C18.4512 37.1122 18.4591 37.1384 18.4661 37.1638C18.4783 37.2068 18.6636 36.7759 18.8788 36.2021C18.896 36.1558 18.9131 36.1095 18.9303 36.0632C19.064 35.7076 19.1313 35.3333 19.1207 35.06C19.2933 35.2609 19.4439 35.4793 19.5622 35.7083C19.668 36.0039 19.7325 36.3074 19.7522 36.607Z" fill="#3392E9"/>
<path d="M14.2192 33.605C16.2991 30.8463 20.5733 31.5018 21.5845 34.5904C21.6476 34.7819 21.8468 34.7475 22.001 34.7015C24.4922 33.9568 26.5245 32.6787 28.3045 30.7884C28.4441 30.6404 28.5678 30.397 28.3695 30.2505C26.8586 29.1387 25.3483 28.0268 23.8367 26.9148C23.688 26.8052 23.386 26.9792 23.2783 27.0732C22.7886 27.557 22.2319 27.9382 21.6122 28.2229C18.7474 29.2828 16.0193 28.4413 14.1338 26.0802C14.0473 25.9717 13.8629 25.9971 13.7531 26.0448C12.0274 26.7949 10.3038 27.5454 8.57816 28.2955C8.34987 28.3947 7.90737 28.7256 8.09346 29.0247C9.4489 31.2108 11.1869 32.8004 13.4667 33.9706C13.7369 34.1085 14.0771 33.7928 14.2192 33.605ZM9.38093 29.0064C9.29136 28.9047 9.20488 28.821 9.12355 28.7587C9.23169 28.725 9.35464 28.6782 9.49289 28.618C9.53348 28.6001 9.5743 28.5828 9.6149 28.5649C9.51732 28.6763 9.4357 28.7964 9.39717 28.9084C9.38385 28.947 9.38448 28.9746 9.38093 29.0064ZM9.55278 29.2167C9.59737 29.2134 9.64773 29.204 9.70609 29.1783C9.96917 29.0632 10.2669 28.7542 10.3742 28.4846C10.4191 28.3692 10.4119 28.2882 10.3761 28.2343C11.1094 27.9159 11.843 27.5968 12.5759 27.2774C13.1372 27.0335 13.6406 27.2705 14.1282 27.641C15.082 28.3649 16.8016 29.2958 16.9406 29.3267C17.2929 29.4061 17.6344 29.4569 17.9694 29.49C17.7189 29.5827 17.4699 29.8085 17.3438 30.1026C17.1706 30.5047 17.3053 30.8494 17.6449 30.8381C17.9838 30.8265 18.3861 30.4896 18.5444 30.1238C18.66 29.8579 18.6156 29.6345 18.4601 29.5219C19.0918 29.5425 19.7081 29.484 20.3314 29.3424C20.1743 29.4727 20.0204 29.6585 19.9337 29.8578C19.7993 30.1677 19.7591 30.3931 19.8454 30.3606C19.898 30.3411 19.9491 30.321 20.0008 30.2982C20.0998 30.2547 20.1969 30.2083 20.2919 30.1599C20.4502 30.0793 20.6665 29.7916 20.7787 29.5278C20.8397 29.3841 20.8374 29.2797 20.7918 29.2216C21.0318 29.153 21.2736 29.0763 21.5206 28.9852C21.553 28.9734 21.5836 28.9563 21.6135 28.9376C21.6245 28.9322 21.6319 28.9326 21.6436 28.9262C21.7952 28.848 22.1908 28.5922 22.5569 28.3506C22.5012 28.4496 22.4452 28.5566 22.3964 28.6659C22.2672 28.9614 22.2143 29.239 22.2799 29.2877C22.3461 29.3361 22.5303 29.0322 22.6909 28.6096C22.7605 28.4264 22.8059 28.2792 22.8325 28.1676C23.0976 27.991 23.3012 27.8536 23.3029 27.8546C23.5473 28.0342 23.7914 28.2133 24.0353 28.3931C23.9244 28.5127 23.7797 28.7744 23.6498 29.1193C23.4574 29.6279 23.3668 30.0869 23.4456 30.1449C23.5254 30.2024 23.7567 29.8469 23.9624 29.3494C24.1021 29.0117 24.1824 28.7027 24.1936 28.5106C24.5869 28.8003 24.9805 29.0892 25.3741 29.3794C25.8409 29.7234 26.3083 30.0671 26.7759 30.4113C26.5796 30.4704 26.3841 30.7006 26.2708 31.0502C26.1241 31.5042 26.0748 31.9153 26.134 32.0746C25.0146 32.7779 23.4477 33.4963 22.9958 33.6709C22.0772 34.0253 21.7752 32.6834 21.0979 32.0444C20.3414 31.3312 19.3181 31.0964 18.331 30.9547C16.7055 30.7238 15.2608 31.5768 14.173 32.6974C14.0182 32.8564 13.9047 32.999 13.8308 33.1132C13.7317 32.9775 13.5229 32.8072 13.2354 32.6314C11.7784 31.7371 10.5854 30.6278 9.58135 29.2514C9.57082 29.2384 9.5614 29.228 9.55278 29.2167Z" fill="#3392E9"/>
<path d="M24.4914 25.4341C24.4904 25.4678 24.9054 25.7873 25.3981 26.1502C26.6222 27.0519 27.846 27.9532 29.0704 28.8542C29.3207 29.039 29.8372 28.4647 29.9323 28.2775C30.7003 26.7604 31.1626 25.2616 31.3889 23.583C31.5367 22.4859 31.4184 21.3757 31.2636 20.2888C31.2631 20.2848 29.6788 19.3187 29.3651 19.0394C28.0911 17.9016 27.9959 15.989 28.3929 14.4546C28.4767 14.1288 27.3573 13.3149 27.1607 13.1379C25.6692 11.7894 23.7392 11.0135 21.8177 10.5391C21.5553 10.474 20.9976 10.9507 20.9844 11.2085C20.883 13.1077 20.7824 15.0089 20.6812 16.9085C20.6801 16.9321 20.6936 16.9449 20.7177 16.9488C20.7246 16.9603 20.7251 16.9765 20.7402 16.9819C23.8189 18.2748 25.3787 21.1541 24.7894 24.3054C24.6767 24.9068 24.4923 25.4004 24.4914 25.4341ZM25.6434 23.7547C25.6604 23.6557 25.6773 23.555 25.6943 23.4561C25.7963 22.8522 25.9092 21.8589 25.7836 21.2594C25.6748 20.7422 25.492 20.2388 25.3134 19.7432C24.7057 18.0536 23.1554 16.9417 21.5754 16.2662C21.6557 14.7512 21.7369 13.2341 21.8167 11.7181C21.8213 11.6295 21.8216 11.5488 21.8187 11.472C21.9058 11.5118 22.0002 11.5502 22.1082 11.585C22.2457 11.6305 22.3762 11.6876 22.5116 11.7364C22.3524 11.844 22.185 12.0679 22.0741 12.3638C21.906 12.8132 21.9256 13.2377 22.1135 13.3179C22.302 13.3979 22.5983 13.0955 22.7783 12.636C22.8958 12.3372 22.9215 12.057 22.8757 11.873C23.7713 12.2264 24.6192 12.6655 25.4302 13.2094C25.2488 13.2898 25.058 13.5155 24.9327 13.8323C24.7361 14.33 24.7759 14.8788 25.0133 15.0729C25.2498 15.2663 25.5914 15.0075 25.7858 14.4842C25.9103 14.1477 25.9435 13.7951 25.8901 13.5401C26.0242 13.6385 26.1621 13.7262 26.2943 13.8298C26.6146 14.0801 26.8288 14.3729 26.9812 14.6917C26.8565 14.8102 26.7316 15.0068 26.6356 15.2635C26.431 15.8077 26.2924 16.2787 26.3281 16.3145C26.3631 16.35 26.2082 16.85 26.1494 17.4597C26.1236 17.7163 26.1207 17.9768 26.1399 18.2379C26.1852 18.8491 26.5339 18.8622 26.7602 18.2933C26.85 18.0666 26.9404 17.8397 27.0308 17.6128C27.1616 17.2851 27.2722 16.8785 27.3587 16.5037C27.4079 17.1568 27.4398 17.8253 27.64 18.4374C27.8067 18.9485 28.0886 19.3248 28.4112 19.6492C28.2929 19.7685 28.148 20.0242 28.0183 20.3599C27.8077 20.9056 27.7309 21.433 27.854 21.5284C27.9771 21.6238 28.2421 21.2735 28.4397 20.7547C28.569 20.4168 28.6344 20.0919 28.6381 19.8649C29.1572 20.3288 29.7351 20.7063 30.1208 21.2719C30.0443 21.4285 29.9608 21.6185 29.8812 21.8273C29.8411 21.9316 29.8015 22.0356 29.7615 22.1404C29.5425 22.7122 29.4185 23.6528 29.4264 24.2447C29.434 24.8361 29.5768 24.8539 29.8046 24.2855C29.9666 23.8799 30.1298 23.4731 30.2934 23.0656C30.3828 22.8422 30.4622 22.5971 30.5239 22.3616C30.5317 22.4206 30.5433 22.476 30.5479 22.5388C30.6765 24.3301 30.2425 26.097 29.5423 27.7338C29.514 27.8002 29.4894 27.8613 29.4668 27.9203C29.3708 27.7845 29.2267 27.6401 29.0422 27.5044C28.1329 26.8349 27.2236 26.1653 26.3143 25.4958C25.8214 25.1312 25.5392 24.3577 25.6434 23.7547Z" fill="#3392E9"/>
<path d="M7.44906 26.6899C9.17317 25.9404 10.8958 25.1905 12.6209 24.4406C12.6871 24.4121 12.75 24.365 12.8056 24.3097C12.9983 24.1667 13.1565 23.9591 13.1272 23.7715C12.5798 20.2142 14.6942 17.1429 18.3753 16.687C18.6522 16.6529 18.9952 16.3863 19.0111 16.0892C19.1104 14.2195 19.211 12.3516 19.3102 10.4831C19.3215 10.2776 19.1642 10.2051 18.9834 10.2138C16.3224 10.3482 14.0147 11.1091 11.8071 12.5975C11.5987 12.7377 11.3857 12.9337 11.4243 13.2099C11.7655 15.6211 10.7173 17.6988 7.83146 18.0999C7.57555 18.1349 7.30307 18.3402 7.22028 18.5898C6.34343 21.2596 6.26872 23.8362 7.00874 26.548C7.05886 26.7349 7.29762 26.7559 7.44906 26.6899ZM7.80245 24.821C7.68402 22.9204 6.60916 19.0937 8.31676 18.856C8.48448 18.8325 8.64674 18.7938 8.80622 18.7461C8.7817 18.8005 8.75721 18.8591 8.733 18.9225C8.64762 19.1441 8.74275 19.2034 8.92689 19.0328C9.08002 18.8921 9.21901 18.6959 9.28797 18.5608C10.0485 18.2135 10.7078 17.6333 11.2732 17.0448C12.0171 16.27 12.3004 15.2041 12.4705 14.1838C12.5844 13.4941 12.4868 13.2131 12.7252 12.918C12.7249 12.9187 12.7236 12.9199 12.7236 12.9211C12.6402 13.1613 12.9173 13.2017 13.3589 13.0492C13.7993 12.8966 14.2602 12.5564 14.377 12.2549C14.4045 12.1852 14.4182 12.1241 14.4261 12.0691C15.2704 11.8255 16.464 11.5057 17.312 11.2538C17.4538 11.2113 17.585 11.1984 17.7032 11.2082C17.6084 11.3329 17.5158 11.4996 17.4468 11.6814C17.3088 12.0492 17.2103 12.3469 17.2277 12.3453C17.2452 12.3437 17.2467 12.5689 17.2328 12.847C17.2171 13.1252 17.4081 12.8971 17.6568 12.3376C17.7078 12.2237 17.7581 12.1095 17.8089 11.9963C17.9237 11.7369 18.0004 11.5039 18.0354 11.3274C18.2081 11.4555 18.3038 11.6787 18.2878 11.9837C18.2285 13.0933 18.1699 14.2032 18.1105 15.3129C18.0961 15.5815 18.1112 15.7977 18.1474 15.9459C18.0072 15.9452 17.8202 15.9706 17.5985 16.0269C14.0381 16.9513 11.7524 20.104 12.1354 23.8711C10.9546 24.3851 9.77331 24.8981 8.59148 25.4126C8.02891 25.6565 7.84011 25.4325 7.80245 24.821Z" fill="#3392E9"/>
<path d="M14.937 30.2031C14.909 30.273 14.9341 30.3492 14.9914 30.3749C15.0499 30.4006 15.2501 30.046 15.4379 29.5849C15.6259 29.1242 15.7325 28.7279 15.6781 28.6991C15.6236 28.6704 15.4472 28.966 15.2838 29.3613C15.1832 29.6036 15.0849 29.8425 14.9882 30.0771C14.9718 30.117 14.9543 30.1598 14.937 30.2031Z" fill="#3392E9"/>
<path d="M25.0378 30.8736C25.0406 30.8675 25.0436 30.8607 25.0444 30.8556C25.0484 30.8453 25.0161 30.9219 24.9744 31.0269C24.9328 31.1318 24.9318 31.1407 24.9693 31.0455C24.9924 30.9893 25.0148 30.9315 25.0378 30.8736Z" fill="#3392E9"/>
<path d="M15.3516 29.9937C15.4328 29.7902 15.514 29.5891 15.5943 29.389C15.7299 29.0544 15.8313 28.7796 15.8231 28.7747C15.8139 28.7703 15.683 29.0799 15.5333 29.4679C15.3293 29.9926 15.247 30.2214 15.3516 29.9937Z" fill="#3392E9"/>
<path d="M14.296 28.9287C14.4979 28.4322 14.627 28 14.5811 27.9632C14.5365 27.9265 14.3181 28.2933 14.0922 28.7821C13.8659 29.2712 13.7361 29.7044 13.8049 29.748C13.8735 29.7911 14.0934 29.4249 14.296 28.9287Z" fill="#3392E9"/>
</g>
<defs>
<clipPath id="clip0">
<rect width="31.5168" height="31.5168" fill="white" transform="translate(42.4792 28.9257) rotate(156.253)"/>
</clipPath>
</defs>
</svg>
