<svg width="33" height="32" viewBox="0 0 33 32" fill="none" xmlns="http://www.w3.org/2000/svg">
<path d="M17.6014 2.60436C17.2981 2.70986 17.0615 2.93172 16.9329 3.23146L11.4562 13.3657C11.361 13.5402 11.425 13.7596 11.5995 13.8548C11.6923 13.9056 11.7982 13.9107 11.8907 13.8786C11.9723 13.8502 12.0436 13.7923 12.0884 13.7108L17.5751 3.55821C17.5811 3.54698 17.5866 3.53509 17.5913 3.52353C17.6518 3.3752 17.7588 3.31117 17.8377 3.28373C18.0376 3.21419 18.2965 3.29285 18.3841 3.5448L20.237 8.8715L16.3973 14.6225L16.4 14.6238L16.1891 14.9398C16.0788 15.1051 16.1236 15.3283 16.2889 15.4389C16.3867 15.504 16.5044 15.515 16.6074 15.4792C16.6789 15.4544 16.7433 15.4067 16.7886 15.3387L20.5343 9.72397L23.6276 18.6124L6.32128 13.022C5.68344 12.8265 4.95148 13.0968 4.5461 13.6692C4.3338 13.9695 3.85967 14.862 3.81991 14.9395C3.57687 15.3267 3.51486 15.7992 3.64999 16.2359C3.7849 16.673 4.10234 17.0274 4.52278 17.2105L24.8314 25.9382C25.1183 26.0934 25.4421 26.1211 25.745 26.0157C25.9674 25.9383 26.1645 25.7869 26.3067 25.591L30.3831 21.6739C31.1108 21.101 31.397 20.1328 31.0952 19.2651L25.9858 4.57665C25.684 3.70893 24.859 3.12731 23.9682 3.1315L18.3052 2.58809C18.0724 2.5227 17.8238 2.52701 17.6014 2.60436ZM19.0921 3.38638L23.9344 3.84974C24.5536 3.84817 25.1048 4.23551 25.3058 4.8132L30.4151 19.5016C30.6161 20.0793 30.4246 20.7251 29.9113 21.1308L26.4283 24.4767L24.5438 19.059L20.9767 8.80851C20.9762 8.80715 20.9771 8.80543 20.9766 8.80407L19.0921 3.38638ZM24.0145 4.93629C23.9207 4.96893 23.871 5.07159 23.9037 5.16543L26.8605 13.6658C26.8932 13.7597 26.9958 13.8094 27.0897 13.7767C27.1835 13.7441 27.2332 13.6414 27.2005 13.5476L24.2437 5.04716C24.211 4.95332 24.1084 4.90365 24.0145 4.93629ZM5.60701 13.7208C5.77158 13.6636 5.94594 13.6593 6.10517 13.7083L23.9227 19.4649L25.7756 24.7916C25.8631 25.0432 25.709 25.2659 25.5091 25.3354C25.4302 25.3629 25.3066 25.3791 25.1671 25.3003C25.1558 25.294 25.1443 25.2887 25.1322 25.2834L4.80882 16.5497C4.58245 16.4512 4.41099 16.2595 4.33767 16.0235C4.26458 15.7871 4.29847 15.5322 4.44322 15.2996C4.582 15.0368 4.97647 14.307 5.13366 14.085C5.25473 13.9137 5.42306 13.7848 5.60701 13.7208ZM8.14321 19.73C8.05494 19.7563 7.97659 19.8172 7.92935 19.9049L7.67919 20.3671L7.67495 20.3656L6.42444 22.6796C6.20892 23.0823 6.17996 23.5584 6.34535 23.9845C6.51052 24.4112 6.85251 24.7432 7.259 24.8861C7.36309 24.9323 8.28885 25.3374 8.64178 25.4414C8.98578 25.5417 9.35294 25.535 9.67731 25.4222C9.98775 25.3142 10.2499 25.1162 10.4378 24.8435L12.4669 21.812C12.5771 21.6467 12.5322 21.4232 12.367 21.313C12.2008 21.2023 11.9778 21.2466 11.8677 21.4122L9.84196 24.4381C9.63546 24.7374 9.22495 24.8616 8.84426 24.7501C8.58322 24.6736 7.82025 24.3457 7.52335 24.2165C7.29025 24.1337 7.10593 23.9543 7.01617 23.7237C6.92722 23.4931 6.94246 23.2368 7.05817 23.0204L8.56265 20.2466C8.65703 20.072 8.59285 19.853 8.41754 19.7589C8.32988 19.7112 8.23149 19.7036 8.14321 19.73ZM27.3262 14.4568C27.2324 14.4894 27.1827 14.5921 27.2153 14.6859L27.6884 16.046C27.7211 16.1398 27.8237 16.1895 27.9176 16.1568C28.0114 16.1242 28.0611 16.0215 28.0285 15.9277L27.5554 14.5676C27.5227 14.4738 27.4201 14.4241 27.3262 14.4568ZM28.0359 16.4968C27.942 16.5295 27.8924 16.6322 27.925 16.726L28.0433 17.066C28.0759 17.1599 28.1786 17.2095 28.2724 17.1769C28.3663 17.1442 28.4159 17.0416 28.3833 16.9477L28.265 16.6077C28.2324 16.5139 28.1297 16.4642 28.0359 16.4968ZM28.509 17.8569C28.4151 17.8896 28.3654 17.9922 28.3981 18.0861L29.0782 20.0412C29.1108 20.135 29.2135 20.1847 29.3073 20.152C29.4012 20.1194 29.4508 20.0167 29.4182 19.9229L28.7381 17.9678C28.7055 17.8739 28.6028 17.8243 28.509 17.8569Z" fill="#399BEB"/>
</svg>
